/* XPM */
static char *c896b23eb5564b71948ad0c917a0a1adEGGB0KW2Qe96hqBJ[] = {
/* columns rows colors chars-per-pixel */
"32 32 203 2 ",
"   c None",
".  c #F02278",
"X  c #F12278",
"o  c #F3257C",
"O  c #F6267D",
"+  c #FB257F",
"@  c #CB3C8E",
"#  c #DA3587",
"$  c #DB338A",
"%  c #E92A80",
"&  c #EF2B87",
"*  c #E82E8A",
"=  c #F72787",
"-  c #FA2680",
";  c #F22881",
":  c #FB2788",
">  c #F8298F",
",  c #E43183",
"<  c #E03285",
"1  c #E4308F",
"2  c #F92B92",
"3  c #FA2B98",
"4  c #E33493",
"5  c #E63194",
"6  c #E13494",
"7  c #E23897",
"8  c #E23699",
"9  c #E5369B",
"0  c #EB3298",
"q  c #E93598",
"w  c #E93499",
"e  c #E93599",
"r  c #D53FA0",
"t  c #EB36A1",
"y  c #EA37A6",
"u  c #EC37A5",
"i  c #E13FA7",
"p  c #E938A2",
"a  c #E33FAD",
"s  c #EB3AAD",
"d  c #F831A4",
"f  c #F43AAC",
"g  c #EB3BB0",
"h  c #EC3FB7",
"j  c #F23DB0",
"k  c #CF47AC",
"l  c #E244AD",
"z  c #E348AF",
"x  c #E04EB3",
"c  c #E548B4",
"v  c #EA44BB",
"b  c #ED44BF",
"n  c #E44BB8",
"m  c #E54DB8",
"M  c #F546BE",
"N  c #E456BB",
"B  c #E55ABC",
"V  c #E65BBF",
"C  c #F34ECA",
"Z  c #ED5DC6",
"A  c #ED53CA",
"S  c #F556C6",
"D  c #F651CD",
"F  c #F156CC",
"G  c #F15CCF",
"H  c #EE5DD0",
"J  c #FF51D5",
"K  c #F457D8",
"L  c #E866C1",
"P  c #EA6BC4",
"I  c #ED65CC",
"U  c #EF74C9",
"Y  c #F977C7",
"T  c #EE6ED4",
"R  c #F26BD7",
"E  c #F260D8",
"W  c #F567DF",
"Q  c #FB74DF",
"!  c #F75FE0",
"~  c #F858E0",
"^  c #F95EE8",
"/  c #F665E3",
"(  c #FF60E6",
")  c #FA68E7",
"_  c #FB66EC",
"`  c #FE6EE8",
"'  c #FB6DEE",
"]  c #F670E1",
"[  c #F870E7",
"{  c #FA70EA",
"}  c #FF77ED",
"|  c #FC6EF0",
" . c #FD6EF4",
".. c #FF75F5",
"X. c #FF7EF2",
"o. c #FF7FF4",
"O. c #2DC1F6",
"+. c #2DC1F7",
"@. c #2FC2F6",
"#. c #37C2F7",
"$. c #36C4F7",
"%. c #37C4F7",
"&. c #39C4F7",
"*. c #3BC4F7",
"=. c #3DC4F7",
"-. c #3DC5F7",
";. c #3EC5F7",
":. c #41C6F7",
">. c #41C7F7",
",. c #42C7F7",
"<. c #43C7F7",
"1. c #44C6F7",
"2. c #48C7F7",
"3. c #45C8F7",
"4. c #47C8F7",
"5. c #47C9F7",
"6. c #49C8F7",
"7. c #49C9F7",
"8. c #4AC9F7",
"9. c #4BC9F7",
"0. c #4DC9F7",
"q. c #4DCAF7",
"w. c #45C9F8",
"e. c #47CAF8",
"r. c #45CEFA",
"t. c #4BCAF8",
"y. c #4CCAF8",
"u. c #4DCBF8",
"i. c #4FCAF8",
"p. c #4FCBF8",
"a. c #4BCCF9",
"s. c #48CEFA",
"d. c #48CFFB",
"f. c #4BCFFB",
"g. c #4ECDF9",
"h. c #4DCEFA",
"j. c #4CCFFA",
"k. c #51CBF8",
"l. c #52CBF8",
"z. c #51CCF8",
"x. c #50CDF8",
"c. c #51CDF8",
"v. c #52CCF8",
"b. c #54CCF8",
"n. c #55CCF8",
"m. c #55CDF8",
"M. c #56CCF8",
"N. c #56CDF8",
"B. c #57CDF8",
"V. c #58CDF8",
"C. c #5ACDF8",
"Z. c #58CEF8",
"A. c #59CEF8",
"S. c #5ACEF8",
"D. c #5BCEF8",
"F. c #5ACEF9",
"G. c #5CCEF8",
"H. c #5DCFF8",
"J. c #5ECFF9",
"K. c #5FCFF9",
"L. c #57D1FB",
"P. c #54D3FB",
"I. c #51D3FC",
"U. c #53D2FC",
"Y. c #58D1FB",
"T. c #5DD4FC",
"R. c #60D0F8",
"E. c #60D0F9",
"W. c #61D0F9",
"Q. c #61D1F9",
"!. c #62D0F8",
"~. c #62D1F8",
"^. c #62D1F9",
"/. c #63D1F9",
"(. c #65D1F9",
"). c #65D2F9",
"_. c #65D3F9",
"`. c #66D2F9",
"'. c #67D2F9",
"]. c #67D4FA",
"[. c #67D5FB",
"{. c #68D2F9",
"}. c #68D3F9",
"|. c #69D3F9",
" X c #6AD2F9",
".X c #6BD3F9",
"XX c #68D3FA",
"oX c #6DD4F9",
"OX c #71D5F9",
"+X c #75D7FA",
"@X c #79D7F9",
"#X c #74D8FB",
"$X c #E880DD",
"%X c #CB8CE2",
"&X c #E98AE6",
"*X c #FD82E1",
"=X c #FF82EB",
"-X c #FF89EF",
";X c #FF8AF2",
":X c #FF8CF3",
">X c #FF8BF4",
",X c #8BDDFB",
"<X c #8DDDFA",
/* pixels */
"                                                                ",
"                                                                ",
"                        OXF.8.-.  :.q.n.                        ",
"                                          n./.                  ",
"                <X      M.q.*.      -.OX      F.B.              ",
"              '.    /.#.  :.f.f.f.j.e.%.          '.            ",
"            /.  B.:.  F.                T.    /.8.  {.          ",
"          {.  H.O.2.U.      @ < , #         {.  v.    /.        ",
"        /.  H.O.k.      ; - o .   . O + $     ].  B.            ",
"            /.:.      : %               & =     ].  '.  /.      ",
"      /.      L.    2       5 e e e 5     * >     j.  8.        ",
"      k.    @X    3     6 u 4       9 y     0 8   U.  F.  /.    ",
"                r t     s             7 g     d     /.    oX    ",
"    t.          f     h                 a i   p k       p.      ",
"    q.          b     v                         j       F.      ",
"    8.          z   l c                         M       Z.      ",
"    :.  {.          n m                         C       v.  {.  ",
"    8.  v.      F   x A                   V     D       B.  :.  ",
"    8.  F.      J     ~                 V K   N S       t.      ",
"    3.  v.      G Z   H E               ^     !           >.    ",
"          :.#X    (     / W           _ I   L )       '.  F.    ",
"          F.$.    T `     R | [ ] { ' P      .            v.    ",
"          :.%.B.    Q }         U         ..Y           T.      ",
"        ,X  T.  /.    $Xo.*X          =XX.              k.      ",
"          F.  '.  H.      &X;X>X:X>X-X%X              .X        ",
"            p.  '.  1.Y.                L.#X        oX          ",
"              v.  B.p.  ;.j.f.    r.j.e.          }.            ",
"                '.    B.k.&.          /.        }.              ",
"                  H.B.        p.8.p.        '.                  ",
"                        H.8.B.        {.F.                      ",
"                                                                ",
"                                                                "
};
