/* XPM */
static char *_d5c48b3a6bf49dbe8eb54a72c37fd7eYvs3HnVnwNb0GF2b[] = {
/* columns rows colors chars-per-pixel */
"64 64 187 2 ",
"   c None",
".  c #F5267B",
"X  c #F2287D",
"o  c #DF3B94",
"O  c #DC3F99",
"+  c #ED2C84",
"@  c #ED2C8C",
"#  c #F12983",
"$  c #F02A88",
"%  c #E63187",
"&  c #E93087",
"*  c #E9308C",
"=  c #E5338E",
"-  c #EE2D93",
";  c #EE2E9B",
":  c #E53693",
">  c #EA3193",
",  c #E63699",
"<  c #EB329B",
"1  c #E33B9C",
"2  c #E83B9C",
"3  c #E03A94",
"4  c #EE2FA0",
"5  c #EE31A4",
"6  c #E53CA5",
"7  c #E83AA7",
"8  c #EE33AA",
"9  c #EB3CAE",
"0  c #F035A5",
"q  c #EF36B3",
"w  c #ED3AB5",
"e  c #EE3FBC",
"r  c #F135B4",
"t  c #F139BD",
"y  c #DD429C",
"u  c #E6409F",
"i  c #DD43A0",
"p  c #DE4CAA",
"a  c #DB48A2",
"s  c #E344AC",
"d  c #E24BAE",
"f  c #EB41AA",
"g  c #E746B4",
"h  c #E942B4",
"j  c #EB46BC",
"k  c #E756BE",
"l  c #E55ABA",
"z  c #E85BBF",
"x  c #F15BBC",
"c  c #E663BE",
"v  c #F23BC2",
"b  c #F23FC8",
"n  c #EC4BC2",
"m  c #F042C4",
"M  c #F244CB",
"N  c #F04BCB",
"B  c #EC54C4",
"V  c #EF54CC",
"C  c #EE5CCB",
"Z  c #EA58C3",
"A  c #F353CE",
"S  c #F85FC9",
"D  c #F546D4",
"F  c #F44BD3",
"G  c #F64CD9",
"H  c #F84BDD",
"J  c #F257D6",
"K  c #F15BD2",
"L  c #F554DA",
"P  c #F55CDC",
"I  c #E661C0",
"U  c #EA63C5",
"Y  c #EB6DC5",
"T  c #EE66CC",
"R  c #ED6BCA",
"E  c #F868C6",
"W  c #ED78C7",
"Q  c #EE72CA",
"!  c #F57BCB",
"~  c #F26ED2",
"^  c #F362D9",
"/  c #F46BDB",
"(  c #FC69D8",
")  c #F375D6",
"_  c #FF7ED6",
"`  c #F571DC",
"'  c #FF76DC",
"]  c #F97DD6",
"[  c #F94FE1",
"{  c #F753E1",
"}  c #F953E3",
"|  c #F95BE5",
" . c #FA56E8",
".. c #FA5CEB",
"X. c #FC5FF0",
"o. c #F766E2",
"O. c #F962E6",
"+. c #F769E1",
"@. c #FC6BE4",
"#. c #FA62EC",
"$. c #FA6BEB",
"%. c #F771E2",
"&. c #FF72E3",
"*. c #FB74EE",
"=. c #FD7AEB",
"-. c #F97BE4",
";. c #FC65F1",
":. c #FD6BF5",
">. c #FE6FF8",
",. c #FC73F1",
"<. c #FF7BF3",
"1. c #FE73FA",
"2. c #FF7EFD",
"3. c #25BDF6",
"4. c #2EC1F6",
"5. c #35C3F6",
"6. c #3DC5F7",
"7. c #43C7F7",
"8. c #49C7F7",
"9. c #45C8F7",
"0. c #4BC9F7",
"q. c #4DCAF8",
"w. c #51CBF7",
"e. c #54CCF8",
"r. c #5CCEF8",
"t. c #5ED0F8",
"y. c #60CFF8",
"u. c #64D1F8",
"i. c #6BD3F9",
"p. c #73D5F9",
"a. c #79D7F9",
"s. c #7DD8F9",
"d. c #F386CF",
"f. c #F683D3",
"g. c #FD82DE",
"h. c #FD83E3",
"j. c #FF89EE",
"k. c #FC81ED",
"l. c #FE85F3",
"z. c #FF8CF6",
"x. c #FF83FC",
"c. c #FF8CFD",
"v. c #FF90FD",
"b. c #84DAFA",
"n. c #8CDDFA",
"m. c #91DEFA",
"M. c #94DFFB",
"N. c #97DFFB",
"B. c #94DFFA",
"V. c #97E0FB",
"C. c #96E0FB",
"Z. c #99E1FB",
"A. c #9AE1FB",
"S. c #9EE2FB",
"D. c #9BE1FB",
"F. c #A1E3FB",
"G. c #A7E5FB",
"H. c #A5E4FB",
"J. c #A4E4FB",
"K. c #A9E5FB",
"L. c #AFE7FC",
"P. c #ACE6FC",
"I. c #AAE5FC",
"U. c #AFE8FC",
"Y. c #B0E7FC",
"T. c #B2E7FC",
"R. c #B2E8FC",
"E. c #B4E9FC",
"W. c #B6E9FC",
"Q. c #B4E9FC",
"!. c #BAEBFC",
"~. c #B8EAFC",
"^. c #BEEBFC",
"/. c #BDECFC",
"(. c #BBEBFC",
"). c #C1ECFD",
"_. c #C3EDFD",
"`. c #C2EDFD",
"'. c #CEF0FD",
"]. c #D6F3FD",
"[. c #DBF4FE",
"{. c #E3F6FE",
"}. c #E5F8FE",
"|. c #EDFAFE",
" X c #FEFFFF",
".X c white",
"XX c #F3FBFF",
/* pixels */
"                                                                                                                                ",
"                                                                                                                                ",
"                                                                                                                                ",
"                                                                                                                                ",
"                                                  w.e.b.Z.H.H.S.S.S.F.I.S.n.u.                                                  ",
"                                                E..Xs.e.                  8.p.Z.I.B.                                            ",
"                                                                                  w.N.Y.i.                                      ",
"                                                          e.i.p.b.a.i.u.7.              b.E.i.                                  ",
"                                  [.              p.S.I.N.s.y.r.e.e.r.p.n.J.J.P.S.          B.Q.                                ",
"                                ).E.        r.K.J.u.                          S.!.              !.p.                            ",
"                            i.!.        y.E.B.            5.e.u.u.u.e.5.                          Z.S.                          ",
"                          b.H.        K.Z.        8.n.G.G.B.b.i.u.p.b.V.K.H.b.6.                    p.E.                        ",
"                        n.V.      y./.8.      p.Q.B.w.                      r.Z.Y.i.          E.7.    y.!.                      ",
"                      a.S.      n.K.      p.!.p.                                  b.!.r.      ]._.      y.Q.                    ",
"                    t.L.      V.n.      E.n.                                          S.H.      e./.      p.S.                  ",
"                    ).      n.n.    r.).              . . . X X X X X X . .             r.).7.    w./.      V.p.                ",
"                  !.6.    a.Z.    p.Q.            . # + + + + + + + + + + + # .             ).w.    e.E.      ^.                ",
"                p.b.    r.P.    i.I.          X $ + + +                   & + @ + #           ).q.    a.B.    6.P.              ",
"                !.      .X8.  e.E.          $ @ @ &                           % @ @ $           ).      K.e.    V.t.            ",
"              n.u.      i.  3.).          @ - @                                   = @ - +         /.      /.      !.            ",
"              E.            P.9.        - - =             = > > > < = >             = - - @       p.n.    p.s.    n.u.          ",
"            s.i.          i.n.        - ; >           , < ; ; < < - ; ; - <           : ; -         Q.      (.      P.          ",
"            Q.            .X        - 4 <         O < < < , 3       o : < < < ,         , 4 -         I.    p.p.    F.          ",
"            Z.            S.        < 5         1 4 4 <                   , 5 5 <         < 0 >       J.7.    Y.    w.b.        ",
"          b.r.                    < 0 2       y 5 5 1                       O 5 8 2         8 4       0.B.    Z.6.  5.XX        ",
"          H.                      8 8         8 8 6                           y 8 8 i       7 8 ,       ].0.  r.b.    ^.        ",
"          K.                    6 r 6       7 q 7                               6 q 9       i 8 0       [.n.    F.              ",
"          V.                    9 r a       w q                                   9 r         w r               K.              ",
"        t.a.                    w w       d t 9                                     s         f t u             V.              ",
"        a.t.                    v h       h v p                                               d v f             b.e.            ",
"        a.0.                  p v g       e v                                                 d v g             p.u.            ",
"        n.                      d         m m                                                   M j             t.i.            ",
"        V.9.  e.).                        M m                                                   M n             y.i.    _.      ",
"        s.0.  t.}.                        M M                                                   D n             u.i.    |.      ",
"        a.w.    Z.              N k       N F                                                 l D n             s.r.    G.      ",
"        i.i.    I.              G N       V H k                                     F B       Z H Z             n.7.    Z.      ",
"        0.b.    J.              G L       z [ A                                   Z [ V       A H l             F.    9.m.      ",
"          S.    b.w.            A } I       L } c                                 L } c       L L               I.    i.i.      ",
"          I.    e.b.            x  .K       C ..J                               C ..J       U  .K               C.    B.        ",
"          V.w.    K.    [.        | |         P ..K                           U ..| c       P ..Y             n.r.    P.        ",
"          (.}.    J.4.  ].u.      S ..^         | #.^                       T #.#.T       R ..P               .Xe.    S.        ",
"                  r.n.  5.I.        O.;.R       Y #.;.O.R                 ^ ;.;.T         #.;.Y               u.    s.u.        ",
"                    E.    S.q.      E :.$.          o.:.:.$./ R Q Q ~ +.:.:.$.R         +.:./                       Q.          ",
"                    i.b.    (.        ( >.$.          ) $.,.>.>.>.>.>.1.$./           +.>.$.                      r.n.          ",
"                      !.    i.B.        @.1.,.W           Q ) ` +.%.` Q             %.1.,.                        Y.            ",
"                a.    0.K.    H.u.        &.2.<.)                               ! *.2.,.!                       r.Z.            ",
"                .Xp.    N.i.    !.0.        ' 2.x.=.]                         -.x.x.=.                          !.              ",
"                  E.      (.7.    /.e.        ] <.x.c.l.h.f.          f.g.k.c.c.x.]                           n.p.              ",
"                  p.n.      ).5.    E.p.          _ l.c.v.v.c.z.z.z.c.v.v.c.l.g.                            9.E.                ",
"                    I.u.      ).5.    Z.H.            d.g.j.z.v.v.v.z.z.h.f.                                _.                  ",
"                      ).7.      ).9.    r.^.p.                                      |.                    !.0.                  ",
"                        ).        !.p.      s.Q.s.                              n.Q.H.                  Q.u.                    ",
"                          ).9.      B.P.        i.J.H.b.w.              r.b.K.S.r.                    E.i.                      ",
"                            ).u.      8.E.n.          r.b.N.J.I.I.I.J.V.s.0.                        ).r.                        ",
"                              K.N.        u.E.N.7.                            5.                u./.                            ",
"                                p.!.w.        0.N.K.n.r.                  q.b..XP.            J.F.                              ",
"                                    H.J.            8.a.Z.F.H.S.Z.S.J.H.S.b.e.8.          b.!.e.                                ",
"                                      q.I.S.0.                                        n.Y.p.                                    ",
"                                            N.P.n.8.                          5.p.H.F.u.                                        ",
"                                                e.n.K.S.).'.              '.|.V.i.                                              ",
"                                                        p.Z.                                                                    ",
"                                                                                                                                ",
"                                                                                                                                ",
"                                                                                                                                "
};
