/* XPM */
static char *_21d6be54a05449fe823faf03404b14fvQLwIvqky57BloM4[] = {
/* columns rows colors chars-per-pixel */
"16 16 39 1 ",
"  c None",
". c #EB1F74",
"X c #DF3693",
"o c #E32A87",
"O c #E32C89",
"+ c #E42D8C",
"@ c #E13695",
"# c #BB4399",
"$ c #BC44A0",
"% c #DF40A4",
"& c #E14BB2",
"* c #E757BA",
"= c #E559BD",
"- c #FF69BC",
"; c #E96AC1",
": c #EC69C5",
"> c #EE69CB",
", c #FB76C6",
"< c #E57FDD",
"1 c #3BC7F7",
"2 c #3FC6F7",
"3 c #37C7F8",
"4 c #37C7F9",
"5 c #3AC6F8",
"6 c #3AC7F8",
"7 c #3BC7F8",
"8 c #33CBFA",
"9 c #3AC8F8",
"0 c #3BC9F9",
"q c #38CBF8",
"w c #3BCAF9",
"e c #3ECAFA",
"r c #39CDFC",
"t c #3CD0FE",
"y c #42CBFA",
"u c #B899E7",
"i c #B19AE9",
"p c #90A2EE",
"a c #C184E1",
/* pixels */
"                ",
"                ",
"      r  t      ",
"   9e       2   ",
"   y  .   #  7  ",
"       Oo+ $ 4  ",
"    @     X     ",
"     %          ",
"     &        8 ",
"    *     =   4 ",
"      :; > -    ",
"   e a,   <     ",
"   99  iup      ",
"    19   9      ",
"                ",
"                "
};
