<?xml version="1.0" encoding="utf-8"?>
<!-- Generator: Adobe Illustrator 25.1.0, SVG Export Plug-In . SVG Version: 6.00 Build 0)  -->
<svg version="1.1" id="Layer_1" xmlns="http://www.w3.org/2000/svg" xmlns:xlink="http://www.w3.org/1999/xlink" x="0px" y="0px"
	 viewBox="0 0 24 24" style="enable-background:new 0 0 24 24;" xml:space="preserve">
<style type="text/css">
	.st0{fill:url(#SVGID_1_);}
	.st1{fill:#B6B6B6;}
</style>
<g>
	
		<linearGradient id="SVGID_1_" gradientUnits="userSpaceOnUse" x1="22.3223" y1="7.8126" x2="41.357" y2="7.8126" gradientTransform="matrix(0.7071 -0.7071 0.7071 0.7071 -12.1576 24.6622)">
		<stop  offset="1.040000e-02" style="stop-color:#B6B6B6;stop-opacity:0"/>
		<stop  offset="0.513" style="stop-color:#B6B6B6"/>
	</linearGradient>
	<path class="st0" d="M1.9,5.3l20-4.6c0.6-0.1,1.1,0.4,1,1l-4.6,20c-0.1,0.6-1,1-1.4,0.6l-1.6-1.6c-0.4-0.4-0.7-1-0.4-1.6l2.8-12.5
		C18,6,17.5,5.6,16.9,5.7L4.5,8.6C3.9,8.7,3.2,8.5,2.8,8.1L1.2,6.5C0.8,6.1,1.3,5.3,1.9,5.3z"/>
	<path class="st1" d="M7.2,12.6l3.7,3.7c0.4,0.4,1.2,0.2,1.4-0.6l1.1-4.5c0.1-0.6-0.5-1.2-1-1l-4.5,1.1C7.2,11.3,6.8,12.1,7.2,12.6z
		"/>
</g>
</svg>
