<?xml version="1.0" encoding="utf-8"?>
<!-- Generator: Adobe Illustrator 25.1.0, SVG Export Plug-In . SVG Version: 6.00 Build 0)  -->
<svg version="1.1" id="Layer_1" xmlns="http://www.w3.org/2000/svg" xmlns:xlink="http://www.w3.org/1999/xlink" x="0px" y="0px"
	 viewBox="0 0 24 24" style="enable-background:new 0 0 24 24;" xml:space="preserve">
<style type="text/css">
	.st0{fill:url(#SVGID_1_);}
	.st1{fill:#B6B6B6;}
</style>
<g>
	
		<linearGradient id="SVGID_1_" gradientUnits="userSpaceOnUse" x1="21.99" y1="8.1382" x2="41.0247" y2="8.1382" gradientTransform="matrix(0.7071 -0.7071 0.7071 0.7071 -12.1576 24.6622)">
		<stop  offset="1.040000e-02" style="stop-color:#B6B6B6;stop-opacity:0"/>
		<stop  offset="0.513" style="stop-color:#B6B6B6"/>
	</linearGradient>
	<path class="st0" d="M1.9,5.7l20-4.6c0.6-0.1,1.1,0.4,1,1l-4.6,20c-0.1,0.6-1,1-1.4,0.6l-1.6-1.6c-0.4-0.4-0.7-1-0.4-1.6L17.7,7
		c0.2-0.5-0.2-0.9-0.8-0.8L4.5,9.1C3.9,9.1,3.2,9,2.8,8.6L1.2,7C0.8,6.6,1.3,5.8,1.9,5.7z"/>
	<path class="st1" d="M7.2,13l3.7,3.7c0.4,0.4,1.2,0.2,1.4-0.6l1.1-4.5c0.1-0.6-0.5-1.2-1-1l-4.5,1.1C7.2,11.7,6.8,12.6,7.2,13z"/>
</g>
</svg>
