<?xml version="1.0" encoding="utf-8"?>
<!-- Generator: Adobe Illustrator 25.1.0, SVG Export Plug-In . SVG Version: 6.00 Build 0)  -->
<svg version="1.1" id="Layer_1" xmlns="http://www.w3.org/2000/svg" xmlns:xlink="http://www.w3.org/1999/xlink" x="0px" y="0px"
	 viewBox="0 0 24 24" style="enable-background:new 0 0 24 24;" xml:space="preserve">
<style type="text/css">
	.st0{fill:#FFFFFF;}
</style>
<g>
	<g>
		<g>
			<g>
				<g>
					<g>
						<path class="st0" d="M12.1,22.2c-2.4,0-4.7-0.9-6.5-2.5c-1.8-1.6-2.9-3.8-3.3-6.1c0-0.3,0.2-0.6,0.4-0.6
							c0.3,0,0.6,0.2,0.6,0.4c0.3,2.1,1.4,4.1,3,5.5c1.6,1.4,3.6,2.2,5.7,2.2c4.9,0,8.8-4.1,8.8-9.1S17,2.9,12.1,2.9
							c-4.5,0-8.3,3.5-8.8,8.1c0,0.3-0.3,0.5-0.6,0.5c-0.3,0-0.5-0.3-0.5-0.6c0.6-5.2,4.8-9.1,9.9-9.1C17.6,1.8,22,6.4,22,12
							C22,17.7,17.6,22.2,12.1,22.2z"/>
					</g>
					<g>
						<path class="st0" d="M12.2,19.1c-1.8,0-3.5-0.7-4.8-2.1c-1.3-1.3-2-3.1-2-5c0-1.9,0.7-3.7,2-5c1.3-1.4,3-2.1,4.8-2.1
							c1.8,0,3.5,0.7,4.7,2.1c0.5,0.6,1,1.2,1.3,2c0.1,0.3,0,0.6-0.3,0.7c-0.3,0.1-0.6,0-0.7-0.3c-0.3-0.6-0.7-1.2-1.1-1.7
							C15,6.7,13.6,6,12.1,6c-1.5,0-2.9,0.6-4,1.7C7.1,8.8,6.5,10.4,6.5,12c0,1.6,0.6,3.2,1.7,4.2c1.1,1.1,2.5,1.8,4,1.8
							c1.4,0,2.8-0.6,3.9-1.8c0.7-0.7,1.1-1.5,1.4-2.4c0.1-0.3,0.4-0.4,0.7-0.4c0.3,0.1,0.5,0.4,0.4,0.7c-0.4,1.1-0.9,2.1-1.7,2.8
							C15.6,18.4,13.9,19.1,12.2,19.1z"/>
					</g>
				</g>
			</g>
		</g>
	</g>
	<path class="st0" d="M1.1,15.1c0.2,0.2,0.6,0.2,0.8-0.1L3,13.6l1.3,1.1c0.2,0.2,0.6,0.2,0.8-0.1c0.2-0.2,0.2-0.6-0.1-0.8l-2.2-1.6
		L1,14.3C0.8,14.5,0.9,14.9,1.1,15.1z"/>
	<path class="st0" d="M19.4,8.1c-0.3-0.2-0.6-0.1-0.8,0.1l-1,1.4l-1.4-1c-0.3-0.2-0.6-0.1-0.8,0.1s-0.1,0.6,0.1,0.8l2.3,1.5l1.7-2.2
		C19.7,8.6,19.6,8.3,19.4,8.1z"/>
</g>
</svg>
