<?xml version="1.0" encoding="utf-8"?>
<!-- Generator: Adobe Illustrator 25.1.0, SVG Export Plug-In . SVG Version: 6.00 Build 0)  -->
<svg version="1.1" id="ic-transaction-staked" xmlns="http://www.w3.org/2000/svg" xmlns:xlink="http://www.w3.org/1999/xlink"
	 x="0px" y="0px" viewBox="0 0 24 24" style="enable-background:new 0 0 24 24;" xml:space="preserve">
<style type="text/css">
	.st0{fill:url(#SVGID_1_);}
	.st1{fill:#FFFFFF;}
	.st2{fill:url(#SVGID_2_);}
</style>
<g>
	<g>
		<g>
			
				<linearGradient id="SVGID_1_" gradientUnits="userSpaceOnUse" x1="2.3" y1="346.0382" x2="10.6021" y2="346.0382" gradientTransform="matrix(1 0 0 1 0 -334)">
				<stop  offset="1.040000e-02" style="stop-color:#B6B6B6;stop-opacity:0"/>
				<stop  offset="0.513" style="stop-color:#B6B6B6"/>
			</linearGradient>
			<path class="st0" d="M2.9,6.1l7.6,5.6c0.2,0.2,0.2,0.5,0,0.7L2.9,18c-0.2,0.2-0.6,0-0.6-0.3v-1.1c0-0.3,0.1-0.6,0.4-0.7l4.7-3.6
				c0.2-0.1,0.2-0.4,0-0.6L2.7,8.2C2.5,8,2.3,7.7,2.3,7.4V6.3C2.3,6,2.7,5.9,2.9,6.1z"/>
			<path class="st1" d="M2.3,10.7v2.7c0,0.3,0.3,0.5,0.6,0.3l1.7-1.2c0.2-0.2,0.2-0.6,0-0.7l-1.7-1.2C2.7,10.2,2.3,10.4,2.3,10.7z"
				/>
		</g>
		<g>
			
				<linearGradient id="SVGID_2_" gradientUnits="userSpaceOnUse" x1="13.411" y1="346.0143" x2="21.7131" y2="346.0143" gradientTransform="matrix(1 0 0 1 0 -334)">
				<stop  offset="0.487" style="stop-color:#B6B6B6"/>
				<stop  offset="0.9896" style="stop-color:#B6B6B6;stop-opacity:0"/>
			</linearGradient>
			<path class="st2" d="M21.1,17.9l-7.6-5.6c-0.2-0.2-0.2-0.5,0-0.7l7.6-5.5c0.2-0.2,0.6,0,0.6,0.3v1.1c0,0.3-0.1,0.6-0.4,0.7
				l-4.7,3.6c-0.2,0.1-0.2,0.4,0,0.6l4.7,3.6c0.2,0.2,0.4,0.4,0.4,0.7v1.1C21.7,18,21.3,18.1,21.1,17.9z"/>
			<path class="st1" d="M21.7,13.3v-2.7c0-0.3-0.3-0.5-0.6-0.3l-1.7,1.2c-0.2,0.2-0.2,0.5,0,0.7l1.7,1.2
				C21.3,13.8,21.7,13.6,21.7,13.3z"/>
		</g>
	</g>
	<g>
		<path class="st1" d="M12,5.1c-2.1,0-4.1,1-5.3,2.6l0.8,0.6c1-1.3,2.7-2.1,4.5-2.1s3.5,0.8,4.5,2.1l0.8-0.6
			C16.1,6.2,14.1,5.1,12,5.1z"/>
		<path class="st1" d="M12,17.8c-1.8,0-3.5-0.8-4.5-2.1l-0.8,0.6c1.2,1.5,3.2,2.6,5.3,2.6s4.1-1,5.3-2.6l-0.8-0.6
			C15.5,17,13.8,17.8,12,17.8z"/>
		<path class="st1" d="M20.6,5.2C18.6,2.7,15.5,1,12,1S5.3,2.7,3.4,5.2c0,0,0,0,0.1,0l1.2,0.9C6.4,4,9,2.7,12,2.7s5.6,1.4,7.3,3.6
			L20.6,5.2L20.6,5.2z"/>
		<path class="st1" d="M19.3,17.8C17.5,20,15,21.4,12,21.4S6.4,20,4.7,17.8l-1.2,0.9c0,0,0,0-0.1,0c2,2.6,5.1,4.2,8.6,4.2
			s6.7-1.6,8.6-4.2c0,0,0,0-0.1,0L19.3,17.8z"/>
	</g>
</g>
</svg>
