<?xml version="1.0" encoding="utf-8"?>
<!-- Generator: Adobe Illustrator 25.1.0, SVG Export Plug-In . SVG Version: 6.00 Build 0)  -->
<svg version="1.1" id="Layer_1" xmlns="http://www.w3.org/2000/svg" xmlns:xlink="http://www.w3.org/1999/xlink" x="0px" y="0px"
	 viewBox="0 0 24 24" style="enable-background:new 0 0 24 24;" xml:space="preserve">
<style type="text/css">
	.st0{fill:url(#SVGID_1_);}
	.st1{fill:#B6B6B6;}
</style>
<g>
	<linearGradient id="SVGID_1_" gradientUnits="userSpaceOnUse" x1="12" y1="21.8987" x2="12" y2="2.7237">
		<stop  offset="0.487" style="stop-color:#B6B6B6"/>
		<stop  offset="0.9896" style="stop-color:#B6B6B6;stop-opacity:0"/>
	</linearGradient>
	<path class="st0" d="M23.6,4.1L12.7,21.5c-0.4,0.5-1,0.5-1.4,0L0.4,4.1C0,3.6,0.4,2.7,1,2.7h2.2c0.6,0,1.2,0.2,1.4,0.9l6.9,10.8
		c0.2,0.5,0.8,0.5,1.2,0l6.7-10.8c0.4-0.5,1-0.9,1.6-0.9h2.2C23.8,2.7,24,3.6,23.6,4.1z"/>
	<path class="st1" d="M14.7,2.7H9.5c-0.6,0-1,0.7-0.6,1.4l2.4,4c0.4,0.5,1.2,0.5,1.4,0l2.4-4C15.6,3.6,15.3,2.7,14.7,2.7z"/>
</g>
</svg>
