<?xml version="1.0" encoding="utf-8"?>
<!-- Generator: Adobe Illustrator 25.1.0, SVG Export Plug-In . SVG Version: 6.00 Build 0)  -->
<svg version="1.1" id="ic-transaction-staked" xmlns="http://www.w3.org/2000/svg" xmlns:xlink="http://www.w3.org/1999/xlink"
	 x="0px" y="0px" viewBox="0 0 24 24" style="enable-background:new 0 0 24 24;" xml:space="preserve">
<style type="text/css">
	.st0{fill:#B6B6B6;}
</style>
<g>
	<path class="st0" d="M20.6,7c0.1-0.2,0-0.4-0.1-0.5l0.1-0.1c0.1-0.1,0.1-0.2,0.1-0.2c0.2-0.2,0.2-0.5,0-0.6l-1.1-1.1
		c-0.2-0.2-0.5-0.2-0.6,0l-0.2,0.2c-0.2-0.1-0.4-0.2-0.6-0.1c-1-0.8-2.1-1.5-3.2-2c-1.4-0.7-2.7-0.9-3.9-0.8c-0.1,0-0.1,0-0.1,0
		c0,0,0,0,0,0.1C11,2,11,2,11.1,2.1c1.3,0.5,3.4,2,5.5,4c-0.1,0.2-0.1,0.5,0.1,0.7L11.3,12l-1.9-1.9V10L9.2,9.8L8.9,9.5l1.7-1.7
		c0.2-0.2,0.2-0.5,0-0.6L7.5,4C6,2.4,3.4,2.4,1.8,4c-1.6,1.6-1.6,4.1,0,5.7l3.1,3.1c0.2,0.2,0.5,0.2,0.6,0l1.7-1.7l0.5,0.5
		c0,0,0.1,0.1,0.1,0l1.9,1.9L3,20.4c-0.1,0.1-0.2,0.2-0.1,0.3c0,0.1,0,0.2,0.1,0.3l1.1,1.1c0.1,0.1,0.2,0.2,0.3,0.1
		c0.1,0,0.2,0,0.3-0.1l6.8-6.8l2.2,2.2l4.6,4.6c0.2,0.2,0.5,0.2,0.6,0c0,0,0.1-0.1,0.1-0.1l0.7-0.7l0.1-0.1c0.2-0.2,0.2-0.5,0-0.6
		L15.3,16l-2.2-2.2l2.6-2.6l2.6-2.6c0.2,0.1,0.5,0.2,0.7,0.1c2,2.1,3.5,4.2,4,5.5c0,0,0,0,0,0.1h0.1c0.1,0,0.1-0.1,0.1-0.1
		c0.1,0,0.1-0.1,0.1-0.1C23.5,12,22.5,9.3,20.6,7z"/>
	<g>
		<path class="st0" d="M18.5,12.5c0.3,0,0.6,0.1,0.8,0.4c0.1,0.1,0.2,0.2,0.2,0.3c0,0.1,0.1,0.1,0.2,0.1c0.1,0,0.1-0.1,0.1-0.2
			c-0.1-0.2-0.2-0.3-0.3-0.4c-0.3-0.3-0.6-0.4-1-0.4c-0.4,0-0.7,0.1-1,0.4c-0.3,0.3-0.4,0.7-0.4,1.1c0,0.4,0.2,0.8,0.4,1.1
			c0.3,0.3,0.6,0.4,1,0.4c0.4,0,0.7-0.2,1-0.4c0.2-0.2,0.3-0.4,0.3-0.6c0-0.1,0-0.1-0.1-0.1c-0.1,0-0.1,0-0.1,0.1
			c-0.1,0.2-0.2,0.4-0.3,0.5c-0.2,0.2-0.5,0.4-0.8,0.4c-0.3,0-0.6-0.1-0.8-0.4c-0.2-0.2-0.4-0.5-0.4-0.9c0-0.3,0.1-0.7,0.3-0.9
			C17.9,12.6,18.2,12.5,18.5,12.5z"/>
		<path class="st0" d="M21.6,13.6h-0.3l0.1-0.1c0,0,0-0.1,0-0.2c0,0-0.1,0-0.2,0l-0.3,0.3h-0.3c0,0,0,0,0,0c0-0.5-0.2-0.9-0.5-1.3
			l0.2-0.2h0.4c0.1,0,0.1-0.1,0.1-0.1c0-0.1-0.1-0.1-0.1-0.1h-0.2l0.2-0.2c0,0,0-0.1,0-0.2c0,0-0.1,0-0.2,0l-0.2,0.2v-0.2
			c0-0.1-0.1-0.1-0.1-0.1s-0.1,0.1-0.1,0.1V12l-0.2,0.2c-0.3-0.3-0.8-0.5-1.3-0.6v-0.2l0.3-0.3c0,0,0-0.1,0-0.2c0,0-0.1,0-0.2,0
			l-0.1,0.1v-0.3c0-0.1-0.1-0.1-0.1-0.1c-0.1,0-0.1,0.1-0.1,0.1v0.3l-0.1-0.1c0,0-0.1,0-0.2,0c0,0,0,0.1,0,0.2l0.3,0.3v0.2
			c-0.5,0-1,0.2-1.3,0.6L17,12v-0.4c0-0.1-0.1-0.1-0.1-0.1c-0.1,0-0.1,0.1-0.1,0.1v0.2l-0.2-0.2c0,0-0.1,0-0.2,0c0,0,0,0.1,0,0.2
			l0.2,0.2h-0.2c-0.1,0-0.1,0.1-0.1,0.1c0,0.1,0.1,0.1,0.1,0.1h0.4l0.2,0.2c-0.3,0.3-0.4,0.7-0.5,1.1c0,0.1,0,0.1,0.1,0.1
			c0.1,0,0.1,0,0.1-0.1c0.1-1,0.9-1.7,1.8-1.7c1,0,1.8,0.8,1.8,1.9s-0.8,1.9-1.8,1.9c-0.4,0-0.9-0.2-1.2-0.5
			c-0.3-0.3-0.6-0.7-0.6-1.1c0,0,0,0,0,0c0,0,0,0,0,0c0,0,0,0,0,0c0,0,0,0-0.1,0h-0.3L16,13.7c0,0-0.1,0-0.2,0c0,0,0,0.1,0,0.2
			L16,14h-0.3c-0.1,0-0.1,0.1-0.1,0.1c0,0.1,0.1,0.1,0.1,0.1H16l-0.1,0.1c0,0,0,0.1,0,0.2c0,0,0.1,0,0.1,0c0,0,0.1,0,0.1,0l0.3-0.3
			h0.2c0.1,0.4,0.2,0.7,0.5,1l-0.2,0.2h-0.4c-0.1,0-0.1,0.1-0.1,0.1c0,0.1,0.1,0.1,0.1,0.1h0.2l-0.2,0.2c0,0,0,0.1,0,0.2
			c0,0,0.1,0,0.1,0s0.1,0,0.1,0l0.2-0.2v0.2c0,0.1,0.1,0.1,0.1,0.1c0.1,0,0.1-0.1,0.1-0.1v-0.4l0.2-0.2c0,0,0,0,0,0.1
			c0.3,0.3,0.7,0.5,1.2,0.5v0.3l-0.3,0.3c0,0,0,0.1,0,0.2c0,0,0.1,0,0.1,0s0.1,0,0.1,0l0.1-0.1v0.3c0,0.1,0.1,0.1,0.1,0.1
			c0.1,0,0.1-0.1,0.1-0.1v-0.3l0.1,0.1c0,0,0.1,0,0.1,0c0,0,0.1,0,0.1,0c0,0,0-0.1,0-0.2l-0.3-0.3v-0.3c0.5,0,1-0.2,1.3-0.6l0.2,0.2
			v0.4c0,0.1,0.1,0.1,0.1,0.1c0.1,0,0.1-0.1,0.1-0.1v-0.2l0.2,0.2c0,0,0.1,0,0.1,0c0,0,0.1,0,0.1,0c0,0,0-0.1,0-0.2l-0.6-0.6
			c0.3-0.3,0.5-0.8,0.5-1.3c0,0,0,0,0,0h0.3l0.3,0.3c0,0,0.1,0,0.1,0c0,0,0.1,0,0.1,0c0,0,0-0.1,0-0.2l-0.1-0.1h0.3
			c0.1,0,0.1-0.1,0.1-0.1C21.7,13.7,21.6,13.6,21.6,13.6z"/>
	</g>
</g>
</svg>
