<?xml version="1.0" encoding="utf-8"?>
<!-- Generator: Adobe Illustrator 25.1.0, SVG Export Plug-In . SVG Version: 6.00 Build 0)  -->
<svg version="1.1" id="Layer_1" xmlns="http://www.w3.org/2000/svg" xmlns:xlink="http://www.w3.org/1999/xlink" x="0px" y="0px"
	 viewBox="0 0 24 24" style="enable-background:new 0 0 24 24;" xml:space="preserve">
<style type="text/css">
	.st0{fill:#009CE1;}
	.st1{fill:#EC2A7B;}
</style>
<desc>Created with Sketch.</desc>
<g id="Artboard_2_">
	<g id="ic-copy_2_" transform="translate(2.000000, 2.000000)">
		<path class="st0" d="M14.6,19.9H8.8c-1.7,0-3.1-1.4-3.1-3.1V7.1C5.7,5.4,7.1,4,8.8,4h6.6c1.3,0.1,2.4,1.1,2.4,2.4v10.4
			C17.7,18.4,16.3,19.9,14.6,19.9z M15.3,17.4L15.3,17.4L15.3,17.4L15.3,17.4z M8.1,7.1v9.6c0,0.4,0.4,0.7,0.7,0.7h5.8
			c0.4,0,0.7-0.4,0.7-0.7V7.1c0-0.4-0.4-0.7-0.7-0.7H8.8C8.4,6.4,8.1,6.6,8.1,7.1z"/>
		<path class="st1" d="M14.7,0.7H8.2C5,0.7,2.3,3.3,2.3,6.5v9.8c0,0.7,0.5,1.2,1.2,1.2s1.2-0.5,1.2-1.2c0-1.7,0-9.5,0-9.9
			c0.1-1.8,1.8-3.1,3.3-3.3c0.7-0.1,6.6,0,6.7,0c0.7,0,1.2-0.5,1.2-1.2C15.9,1.3,15.4,0.7,14.7,0.7z"/>
	</g>
</g>
</svg>
