<?xml version="1.0" encoding="utf-8"?>
<!-- Generator: Adobe Illustrator 25.1.0, SVG Export Plug-In . SVG Version: 6.00 Build 0)  -->
<svg version="1.1" id="Layer_1" xmlns="http://www.w3.org/2000/svg" xmlns:xlink="http://www.w3.org/1999/xlink" x="0px" y="0px"
	 viewBox="0 0 40 40" style="enable-background:new 0 0 40 40;" xml:space="preserve">
<style type="text/css">
	.st0{fill:#009CE1;}
</style>
<g id="ComboBox">
	<path class="st0" d="M10,26c0,0,6.2,5.5,6.2,5.5c0.3,0.3,0.5,0.4,0.9,0.3c0.4,0,0.6-0.3,0.9-0.6c0.2-0.2,5.1-4.5,5.6-4.9
		c0.1-0.1,0.3-0.2,0.4-0.3c0.4-0.4,0.5-1,0.1-1.4c-0.2-0.2-0.5-0.3-0.7-0.3s-0.5,0.1-0.7,0.3l-5.7,5c0,0-5.7-5-5.7-5
		c-0.4-0.3-1-0.4-1.4-0.1C9.5,25,9.6,25.6,10,26z"/>
	<path class="st0" d="M24,14c0,0-6.2-5.5-6.2-5.5c-0.3-0.3-0.5-0.4-0.9-0.3c-0.4,0.1-0.6,0.3-0.9,0.6c-0.2,0.2-5.1,4.5-5.6,4.9
		c-0.1,0.1-0.3,0.2-0.4,0.3c-0.4,0.4-0.5,1-0.1,1.4c0.2,0.2,0.5,0.3,0.7,0.3s0.5-0.1,0.7-0.3l5.7-5c0,0,5.7,5,5.7,5
		c0.4,0.3,1,0.4,1.4,0.1C24.5,15,24.4,14.4,24,14z"/>
</g>
</svg>
