<?xml version="1.0" encoding="utf-8"?>
<!-- Generator: Adobe Illustrator 25.1.0, SVG Export Plug-In . SVG Version: 6.00 Build 0)  -->
<svg version="1.1" id="ic-transaction-staked" xmlns="http://www.w3.org/2000/svg" xmlns:xlink="http://www.w3.org/1999/xlink"
	 x="0px" y="0px" viewBox="0 0 24 24" style="enable-background:new 0 0 24 24;" xml:space="preserve">
<style type="text/css">
	.st0{opacity:0.74;enable-background:new    ;}
	.st1{fill:#FFFFFF;}
</style>
<g class="st0">
	<path class="st1" d="M11.8,7.5c1.1,0,2.1,0.5,2.9,1.3c0.4,0.4,0.6,0.8,0.8,1.2c0.1,0.2,0.3,0.3,0.6,0.2c0.2-0.1,0.3-0.4,0.2-0.6
		c-0.2-0.6-0.6-1-1-1.5c-0.9-1-2.2-1.5-3.5-1.5c-1.4,0-2.6,0.5-3.6,1.5c-0.9,1-1.5,2.3-1.5,3.8c0,1.4,0.6,2.8,1.5,3.8
		c0.9,1,2.2,1.6,3.6,1.6c1.3,0,2.6-0.6,3.5-1.6c0.6-0.6,1-1.3,1.2-2.1c0.1-0.2-0.1-0.5-0.3-0.5c-0.2-0.1-0.5,0-0.5,0.3
		c-0.2,0.7-0.6,1.3-1,1.8c-0.8,0.8-1.8,1.3-2.9,1.3c-1.1,0-2.2-0.5-3-1.3c-0.8-0.8-1.3-2-1.3-3.2c0-1.2,0.5-2.3,1.2-3.2
		C9.6,7.9,10.6,7.5,11.8,7.5z"/>
	<path class="st1" d="M22.5,11.5h-1.1l0.4-0.4c0.2-0.2,0.2-0.4,0-0.6c-0.2-0.2-0.4-0.2-0.6,0l-1,1h-1.1c0,0,0,0,0,0
		C19,9.8,18.4,8.2,17.3,7L18,6.3h1.4c0.2,0,0.4-0.2,0.4-0.4c0-0.2-0.2-0.4-0.4-0.4h-0.6l0.8-0.8c0.2-0.2,0.2-0.4,0-0.6
		c-0.2-0.2-0.4-0.2-0.6,0l-0.8,0.8V4.3c0-0.2-0.2-0.4-0.4-0.4c-0.2,0-0.4,0.2-0.4,0.4v1.4l-0.6,0.6c-1.2-1.2-2.8-1.9-4.6-2V3.5l1-1
		c0.2-0.2,0.2-0.4,0-0.6c-0.2-0.2-0.4-0.2-0.6,0l-0.4,0.4V1.2c0-0.2-0.2-0.4-0.4-0.4c-0.2,0-0.4,0.2-0.4,0.4v1.1L11,1.9
		c-0.2-0.2-0.4-0.2-0.6,0c-0.2,0.2-0.2,0.4,0,0.6l1,1v0.9C9.6,4.4,8,5.2,6.8,6.3L6.2,5.8V4.4c0-0.2-0.2-0.4-0.4-0.4
		c-0.2,0-0.4,0.2-0.4,0.4v0.6L4.6,4.2C4.4,4,4.1,4,4,4.2C3.8,4.3,3.8,4.6,4,4.7l0.8,0.8H4.2C4,5.5,3.8,5.7,3.8,5.9
		c0,0.2,0.2,0.4,0.4,0.4h1.4L6.2,7c-0.9,1.1-1.6,2.5-1.8,4.1c0,0.2,0.1,0.4,0.4,0.5c0.2,0,0.4-0.1,0.5-0.4c0.4-3.4,3.2-6,6.5-6
		c3.6,0,6.6,3,6.6,6.8s-2.9,6.8-6.6,6.8c-1.6,0-3.1-0.6-4.3-1.6c-1.2-1-2-2.5-2.2-4.1c0-0.1-0.1-0.1-0.1-0.2c0,0,0-0.1-0.1-0.1
		c0,0,0,0,0,0c-0.1,0-0.1-0.1-0.2-0.1H3.7l-1-1c-0.2-0.2-0.4-0.2-0.6,0c-0.2,0.2-0.2,0.4,0,0.6l0.4,0.4H1.5c-0.2,0-0.4,0.2-0.4,0.4
		c0,0.2,0.2,0.4,0.4,0.4h1.1l-0.4,0.4C2,14,2,14.3,2.2,14.5c0.1,0.1,0.2,0.1,0.3,0.1c0.1,0,0.2,0,0.3-0.1l1-1h0.8
		c0.3,1.3,0.8,2.5,1.7,3.4l-0.7,0.7H4.1c-0.2,0-0.4,0.2-0.4,0.4c0,0.2,0.2,0.4,0.4,0.4h0.6l-0.8,0.8c-0.2,0.2-0.2,0.4,0,0.6
		c0.1,0.1,0.2,0.1,0.3,0.1s0.2,0,0.3-0.1L5.3,19v0.6c0,0.2,0.2,0.4,0.4,0.4c0.2,0,0.4-0.2,0.4-0.4v-1.4l0.6-0.6
		c0.1,0.1,0.1,0.1,0.2,0.2c1.2,1,2.6,1.6,4.2,1.8v1.1l-1,1c-0.2,0.2-0.2,0.4,0,0.6c0.1,0.1,0.2,0.1,0.3,0.1c0.1,0,0.2,0,0.3-0.1
		l0.4-0.4v1.1c0,0.2,0.2,0.4,0.4,0.4c0.2,0,0.4-0.2,0.4-0.4v-1.1l0.4,0.4c0.1,0.1,0.2,0.1,0.3,0.1c0.1,0,0.2,0,0.3-0.1
		c0.2-0.2,0.2-0.4,0-0.6l-1-1v-1c1.9,0,3.5-0.8,4.8-2l0.7,0.7v1.4c0,0.2,0.2,0.4,0.4,0.4c0.2,0,0.4-0.2,0.4-0.4V19l0.8,0.8
		c0.1,0.1,0.2,0.1,0.3,0.1c0.1,0,0.2,0,0.3-0.1c0.2-0.2,0.2-0.4,0-0.6l-2.3-2.3c1.1-1.2,1.7-2.8,1.8-4.6c0,0,0,0,0,0h1.1l1,1
		c0.1,0.1,0.2,0.1,0.3,0.1c0.1,0,0.2,0,0.3-0.1c0.2-0.2,0.2-0.4,0-0.6l-0.4-0.4h1.1c0.2,0,0.4-0.2,0.4-0.4
		C22.9,11.7,22.8,11.5,22.5,11.5z"/>
</g>
</svg>
