<?xml version="1.0" encoding="utf-8"?>
<!-- Generator: Adobe Illustrator 25.1.0, SVG Export Plug-In . SVG Version: 6.00 Build 0)  -->
<svg version="1.1" id="Layer_1" xmlns="http://www.w3.org/2000/svg" xmlns:xlink="http://www.w3.org/1999/xlink" x="0px" y="0px"
	 viewBox="0 0 30 30" style="enable-background:new 0 0 30 30;" xml:space="preserve">
<style type="text/css">
	.st0{fill:#009CE1;}
	.st1{fill:none;}
</style>
<desc>Created with Sketch.</desc>
<g id="ic-arrow-down">
	<g id="ic-arrow-drop-down" transform="translate(6.000000, 3.000000)">
		<path class="st0" d="M5,10c0,0,6.2,5.5,6.2,5.5c0.3,0.3,0.6,0.4,0.9,0.3c0.4-0.1,0.6-0.3,0.9-0.6c0.2-0.2,5.1-4.5,5.6-4.9
			c0.1-0.1,0.3-0.2,0.4-0.3c0.4-0.4,0.5-1,0.1-1.4c-0.2-0.2-0.5-0.3-0.7-0.3s-0.5,0.1-0.7,0.3l-5.7,5c0,0-5.7-5-5.7-5
			c-0.4-0.3-1-0.4-1.3-0.1C4.5,8.9,4.6,9.6,5,10z"/>
		<polygon id="Rectangle_4407" class="st1" points="0,0 24,0 24,24 0,24 		"/>
	</g>
</g>
</svg>
