<?xml version="1.0" encoding="utf-8"?>
<!-- Generator: Adobe Illustrator 25.1.0, SVG Export Plug-In . SVG Version: 6.00 Build 0)  -->
<svg version="1.1" id="Layer_1" xmlns="http://www.w3.org/2000/svg" xmlns:xlink="http://www.w3.org/1999/xlink" x="0px" y="0px"
	 viewBox="0 0 24 24" style="enable-background:new 0 0 24 24;" xml:space="preserve">
<style type="text/css">
	.st0{fill:#009CE1;}
</style>
<desc>Created with Sketch.</desc>
<path class="st0" d="M14.3,4.1H9.7C8.2,4.1,7,5.3,7,6.8v11.6c0,0.6,0.3,1.1,0.9,1.3c0.2,0.1,0.4,0.1,0.5,0.1c0.4,0,0.7-0.1,1-0.4
	l2.4-2.4c0.1-0.1,0.3-0.1,0.4,0l2.4,2.4c0.4,0.4,1,0.5,1.5,0.3S17,19,17,18.4V6.8C17,5.3,15.8,4.1,14.3,4.1z M15,16.5
	c0,0.2-0.3,0.4-0.5,0.2L13,15.1l0,0c-0.3-0.3-0.6-0.4-1-0.4s-0.7,0.1-1,0.4l-1.6,1.6c-0.2,0.2-0.5,0-0.5-0.2V6.8
	c0-0.4,0.3-0.7,0.7-0.7h4.7c0.4,0,0.7,0.3,0.7,0.7C15,6.8,15,16.5,15,16.5z"/>
</svg>
