<?xml version="1.0" encoding="utf-8"?>
<!-- Generator: Adobe Illustrator 25.1.0, SVG Export Plug-In . SVG Version: 6.00 Build 0)  -->
<svg version="1.1" id="ic_mint" xmlns="http://www.w3.org/2000/svg" xmlns:xlink="http://www.w3.org/1999/xlink" x="0px" y="0px"
	 viewBox="0 0 24 24" style="enable-background:new 0 0 24 24;" xml:space="preserve">
<style type="text/css">
	.st0{fill:none;}
	.st1{fill:#707070;}
</style>
<path id="Rectangle_4647" class="st0" d="M0,0h24v24H0V0z"/>
<g>
	<g>
		<g>
			<g>
				<g>
					<g>
						<path class="st1" d="M12.1,22c-2.3,0-4.6-0.9-6.4-2.4c-1.7-1.5-2.9-3.7-3.3-6c0-0.3,0.2-0.6,0.4-0.6c0.3,0,0.6,0.2,0.6,0.4
							c0.3,2.1,1.4,4,2.9,5.4C8,20.2,10,21,12.1,21c4.8,0,8.7-4,8.7-9s-3.9-9-8.6-9C7.7,3,4,6.5,3.5,11c0,0.3-0.3,0.5-0.6,0.5
							c-0.3,0-0.5-0.3-0.5-0.6C3,5.8,7.2,2,12.1,2c5.4,0,9.7,4.5,9.7,10C21.9,17.6,17.5,22,12.1,22z"/>
					</g>
					<g>
						<path class="st1" d="M12.2,19c-1.8,0-3.5-0.7-4.7-2.1c-1.2-1.2-2-3.1-2-4.9c0-1.9,0.7-3.7,2-4.9c1.2-1.3,2.9-2,4.7-2
							c1.7,0,3.4,0.7,4.6,2c0.5,0.6,1,1.2,1.3,1.9c0.1,0.3,0,0.6-0.3,0.7c-0.3,0.1-0.6,0-0.7-0.3c-0.3-0.6-0.6-1.2-1.1-1.6
							c-1-1.1-2.4-1.7-3.8-1.7c-1.5,0-2.9,0.6-3.9,1.7c-1,1.1-1.6,2.6-1.6,4.2c0,1.6,0.6,3.1,1.7,4.2c1.1,1.1,2.5,1.7,3.9,1.7
							c1.4,0,2.8-0.6,3.8-1.7c0.6-0.6,1.1-1.5,1.4-2.4c0.1-0.3,0.4-0.4,0.7-0.3s0.5,0.4,0.4,0.7c-0.3,1.1-0.9,2-1.6,2.8
							C15.6,18.3,13.9,19,12.2,19z"/>
					</g>
				</g>
			</g>
		</g>
	</g>
	<path class="st1" d="M1.3,15c0.2,0.2,0.6,0.2,0.8-0.1l1.1-1.3l1.3,1.1c0.2,0.2,0.6,0.2,0.8-0.1c0.2-0.2,0.2-0.6-0.1-0.8L3,12.2
		l-1.7,2C1,14.5,1.1,14.8,1.3,15z"/>
	<path class="st1" d="M19.2,8.2C19,8,18.7,8.1,18.5,8.3l-1,1.4l-1.4-1c-0.2-0.2-0.6-0.1-0.7,0.1s-0.1,0.6,0.1,0.7l2.2,1.5l1.6-2.1
		C19.5,8.7,19.5,8.4,19.2,8.2z"/>
</g>
</svg>
