<?xml version="1.0" encoding="utf-8"?>
<!-- Generator: Adobe Illustrator 25.1.0, SVG Export Plug-In . SVG Version: 6.00 Build 0)  -->
<svg version="1.1" id="Layer_1" xmlns="http://www.w3.org/2000/svg" xmlns:xlink="http://www.w3.org/1999/xlink" x="0px" y="0px"
	 viewBox="0 0 24 40" style="enable-background:new 0 0 24 40;" xml:space="preserve">
<style type="text/css">
	.st0{fill:#FFFFFF;}
</style>
<desc>Created with Sketch.</desc>
<g>
	<g>
		<path class="st0" d="M1.5,32.8c-0.3,0-0.6-0.3-0.6-0.6V10c0-1.3,1-2.3,2.3-2.3H6c0.3,0,0.6,0.3,0.6,0.6V30c0,0.3-0.3,0.6-0.6,0.6
			S5.4,30.3,5.4,30V8.8H3.2c-0.7,0-1.2,0.5-1.2,1.2v22.3C2.1,32.6,1.8,32.8,1.5,32.8z"/>
	</g>
	<g>
		<path class="st0" d="M21.6,34.3H3.2c-1.3,0-2.3-1-2.3-2.3v-0.3c0-1.3,1-2.3,2.3-2.3h18.7V9.1c0-0.2-0.1-0.3-0.3-0.3H6
			c-0.3,0-0.6-0.3-0.6-0.6S5.7,7.7,6,7.7h15.6c0.8,0,1.5,0.7,1.5,1.5v23.7C23.1,33.7,22.4,34.3,21.6,34.3z M3.2,30.6
			c-0.6,0-1.2,0.5-1.2,1.2V32c0,0.6,0.5,1.2,1.2,1.2h18.4c0.2,0,0.3-0.1,0.3-0.3v-2.3H3.2z"/>
	</g>
	<g>
		<path class="st0" d="M14.3,22.5c-1.4,0-2.6-1.3-2.6-3c0-1.7,1.2-3,2.6-3c1.4,0,2.6,1.3,2.6,3C16.9,21.2,15.7,22.5,14.3,22.5z
			 M14.3,17.7c-0.8,0-1.4,0.8-1.4,1.8s0.6,1.8,1.4,1.8s1.4-0.8,1.4-1.8S15,17.7,14.3,17.7z"/>
	</g>
	<g>
		<path class="st0" d="M14.3,26c-3.6,0-6.6-2.9-6.6-6.6c0-2.1,1-4,2.6-5.3c1.7-1.3,3.8-1.6,5.9-1c2,0.6,3.7,2.2,4.3,4.2
			c0.3,0.9,0.4,1.7,0.3,2.6c-0.1,1.3-1.3,2.4-2.6,2.4c-1.4,0-2.6-1.2-2.6-2.6v-2.6c0-0.3,0.3-0.6,0.6-0.6s0.6,0.3,0.6,0.6v2.6
			c0,0.8,0.6,1.4,1.4,1.4c0.7,0,1.3-0.6,1.4-1.3c0.1-0.7,0-1.4-0.2-2.2c-0.5-1.6-1.8-2.9-3.5-3.4c-1.7-0.5-3.5-0.2-4.8,0.8
			c-1.4,1-2.1,2.6-2.1,4.3c0,3,2.4,5.4,5.4,5.4c0.3,0,0.6,0.3,0.6,0.6S14.6,26,14.3,26z"/>
	</g>
</g>
</svg>
