<?xml version="1.0" encoding="utf-8"?>
<!-- Generator: Adobe Illustrator 25.1.0, SVG Export Plug-In . SVG Version: 6.00 Build 0)  -->
<svg version="1.1" id="Layer_1" xmlns="http://www.w3.org/2000/svg" xmlns:xlink="http://www.w3.org/1999/xlink" x="0px" y="0px"
	 viewBox="0 0 24 29.1" style="enable-background:new 0 0 24 29.1;" xml:space="preserve">
<style type="text/css">
	.st0{fill:#009CE1;}
	.st1{fill:#EC2A7B;}
</style>
<g>
	<g>
		<g>
			<g>
				<path class="st0" d="M20.3,20.7c-0.6,1.4-1.6,2.6-2.9,3.5c-1.4,1-3,1.5-4.7,1.5c-1.3,0-2.6-0.3-3.7-0.9c-0.1,0.1-0.2,0.1-0.3,0
					c-0.1-0.1-0.2-0.3-0.1-0.4c0.1-0.1,0.3-0.2,0.4-0.1C9,24.5,9,24.6,9,24.7c1.1,0.6,2.4,0.9,3.6,0.9c1.7,0,3.2-0.5,4.6-1.4
					c1.2-0.9,2.2-2.1,2.8-3.4c-0.1-0.1-0.1-0.2-0.1-0.3c0.1-0.2,0.2-0.2,0.4-0.2c0.2,0.1,0.2,0.2,0.2,0.4
					C20.5,20.7,20.4,20.7,20.3,20.7z"/>
			</g>
			<g>
				<path class="st0" d="M14.9,9.6c0.8,0.2,1.5,0.5,2.2,1c1.2,0.8,2.2,1.8,2.9,3.1c0.1,0,0.2,0.1,0.3,0.2c0.1,0.1,0,0.3-0.1,0.4
					c-0.1,0.1-0.3,0-0.4-0.1c-0.1-0.1,0-0.2,0-0.3c-0.7-1.2-1.6-2.2-2.8-3c-0.6-0.4-1.2-0.7-1.9-0.9"/>
			</g>
			<g>
				<path class="st0" d="M21.7,19.8c-0.4,1.7-1.3,3.2-2.6,4.5C17.4,26,15,27,12.6,27c-0.9,0-1.7-0.1-2.5-0.3
					c-0.1,0.1-0.2,0.1-0.3,0.1c-0.2,0-0.2-0.2-0.2-0.4c0-0.2,0.2-0.2,0.4-0.2c0.1,0,0.2,0.1,0.2,0.2c0.8,0.2,1.6,0.3,2.5,0.3
					c2.4,0,4.7-0.9,6.4-2.6c1.2-1.2,2.1-2.7,2.5-4.3"/>
			</g>
			<g>
				<path class="st0" d="M14.4,8.2c2.3,0.5,4.4,1.8,5.8,3.8c0.1,0,0.2,0,0.3,0.1c0.1,0.1,0.1,0.3-0.1,0.4c-0.1,0.1-0.3,0.1-0.4-0.1
					c-0.1-0.1-0.1-0.2,0-0.3c-1.3-1.9-3.3-3.1-5.5-3.6"/>
			</g>
			<g>
				<path class="st0" d="M3.1,12.7c-0.3,0.6-0.5,1.2-0.7,1.8c0.1,0.1,0.1,0.2,0.1,0.3c0,0.2-0.2,0.2-0.4,0.2c-0.2,0-0.2-0.2-0.2-0.4
					c0-0.1,0.1-0.2,0.2-0.2c0.2-0.6,0.4-1.3,0.7-1.8"/>
			</g>
			<g>
				<path class="st0" d="M23.1,19.8c-0.1,0.4-0.2,0.7-0.3,1.1c0.1,0.1,0.1,0.2,0.1,0.3c0,0.2-0.2,0.2-0.4,0.2
					c-0.2,0-0.2-0.2-0.2-0.4c0-0.1,0.1-0.2,0.3-0.2c0.1-0.3,0.2-0.7,0.2-1.1"/>
			</g>
			<g>
				<path class="st0" d="M22.7,14.2c-0.8-2.4-2.5-4.5-4.7-5.8c-0.1,0.1-0.2,0.1-0.3,0c-0.1-0.1-0.2-0.3-0.1-0.4
					C17.6,7.9,17.8,7.9,18,8c0.1,0.1,0.2,0.2,0.1,0.3c2.3,1.3,4,3.4,4.9,6"/>
			</g>
			<g>
				<path class="st0" d="M13.9,27.8c0.1,0,0.2,0,0.3,0.1c1.5-0.2,3-0.8,4.3-1.7c1.3-0.8,2.3-2,3.1-3.2c-0.1-0.1-0.1-0.2,0-0.3
					c0.1-0.1,0.3-0.2,0.4-0.1c0.1,0.1,0.2,0.3,0.1,0.4c-0.1,0.1-0.2,0.2-0.3,0.1c-0.8,1.3-1.9,2.4-3.2,3.3c-1.3,0.9-2.8,1.5-4.4,1.7
					c0,0.1-0.1,0.2-0.2,0.2c-0.2,0-0.3-0.1-0.3-0.3S13.7,27.8,13.9,27.8z"/>
			</g>
			<g>
				<path class="st0" d="M4.9,24.8c1.4,1.5,3.3,2.6,5.3,3c0.1-0.1,0.2-0.1,0.3-0.1c0.2,0,0.3,0.2,0.2,0.3c0,0.2-0.2,0.3-0.3,0.2
					c-0.1,0-0.2-0.1-0.2-0.2c-2.1-0.5-4-1.5-5.4-3.1"/>
			</g>
		</g>
		<g>
			<g>
				<path class="st0" d="M6.6,12c-0.2,0-0.2-0.2-0.3-0.3c0,0,0,0,0,0c0,0,0,0,0,0c-0.1,0.1-0.2,0.2-0.5,0.1
					c-0.2-0.1-0.2-0.4-0.2-0.5c0-0.1,0.1-0.1,0.2-0.1c0.1,0,0.1,0.1,0.1,0.2c0,0,0,0.2,0.1,0.3c0,0,0,0,0.1,0c0.1,0,0.1-0.1,0.2-0.1
					c0.2,0,0.2,0.2,0.2,0.3c0,0,0,0,0,0.1c0,0,0.1-0.1,0.2-0.2c0.1-0.1,0.1-0.1,0.2,0C7,11.6,7,11.7,7,11.8C6.9,11.8,6.8,12,6.6,12z
					"/>
			</g>
			<g>
				<path class="st0" d="M6.2,14.3c-0.1,0-0.1,0-0.2-0.1c-0.1-0.1-0.2-0.3-0.2-0.4c0,0,0,0,0,0c-0.2,0.1-0.3,0.3-0.5,0.2
					c-0.1-0.1-0.1-0.2-0.1-0.3C5,14,4.9,14,4.8,14c-0.1,0-0.1,0-0.1-0.1c-0.1-0.2-0.1-0.5-0.1-0.6c0-0.1,0.1-0.1,0.2-0.1
					c0.1,0,0.1,0.1,0.1,0.2c0,0.1,0,0.2,0,0.3c0,0,0.1-0.1,0.1-0.1c0.1-0.1,0.2-0.2,0.3-0.2c0,0,0.1,0,0.1,0.1
					c0.1,0.1,0.1,0.2,0,0.3c0,0,0,0.1,0,0.2c0,0,0.1-0.1,0.2-0.1c0.1-0.1,0.2-0.2,0.3-0.2c0.2,0,0.2,0.2,0.2,0.3
					c0,0.1,0,0.2,0.1,0.2c0-0.1,0.1-0.2,0.1-0.3c0-0.1,0.1-0.1,0.2-0.1c0.1,0,0.1,0.1,0.1,0.2C6.5,13.9,6.4,14.3,6.2,14.3
					C6.2,14.3,6.2,14.3,6.2,14.3z"/>
			</g>
			<g>
				<path class="st0" d="M5.8,17C5.7,17,5.7,17,5.8,17c-0.2,0-0.3-0.2-0.4-0.3c-0.1,0.1-0.2,0.2-0.4,0.1c-0.2,0-0.3-0.2-0.3-0.3
					c-0.1,0.1-0.2,0.2-0.3,0.2c-0.2,0-0.3-0.4-0.4-0.6C4,16.1,4,16,4.1,16c0.1,0,0.2,0,0.2,0.1c0,0.1,0.1,0.3,0.1,0.3
					c0.1,0,0.2-0.2,0.3-0.3c0-0.1,0.1-0.1,0.2-0.1c0.1,0,0.1,0.1,0.1,0.1c0,0.1,0.1,0.3,0.2,0.3c0.1,0,0.2-0.2,0.2-0.2
					c0-0.1,0.1-0.1,0.1-0.1c0.1,0,0.1,0,0.1,0.1c0.1,0.2,0.2,0.4,0.2,0.4c0,0,0.1-0.1,0.1-0.2c0-0.1,0.1-0.1,0.2-0.1
					c0.1,0,0.1,0.1,0.1,0.2c0,0.1-0.1,0.3-0.2,0.4C5.9,16.9,5.8,17,5.8,17z"/>
			</g>
			<g>
				<path class="st0" d="M4.9,19.7c-0.2,0-0.3-0.2-0.4-0.4c-0.1,0.2-0.3,0.3-0.4,0.3c-0.2,0-0.4-0.4-0.5-0.6c0-0.1,0-0.2,0.1-0.2
					c0.1,0,0.2,0,0.2,0.1c0.1,0.2,0.2,0.4,0.2,0.4c0,0,0.2-0.2,0.3-0.4c0,0,0.1-0.1,0.1-0.1c0.1,0,0.1,0,0.1,0.1
					c0.1,0.2,0.2,0.4,0.2,0.4c0,0,0.2-0.2,0.2-0.4c0-0.1,0.1-0.1,0.1-0.1c0.1,0,0.1,0,0.1,0.1c0.1,0.2,0.2,0.3,0.2,0.3
					c0,0,0.1-0.2,0.1-0.3c0-0.1,0.1-0.1,0.1-0.1C6,18.9,6,18.9,6,19c0,0.1,0,0.6-0.4,0.6c-0.1,0-0.3-0.1-0.3-0.2
					C5.2,19.5,5.1,19.7,4.9,19.7z"/>
			</g>
			<g>
				<path class="st0" d="M6,22.7C6,22.7,6,22.7,6,22.7c-0.2,0-0.3-0.2-0.4-0.3c0,0.1-0.1,0.2-0.2,0.3c-0.1,0-0.2,0.1-0.3,0
					c-0.2-0.1-0.3-0.2-0.4-0.3c-0.1,0.2-0.3,0.4-0.5,0.4c-0.2-0.1-0.5-0.5-0.5-0.6c0-0.1,0-0.2,0-0.2c0.1,0,0.2,0,0.2,0
					c0.1,0.2,0.3,0.4,0.4,0.5c0.1,0,0.2-0.2,0.3-0.4c0-0.1,0.1-0.1,0.1-0.1c0,0,0,0,0,0c0.1,0,0.1,0,0.1,0.1c0,0.1,0.2,0.4,0.4,0.4
					c0.1,0,0.1-0.2,0.1-0.4c0-0.1,0.1-0.1,0.1-0.1c0.1,0,0.1,0,0.2,0.1c0.1,0.2,0.2,0.4,0.3,0.5c0-0.1,0-0.2,0-0.3
					C6.1,22,6.1,22,6.2,22c0.1,0,0.1,0.1,0.1,0.1c0,0.1,0,0.5-0.2,0.6C6.1,22.7,6.1,22.7,6,22.7z"/>
			</g>
			<g>
				<g>
					<path class="st0" d="M7.7,24.1c0,0-0.1,0-0.1-0.1C4.8,20.4,7,11.7,7.9,10c0-0.1,0.1-0.1,0.2-0.1c0.1,0,0.1,0.1,0.1,0.2
						c-0.9,1.7-3.1,10.2-0.3,13.7C7.9,23.9,7.9,24,7.7,24.1C7.8,24.1,7.7,24.1,7.7,24.1z"/>
				</g>
				<g>
					<path class="st0" d="M7.7,24.1c0,0-0.1,0-0.1-0.1C4.8,20.4,7,11.7,7.9,10c0-0.1,0.1-0.1,0.2-0.1c0.1,0,0.1,0.1,0.1,0.2
						c-0.9,1.7-3.1,10.2-0.3,13.7C7.9,23.9,7.9,24,7.7,24.1C7.8,24.1,7.7,24.1,7.7,24.1z"/>
				</g>
			</g>
			<g>
				<path class="st0" d="M3.6,24.2c-0.1,0-0.1,0-0.1-0.1C1.2,16.3,6.1,9.6,6.2,9.5c0-0.1,0.1-0.1,0.2,0s0.1,0.1,0,0.2
					c0,0.1-4.8,6.6-2.7,14.3C3.7,24.1,3.7,24.2,3.6,24.2C3.6,24.2,3.6,24.2,3.6,24.2z"/>
			</g>
		</g>
		<g>
			<g>
				<g>
					<g>
						<path class="st1" d="M14.6,19c-0.2,0-0.3-0.1-0.4-0.3L14,18.1h-1.2l-0.2,0.6c-0.1,0.2-0.2,0.3-0.4,0.3c-0.1,0-0.1,0-0.1,0
							c-0.2-0.1-0.3-0.3-0.3-0.5l1.2-3.3c0.1-0.2,0.2-0.3,0.4-0.3c0.2,0,0.3,0.1,0.4,0.3l0.3,0.8c0,0.1,0,0.1-0.1,0.1
							c-0.1,0-0.1,0-0.1-0.1l-0.3-0.8c0-0.1-0.1-0.1-0.2-0.1c0,0,0,0,0,0c-0.1,0-0.2,0-0.2,0.1L12,18.5c0,0.1,0,0.2,0.1,0.2
							c0,0,0,0,0.1,0c0.1,0,0.1,0,0.2-0.1l0.3-0.7c0,0,0.1-0.1,0.1-0.1h1.3c0,0,0.1,0,0.1,0.1l0.3,0.7c0,0.1,0.1,0.1,0.2,0.1
							c0,0,0.1,0,0.1,0c0.1,0,0.2-0.1,0.1-0.3l-0.5-1.4c0-0.1,0-0.1,0.1-0.1c0.1,0,0.1,0,0.1,0.1l0.5,1.4c0.1,0.2,0,0.5-0.2,0.5
							C14.7,19,14.7,19,14.6,19z M13.9,17.5H13c0,0-0.1,0-0.1,0c0,0,0-0.1,0-0.1l0.4-1.2c0,0,0.1-0.1,0.1-0.1c0,0,0.1,0,0.1,0.1
							l0.4,1.2C14,17.4,14,17.4,13.9,17.5C13.9,17.5,13.9,17.5,13.9,17.5z M13.1,17.3h0.6l-0.3-0.7L13.1,17.3z"/>
					</g>
				</g>
			</g>
		</g>
		<g>
			<g>
				<g>
					<g>
						<path class="st1" d="M19.6,19c-0.2,0-0.4-0.2-0.4-0.4v-1c0-0.1,0.1-0.1,0.1-0.1c0.1,0,0.1,0.1,0.1,0.1v1
							c0,0.1,0.1,0.2,0.2,0.2c0.1,0,0.2-0.1,0.2-0.2v-3.3c0-0.1-0.1-0.2-0.2-0.2c-0.1,0-0.2,0.1-0.2,0.2V16c0,0.1-0.1,0.1-0.1,0.1
							c-0.1,0-0.1-0.1-0.1-0.1v-0.7c0-0.2,0.2-0.4,0.4-0.4c0.2,0,0.4,0.2,0.4,0.4v3.3C20,18.8,19.8,19,19.6,19z"/>
					</g>
				</g>
			</g>
		</g>
		<g>
			<g>
				<g>
					<g>
						<path class="st1" d="M17.1,19.1c-0.6,0-1.2-0.3-1.5-0.6c-0.2-0.1-0.2-0.4-0.1-0.6c0.1-0.2,0.4-0.2,0.6-0.1
							c0.2,0.2,0.6,0.4,1,0.4c0,0,0,0,0,0c0.2,0,0.5-0.1,0.6-0.2c0.1-0.1,0.2-0.2,0.2-0.3c0,0,0-0.1,0-0.1c0,0-0.1-0.1-0.1-0.1
							c-0.1-0.1-0.4-0.2-0.7-0.2h0c0,0,0,0,0,0c-0.3-0.1-0.5-0.1-0.7-0.2c-0.2-0.1-0.4-0.3-0.6-0.5c0-0.1,0-0.1,0-0.2
							c0.1,0,0.1,0,0.2,0c0.1,0.2,0.3,0.3,0.5,0.4c0.2,0.1,0.4,0.2,0.7,0.2l0,0c0,0,0,0,0,0c0.3,0.1,0.6,0.2,0.8,0.3
							c0.1,0.1,0.2,0.1,0.2,0.2c0,0.1,0.1,0.1,0.1,0.2c0,0.1,0,0.3-0.3,0.5c-0.2,0.1-0.5,0.2-0.8,0.2c-0.4,0-0.8-0.2-1.1-0.5
							c0,0-0.1,0-0.1,0c0,0-0.1,0-0.1,0.1c-0.1,0.1,0,0.2,0,0.2c0.3,0.2,0.8,0.5,1.3,0.5c0.4,0,0.7-0.1,1-0.3c0.1,0,0.1,0,0.2,0
							c0,0.1,0,0.1,0,0.2C17.9,19,17.5,19.1,17.1,19.1z M18.6,17.9c-0.1,0-0.1-0.1-0.1-0.1c0-0.1,0-0.3-0.1-0.4
							c-0.1-0.2-0.3-0.3-0.5-0.4c-0.2-0.1-0.4-0.2-0.7-0.2c0,0,0,0,0,0c-0.3-0.1-0.6-0.2-0.7-0.3c-0.1-0.1-0.1-0.1-0.2-0.2
							c0-0.1-0.1-0.1-0.1-0.2c0-0.1,0-0.3,0.3-0.4c0.2-0.1,0.4-0.2,0.7-0.2c0.4,0,0.6,0.2,1,0.4c0,0,0.1,0,0.1,0c0,0,0.1,0,0.1-0.1
							c0.1-0.1,0-0.2,0-0.2l0,0c-0.3-0.2-0.6-0.4-1.1-0.4c-0.3,0-0.6,0.1-0.9,0.3c-0.1,0-0.1,0.1-0.2,0.1c0,0-0.1,0.1-0.2,0
							c0,0-0.1-0.1,0-0.2c0.1-0.1,0.1-0.1,0.2-0.2c0.3-0.2,0.6-0.3,1-0.3c0.6,0,1,0.3,1.3,0.5l0,0c0.2,0.1,0.2,0.4,0.1,0.6
							c-0.1,0.1-0.1,0.1-0.2,0.2c-0.1,0-0.2,0-0.3-0.1c-0.3-0.2-0.5-0.3-0.8-0.3c-0.2,0-0.4,0.1-0.5,0.2c-0.1,0.1-0.2,0.2-0.2,0.3
							c0,0.1,0,0.1,0,0.1c0,0,0,0.1,0.1,0.1c0.1,0.1,0.4,0.2,0.6,0.2h0c0,0,0,0,0,0c0.3,0.1,0.6,0.1,0.8,0.2
							c0.3,0.1,0.5,0.3,0.6,0.5c0.1,0.2,0.1,0.3,0.1,0.5C18.7,17.9,18.7,17.9,18.6,17.9z"/>
					</g>
				</g>
			</g>
		</g>
		<g>
			<g>
				<g>
					<g>
						<path class="st1" d="M22.1,19.1c-0.6,0-1.2-0.3-1.5-0.6c-0.2-0.1-0.2-0.4-0.1-0.6c0.1-0.2,0.4-0.2,0.6-0.1
							c0.2,0.2,0.6,0.4,1,0.4c0,0,0,0,0,0c0.2,0,0.5-0.1,0.6-0.2c0.1-0.1,0.2-0.2,0.2-0.3c0,0,0-0.1,0-0.1c0,0-0.1-0.1-0.1-0.1
							c-0.1-0.1-0.4-0.2-0.7-0.2h0c0,0,0,0,0,0c-0.3-0.1-0.5-0.1-0.7-0.2c-0.2-0.1-0.4-0.3-0.6-0.5c0-0.1,0-0.1,0-0.2
							c0.1,0,0.1,0,0.2,0c0.1,0.2,0.3,0.3,0.5,0.4c0.2,0.1,0.4,0.2,0.7,0.2l0,0c0,0,0,0,0,0c0.3,0.1,0.6,0.2,0.8,0.3
							c0.1,0.1,0.2,0.1,0.2,0.2c0,0.1,0.1,0.1,0.1,0.2c0,0.1,0,0.3-0.3,0.5c-0.2,0.1-0.5,0.2-0.8,0.2c-0.4,0-0.8-0.2-1.1-0.5
							c0,0-0.1,0-0.1,0c0,0-0.1,0-0.1,0.1c-0.1,0.1,0,0.2,0,0.2c0.3,0.2,0.8,0.5,1.3,0.5c0.4,0,0.7-0.1,1-0.3c0.1,0,0.1,0,0.2,0
							c0,0.1,0,0.1,0,0.2C22.9,19,22.5,19.1,22.1,19.1z M23.6,17.9c-0.1,0-0.1-0.1-0.1-0.1c0-0.1,0-0.3-0.1-0.4
							c-0.1-0.2-0.3-0.3-0.5-0.4c-0.2-0.1-0.4-0.2-0.7-0.2c0,0,0,0,0,0c-0.3-0.1-0.6-0.2-0.7-0.3c-0.1-0.1-0.1-0.1-0.2-0.2
							c0-0.1-0.1-0.1-0.1-0.2c0-0.1,0-0.3,0.3-0.4c0.2-0.1,0.4-0.2,0.7-0.2c0.4,0,0.6,0.2,1,0.4c0,0,0.1,0,0.1,0c0,0,0.1,0,0.1-0.1
							c0.1-0.1,0-0.2,0-0.2l0,0c-0.3-0.2-0.6-0.4-1.1-0.4c-0.3,0-0.6,0.1-0.9,0.3c-0.1,0-0.1,0.1-0.2,0.1c0,0-0.1,0.1-0.2,0
							c0,0-0.1-0.1,0-0.2c0.1-0.1,0.1-0.1,0.2-0.2c0.3-0.2,0.6-0.3,1-0.3c0.6,0,1,0.3,1.3,0.5l0,0c0.2,0.1,0.2,0.4,0.1,0.6
							c-0.1,0.1-0.1,0.1-0.2,0.2c-0.1,0-0.2,0-0.3-0.1c-0.3-0.2-0.5-0.3-0.8-0.3c-0.2,0-0.4,0.1-0.5,0.2c-0.1,0.1-0.2,0.2-0.2,0.3
							c0,0.1,0,0.1,0,0.1c0,0,0,0.1,0.1,0.1c0.1,0.1,0.4,0.2,0.6,0.2h0c0,0,0,0,0,0c0.3,0.1,0.6,0.1,0.8,0.2
							c0.3,0.1,0.5,0.3,0.6,0.5c0.1,0.2,0.1,0.3,0.1,0.5C23.7,17.9,23.6,17.9,23.6,17.9z"/>
					</g>
				</g>
			</g>
		</g>
		<g>
			<g>
				<g>
					<g>
						<g>
							<path class="st1" d="M9.4,19.1c-0.5,0-1-0.2-1.3-0.5c-0.4-0.3-0.6-0.8-0.7-1.3c0-0.1,0-0.1,0.1-0.1c0.1,0,0.1,0,0.1,0.1
								c0.1,0.4,0.3,0.8,0.6,1.1c0.3,0.3,0.8,0.5,1.2,0.5c1,0,1.8-0.8,1.8-1.9c0-1-0.8-1.9-1.8-1.9c-0.9,0-1.7,0.7-1.8,1.7
								c0,0.1-0.1,0.1-0.1,0.1c-0.1,0-0.1-0.1-0.1-0.1c0.1-1.1,1-1.9,2-1.9c1.1,0,2,0.9,2,2.1C11.5,18.1,10.5,19.1,9.4,19.1z"/>
						</g>
					</g>
					<g>
						<g>
							<path class="st1" d="M9.4,18.4c-0.4,0-0.7-0.2-1-0.4C8.2,17.7,8,17.4,8,17c0-0.4,0.2-0.8,0.4-1c0.3-0.3,0.6-0.4,1-0.4
								c0.4,0,0.7,0.2,1,0.4c0.1,0.1,0.2,0.3,0.3,0.4c0,0.1,0,0.1-0.1,0.2c-0.1,0-0.1,0-0.2-0.1c-0.1-0.1-0.1-0.2-0.2-0.3
								c-0.2-0.2-0.5-0.4-0.8-0.4c-0.3,0-0.6,0.1-0.8,0.4c-0.2,0.2-0.4,0.6-0.4,0.9c0,0.3,0.1,0.7,0.3,0.9c0.2,0.2,0.5,0.4,0.8,0.4
								c0.3,0,0.6-0.1,0.8-0.4c0.1-0.1,0.2-0.3,0.3-0.5c0-0.1,0.1-0.1,0.1-0.1c0.1,0,0.1,0.1,0.1,0.1c-0.1,0.2-0.2,0.4-0.3,0.6
								C10.1,18.3,9.8,18.4,9.4,18.4z"/>
						</g>
					</g>
				</g>
			</g>
		</g>
	</g>
	<g>
		<g>
			<path class="st0" d="M15.5,13.1c-0.1,0-0.1,0-0.1-0.1c0,0-1-3.7-2.4-4.9c-1.3-1.1-3-0.5-3-0.5c-0.1,0-0.2,0-0.2-0.1
				c0-0.1,0-0.2,0.1-0.2c0.1,0,1.9-0.7,3.3,0.6c1.5,1.3,2.5,4.9,2.5,5C15.7,13,15.6,13.1,15.5,13.1C15.6,13.1,15.5,13.1,15.5,13.1z"
				/>
		</g>
		<g>
			<path class="st0" d="M14.6,12.8C14.5,12.8,14.5,12.8,14.6,12.8c-0.1,0-0.2-0.1-0.3-0.1c-0.3-0.1-0.6-0.2-0.7-0.5
				c-0.2-0.3-0.1-0.6,0-0.8c0-0.1,0.1-0.2,0-0.2c-0.1-0.1-0.2-0.1-0.4-0.2c-0.2,0-0.4,0-0.6-0.2c-0.3-0.2-0.2-0.6-0.2-0.9
				c0-0.1,0.1-0.3,0-0.3c0,0-0.1-0.1-0.3,0c-0.1,0-0.3,0-0.5,0c-0.4-0.1-0.4-0.4-0.3-0.6c0-0.1,0-0.3,0-0.3c-0.1-0.1-0.3-0.1-0.5,0
				c-0.2,0-0.4,0.1-0.5,0C9.9,8.6,9.9,8,9.9,8c0-0.1,0.1-0.1,0.1-0.1c0.1,0,0.1,0.1,0.1,0.1c0,0.1,0.1,0.4,0.2,0.4
				c0.1,0,0.2,0,0.4,0c0.3,0,0.6-0.1,0.8,0.2c0.1,0.2,0.1,0.4,0.1,0.5c0,0.3,0,0.3,0.1,0.3c0.2,0,0.3,0,0.4,0c0.2,0,0.5,0,0.6,0.2
				c0.1,0.1,0,0.3,0,0.5c-0.1,0.3-0.1,0.5,0.1,0.6c0.2,0.1,0.3,0.1,0.5,0.2c0.2,0,0.4,0,0.6,0.2c0.1,0.1,0.1,0.3,0,0.5
				c-0.1,0.2-0.1,0.3,0,0.5c0.1,0.2,0.4,0.3,0.6,0.4c0.1,0,0.2,0.1,0.3,0.1c0.1,0,0.1,0.1,0.1,0.2C14.7,12.8,14.6,12.8,14.6,12.8z"
				/>
		</g>
	</g>
	<g>
		<g>
			<path class="st0" d="M1.6,12.3C1.6,12.3,1.6,12.3,1.6,12.3c-0.1,0-0.1-0.1-0.1-0.1c0-0.1,0-1.9,0.8-3.3C3.3,6.8,4.7,7,5.7,7.2
				l0.1,0c0.1,0,0.1,0.1,0.1,0.2c0,0.1-0.1,0.1-0.2,0.1l-0.1,0C4.6,7.3,3.5,7.1,2.5,9c-0.7,1.3-0.7,3.1-0.7,3.2
				C1.8,12.2,1.7,12.3,1.6,12.3z"/>
		</g>
		<g>
			<path class="st0" d="M2.4,11.7C2.4,11.7,2.4,11.7,2.4,11.7c-0.1,0-0.2-0.1-0.1-0.2c0.1-0.4,0.2-0.5,0.4-0.6
				c0.1,0,0.1-0.1,0.2-0.1C2.9,10.6,3,10.4,3,10.2C3,10.1,3,10,3,10c0.1-0.3,0.5-0.4,0.8-0.4c0.2,0,0.3-0.2,0.4-0.4l0-0.1
				c0.1-0.4,0.5-0.4,1.1-0.4C5.9,8.7,6,8.2,6,8.2C6,8.1,6.1,8,6.1,8c0.1,0,0.1,0.1,0.1,0.2C6.3,8.4,6,9,5.4,9c-0.7,0-0.8,0-0.9,0.2
				l0,0.1C4.4,9.5,4.3,9.9,3.8,9.9c-0.3,0-0.5,0.1-0.5,0.2c0,0,0,0.1,0,0.2c0,0.2-0.1,0.5-0.3,0.7c-0.1,0.1-0.1,0.1-0.2,0.2
				c-0.1,0.1-0.2,0.1-0.3,0.4C2.5,11.6,2.5,11.7,2.4,11.7z"/>
		</g>
	</g>
	<g>
		<g>
			<path class="st0" d="M9.1,6.7C9.1,6.7,9.1,6.7,9.1,6.7C9,6.7,9,6.6,9,6.5c0,0,0.6-2.4,3.2-2.4c0,0,0,0,0.1,0
				c2.5,0,5.3,1.6,5.4,1.6c0.1,0,0.1,0.1,0.1,0.2C17.7,6,17.6,6,17.5,6c0,0-2.9-1.6-5.3-1.6c0,0,0,0,0,0c-2.4,0-2.9,2.1-2.9,2.2
				C9.2,6.6,9.2,6.7,9.1,6.7z"/>
		</g>
		<g>
			<path class="st0" d="M10.9,6.7c-0.1,0-0.2,0-0.4-0.1c-0.2,0-0.3-0.1-0.6,0c-0.1,0-0.2,0-0.2-0.1c0-0.1,0-0.2,0.1-0.2
				c0.3-0.1,0.5-0.1,0.7,0c0.1,0,0.3,0.1,0.4,0c0.1,0,0.2-0.1,0.3-0.2C11.4,6,11.6,5.8,12,5.9c0.3,0,0.5,0.1,0.7,0.2
				c0.2,0.1,0.3,0.2,0.5,0.2c0.2,0,0.3-0.1,0.4-0.2C13.8,6,14,5.8,14.4,5.8c0.4,0,0.7,0.1,0.9,0.3c0.2,0.1,0.4,0.2,0.6,0.2
				c0.5,0,0.9-0.3,0.9-0.3c0.1,0,0.2,0,0.2,0c0,0.1,0,0.2,0,0.2c0,0-0.6,0.4-1.1,0.4c-0.3,0-0.5-0.1-0.7-0.2
				c-0.2-0.1-0.5-0.3-0.8-0.2c-0.3,0-0.4,0.1-0.6,0.2c-0.1,0.1-0.3,0.2-0.6,0.2c-0.3,0-0.5-0.1-0.6-0.2c-0.2-0.1-0.3-0.2-0.6-0.2
				c-0.3,0-0.4,0.1-0.5,0.2c-0.1,0.1-0.2,0.3-0.4,0.3C11,6.7,11,6.7,10.9,6.7z"/>
		</g>
	</g>
	<g>
		<g>
			<path class="st0" d="M7.3,6.5c-0.1,0-0.1,0-0.1-0.1c0,0-0.9-1.8-2.8-2.1c-1.9-0.4-3.9,1-3.9,1c-0.1,0-0.2,0-0.2,0
				c0-0.1,0-0.2,0-0.2c0.1-0.1,2.1-1.5,4.1-1.1c2,0.4,2.9,2.2,3,2.3C7.5,6.4,7.5,6.5,7.3,6.5C7.4,6.5,7.4,6.5,7.3,6.5z"/>
		</g>
		<g>
			<path class="st0" d="M6.3,6.9C6,6.9,5.7,6.9,5.6,6.7L5.5,6.6C5.3,6.3,5,6,4.8,6C4.7,6,4.6,6,4.5,6.1C4.4,6.2,4.1,6.4,3.9,6.3
				C3.6,6.2,3.4,6,3.3,5.8C3.2,5.7,3,5.5,2.9,5.5c0,0-0.1,0.1-0.2,0.1C2.6,5.8,2.4,6,2.1,5.9c-0.2,0-0.3-0.1-0.4-0.1
				C1.4,5.7,1.2,5.7,1.1,5.7c-0.1,0-0.2,0-0.2-0.1c0-0.1,0-0.2,0.1-0.2c0.2-0.1,0.4,0,0.7,0.1c0.1,0,0.3,0.1,0.4,0.1
				c0.2,0,0.3,0,0.4-0.2c0.1-0.1,0.2-0.2,0.4-0.2c0.2,0,0.4,0.2,0.5,0.4C3.6,5.8,3.8,6,3.9,6c0.1,0,0.3,0,0.4-0.1
				c0.1-0.1,0.3-0.2,0.4-0.2c0.3,0,0.6,0.3,0.9,0.7l0.1,0.1C6,6.7,6.7,6.6,6.9,6.6c0.1,0,0.2,0,0.2,0.1c0,0.1,0,0.2-0.1,0.2
				C6.9,6.9,6.6,6.9,6.3,6.9z"/>
		</g>
	</g>
	<g>
		<g>
			<path class="st0" d="M7.8,6.4c-0.1,0-0.1,0-0.1-0.1c0-0.1-0.5-1.8,0.2-3.1c0.9-1.7,2.8-2.4,5.5-2.1c0.1,0,0.1,0.1,0.1,0.2
				c0,0.1-0.1,0.1-0.2,0.1c-2.7-0.3-4.4,0.3-5.3,2C7.5,4.5,8,6.2,8,6.2C8,6.3,7.9,6.3,7.8,6.4C7.9,6.4,7.8,6.4,7.8,6.4z"/>
		</g>
		<g>
			<path class="st0" d="M8.5,6.3C8.5,6.3,8.5,6.3,8.5,6.3c-0.1,0-0.1-0.1-0.1-0.2c0,0,0-0.1,0-0.1c0-0.2,0-0.4,0.1-0.6
				c0.1-0.1,0.2-0.1,0.3-0.1c0.2,0,0.2-0.1,0.3-0.2c0.1-0.2,0.1-0.5,0-0.7c-0.1-0.2,0-0.3,0-0.4c0.1-0.2,0.6-0.4,1.2-0.5
				c0.4,0,0.4-0.1,0.4-0.4c0-0.1,0-0.2,0-0.4c0.1-0.4,0.4-0.3,0.8-0.3c0.2,0,0.4,0,0.7,0c0.3,0,0.7-0.5,0.8-0.7
				c0-0.1,0.1-0.1,0.2-0.1c0.1,0,0.1,0.1,0.1,0.2c0,0-0.4,0.8-1,0.9c-0.3,0-0.5,0-0.7,0c-0.4,0-0.5,0-0.5,0.1c0,0.1,0,0.2,0,0.3
				c0,0.3,0,0.6-0.6,0.7C9.9,3.8,9.5,4,9.4,4.1c0,0,0,0.1,0,0.2c0.1,0.3,0.1,0.7-0.1,0.9C9.2,5.4,9,5.5,8.8,5.5c-0.1,0-0.1,0-0.1,0
				C8.6,5.6,8.6,5.8,8.6,6c0,0.1,0,0.1,0,0.2C8.6,6.2,8.6,6.3,8.5,6.3z"/>
		</g>
	</g>
	<g>
		<path class="st0" d="M8.6,9.5c-0.2,0-0.3,0-0.4-0.1C7.3,9,7.8,7.6,7.8,7.5c0-0.1,0.1-0.1,0.2-0.1c0.1,0,0.1,0.1,0.1,0.2
			c0,0-0.4,1.2,0.2,1.5C8.5,9.2,8.8,9.2,9.1,9c0.2-0.2,0.3-0.5,0.3-0.9c-0.2-0.9-1-0.8-1-0.8c-0.1,0-0.1,0-0.2-0.1
			c0-0.1,0-0.1,0.1-0.2c0,0,1.1-0.1,1.3,1c0.1,0.7-0.2,1-0.4,1.2C9,9.4,8.8,9.5,8.6,9.5z"/>
	</g>
	<g>
		<path class="st0" d="M7.3,9.2C7.2,9.2,7,9.1,6.9,9C6.7,8.8,6.6,8.4,6.7,8c0.1-0.6,0.8-1,0.8-1c0.1,0,0.2,0,0.2,0.1
			c0,0.1,0,0.2-0.1,0.2c0,0-0.6,0.3-0.7,0.7c0,0.3,0,0.6,0.2,0.7c0.1,0.1,0.1,0.1,0.2,0.1c0.1,0,0.1,0.1,0.1,0.1
			C7.5,9.1,7.5,9.2,7.3,9.2C7.4,9.2,7.4,9.2,7.3,9.2z"/>
	</g>
	<g>
		<path class="st0" d="M14.3,23.9c-0.5,0-0.7-0.2-0.9-0.4c-0.2-0.2-0.4-0.3-0.7-0.3c-0.3,0-0.5,0.1-0.7,0.3
			c-0.2,0.2-0.5,0.4-0.9,0.4c-0.5,0-0.7-0.2-0.9-0.4c-0.2-0.2-0.4-0.3-0.7-0.3c-0.1,0-0.2-0.1-0.2-0.2s0.1-0.2,0.2-0.2
			c0.5,0,0.7,0.2,0.9,0.4c0.2,0.2,0.4,0.3,0.7,0.3c0.3,0,0.5-0.1,0.7-0.3c0.2-0.2,0.5-0.4,0.9-0.4c0.5,0,0.7,0.2,0.9,0.4
			c0.2,0.2,0.4,0.3,0.7,0.3s0.5-0.1,0.7-0.3c0.2-0.2,0.5-0.4,0.9-0.4c0.1,0,0.2,0.1,0.2,0.2s-0.1,0.2-0.2,0.2
			c-0.3,0-0.5,0.1-0.7,0.3C15,23.7,14.8,23.9,14.3,23.9z"/>
	</g>
	<g>
		<path class="st0" d="M18.1,21.6c-0.5,0-0.7-0.2-0.9-0.4c-0.2-0.2-0.4-0.3-0.7-0.3c-0.3,0-0.5,0.1-0.7,0.3
			c-0.2,0.2-0.5,0.4-0.9,0.4c-0.5,0-0.7-0.2-0.9-0.4c-0.2-0.2-0.4-0.3-0.7-0.3c-0.3,0-0.5,0.1-0.7,0.3c-0.2,0.2-0.5,0.4-0.9,0.4
			c-0.5,0-0.7-0.2-0.9-0.4c-0.2-0.2-0.4-0.3-0.7-0.3c-0.3,0-0.5,0.1-0.7,0.3c-0.2,0.2-0.5,0.4-0.9,0.4c-0.1,0-0.2-0.1-0.2-0.2
			s0.1-0.2,0.2-0.2c0.3,0,0.5-0.1,0.7-0.3c0.2-0.2,0.5-0.4,0.9-0.4c0.5,0,0.7,0.2,0.9,0.4c0.2,0.2,0.4,0.3,0.7,0.3
			c0.3,0,0.5-0.1,0.7-0.3c0.2-0.2,0.5-0.4,0.9-0.4c0.5,0,0.7,0.2,0.9,0.4c0.2,0.2,0.4,0.3,0.7,0.3c0.3,0,0.5-0.1,0.7-0.3
			c0.2-0.2,0.5-0.4,0.9-0.4c0.5,0,0.7,0.2,0.9,0.4c0.2,0.2,0.4,0.3,0.7,0.3c0.1,0,0.2,0.1,0.2,0.2S18.2,21.6,18.1,21.6z"/>
	</g>
</g>
</svg>
