<?xml version="1.0" encoding="utf-8"?>
<!-- Generator: Adobe Illustrator 25.1.0, SVG Export Plug-In . SVG Version: 6.00 Build 0)  -->
<svg version="1.1" id="Layer_1" xmlns="http://www.w3.org/2000/svg" xmlns:xlink="http://www.w3.org/1999/xlink" x="0px" y="0px"
	 viewBox="0 0 24 30" style="enable-background:new 0 0 24 30;" xml:space="preserve">
<style type="text/css">
	.st0{fill:#FFFFFF;}
</style>
<g>
	<g>
		<g>
			<g>
				<g>
					<path class="st0" d="M4.1,18.3C4.7,19.8,5.7,21,7,21.9c1.4,1,3.1,1.5,4.8,1.5c1.3,0,2.6-0.3,3.8-0.9c0.1,0.1,0.2,0.1,0.3,0
						c0.1-0.1,0.2-0.3,0.1-0.4s-0.3-0.2-0.4-0.1c-0.1,0-0.1,0.2-0.1,0.3c-1.1,0.6-2.4,0.9-3.7,0.9c-1.7,0-3.3-0.5-4.7-1.5
						c-1.3-0.9-2.3-2.1-2.8-3.5c0.1-0.1,0.1-0.2,0.1-0.3c0-0.1-0.2-0.2-0.4-0.2c-0.1,0-0.2,0.2-0.2,0.4C3.8,18.2,4,18.3,4.1,18.3z"
						/>
					<path class="st0" d="M11.8,23.5C10,23.5,8.3,23,6.9,22c-1.3-0.9-2.3-2.1-2.9-3.6c-0.1,0-0.3-0.1-0.3-0.3c0-0.1,0-0.2,0-0.3
						c0.1-0.1,0.1-0.2,0.2-0.2c0.1,0,0.2,0,0.3,0s0.2,0.1,0.2,0.2l0,0c0,0.1,0,0.2-0.1,0.3c0.5,1.3,1.5,2.5,2.8,3.4
						c1.4,0.9,2.9,1.4,4.6,1.4c1.2,0,2.5-0.3,3.6-0.9c0-0.1,0.1-0.2,0.2-0.3c0.2-0.1,0.4-0.1,0.6,0.1c0.1,0.2,0.1,0.4-0.1,0.6
						c-0.1,0.1-0.3,0.1-0.4,0C14.4,23.2,13.1,23.5,11.8,23.5z M15.6,22.4L15.6,22.4c0.1,0.1,0.2,0.1,0.3,0.1c0.1-0.1,0.1-0.2,0-0.3
						c-0.1-0.1-0.2-0.1-0.3-0.1C15.6,22.2,15.6,22.3,15.6,22.4L15.6,22.4L15.6,22.4z M4.1,17.8C4,17.8,4,17.8,4.1,17.8
						C4,17.8,4,17.9,4,17.9V18l0.1,0.1h0.1l0,0l0,0C4.3,18,4.3,18,4.3,17.9C4.2,17.9,4.2,17.9,4.1,17.8C4.1,17.9,4.1,17.8,4.1,17.8z
						"/>
				</g>
				<g>
					<path class="st0" d="M20,12.6c0-0.1-0.1-0.2-0.3-0.2c-0.5-1.6-1.6-3-2.9-4.1c-1.5-1.1-3.2-1.7-5.1-1.7c-1.6,0-3.2,0.5-4.5,1.3
						C6.1,8.7,5.1,9.7,4.4,11c-0.1,0-0.2,0-0.3,0.1c-0.1,0.1,0,0.3,0.1,0.4c0.1,0.1,0.3,0,0.4-0.1c0-0.1,0-0.2,0-0.3
						c0.7-1.2,1.6-2.3,2.8-3c1.3-0.9,2.8-1.3,4.4-1.3c1.8,0,3.5,0.6,5,1.6c1.3,1,2.3,2.4,2.8,3.9c-0.1,0.1-0.1,0.2-0.1,0.3
						s0.2,0.2,0.4,0.2C20,12.9,20.1,12.7,20,12.6z"/>
					<path class="st0" d="M19.8,13c-0.2,0-0.3-0.1-0.4-0.3s0-0.3,0.1-0.4C19,10.8,18,9.5,16.7,8.5c-1.4-1.1-3.1-1.6-4.9-1.6
						c-1.6,0-3.1,0.4-4.3,1.3c-1.2,0.7-2.1,1.7-2.8,2.9c0.1,0.1,0.1,0.3,0,0.4c0,0.1-0.1,0.2-0.2,0.2s-0.2,0-0.3,0
						c-0.1,0-0.2-0.1-0.2-0.2c0-0.1,0-0.2,0-0.3c0-0.2,0.2-0.3,0.3-0.3C5,9.6,6,8.6,7.2,7.8c1.4-0.9,2.9-1.3,4.5-1.3
						c2,0,3.7,0.6,5.2,1.7c1.4,1.1,2.4,2.5,2.9,4.1c0.1,0,0.2,0.1,0.3,0.3l0,0c0,0.1,0,0.2,0,0.3C20,12.9,20,13,19.9,13
						S19.8,13,19.8,13z M19.7,12.4L19.7,12.4c-0.1,0.1-0.1,0.1-0.1,0.2c0,0.1,0.1,0.1,0.2,0.1s0.1,0,0.1,0v-0.1l0,0
						C19.9,12.5,19.9,12.5,19.7,12.4L19.7,12.4z M4.4,11.1c-0.1,0-0.2,0-0.2,0.1v0.1l0.1,0.1l0,0h0.1l0.1-0.1
						C4.5,11.2,4.5,11.2,4.4,11.1L4.4,11.1L4.4,11.1L4.4,11.1z"/>
				</g>
				<g>
					<path class="st0" d="M14.8,24.4c0.1,0,0.2-0.2,0.2-0.4c0-0.1-0.2-0.2-0.4-0.2c-0.1,0-0.2,0.1-0.2,0.2c-0.8,0.2-1.6,0.3-2.5,0.3
						c-2.5,0-4.8-1-6.6-2.6c-1.7-1.6-2.7-3.8-2.8-6.2c0.1,0,0.2-0.1,0.2-0.3c0-0.1-0.1-0.3-0.3-0.3c-0.1,0-0.3,0.1-0.3,0.3
						c0,0.1,0.1,0.2,0.2,0.3c0.1,2.4,1.2,4.6,2.9,6.3c1.8,1.7,4.2,2.7,6.7,2.7c0.9,0,1.7-0.1,2.6-0.3C14.6,24.4,14.7,24.4,14.8,24.4
						z"/>
					<path class="st0" d="M11.9,24.8c-2.5,0-5-1-6.8-2.8s-2.8-4-2.9-6.4C2.1,15.5,2,15.4,2,15.3c0-0.2,0.2-0.4,0.4-0.4
						s0.4,0.2,0.4,0.4c0,0.1-0.1,0.3-0.2,0.3c0.2,2.3,1.1,4.5,2.8,6.1c1.8,1.7,4.1,2.6,6.5,2.6c0.9,0,1.7-0.1,2.4-0.3
						c0-0.1,0.1-0.2,0.2-0.2c0.1,0,0.2,0,0.3,0S15,23.9,15,24c0.1,0.2-0.1,0.5-0.3,0.5l0,0c-0.1,0-0.2,0-0.3-0.1
						C13.7,24.7,12.9,24.8,11.9,24.8z M11.7,24.5c1,0,1.9-0.1,2.7-0.3h0.1l0,0c0,0,0.1,0.1,0.2,0.1c0,0,0.1,0,0.1-0.1v-0.1
						c0,0,0-0.1-0.1-0.1h-0.1c-0.1,0-0.1,0.1-0.1,0.1v0.1h-0.1C13.6,24.4,12.7,24.5,11.7,24.5z M2.4,15.1c-0.1,0-0.2,0.1-0.2,0.2
						c0,0.1,0.1,0.2,0.1,0.2l0,0l0,0c0,0,0.1-0.1,0.1-0.2C2.6,15.2,2.5,15.1,2.4,15.1z"/>
				</g>
				<g>
					<path class="st0" d="M18,7.6c0-0.1,0-0.2-0.1-0.3c-0.1-0.1-0.3-0.1-0.4,0s-0.1,0.3,0,0.4s0.2,0.1,0.3,0
						c2.2,1.8,3.4,4.4,3.4,7.2c0,1-0.1,2-0.5,3c-0.1,0-0.2,0.1-0.3,0.2c0,0.1,0,0.3,0.2,0.4c0.1,0,0.3,0,0.4-0.2
						c0-0.1,0-0.2-0.1-0.3c0.3-1,0.5-2,0.5-3C21.5,12.1,20.3,9.4,18,7.6z"/>
					<path class="st0" d="M20.9,18.6h-0.1c-0.1,0-0.2-0.1-0.2-0.2c-0.1-0.1-0.1-0.2,0-0.3c0.1-0.1,0.2-0.2,0.3-0.3
						c0.3-0.9,0.4-1.8,0.4-2.9c0-2.8-1.2-5.3-3.3-7.1c-0.1,0-0.3,0-0.4-0.1c-0.1,0-0.1-0.1-0.1-0.2s0-0.2,0.1-0.3
						c0.1-0.1,0.1-0.1,0.2-0.2c0.1,0,0.2,0,0.3,0.1c0.1,0.1,0.2,0.3,0.2,0.4c2.2,1.9,3.5,4.6,3.4,7.5c0,1.1-0.1,2-0.5,3
						c0.1,0.1,0.1,0.2,0.1,0.4c0,0.1-0.1,0.2-0.2,0.2C21,18.6,20.9,18.6,20.9,18.6z M20.9,18.1c0,0-0.1,0.1-0.2,0.1v0.1l0.1,0.1
						c0.1,0,0.1,0,0.2,0l0.1-0.1c0-0.1,0-0.1-0.1-0.2H20.9L20.9,18.1L20.9,18.1z M17.7,7.3L17.7,7.3c-0.1,0-0.1,0-0.1,0.1
						s-0.1,0.1,0,0.2c0,0,0,0.1,0.1,0.1c0.1,0.1,0.2,0.1,0.2,0H18l0,0l0,0V7.6c0,0,0-0.1-0.1-0.2C17.8,7.3,17.8,7.3,17.7,7.3z"/>
				</g>
				<g>
					<path class="st0" d="M11.9,5.6c0.9,0,1.7,0.1,2.6,0.4c0,0.1,0.1,0.2,0.2,0.2c0.1,0,0.3,0,0.4-0.2c0-0.1,0-0.3-0.2-0.4
						c-0.1,0-0.2,0-0.3,0.1c-0.9-0.2-1.7-0.4-2.7-0.4c-3.1,0-6,1.5-7.9,4c-0.1,0-0.2,0-0.3,0.1c0,0.1,0,0.3,0.2,0.4
						C4,10,4.2,10,4.2,9.8c0-0.1,0-0.2,0-0.3C6.1,7.1,8.9,5.6,11.9,5.6z"/>
					<path class="st0" d="M4.1,10.1c-0.1,0-0.2,0-0.3-0.1C3.6,9.9,3.6,9.7,3.6,9.5l0,0l0,0C3.7,9.3,3.9,9.3,4,9.3
						c1.9-2.5,4.8-4,7.9-4c0.9,0,1.8,0.1,2.7,0.4c0.1-0.1,0.2-0.1,0.4-0.1c0.2,0.1,0.3,0.3,0.3,0.5c-0.1,0.2-0.3,0.3-0.5,0.3
						c-0.1,0-0.2-0.1-0.3-0.3c-0.9-0.2-1.7-0.3-2.5-0.3C9,5.7,6.2,7.1,4.4,9.5c0,0.1,0,0.3,0,0.4c0,0.1-0.1,0.1-0.2,0.2
						C4.1,10.1,4.1,10.1,4.1,10.1z M3.8,9.6c0,0.1,0,0.2,0.1,0.2l0,0c0.1,0,0.1,0.1,0.2,0l0,0c0-0.1,0-0.2,0-0.2V9.5V9.4
						c1.8-2.5,4.7-4,7.8-4l0,0c-3,0-5.9,1.5-7.8,4l0,0H4C3.9,9.5,3.9,9.5,3.8,9.6z M13.3,5.6c0.4,0.1,0.8,0.2,1.3,0.3h0.1V6
						c0,0,0,0.1,0.1,0.1l0,0c0.1,0,0.2,0,0.2-0.1s0-0.2-0.1-0.2s-0.1,0-0.2,0.1l0,0h-0.1C14.1,5.7,13.7,5.6,13.3,5.6z"/>
				</g>
				<g>
					<path class="st0" d="M9,4.8c0.1,0,0.2-0.1,0.2-0.2c0.9-0.2,1.7-0.3,2.6-0.3c4.8,0,9,3.2,10.3,7.7C22,12.1,22,12.2,22,12.3
						s0.2,0.2,0.4,0.2c0.1,0,0.2-0.2,0.2-0.4c0-0.1-0.1-0.2-0.2-0.2c-1.4-4.8-5.7-8-10.5-8C11,3.9,10,4,9.2,4.3
						C9.1,4.2,9,4.1,8.8,4.2c-0.1,0-0.2,0.2-0.2,0.4C8.7,4.7,8.9,4.8,9,4.8z"/>
					<path class="st0" d="M22.4,12.5c-0.2,0-0.3-0.1-0.4-0.3s0-0.3,0.1-0.4c-1.3-4.4-5.5-7.5-10.2-7.5c-0.9,0-1.8,0.1-2.5,0.3
						c0,0.1-0.1,0.2-0.2,0.2l0,0C8.9,5,8.7,4.8,8.6,4.6c-0.1-0.3,0-0.5,0.3-0.5c0.1-0.1,0.2,0,0.3,0c0.8-0.2,1.7-0.3,2.7-0.3
						c4.9,0,9.3,3.2,10.6,7.9c0.1,0,0.2,0.1,0.2,0.3C22.8,12.2,22.7,12.4,22.4,12.5C22.4,12.5,22.4,12.5,22.4,12.5z M11.9,4.1
						c4.8,0,9.1,3.2,10.4,7.8V12l0,0c-0.1,0.1-0.1,0.1-0.1,0.2c0,0.1,0.1,0.1,0.2,0.1s0.1-0.1,0.1-0.2c0-0.1-0.1-0.1-0.2-0.2l0,0
						l0,0C20.9,7.3,16.7,4.1,11.9,4.1c-1,0-1.9,0.1-2.7,0.3H9.1l0,0C9,4.3,9,4.3,8.9,4.3S8.8,4.4,8.8,4.5S8.9,4.7,9,4.7
						c0.1,0,0.1-0.1,0.1-0.1V4.5h0.1C10,4.2,10.9,4.1,11.9,4.1z"/>
				</g>
				<g>
					<path class="st0" d="M1.5,18c-0.2-1-0.4-2-0.4-3c0-3.6,1.7-6.9,4.7-8.9c0.1,0,0.2,0.1,0.3,0C6.3,6,6.3,5.8,6.2,5.7
						S5.9,5.5,5.8,5.6c-0.1,0-0.1,0.2-0.1,0.3C2.7,8,0.9,11.4,0.9,15c0,1,0.1,2,0.4,3c-0.1,0.1-0.1,0.2-0.1,0.3
						c0,0.1,0.2,0.2,0.4,0.2c0.1,0,0.2-0.2,0.2-0.4C1.8,18.1,1.6,18,1.5,18z"/>
					<path class="st0" d="M1.5,18.7c-0.2,0-0.3-0.1-0.4-0.3c-0.1-0.2,0-0.3,0.1-0.4c-0.3-1-0.4-2-0.4-3c0-3.6,1.7-7,4.8-9.2
						c0-0.1,0.1-0.3,0.2-0.3c0.1-0.1,0.2-0.1,0.3,0c0.1,0,0.2,0.1,0.3,0.2c0.1,0.2,0.1,0.4-0.1,0.6c0,0-0.2,0.1-0.4,0
						c-2.9,2-4.6,5.3-4.6,8.8c0,1,0.1,2,0.4,2.9c0.1,0,0.2,0.1,0.3,0.3c0,0.1,0,0.2,0,0.3c-0.1,0.1-0.1,0.2-0.2,0.2
						C1.6,18.7,1.6,18.7,1.5,18.7z M1.3,17.5c0,0.2,0.1,0.3,0.1,0.5v0.1l0,0c-0.1,0.1-0.1,0.1-0.1,0.2s0.1,0.1,0.2,0.1
						c0,0,0.1,0,0.1-0.1v-0.1l0,0l-0.1-0.1l0,0V18C1.4,17.8,1.3,17.7,1.3,17.5z M6,5.7C5.9,5.7,5.9,5.7,6,5.7
						c-0.2,0-0.2,0.1-0.2,0.2V6l0,0C2.7,8.1,1,11.4,1,15c0,0.2,0,0.5,0,0.7c0-0.2,0-0.5,0-0.7c0-3.6,1.8-6.9,4.7-9h0.1h0.1
						C5.9,6,6,6.1,6,6C6.1,5.9,6.1,5.8,6,5.7L6,5.7L6,5.7z"/>
				</g>
				<g>
					<path class="st0" d="M10.6,25.5c-0.1,0-0.2,0-0.3,0.1c-1.6-0.2-3-0.8-4.3-1.7c-1.3-0.9-2.4-2-3.2-3.3c0.1-0.1,0.1-0.2,0-0.3
						c-0.1-0.1-0.3-0.2-0.4-0.1c-0.1,0.1-0.2,0.3-0.1,0.4c0,0.1,0.2,0.1,0.3,0.1C3.4,22,4.5,23.2,5.9,24c1.3,0.9,2.9,1.5,4.4,1.7
						c0,0.1,0.1,0.2,0.2,0.2c0.1,0,0.3-0.1,0.3-0.2C10.9,25.7,10.7,25.5,10.6,25.5z"/>
					<path class="st0" d="M10.5,26.2L10.5,26.2c-0.1-0.1-0.2-0.1-0.3-0.2c-1.6-0.3-3.2-0.8-4.4-1.7c-1.3-0.8-2.4-2-3.3-3.3
						c-0.1,0-0.3-0.1-0.3-0.2c-0.1-0.2-0.1-0.4,0.1-0.6c0.1-0.1,0.2-0.1,0.3-0.1s0.2,0.1,0.3,0.2C3,20.3,3,20.4,3,20.5s0,0.1,0,0.2
						c0.7,1.2,1.8,2.3,3,3.1c1.3,0.9,2.7,1.4,4.2,1.7c0.1-0.1,0.2-0.1,0.3-0.1s0.2,0.1,0.3,0.2s0.1,0.2,0.1,0.3
						C10.9,26,10.7,26.2,10.5,26.2z M10.4,25.8L10.4,25.8c0,0.1,0.1,0.1,0.2,0.2c0.1,0,0.2-0.1,0.2-0.1l0,0v-0.1l-0.1-0.1
						C10.4,25.6,10.4,25.7,10.4,25.8L10.4,25.8L10.4,25.8z M2.5,20.3L2.5,20.3c-0.2,0.1-0.2,0.2-0.2,0.3c0,0,0.1,0.1,0.2,0.1h0.1
						v0.1c0.8,1.4,1.9,2.5,3.2,3.3c0.3,0.2,0.6,0.4,0.9,0.5c-0.3-0.2-0.6-0.3-0.9-0.5c-1.3-0.9-2.4-2-3.2-3.3v-0.1l0.1-0.1v-0.1
						v-0.1C2.7,20.3,2.6,20.3,2.5,20.3C2.6,20.3,2.6,20.3,2.5,20.3z"/>
				</g>
				<g>
					<path class="st0" d="M22.8,15c-0.1,0-0.3,0.1-0.3,0.3c0,0.1,0,0.2,0.2,0.3c-0.1,2.4-1,4.6-2.6,6.4c-1.5,1.8-3.6,3-5.9,3.5
						c0-0.1-0.2-0.1-0.3-0.1s-0.3,0.2-0.2,0.3c0,0.1,0.2,0.3,0.3,0.2c0.1,0,0.2-0.1,0.2-0.2c2.3-0.5,4.4-1.8,6-3.6
						c1.6-1.8,2.5-4.2,2.6-6.6c0.1,0,0.2-0.1,0.2-0.3C23.1,15.1,23,15,22.8,15z"/>
					<path class="st0" d="M14,26c-0.2,0-0.3-0.2-0.4-0.3c-0.1-0.2,0.1-0.4,0.3-0.5l0,0c0.1,0,0.2,0,0.3,0.1c2.3-0.5,4.3-1.7,5.7-3.5
						c1.5-1.8,2.4-4,2.5-6.3c-0.1-0.1-0.2-0.2-0.2-0.4s0.2-0.4,0.4-0.4c0.2,0,0.4,0.2,0.4,0.3s-0.1,0.3-0.2,0.3
						c-0.1,2.4-1,4.7-2.6,6.6c-1.6,1.8-3.7,3.1-6,3.6C14.4,25.9,14.3,26,14,26C14.1,26,14.1,26,14,26z M14,25.5c0,0-0.1,0-0.1,0.1
						v0.1c0,0.1,0.1,0.2,0.2,0.2l0,0c0.1,0,0.1-0.1,0.1-0.1v-0.1v-0.1C14.2,25.5,14.1,25.5,14,25.5z M22.8,15.7
						c-0.1,1.5-0.5,3-1.2,4.3C22.3,18.7,22.7,17.2,22.8,15.7z M22.8,15.1c-0.1,0-0.2,0.1-0.2,0.2c0,0.1,0,0.1,0.1,0.2h0.1l0,0h0.1
						c0,0,0.1-0.1,0.1-0.2C23,15.2,22.9,15.1,22.8,15.1z"/>
				</g>
			</g>
		</g>
	</g>
	<g>
		<g>
			<g>
				<path class="st0" d="M14.6,10.3c0-1.4-1.2-2.6-2.6-2.6s-2.6,1.2-2.6,2.6s1.2,2.6,2.6,2.6S14.6,11.8,14.6,10.3z"/>
				<path class="st0" d="M12,13.1c-1.6,0-2.9-1.2-2.9-2.8s1.3-2.8,2.8-2.8s2.8,1.3,2.8,2.8c0,0.8-0.3,1.5-0.8,2
					C13.4,12.9,12.8,13.1,12,13.1z M12,8c-1.3,0-2.3,1-2.3,2.3s1.1,2.3,2.3,2.3c0.6,0,1.2-0.2,1.6-0.7c0.5-0.4,0.7-1,0.7-1.7
					C14.3,9,13.3,8,12,8z"/>
			</g>
			<g>
				<path class="st0" d="M7.8,15c-1.4,0-2.6,1.2-2.6,2.6s1.2,2.6,2.6,2.6s2.6-1.2,2.6-2.6S9.3,15,7.8,15z"/>
				<path class="st0" d="M7.8,20.4c-1.6,0-2.8-1.3-2.8-2.8s1.3-2.8,2.8-2.8s2.8,1.3,2.8,2.8S9.4,20.4,7.8,20.4z M7.8,15.2
					c-1.3,0-2.3,1.1-2.3,2.3s1.1,2.3,2.3,2.3s2.3-1.1,2.3-2.3S9.1,15.2,7.8,15.2z"/>
			</g>
			<g>
				<path class="st0" d="M16.2,15c-1.4,0-2.6,1.2-2.6,2.6s1.2,2.6,2.6,2.6s2.6-1.2,2.6-2.6C18.8,16.2,17.6,15,16.2,15z"/>
				<path class="st0" d="M16.2,20.4c-1.5,0-2.8-1.3-2.8-2.8s1.3-2.8,2.8-2.8c0.8,0,1.5,0.3,2,0.8s0.8,1.2,0.8,2
					C19,19.1,17.7,20.4,16.2,20.4z M16.2,15.2c-1.3,0-2.3,1.1-2.3,2.3s1.1,2.3,2.3,2.3s2.3-1.1,2.3-2.3c0-0.6-0.2-1.2-0.7-1.6
					C17.4,15.5,16.8,15.2,16.2,15.2z"/>
			</g>
		</g>
		<g>
			<g>
				<path class="st0" d="M10.7,20.8c0,0.8,0.6,1.4,1.4,1.4c0.8,0,1.4-0.6,1.4-1.4s-0.6-1.4-1.4-1.4C11.3,19.3,10.7,20,10.7,20.8z"/>
			</g>
			<g>
				<path class="st0" d="M17.3,14c0.8,0,1.4-0.6,1.4-1.4c0-0.8-0.6-1.4-1.4-1.4s-1.4,0.6-1.4,1.4C15.8,13.3,16.5,14,17.3,14z"/>
			</g>
			<g>
				<path class="st0" d="M6.7,14c0.8,0,1.4-0.6,1.4-1.4c0-0.8-0.6-1.4-1.4-1.4s-1.4,0.6-1.4,1.4C5.3,13.3,6,14,6.7,14z"/>
			</g>
		</g>
	</g>
</g>
</svg>
