<?xml version="1.0" encoding="utf-8"?>
<!-- Generator: Adobe Illustrator 25.1.0, SVG Export Plug-In . SVG Version: 6.00 Build 0)  -->
<svg version="1.1" id="Layer_1" xmlns="http://www.w3.org/2000/svg" xmlns:xlink="http://www.w3.org/1999/xlink" x="0px" y="0px"
	 viewBox="0 0 24 31" style="enable-background:new 0 0 24 31;" xml:space="preserve">
<style type="text/css">
	.st0{clip-path:url(#SVGID_2_);fill:#FFFFFF;}
	.st1{clip-path:url(#SVGID_4_);fill:#FFFFFF;}
	.st2{fill:#FFFFFF;}
</style>
<desc>Created with Sketch.</desc>
<g>
	<g>
		<g>
			<g>
				<g>
					<g>
						<g>
							<defs>
								<path id="SVGID_1_" d="M11.8,22.3c-1.6,0-3.2-0.6-4.4-1.7c-1.2-1.1-2-2.6-2.3-4.2c0-0.2,0.1-0.4,0.3-0.4
									c0.2,0,0.4,0.1,0.4,0.3c0.2,1.4,1,2.8,2,3.7c1.1,1,2.5,1.5,3.9,1.5c3.3,0,6-2.8,6-6.2s-2.7-6.2-6-6.2
									c-3.1,0-5.6,2.4-5.9,5.5c0,0.2-0.2,0.4-0.4,0.3s-0.4-0.2-0.3-0.4c0.4-3.5,3.2-6.1,6.7-6.1c3.7,0,6.7,3.1,6.7,6.9
									C18.5,19.2,15.5,22.3,11.8,22.3z"/>
							</defs>
							<use xlink:href="#SVGID_1_"  style="overflow:visible;fill:#FFFFFF;"/>
							<clipPath id="SVGID_2_">
								<use xlink:href="#SVGID_1_"  style="overflow:visible;"/>
							</clipPath>
							<path class="st0" d="M5.1,22.3h13.4H5.1z"/>
							<rect x="5.1" y="22.1" class="st0" width="13.4" height="0.3"/>
							<rect x="5.1" y="21.8" class="st0" width="13.4" height="0.3"/>
							<rect x="5.1" y="21.6" class="st0" width="13.4" height="0.3"/>
							<rect x="5.1" y="21.3" class="st0" width="13.4" height="0.3"/>
							<rect x="5.1" y="21" class="st0" width="13.4" height="0.3"/>
							<rect x="5.1" y="20.8" class="st0" width="13.4" height="0.3"/>
							<rect x="5.1" y="20.5" class="st0" width="13.4" height="0.3"/>
							<rect x="5.1" y="20.2" class="st0" width="13.4" height="0.3"/>
							<rect x="5.1" y="20" class="st0" width="13.4" height="0.3"/>
							<rect x="5.1" y="19.7" class="st0" width="13.4" height="0.3"/>
							<rect x="5.1" y="19.5" class="st0" width="13.4" height="0.3"/>
							<rect x="5.1" y="19.2" class="st0" width="13.4" height="0.3"/>
							<rect x="5.1" y="18.9" class="st0" width="13.4" height="0.3"/>
							<rect x="5.1" y="18.7" class="st0" width="13.4" height="0.3"/>
							<rect x="5.1" y="18.4" class="st0" width="13.4" height="0.3"/>
							<rect x="5.1" y="18.2" class="st0" width="13.4" height="0.3"/>
							<rect x="5.1" y="17.9" class="st0" width="13.4" height="0.3"/>
							<rect x="5.1" y="17.6" class="st0" width="13.4" height="0.3"/>
							<rect x="5.1" y="17.4" class="st0" width="13.4" height="0.3"/>
							<rect x="5.1" y="17.1" class="st0" width="13.4" height="0.3"/>
							<rect x="5.1" y="16.9" class="st0" width="13.4" height="0.3"/>
							<rect x="5.1" y="16.6" class="st0" width="13.4" height="0.3"/>
							<rect x="5.1" y="16.3" class="st0" width="13.4" height="0.3"/>
							<rect x="5.1" y="16.1" class="st0" width="13.4" height="0.3"/>
							<rect x="5.1" y="15.8" class="st0" width="13.4" height="0.3"/>
							<rect x="5.1" y="15.5" class="st0" width="13.4" height="0.3"/>
							<rect x="5.1" y="15.3" class="st0" width="13.4" height="0.3"/>
							<rect x="5.1" y="15" class="st0" width="13.4" height="0.3"/>
							<rect x="5.1" y="14.8" class="st0" width="13.4" height="0.3"/>
							<rect x="5.1" y="14.5" class="st0" width="13.4" height="0.3"/>
							<rect x="5.1" y="14.2" class="st0" width="13.4" height="0.3"/>
							<rect x="5.1" y="14" class="st0" width="13.4" height="0.3"/>
							<rect x="5.1" y="13.7" class="st0" width="13.4" height="0.3"/>
							<rect x="5.1" y="13.5" class="st0" width="13.4" height="0.3"/>
							<rect x="5.1" y="13.2" class="st0" width="13.4" height="0.3"/>
							<rect x="5.1" y="12.9" class="st0" width="13.4" height="0.3"/>
							<rect x="5.1" y="12.7" class="st0" width="13.4" height="0.3"/>
							<rect x="5.1" y="12.4" class="st0" width="13.4" height="0.3"/>
							<rect x="5.1" y="12.2" class="st0" width="13.4" height="0.3"/>
							<rect x="5.1" y="11.9" class="st0" width="13.4" height="0.3"/>
							<rect x="5.1" y="11.6" class="st0" width="13.4" height="0.3"/>
							<rect x="5.1" y="11.4" class="st0" width="13.4" height="0.3"/>
							<rect x="5.1" y="11.1" class="st0" width="13.4" height="0.3"/>
							<rect x="5.1" y="10.8" class="st0" width="13.4" height="0.3"/>
							<rect x="5.1" y="10.6" class="st0" width="13.4" height="0.3"/>
							<rect x="5.1" y="10.3" class="st0" width="13.4" height="0.3"/>
							<rect x="5.1" y="10.1" class="st0" width="13.4" height="0.3"/>
							<rect x="5.1" y="9.8" class="st0" width="13.4" height="0.3"/>
							<rect x="5.1" y="9.5" class="st0" width="13.4" height="0.3"/>
							<rect x="5.1" y="9.3" class="st0" width="13.4" height="0.3"/>
							<rect x="5.1" y="9" class="st0" width="13.4" height="0.3"/>
							<rect x="5.1" y="8.8" class="st0" width="13.4" height="0.3"/>
							<rect x="5.1" y="8.5" class="st0" width="13.4" height="0.3"/>
							<path class="st0" d="M18.5,8.5H5.1H18.5z"/>
						</g>
					</g>
				</g>
				<g>
					<g>
						<g>
							<defs>
								<path id="SVGID_3_" d="M11.8,20.3c-1.2,0-2.4-0.5-3.3-1.4c-0.9-0.9-1.4-2.1-1.4-3.4c0-1.3,0.5-2.5,1.4-3.4
									c0.9-0.9,2-1.4,3.3-1.4c1.2,0,2.3,0.5,3.2,1.4c0.4,0.4,0.7,0.8,0.9,1.3c0.1,0.2,0,0.4-0.2,0.5s-0.4,0-0.5-0.2
									c-0.2-0.4-0.4-0.8-0.8-1.1c-0.7-0.7-1.7-1.2-2.6-1.2c-1,0-2,0.4-2.7,1.2C8.4,13.3,8,14.3,8,15.4c0,1.1,0.4,2.1,1.2,2.9
									c0.7,0.8,1.7,1.2,2.7,1.2c1,0,1.9-0.4,2.6-1.2c0.4-0.4,0.8-1,1-1.6c0.1-0.2,0.3-0.3,0.5-0.2c0.2,0.1,0.3,0.3,0.3,0.5
									c-0.2,0.7-0.6,1.4-1.1,1.9C14.2,19.8,13,20.3,11.8,20.3z"/>
							</defs>
							<use xlink:href="#SVGID_3_"  style="overflow:visible;fill:#FFFFFF;"/>
							<clipPath id="SVGID_4_">
								<use xlink:href="#SVGID_3_"  style="overflow:visible;"/>
							</clipPath>
							<path class="st1" d="M7.2,20.3h9H7.2z"/>
							<rect x="7.2" y="20.1" class="st1" width="9" height="0.2"/>
							<rect x="7.2" y="19.9" class="st1" width="9" height="0.2"/>
							<rect x="7.2" y="19.7" class="st1" width="9" height="0.2"/>
							<rect x="7.2" y="19.5" class="st1" width="9" height="0.2"/>
							<rect x="7.2" y="19.3" class="st1" width="9" height="0.2"/>
							<rect x="7.2" y="19.2" class="st1" width="9" height="0.2"/>
							<rect x="7.2" y="19" class="st1" width="9" height="0.2"/>
							<rect x="7.2" y="18.8" class="st1" width="9" height="0.2"/>
							<rect x="7.2" y="18.6" class="st1" width="9" height="0.2"/>
							<rect x="7.2" y="18.4" class="st1" width="9" height="0.2"/>
							<rect x="7.2" y="18.3" class="st1" width="9" height="0.2"/>
							<rect x="7.2" y="18.1" class="st1" width="9" height="0.2"/>
							<rect x="7.2" y="17.9" class="st1" width="9" height="0.2"/>
							<rect x="7.2" y="17.7" class="st1" width="9" height="0.2"/>
							<rect x="7.2" y="17.5" class="st1" width="9" height="0.2"/>
							<rect x="7.2" y="17.3" class="st1" width="9" height="0.2"/>
							<rect x="7.2" y="17.2" class="st1" width="9" height="0.2"/>
							<rect x="7.2" y="17" class="st1" width="9" height="0.2"/>
							<rect x="7.2" y="16.8" class="st1" width="9" height="0.2"/>
							<rect x="7.2" y="16.6" class="st1" width="9" height="0.2"/>
							<rect x="7.2" y="16.4" class="st1" width="9" height="0.2"/>
							<rect x="7.2" y="16.3" class="st1" width="9" height="0.2"/>
							<rect x="7.2" y="16.1" class="st1" width="9" height="0.2"/>
							<rect x="7.2" y="15.9" class="st1" width="9" height="0.2"/>
							<rect x="7.2" y="15.7" class="st1" width="9" height="0.2"/>
							<rect x="7.2" y="15.5" class="st1" width="9" height="0.2"/>
							<rect x="7.2" y="15.3" class="st1" width="9" height="0.2"/>
							<rect x="7.2" y="15.2" class="st1" width="9" height="0.2"/>
							<rect x="7.2" y="15" class="st1" width="9" height="0.2"/>
							<rect x="7.2" y="14.8" class="st1" width="9" height="0.2"/>
							<rect x="7.2" y="14.6" class="st1" width="9" height="0.2"/>
							<rect x="7.2" y="14.4" class="st1" width="9" height="0.2"/>
							<rect x="7.2" y="14.2" class="st1" width="9" height="0.2"/>
							<rect x="7.2" y="14.1" class="st1" width="9" height="0.2"/>
							<rect x="7.2" y="13.9" class="st1" width="9" height="0.2"/>
							<rect x="7.2" y="13.7" class="st1" width="9" height="0.2"/>
							<rect x="7.2" y="13.5" class="st1" width="9" height="0.2"/>
							<rect x="7.2" y="13.3" class="st1" width="9" height="0.2"/>
							<rect x="7.2" y="13.2" class="st1" width="9" height="0.2"/>
							<rect x="7.2" y="13" class="st1" width="9" height="0.2"/>
							<rect x="7.2" y="12.8" class="st1" width="9" height="0.2"/>
							<rect x="7.2" y="12.6" class="st1" width="9" height="0.2"/>
							<rect x="7.2" y="12.4" class="st1" width="9" height="0.2"/>
							<rect x="7.2" y="12.2" class="st1" width="9" height="0.2"/>
							<rect x="7.2" y="12.1" class="st1" width="9" height="0.2"/>
							<rect x="7.2" y="11.9" class="st1" width="9" height="0.2"/>
							<rect x="7.2" y="11.7" class="st1" width="9" height="0.2"/>
							<rect x="7.2" y="11.5" class="st1" width="9" height="0.2"/>
							<rect x="7.2" y="11.3" class="st1" width="9" height="0.2"/>
							<rect x="7.2" y="11.2" class="st1" width="9" height="0.2"/>
							<rect x="7.2" y="11" class="st1" width="9" height="0.2"/>
							<rect x="7.2" y="10.8" class="st1" width="9" height="0.2"/>
							<rect x="7.2" y="10.6" class="st1" width="9" height="0.2"/>
							<path class="st1" d="M16.2,10.6h-9H16.2z"/>
						</g>
					</g>
				</g>
			</g>
		</g>
	</g>
	<g>
		<g>
			<path class="st2" d="M11.8,9.1c-0.2,0-0.4-0.2-0.4-0.4V5.7c0-0.2,0.2-0.4,0.4-0.4s0.4,0.2,0.4,0.4v3.1C12.2,9,12,9.1,11.8,9.1z"
				/>
		</g>
		<g>
			<path class="st2" d="M11.8,8c-0.1,0-0.2,0-0.3-0.1c-0.1-0.1-0.1-0.4,0-0.5l1-1c0.1-0.1,0.4-0.1,0.5,0s0.1,0.4,0,0.5l-1,1
				C12,7.9,11.9,8,11.8,8z"/>
		</g>
		<g>
			<path class="st2" d="M11.8,8c-0.1,0-0.2,0-0.3-0.1l-1-1c-0.1-0.1-0.1-0.4,0-0.5s0.4-0.1,0.5,0l1,1c0.1,0.1,0.1,0.4,0,0.5
				C12,7.9,11.9,8,11.8,8z"/>
		</g>
		<g>
			<g>
				<path class="st2" d="M21.6,15.8h-3.1c-0.2,0-0.4-0.2-0.4-0.4s0.2-0.4,0.4-0.4h3.1c0.2,0,0.4,0.2,0.4,0.4S21.8,15.8,21.6,15.8z"
					/>
			</g>
			<g>
				<path class="st2" d="M20.7,16.8c-0.1,0-0.2,0-0.3-0.1l-1-1c-0.1-0.1-0.1-0.4,0-0.5c0.1-0.1,0.4-0.1,0.5,0l1,1
					c0.1,0.1,0.1,0.4,0,0.5C20.9,16.8,20.8,16.8,20.7,16.8z"/>
			</g>
			<g>
				<path class="st2" d="M19.7,15.8c-0.1,0-0.2,0-0.3-0.1c-0.1-0.1-0.1-0.4,0-0.5l1-1c0.1-0.1,0.4-0.1,0.5,0s0.1,0.4,0,0.5l-1,1
					C19.9,15.8,19.8,15.8,19.7,15.8z"/>
			</g>
		</g>
	</g>
	<g>
		<g>
			<path class="st2" d="M11.6,25.7c-0.2,0-0.4-0.2-0.4-0.4v-3.1c0-0.2,0.2-0.4,0.4-0.4S12,22,12,22.3v3.1
				C12,25.5,11.8,25.7,11.6,25.7z"/>
		</g>
		<g>
			<path class="st2" d="M10.6,24.8c-0.1,0-0.2,0-0.3-0.1c-0.1-0.1-0.1-0.4,0-0.5l1-1c0.1-0.1,0.4-0.1,0.5,0s0.1,0.4,0,0.5l-1,1
				C10.8,24.8,10.7,24.8,10.6,24.8z"/>
		</g>
		<g>
			<path class="st2" d="M12.6,24.8c-0.1,0-0.2,0-0.3-0.1l-1-1c-0.1-0.1-0.1-0.4,0-0.5c0.1-0.1,0.4-0.1,0.5,0l1,1
				c0.1,0.1,0.1,0.4,0,0.5C12.8,24.8,12.7,24.8,12.6,24.8z"/>
		</g>
		<g>
			<g>
				<path class="st2" d="M5.5,16.8H2.4c-0.2,0-0.4-0.2-0.4-0.4s0.2-0.4,0.4-0.4h3.1c0.2,0,0.4,0.2,0.4,0.4S5.7,16.8,5.5,16.8z"/>
			</g>
			<g>
				<path class="st2" d="M4.3,16.8c-0.1,0-0.2,0-0.3-0.1l-1-1c-0.1-0.1-0.1-0.4,0-0.5s0.4-0.1,0.5,0l1,1c0.1,0.1,0.1,0.4,0,0.5
					C4.5,16.8,4.4,16.8,4.3,16.8z"/>
			</g>
			<g>
				<path class="st2" d="M3.3,17.8c-0.1,0-0.2,0-0.3-0.1c-0.1-0.1-0.1-0.4,0-0.5l1-1c0.1-0.1,0.4-0.1,0.5,0s0.1,0.4,0,0.5l-1,1
					C3.5,17.8,3.4,17.8,3.3,17.8z"/>
			</g>
		</g>
	</g>
	<g>
		<path class="st2" d="M16.5,11.1c-0.1,0-0.2,0-0.3-0.1c-0.1-0.1-0.1-0.4,0-0.5l2.2-2.2c0.1-0.1,0.4-0.1,0.5,0
			c0.1,0.1,0.1,0.4,0,0.5L16.7,11C16.7,11.1,16.6,11.1,16.5,11.1z"/>
	</g>
	<g>
		<path class="st2" d="M18.7,10.3h-1.4c-0.2,0-0.4-0.2-0.4-0.4s0.2-0.4,0.4-0.4h1.4c0.2,0,0.4,0.2,0.4,0.4S18.9,10.3,18.7,10.3z"/>
	</g>
	<g>
		<path class="st2" d="M17.3,10.3c-0.2,0-0.4-0.2-0.4-0.4V8.5c0-0.2,0.2-0.4,0.4-0.4s0.4,0.2,0.4,0.4v1.4
			C17.7,10.1,17.5,10.3,17.3,10.3z"/>
	</g>
	<g>
		<path class="st2" d="M4.9,22.7c-0.1,0-0.2,0-0.3-0.1c-0.1-0.1-0.1-0.4,0-0.5l2.2-2.2c0.1-0.1,0.4-0.1,0.5,0c0.1,0.1,0.1,0.4,0,0.5
			l-2.2,2.2C5.1,22.6,5,22.7,4.9,22.7z"/>
	</g>
	<g>
		<path class="st2" d="M6.3,21.3H4.8c-0.2,0-0.4-0.2-0.4-0.4s0.2-0.4,0.4-0.4h1.4c0.2,0,0.4,0.2,0.4,0.4S6.5,21.3,6.3,21.3z"/>
	</g>
	<g>
		<path class="st2" d="M6.3,22.7c-0.2,0-0.4-0.2-0.4-0.4v-1.4c0-0.2,0.2-0.4,0.4-0.4s0.4,0.2,0.4,0.4v1.4
			C6.7,22.6,6.5,22.7,6.3,22.7z"/>
	</g>
	<g>
		<path class="st2" d="M18.7,22.7c-0.1,0-0.2,0-0.3-0.1l-2.2-2.2c-0.1-0.1-0.1-0.4,0-0.5c0.1-0.1,0.4-0.1,0.5,0l2.2,2.2
			c0.1,0.1,0.1,0.4,0,0.5C18.9,22.7,18.8,22.7,18.7,22.7z"/>
	</g>
	<g>
		<path class="st2" d="M17.3,22.8c-0.2,0-0.4-0.2-0.4-0.4V21c0-0.2,0.2-0.4,0.4-0.4s0.4,0.2,0.4,0.4v1.4
			C17.7,22.6,17.5,22.8,17.3,22.8z"/>
	</g>
	<g>
		<path class="st2" d="M7.1,11.2c-0.1,0-0.2,0-0.3-0.1L4.7,8.9c-0.1-0.1-0.1-0.4,0-0.5c0.1-0.1,0.4-0.1,0.5,0l2.2,2.2
			c0.1,0.1,0.1,0.4,0,0.5C7.3,11.1,7.2,11.2,7.1,11.2z"/>
	</g>
	<g>
		<path class="st2" d="M6.3,10.4C6.1,10.4,6,10.2,6,10V8.5c0-0.2,0.2-0.4,0.4-0.4s0.4,0.2,0.4,0.4V10C6.7,10.2,6.5,10.4,6.3,10.4z"
			/>
	</g>
	<g>
		<path class="st2" d="M6.3,10.4H4.9c-0.2,0-0.4-0.2-0.4-0.4s0.2-0.4,0.4-0.4h1.4c0.2,0,0.4,0.2,0.4,0.4S6.5,10.4,6.3,10.4z"/>
	</g>
</g>
</svg>
