<?xml version="1.0" encoding="utf-8"?>
<!-- Generator: Adobe Illustrator 25.1.0, SVG Export Plug-In . SVG Version: 6.00 Build 0)  -->
<svg version="1.1" id="Layer_1" xmlns="http://www.w3.org/2000/svg" xmlns:xlink="http://www.w3.org/1999/xlink" x="0px" y="0px"
	 viewBox="0 0 24 40" style="enable-background:new 0 0 24 40;" xml:space="preserve">
<style type="text/css">
	.st0{fill:#009CE1;}
	.st1{fill:#EC2A7B;}
</style>
<g>
	<path class="st0" d="M23.6,16.2L12.7,33.6c-0.4,0.5-1,0.5-1.4,0L0.4,16.2c-0.4-0.5,0-1.4,0.6-1.4h2.2c0.6,0,1.2,0.2,1.4,0.9
		l6.9,10.8c0.2,0.5,0.8,0.5,1.2,0l6.7-10.8c0.4-0.5,1-0.9,1.6-0.9h2.2C23.8,14.8,24,15.7,23.6,16.2z"/>
	<path class="st1" d="M14.7,14.8H9.5c-0.6,0-1,0.7-0.6,1.4l2.4,4c0.4,0.5,1.2,0.5,1.4,0l2.4-4C15.6,15.7,15.3,14.8,14.7,14.8z"/>
</g>
</svg>
