<?xml version="1.0" encoding="utf-8"?>
<!-- Generator: Adobe Illustrator 25.1.0, SVG Export Plug-In . SVG Version: 6.00 Build 0)  -->
<svg version="1.1" id="Layer_1" xmlns="http://www.w3.org/2000/svg" xmlns:xlink="http://www.w3.org/1999/xlink" x="0px" y="0px"
	 viewBox="0 0 24 30.1" style="enable-background:new 0 0 24 30.1;" xml:space="preserve">
<style type="text/css">
	.st0{fill:#FFFFFF;}
</style>
<g>
	<g>
		<g>
			<g>
				<path class="st0" d="M20.2,21.3c-0.6,1.4-1.6,2.6-2.9,3.5c-1.4,1-3,1.5-4.7,1.5c-1.3,0-2.6-0.3-3.7-0.9c-0.1,0.1-0.2,0.1-0.3,0
					c-0.1-0.1-0.2-0.3-0.1-0.4c0.1-0.1,0.3-0.2,0.4-0.1C8.9,25,9,25.1,9,25.2c1.1,0.6,2.4,0.9,3.6,0.9c1.7,0,3.2-0.5,4.6-1.4
					c1.2-0.9,2.2-2.1,2.8-3.4c-0.1-0.1-0.1-0.2-0.1-0.3c0.1-0.2,0.2-0.2,0.4-0.2c0.2,0.1,0.2,0.2,0.2,0.4
					C20.5,21.2,20.3,21.3,20.2,21.3z"/>
			</g>
			<g>
				<path class="st0" d="M14.9,10.1c0.8,0.2,1.5,0.5,2.2,1c1.2,0.8,2.2,1.8,2.9,3.1c0.1,0,0.2,0.1,0.3,0.2c0.1,0.1,0,0.3-0.1,0.4
					c-0.1,0.1-0.3,0-0.4-0.1c-0.1-0.1,0-0.2,0-0.3c-0.7-1.2-1.6-2.2-2.8-3c-0.6-0.4-1.2-0.7-1.9-0.9"/>
			</g>
			<g>
				<path class="st0" d="M21.7,20.4c-0.4,1.7-1.3,3.2-2.6,4.5c-1.8,1.7-4.1,2.7-6.6,2.7c-0.9,0-1.7-0.1-2.5-0.3
					c-0.1,0.1-0.2,0.1-0.3,0.1c-0.2,0-0.2-0.2-0.2-0.4c0-0.2,0.2-0.2,0.4-0.2c0.1,0,0.2,0.1,0.2,0.2c0.8,0.2,1.6,0.3,2.5,0.3
					c2.4,0,4.7-0.9,6.4-2.6c1.2-1.2,2.1-2.7,2.5-4.3"/>
			</g>
			<g>
				<path class="st0" d="M14.4,8.8c2.3,0.5,4.4,1.8,5.8,3.8c0.1,0,0.2,0,0.3,0.1c0.1,0.1,0.1,0.3-0.1,0.4c-0.1,0.1-0.3,0.1-0.4-0.1
					c-0.1-0.1-0.1-0.2,0-0.3c-1.3-1.9-3.3-3.1-5.5-3.6"/>
			</g>
			<g>
				<path class="st0" d="M3.1,13.2c-0.3,0.6-0.5,1.2-0.7,1.8c0.1,0.1,0.1,0.2,0.1,0.3c0,0.2-0.2,0.2-0.4,0.2c-0.2,0-0.2-0.2-0.2-0.4
					C2,15.1,2.1,15,2.2,15c0.2-0.6,0.4-1.3,0.7-1.8"/>
			</g>
			<g>
				<path class="st0" d="M23.1,20.3c-0.1,0.4-0.2,0.7-0.3,1.1c0.1,0.1,0.1,0.2,0.1,0.3c0,0.2-0.2,0.2-0.4,0.2
					c-0.2,0-0.2-0.2-0.2-0.4c0-0.1,0.1-0.2,0.3-0.2c0.1-0.3,0.2-0.7,0.2-1.1"/>
			</g>
			<g>
				<path class="st0" d="M22.7,14.8c-0.8-2.4-2.5-4.5-4.7-5.8c-0.1,0.1-0.2,0.1-0.3,0c-0.1-0.1-0.2-0.3-0.1-0.4
					c0.1-0.1,0.3-0.2,0.4-0.1c0.1,0.1,0.2,0.2,0.1,0.3c2.3,1.3,4,3.4,4.9,6"/>
			</g>
			<g>
				<path class="st0" d="M13.8,28.4c0.1,0,0.2,0,0.3,0.1c1.5-0.2,3-0.8,4.3-1.7c1.3-0.8,2.3-2,3.1-3.2c-0.1-0.1-0.1-0.2,0-0.3
					c0.1-0.1,0.3-0.2,0.4-0.1c0.1,0.1,0.2,0.3,0.1,0.4c-0.1,0.1-0.2,0.2-0.3,0.1c-0.8,1.3-1.9,2.4-3.2,3.3c-1.3,0.9-2.8,1.5-4.4,1.7
					c0,0.1-0.1,0.2-0.2,0.2c-0.2,0-0.3-0.1-0.3-0.3C13.6,28.5,13.7,28.4,13.8,28.4z"/>
			</g>
			<g>
				<path class="st0" d="M4.9,25.4c1.4,1.5,3.3,2.6,5.3,3c0.1-0.1,0.2-0.1,0.3-0.1c0.2,0,0.3,0.2,0.2,0.3c0,0.2-0.2,0.3-0.3,0.2
					c-0.1,0-0.2-0.1-0.2-0.2c-2.1-0.5-4-1.5-5.4-3.1"/>
			</g>
		</g>
		<g>
			<g>
				<path class="st0" d="M6.5,12.6c-0.2,0-0.2-0.2-0.3-0.3c0,0,0,0,0,0c0,0,0,0,0,0c-0.1,0.1-0.2,0.2-0.5,0.1
					c-0.2-0.1-0.2-0.4-0.2-0.5c0-0.1,0.1-0.1,0.2-0.1c0.1,0,0.1,0.1,0.1,0.2c0,0,0,0.2,0.1,0.3c0,0,0,0,0.1,0C6.1,12,6.2,12,6.3,12
					c0.2,0,0.2,0.2,0.2,0.3c0,0,0,0,0,0.1c0,0,0.1-0.1,0.2-0.2c0.1-0.1,0.1-0.1,0.2,0C7,12.2,7,12.3,7,12.3
					C6.9,12.4,6.7,12.6,6.5,12.6z"/>
			</g>
			<g>
				<path class="st0" d="M6.2,14.9c-0.1,0-0.1,0-0.2-0.1c-0.1-0.1-0.2-0.3-0.2-0.4c0,0,0,0,0,0c-0.2,0.1-0.3,0.3-0.5,0.2
					c-0.1-0.1-0.1-0.2-0.1-0.3c-0.1,0.1-0.3,0.2-0.4,0.2c-0.1,0-0.1,0-0.1-0.1c-0.1-0.2-0.1-0.5-0.1-0.6c0-0.1,0.1-0.1,0.2-0.1
					c0.1,0,0.1,0.1,0.1,0.2c0,0.1,0,0.2,0,0.3c0,0,0.1-0.1,0.1-0.1c0.1-0.1,0.2-0.2,0.3-0.2c0,0,0.1,0,0.1,0.1
					c0.1,0.1,0.1,0.2,0,0.3c0,0,0,0.1,0,0.2c0,0,0.1-0.1,0.2-0.1c0.1-0.1,0.2-0.2,0.3-0.2c0.2,0,0.2,0.2,0.2,0.3
					c0,0.1,0,0.2,0.1,0.2c0-0.1,0.1-0.2,0.1-0.3c0-0.1,0.1-0.1,0.2-0.1c0.1,0,0.1,0.1,0.1,0.2C6.5,14.5,6.4,14.8,6.2,14.9
					C6.2,14.9,6.2,14.9,6.2,14.9z"/>
			</g>
			<g>
				<path class="st0" d="M5.7,17.5C5.7,17.5,5.7,17.5,5.7,17.5c-0.2,0-0.3-0.2-0.4-0.3c-0.1,0.1-0.2,0.2-0.4,0.1
					c-0.2,0-0.3-0.2-0.3-0.3c-0.1,0.1-0.2,0.2-0.3,0.2c-0.2,0-0.3-0.4-0.4-0.6c0-0.1,0-0.2,0.1-0.2c0.1,0,0.2,0,0.2,0.1
					c0,0.1,0.1,0.3,0.1,0.3c0.1,0,0.2-0.2,0.3-0.3c0-0.1,0.1-0.1,0.2-0.1c0.1,0,0.1,0.1,0.1,0.1c0,0.1,0.1,0.3,0.2,0.3
					c0.1,0,0.2-0.2,0.2-0.2c0-0.1,0.1-0.1,0.1-0.1c0.1,0,0.1,0,0.1,0.1c0.1,0.2,0.2,0.4,0.2,0.4c0,0,0.1-0.1,0.1-0.2
					c0-0.1,0.1-0.1,0.2-0.1c0.1,0,0.1,0.1,0.1,0.2c0,0.1-0.1,0.3-0.2,0.4C5.8,17.5,5.8,17.5,5.7,17.5z"/>
			</g>
			<g>
				<path class="st0" d="M4.9,20.2c-0.2,0-0.3-0.2-0.4-0.4c-0.1,0.2-0.3,0.3-0.4,0.3c-0.2,0-0.4-0.4-0.5-0.6c0-0.1,0-0.2,0.1-0.2
					c0.1,0,0.2,0,0.2,0.1c0.1,0.2,0.2,0.4,0.2,0.4c0,0,0.2-0.2,0.3-0.4c0,0,0.1-0.1,0.1-0.1c0.1,0,0.1,0,0.1,0.1
					c0.1,0.2,0.2,0.4,0.2,0.4c0,0,0.2-0.2,0.2-0.4c0-0.1,0.1-0.1,0.1-0.1c0.1,0,0.1,0,0.1,0.1c0.1,0.2,0.2,0.3,0.2,0.3
					c0,0,0.1-0.2,0.1-0.3c0-0.1,0.1-0.1,0.1-0.1c0.1,0,0.1,0.1,0.1,0.1c0,0.1,0,0.6-0.4,0.6c-0.1,0-0.3-0.1-0.3-0.2
					C5.2,20.1,5.1,20.2,4.9,20.2z"/>
			</g>
			<g>
				<path class="st0" d="M6,23.3C6,23.3,6,23.3,6,23.3c-0.2,0-0.3-0.2-0.4-0.3c0,0.1-0.1,0.2-0.2,0.3c-0.1,0-0.2,0.1-0.3,0
					C5,23.1,4.9,23,4.8,22.9c-0.1,0.2-0.3,0.4-0.5,0.4c-0.2-0.1-0.5-0.5-0.5-0.6c0-0.1,0-0.2,0-0.2c0.1,0,0.2,0,0.2,0
					c0.1,0.2,0.3,0.4,0.4,0.5c0.1,0,0.2-0.2,0.3-0.4c0-0.1,0.1-0.1,0.1-0.1c0,0,0,0,0,0c0.1,0,0.1,0,0.1,0.1c0,0.1,0.2,0.4,0.4,0.4
					c0.1,0,0.1-0.2,0.1-0.4c0-0.1,0.1-0.1,0.1-0.1c0.1,0,0.1,0,0.2,0.1C5.8,22.7,5.9,22.9,6,23c0-0.1,0-0.2,0-0.3
					c0-0.1,0.1-0.1,0.1-0.1c0.1,0,0.1,0.1,0.1,0.1c0,0.1,0,0.5-0.2,0.6C6.1,23.3,6.1,23.3,6,23.3z"/>
			</g>
			<g>
				<g>
					<path class="st0" d="M7.7,24.6c0,0-0.1,0-0.1-0.1C4.7,20.9,7,12.2,7.8,10.5c0-0.1,0.1-0.1,0.2-0.1c0.1,0,0.1,0.1,0.1,0.2
						C7.2,12.3,5,20.8,7.8,24.4C7.8,24.5,7.8,24.6,7.7,24.6C7.7,24.6,7.7,24.6,7.7,24.6z"/>
				</g>
				<g>
					<path class="st0" d="M7.7,24.6c0,0-0.1,0-0.1-0.1C4.7,20.9,7,12.2,7.8,10.5c0-0.1,0.1-0.1,0.2-0.1c0.1,0,0.1,0.1,0.1,0.2
						C7.2,12.3,5,20.8,7.8,24.4C7.8,24.5,7.8,24.6,7.7,24.6C7.7,24.6,7.7,24.6,7.7,24.6z"/>
				</g>
			</g>
			<g>
				<path class="st0" d="M3.5,24.7c-0.1,0-0.1,0-0.1-0.1C1.2,16.8,6.1,10.1,6.1,10c0-0.1,0.1-0.1,0.2,0c0.1,0,0.1,0.1,0,0.2
					c0,0.1-4.8,6.6-2.7,14.3C3.7,24.6,3.7,24.7,3.5,24.7C3.6,24.7,3.6,24.7,3.5,24.7z"/>
			</g>
		</g>
		<g>
			<g>
				<g>
					<g>
						<path class="st0" d="M14.6,19.6c-0.2,0-0.3-0.1-0.4-0.3L14,18.6h-1.2l-0.2,0.6c-0.1,0.2-0.2,0.3-0.4,0.3c-0.1,0-0.1,0-0.1,0
							c-0.2-0.1-0.3-0.3-0.3-0.5l1.2-3.3c0.1-0.2,0.2-0.3,0.4-0.3c0.2,0,0.3,0.1,0.4,0.3l0.3,0.8c0,0.1,0,0.1-0.1,0.1
							c-0.1,0-0.1,0-0.1-0.1l-0.3-0.8c0-0.1-0.1-0.1-0.2-0.1c0,0,0,0,0,0c-0.1,0-0.2,0-0.2,0.1L12,19.1c0,0.1,0,0.2,0.1,0.2
							c0,0,0,0,0.1,0c0.1,0,0.1,0,0.2-0.1l0.3-0.7c0,0,0.1-0.1,0.1-0.1h1.3c0,0,0.1,0,0.1,0.1l0.3,0.7c0,0.1,0.1,0.1,0.2,0.1
							c0,0,0.1,0,0.1,0c0.1,0,0.2-0.1,0.1-0.3l-0.5-1.4c0-0.1,0-0.1,0.1-0.1c0.1,0,0.1,0,0.1,0.1L15,19c0.1,0.2,0,0.5-0.2,0.5
							C14.7,19.6,14.6,19.6,14.6,19.6z M13.8,18h-0.9c0,0-0.1,0-0.1,0c0,0,0-0.1,0-0.1l0.4-1.2c0,0,0.1-0.1,0.1-0.1
							c0,0,0.1,0,0.1,0.1l0.4,1.2C13.9,17.9,13.9,18,13.8,18C13.9,18,13.9,18,13.8,18z M13.1,17.8h0.6l-0.3-0.7L13.1,17.8z"/>
					</g>
				</g>
			</g>
		</g>
		<g>
			<g>
				<g>
					<g>
						<path class="st0" d="M19.6,19.6c-0.2,0-0.4-0.2-0.4-0.4v-1c0-0.1,0.1-0.1,0.1-0.1s0.1,0.1,0.1,0.1v1c0,0.1,0.1,0.2,0.2,0.2
							c0.1,0,0.2-0.1,0.2-0.2v-3.3c0-0.1-0.1-0.2-0.2-0.2c-0.1,0-0.2,0.1-0.2,0.2v0.7c0,0.1-0.1,0.1-0.1,0.1s-0.1-0.1-0.1-0.1v-0.7
							c0-0.2,0.2-0.4,0.4-0.4c0.2,0,0.4,0.2,0.4,0.4v3.3C20,19.4,19.8,19.6,19.6,19.6z"/>
					</g>
				</g>
			</g>
		</g>
		<g>
			<g>
				<g>
					<g>
						<path class="st0" d="M17.1,19.6c-0.6,0-1.2-0.3-1.5-0.6c-0.2-0.1-0.2-0.4-0.1-0.6c0.1-0.2,0.4-0.2,0.6-0.1
							c0.2,0.2,0.6,0.4,1,0.4c0,0,0,0,0,0c0.2,0,0.5-0.1,0.6-0.2c0.1-0.1,0.2-0.2,0.2-0.3c0,0,0-0.1,0-0.1c0,0-0.1-0.1-0.1-0.1
							c-0.1-0.1-0.4-0.2-0.7-0.2h0c0,0,0,0,0,0c-0.3-0.1-0.5-0.1-0.7-0.2c-0.2-0.1-0.4-0.3-0.6-0.5c0-0.1,0-0.1,0-0.2
							c0.1,0,0.1,0,0.2,0c0.1,0.2,0.3,0.3,0.5,0.4c0.2,0.1,0.4,0.2,0.7,0.2l0,0c0,0,0,0,0,0c0.3,0.1,0.6,0.2,0.8,0.3
							c0.1,0.1,0.2,0.1,0.2,0.2c0,0.1,0.1,0.1,0.1,0.2c0,0.1,0,0.3-0.3,0.5c-0.2,0.1-0.5,0.2-0.8,0.2c-0.4,0-0.8-0.2-1.1-0.5
							c0,0-0.1,0-0.1,0c0,0-0.1,0-0.1,0.1c-0.1,0.1,0,0.2,0,0.2c0.3,0.2,0.8,0.5,1.3,0.5c0.4,0,0.7-0.1,1-0.3c0.1,0,0.1,0,0.2,0
							c0,0.1,0,0.1,0,0.2C17.9,19.5,17.5,19.6,17.1,19.6z M18.6,18.5c-0.1,0-0.1-0.1-0.1-0.1c0-0.1,0-0.3-0.1-0.4
							c-0.1-0.2-0.3-0.3-0.5-0.4c-0.2-0.1-0.4-0.2-0.7-0.2c0,0,0,0,0,0c-0.3-0.1-0.6-0.2-0.7-0.3c-0.1-0.1-0.1-0.1-0.2-0.2
							c0-0.1-0.1-0.1-0.1-0.2c0-0.1,0-0.3,0.3-0.4c0.2-0.1,0.4-0.2,0.7-0.2c0.4,0,0.6,0.2,1,0.4c0,0,0.1,0,0.1,0c0,0,0.1,0,0.1-0.1
							c0.1-0.1,0-0.2,0-0.2l0,0c-0.3-0.2-0.6-0.4-1.1-0.4c-0.3,0-0.6,0.1-0.9,0.3c-0.1,0-0.1,0.1-0.2,0.1c0,0-0.1,0.1-0.2,0
							c0,0-0.1-0.1,0-0.2c0.1-0.1,0.1-0.1,0.2-0.2c0.3-0.2,0.6-0.3,1-0.3c0.6,0,1,0.3,1.3,0.5l0,0c0.2,0.1,0.2,0.4,0.1,0.6
							c-0.1,0.1-0.1,0.1-0.2,0.2c-0.1,0-0.2,0-0.3-0.1c-0.3-0.2-0.5-0.3-0.8-0.3c-0.2,0-0.4,0.1-0.5,0.2c-0.1,0.1-0.2,0.2-0.2,0.3
							c0,0.1,0,0.1,0,0.1c0,0,0,0.1,0.1,0.1c0.1,0.1,0.4,0.2,0.6,0.2h0c0,0,0,0,0,0c0.3,0.1,0.6,0.1,0.8,0.2
							c0.3,0.1,0.5,0.3,0.6,0.5c0.1,0.2,0.1,0.3,0.1,0.5C18.7,18.4,18.6,18.5,18.6,18.5z"/>
					</g>
				</g>
			</g>
		</g>
		<g>
			<g>
				<g>
					<g>
						<path class="st0" d="M22,19.6c-0.6,0-1.2-0.3-1.5-0.6c-0.2-0.1-0.2-0.4-0.1-0.6c0.1-0.2,0.4-0.2,0.6-0.1
							c0.2,0.2,0.6,0.4,1,0.4c0,0,0,0,0,0c0.2,0,0.5-0.1,0.6-0.2c0.1-0.1,0.2-0.2,0.2-0.3c0,0,0-0.1,0-0.1c0,0-0.1-0.1-0.1-0.1
							c-0.1-0.1-0.4-0.2-0.7-0.2h0c0,0,0,0,0,0c-0.3-0.1-0.5-0.1-0.7-0.2c-0.2-0.1-0.4-0.3-0.6-0.5c0-0.1,0-0.1,0-0.2
							c0.1,0,0.1,0,0.2,0c0.1,0.2,0.3,0.3,0.5,0.4c0.2,0.1,0.4,0.2,0.7,0.2l0,0c0,0,0,0,0,0c0.3,0.1,0.6,0.2,0.8,0.3
							C22.9,18,23,18,23,18.1c0,0.1,0.1,0.1,0.1,0.2c0,0.1,0,0.3-0.3,0.5c-0.2,0.1-0.5,0.2-0.8,0.2c-0.4,0-0.8-0.2-1.1-0.5
							c0,0-0.1,0-0.1,0c0,0-0.1,0-0.1,0.1c-0.1,0.1,0,0.2,0,0.2c0.3,0.2,0.8,0.5,1.3,0.5c0.4,0,0.7-0.1,1-0.3c0.1,0,0.1,0,0.2,0
							c0,0.1,0,0.1,0,0.2C22.8,19.5,22.5,19.6,22,19.6z M23.5,18.5c-0.1,0-0.1-0.1-0.1-0.1c0-0.1,0-0.3-0.1-0.4
							c-0.1-0.2-0.3-0.3-0.5-0.4c-0.2-0.1-0.4-0.2-0.7-0.2c0,0,0,0,0,0c-0.3-0.1-0.6-0.2-0.7-0.3c-0.1-0.1-0.1-0.1-0.2-0.2
							c0-0.1-0.1-0.1-0.1-0.2c0-0.1,0-0.3,0.3-0.4c0.2-0.1,0.4-0.2,0.7-0.2c0.4,0,0.6,0.2,1,0.4c0,0,0.1,0,0.1,0c0,0,0.1,0,0.1-0.1
							c0.1-0.1,0-0.2,0-0.2l0,0c-0.3-0.2-0.6-0.4-1.1-0.4c-0.3,0-0.6,0.1-0.9,0.3C21.1,16,21,16,21,16.1c0,0-0.1,0.1-0.2,0
							c0,0-0.1-0.1,0-0.2c0.1-0.1,0.1-0.1,0.2-0.2c0.3-0.2,0.6-0.3,1-0.3c0.6,0,1,0.3,1.3,0.5l0,0c0.2,0.1,0.2,0.4,0.1,0.6
							c-0.1,0.1-0.1,0.1-0.2,0.2c-0.1,0-0.2,0-0.3-0.1c-0.3-0.2-0.5-0.3-0.8-0.3c-0.2,0-0.4,0.1-0.5,0.2c-0.1,0.1-0.2,0.2-0.2,0.3
							c0,0.1,0,0.1,0,0.1c0,0,0,0.1,0.1,0.1c0.1,0.1,0.4,0.2,0.6,0.2h0c0,0,0,0,0,0c0.3,0.1,0.6,0.1,0.8,0.2
							c0.3,0.1,0.5,0.3,0.6,0.5c0.1,0.2,0.1,0.3,0.1,0.5C23.7,18.4,23.6,18.5,23.5,18.5z"/>
					</g>
				</g>
			</g>
		</g>
		<g>
			<g>
				<g>
					<g>
						<g>
							<path class="st0" d="M9.4,19.6c-0.5,0-1-0.2-1.3-0.5c-0.4-0.3-0.6-0.8-0.7-1.3c0-0.1,0-0.1,0.1-0.1c0.1,0,0.1,0,0.1,0.1
								c0.1,0.4,0.3,0.8,0.6,1.1c0.3,0.3,0.8,0.5,1.2,0.5c1,0,1.8-0.8,1.8-1.9c0-1-0.8-1.9-1.8-1.9c-0.9,0-1.7,0.7-1.8,1.7
								c0,0.1-0.1,0.1-0.1,0.1c-0.1,0-0.1-0.1-0.1-0.1c0.1-1.1,1-1.9,2-1.9c1.1,0,2,0.9,2,2.1C11.4,18.7,10.5,19.6,9.4,19.6z"/>
						</g>
					</g>
					<g>
						<g>
							<path class="st0" d="M9.4,19c-0.4,0-0.7-0.2-1-0.4c-0.3-0.3-0.4-0.6-0.4-1c0-0.4,0.2-0.8,0.4-1C8.7,16.2,9,16,9.4,16
								c0.4,0,0.7,0.2,1,0.4c0.1,0.1,0.2,0.3,0.3,0.4c0,0.1,0,0.1-0.1,0.2c-0.1,0-0.1,0-0.2-0.1c-0.1-0.1-0.1-0.2-0.2-0.3
								c-0.2-0.2-0.5-0.4-0.8-0.4c-0.3,0-0.6,0.1-0.8,0.4c-0.2,0.2-0.4,0.6-0.4,0.9c0,0.3,0.1,0.7,0.3,0.9c0.2,0.2,0.5,0.4,0.8,0.4
								c0.3,0,0.6-0.1,0.8-0.4c0.1-0.1,0.2-0.3,0.3-0.5c0-0.1,0.1-0.1,0.1-0.1c0.1,0,0.1,0.1,0.1,0.1c-0.1,0.2-0.2,0.4-0.3,0.6
								C10.1,18.8,9.8,19,9.4,19z"/>
						</g>
					</g>
				</g>
			</g>
		</g>
	</g>
	<g>
		<g>
			<path class="st0" d="M15.5,13.6c-0.1,0-0.1,0-0.1-0.1c0,0-1-3.7-2.4-4.9c-1.3-1.1-3-0.5-3-0.5c-0.1,0-0.2,0-0.2-0.1
				c0-0.1,0-0.2,0.1-0.2c0.1,0,1.9-0.7,3.3,0.6c1.5,1.3,2.5,4.9,2.5,5C15.7,13.5,15.6,13.6,15.5,13.6C15.5,13.6,15.5,13.6,15.5,13.6
				z"/>
		</g>
		<g>
			<path class="st0" d="M14.5,13.4C14.5,13.4,14.5,13.4,14.5,13.4c-0.1,0-0.2-0.1-0.3-0.1c-0.3-0.1-0.6-0.2-0.7-0.5
				c-0.2-0.3-0.1-0.6,0-0.8c0-0.1,0.1-0.2,0-0.2c-0.1-0.1-0.2-0.1-0.4-0.2c-0.2,0-0.4,0-0.6-0.2c-0.3-0.2-0.2-0.6-0.2-0.9
				c0-0.1,0.1-0.3,0-0.3c0,0-0.1-0.1-0.3,0c-0.1,0-0.3,0-0.5,0c-0.4-0.1-0.4-0.4-0.3-0.6c0-0.1,0-0.3,0-0.3c-0.1-0.1-0.3-0.1-0.5,0
				c-0.2,0-0.4,0.1-0.5,0C9.9,9.1,9.8,8.6,9.8,8.6c0-0.1,0.1-0.1,0.1-0.1c0.1,0,0.1,0.1,0.1,0.1c0,0.1,0.1,0.4,0.2,0.4
				c0.1,0,0.2,0,0.4,0c0.3,0,0.6-0.1,0.8,0.2c0.1,0.2,0.1,0.4,0.1,0.5c0,0.3,0,0.3,0.1,0.3c0.2,0,0.3,0,0.4,0c0.2,0,0.5,0,0.6,0.2
				c0.1,0.1,0,0.3,0,0.5c-0.1,0.3-0.1,0.5,0.1,0.6c0.2,0.1,0.3,0.1,0.5,0.2c0.2,0,0.4,0,0.6,0.2c0.1,0.1,0.1,0.3,0,0.5
				c-0.1,0.2-0.1,0.3,0,0.5c0.1,0.2,0.4,0.3,0.6,0.4c0.1,0,0.2,0.1,0.3,0.1c0.1,0,0.1,0.1,0.1,0.2C14.6,13.4,14.6,13.4,14.5,13.4z"
				/>
		</g>
	</g>
	<g>
		<g>
			<path class="st0" d="M1.6,12.8C1.6,12.8,1.6,12.8,1.6,12.8c-0.1,0-0.1-0.1-0.1-0.1c0-0.1,0-1.9,0.8-3.3c1.1-2.1,2.4-1.8,3.4-1.6
				l0.1,0c0.1,0,0.1,0.1,0.1,0.2c0,0.1-0.1,0.1-0.2,0.1l-0.1,0C4.6,7.9,3.4,7.6,2.5,9.5c-0.7,1.3-0.7,3.1-0.7,3.2
				C1.7,12.8,1.7,12.8,1.6,12.8z"/>
		</g>
		<g>
			<path class="st0" d="M2.4,12.2C2.4,12.2,2.4,12.2,2.4,12.2c-0.1,0-0.2-0.1-0.1-0.2c0.1-0.4,0.2-0.5,0.4-0.6
				c0.1,0,0.1-0.1,0.2-0.1c0.1-0.1,0.2-0.4,0.2-0.6c0-0.1,0-0.2,0-0.2c0.1-0.3,0.5-0.4,0.8-0.4c0.2,0,0.3-0.2,0.4-0.4l0-0.1
				c0.1-0.4,0.5-0.4,1.1-0.4C5.9,9.2,6,8.8,6,8.7C6,8.6,6,8.6,6.1,8.6c0.1,0,0.1,0.1,0.1,0.2C6.2,9,6,9.5,5.4,9.5
				c-0.7,0-0.8,0-0.9,0.2l0,0.1c-0.1,0.3-0.2,0.6-0.6,0.6c-0.3,0-0.5,0.1-0.5,0.2c0,0,0,0.1,0,0.2c0,0.2-0.1,0.5-0.3,0.7
				c-0.1,0.1-0.1,0.1-0.2,0.2c-0.1,0.1-0.2,0.1-0.3,0.4C2.5,12.2,2.4,12.2,2.4,12.2z"/>
		</g>
	</g>
	<g>
		<g>
			<path class="st0" d="M9.1,7.2C9.1,7.2,9.1,7.2,9.1,7.2C9,7.2,8.9,7.1,8.9,7.1c0,0,0.6-2.4,3.2-2.4c0,0,0,0,0.1,0
				c2.5,0,5.3,1.6,5.4,1.6c0.1,0,0.1,0.1,0.1,0.2c0,0.1-0.1,0.1-0.2,0.1c0,0-2.9-1.6-5.3-1.6c0,0,0,0,0,0C9.8,4.9,9.2,7,9.2,7.1
				C9.2,7.2,9.1,7.2,9.1,7.2z"/>
		</g>
		<g>
			<path class="st0" d="M10.9,7.2c-0.1,0-0.2,0-0.4-0.1c-0.2,0-0.3-0.1-0.6,0c-0.1,0-0.2,0-0.2-0.1c0-0.1,0-0.2,0.1-0.2
				c0.3-0.1,0.5-0.1,0.7,0C10.7,7,10.9,7,11,7c0.1,0,0.2-0.1,0.3-0.2c0.1-0.2,0.3-0.4,0.7-0.3c0.3,0,0.5,0.1,0.7,0.2
				c0.2,0.1,0.3,0.2,0.5,0.2c0.2,0,0.3-0.1,0.4-0.2c0.2-0.1,0.3-0.3,0.7-0.3c0.4,0,0.7,0.1,0.9,0.3c0.2,0.1,0.4,0.2,0.6,0.2
				c0.5,0,0.9-0.3,0.9-0.3c0.1,0,0.2,0,0.2,0c0,0.1,0,0.2,0,0.2c0,0-0.6,0.4-1.1,0.4c-0.3,0-0.5-0.1-0.7-0.2
				c-0.2-0.1-0.5-0.3-0.8-0.2c-0.3,0-0.4,0.1-0.6,0.2c-0.1,0.1-0.3,0.2-0.6,0.2c-0.3,0-0.5-0.1-0.6-0.2c-0.2-0.1-0.3-0.2-0.6-0.2
				c-0.3,0-0.4,0.1-0.5,0.2c-0.1,0.1-0.2,0.3-0.4,0.3C11,7.2,10.9,7.2,10.9,7.2z"/>
		</g>
	</g>
	<g>
		<g>
			<path class="st0" d="M7.3,7.1C7.3,7.1,7.2,7,7.2,7c0,0-0.9-1.8-2.8-2.1c-1.9-0.4-3.9,1-3.9,1c-0.1,0-0.2,0-0.2,0
				c0-0.1,0-0.2,0-0.2c0.1-0.1,2.1-1.5,4.1-1.1c2,0.4,2.9,2.2,3,2.3C7.5,6.9,7.5,7,7.3,7.1C7.4,7.1,7.3,7.1,7.3,7.1z"/>
		</g>
		<g>
			<path class="st0" d="M6.3,7.5C6,7.5,5.7,7.4,5.6,7.2L5.4,7.1C5.2,6.8,5,6.5,4.8,6.5c-0.1,0-0.2,0.1-0.3,0.1
				C4.3,6.8,4.1,6.9,3.8,6.8C3.6,6.8,3.4,6.5,3.2,6.3C3.1,6.2,3,6,2.9,6c0,0-0.1,0.1-0.2,0.1C2.6,6.3,2.4,6.5,2,6.4
				c-0.2,0-0.3-0.1-0.4-0.1C1.4,6.3,1.2,6.2,1.1,6.3c-0.1,0-0.2,0-0.2-0.1C0.9,6.1,0.9,6,1,6c0.2-0.1,0.4,0,0.7,0.1
				c0.1,0,0.3,0.1,0.4,0.1c0.2,0,0.3,0,0.4-0.2c0.1-0.1,0.2-0.2,0.4-0.2c0.2,0,0.4,0.2,0.5,0.4c0.1,0.2,0.3,0.3,0.4,0.4
				c0.1,0,0.3,0,0.4-0.1c0.1-0.1,0.3-0.2,0.4-0.2c0.3,0,0.6,0.3,0.9,0.7l0.1,0.1C6,7.3,6.6,7.2,6.9,7.1c0.1,0,0.2,0,0.2,0.1
				c0,0.1,0,0.2-0.1,0.2C6.9,7.4,6.6,7.5,6.3,7.5z"/>
		</g>
	</g>
	<g>
		<g>
			<path class="st0" d="M7.8,6.9c-0.1,0-0.1,0-0.1-0.1c0-0.1-0.5-1.8,0.2-3.1c0.9-1.7,2.8-2.4,5.5-2.1c0.1,0,0.1,0.1,0.1,0.2
				c0,0.1-0.1,0.1-0.2,0.1c-2.7-0.3-4.4,0.3-5.3,2C7.5,5.1,7.9,6.7,7.9,6.7C8,6.8,7.9,6.9,7.8,6.9C7.8,6.9,7.8,6.9,7.8,6.9z"/>
		</g>
		<g>
			<path class="st0" d="M8.5,6.8C8.5,6.8,8.5,6.8,8.5,6.8c-0.1,0-0.1-0.1-0.1-0.2c0,0,0-0.1,0-0.1c0-0.2,0-0.4,0.1-0.6
				c0.1-0.1,0.2-0.1,0.3-0.1c0.2,0,0.2-0.1,0.3-0.2c0.1-0.2,0.1-0.5,0-0.7c-0.1-0.2,0-0.3,0-0.4C9.3,4.3,9.7,4.1,10.4,4
				c0.4,0,0.4-0.1,0.4-0.4c0-0.1,0-0.2,0-0.4c0.1-0.4,0.4-0.3,0.8-0.3c0.2,0,0.4,0,0.7,0c0.3,0,0.7-0.5,0.8-0.7
				c0-0.1,0.1-0.1,0.2-0.1c0.1,0,0.1,0.1,0.1,0.2c0,0-0.4,0.8-1,0.9c-0.3,0-0.5,0-0.7,0c-0.4,0-0.5,0-0.5,0.1c0,0.1,0,0.2,0,0.3
				c0,0.3,0,0.6-0.6,0.7c-0.5,0.1-0.9,0.2-1,0.3c0,0,0,0.1,0,0.2c0.1,0.3,0.1,0.7-0.1,0.9C9.2,6,9,6.1,8.8,6.1c-0.1,0-0.1,0-0.1,0
				c-0.1,0.1-0.1,0.2,0,0.4c0,0.1,0,0.1,0,0.2C8.6,6.7,8.5,6.8,8.5,6.8z"/>
		</g>
	</g>
	<g>
		<path class="st0" d="M8.5,10c-0.2,0-0.3,0-0.4-0.1C7.3,9.5,7.7,8.1,7.8,8.1C7.8,8,7.9,8,7.9,8C8,8,8,8.1,8,8.2
			c0,0-0.4,1.2,0.2,1.5C8.5,9.8,8.8,9.7,9,9.6c0.2-0.2,0.3-0.5,0.3-0.9c-0.2-0.9-1-0.8-1-0.8c-0.1,0-0.1,0-0.2-0.1
			c0-0.1,0-0.1,0.1-0.2c0,0,1.1-0.1,1.3,1c0.1,0.7-0.2,1-0.4,1.2C9,9.9,8.8,10,8.5,10z"/>
	</g>
	<g>
		<path class="st0" d="M7.3,9.7C7.2,9.7,7,9.6,6.9,9.5C6.7,9.3,6.6,9,6.6,8.6c0.1-0.6,0.8-1,0.8-1c0.1,0,0.2,0,0.2,0.1
			c0,0.1,0,0.2-0.1,0.2c0,0-0.6,0.3-0.7,0.7c0,0.3,0,0.6,0.2,0.7c0.1,0.1,0.1,0.1,0.2,0.1c0.1,0,0.1,0.1,0.1,0.1
			C7.5,9.6,7.4,9.7,7.3,9.7C7.3,9.7,7.3,9.7,7.3,9.7z"/>
	</g>
	<g>
		<path class="st0" d="M14.3,24.5c-0.5,0-0.7-0.2-0.9-0.4c-0.2-0.2-0.4-0.3-0.7-0.3c-0.3,0-0.5,0.1-0.7,0.3
			c-0.2,0.2-0.5,0.4-0.9,0.4c-0.5,0-0.7-0.2-0.9-0.4c-0.2-0.2-0.4-0.3-0.7-0.3c-0.1,0-0.2-0.1-0.2-0.2s0.1-0.2,0.2-0.2
			c0.5,0,0.7,0.2,0.9,0.4c0.2,0.2,0.4,0.3,0.7,0.3c0.3,0,0.5-0.1,0.7-0.3c0.2-0.2,0.5-0.4,0.9-0.4c0.5,0,0.7,0.2,0.9,0.4
			c0.2,0.2,0.4,0.3,0.7,0.3s0.5-0.1,0.7-0.3c0.2-0.2,0.5-0.4,0.9-0.4c0.1,0,0.2,0.1,0.2,0.2s-0.1,0.2-0.2,0.2
			c-0.3,0-0.5,0.1-0.7,0.3C15,24.3,14.8,24.5,14.3,24.5z"/>
	</g>
	<g>
		<path class="st0" d="M18.1,22.2c-0.5,0-0.7-0.2-0.9-0.4c-0.2-0.2-0.4-0.3-0.7-0.3c-0.3,0-0.5,0.1-0.7,0.3
			c-0.2,0.2-0.5,0.4-0.9,0.4c-0.5,0-0.7-0.2-0.9-0.4c-0.2-0.2-0.4-0.3-0.7-0.3c-0.3,0-0.5,0.1-0.7,0.3c-0.2,0.2-0.5,0.4-0.9,0.4
			c-0.5,0-0.7-0.2-0.9-0.4c-0.2-0.2-0.4-0.3-0.7-0.3c-0.3,0-0.5,0.1-0.7,0.3C9,22,8.7,22.2,8.3,22.2c-0.1,0-0.2-0.1-0.2-0.2
			s0.1-0.2,0.2-0.2c0.3,0,0.5-0.1,0.7-0.3c0.2-0.2,0.5-0.4,0.9-0.4c0.5,0,0.7,0.2,0.9,0.4c0.2,0.2,0.4,0.3,0.7,0.3
			c0.3,0,0.5-0.1,0.7-0.3c0.2-0.2,0.5-0.4,0.9-0.4c0.5,0,0.7,0.2,0.9,0.4c0.2,0.2,0.4,0.3,0.7,0.3c0.3,0,0.5-0.1,0.7-0.3
			c0.2-0.2,0.5-0.4,0.9-0.4c0.5,0,0.7,0.2,0.9,0.4c0.2,0.2,0.4,0.3,0.7,0.3c0.1,0,0.2,0.1,0.2,0.2S18.2,22.2,18.1,22.2z"/>
	</g>
</g>
</svg>
