<?xml version="1.0" encoding="utf-8"?>
<!-- Generator: Adobe Illustrator 25.1.0, SVG Export Plug-In . SVG Version: 6.00 Build 0)  -->
<svg version="1.1" id="Layer_1" xmlns="http://www.w3.org/2000/svg" xmlns:xlink="http://www.w3.org/1999/xlink" x="0px" y="0px"
	 viewBox="0 0 24 40" style="enable-background:new 0 0 24 40;" xml:space="preserve">
<style type="text/css">
	.st0{fill:#FFFFFF;}
</style>
<g>
	<path class="st0" d="M23,21.5v-2.6l-2.5-0.7c-0.2-0.9-0.6-1.8-1.1-2.6l1.3-2.3l-1.8-1.8l-2.3,1.3c-0.8-0.5-1.7-0.9-2.6-1.1h0
		l-0.7-2.5h-2.6l-0.7,2.5c-0.9,0.2-1.8,0.6-2.6,1.1l-2.3-1.3l-1.8,1.8l1.3,2.3c-0.5,0.8-0.9,1.7-1.1,2.6L1,18.9v2.6l2.5,0.7
		c0.2,0.9,0.6,1.8,1.1,2.6L3.4,27l1.8,1.8l2.3-1.3c0.5,0.3,1,0.6,1.5,0.8v-2.8c-1.8-1.1-3.1-3-3.1-5.3c0-3.5,2.9-6.3,6.5-6.1
		c3.2,0.2,5.7,2.8,5.8,6c0,2.3-1.2,4.4-3.1,5.4v2.8c0.5-0.2,1.1-0.5,1.5-0.8l2.3,1.3l1.8-1.8l-1.3-2.3c0.5-0.8,0.9-1.7,1.1-2.6
		L23,21.5z"/>
	<path class="st0" d="M16.7,20.2c0-1.9-1.2-3.6-2.9-4.3v5.3l-1.8,1l-1.8-1v-5.3c-1.7,0.7-2.9,2.4-2.9,4.3c0,1.9,1.2,3.6,2.9,4.3v6.1
		c0.6,0.1,1.2,0.2,1.8,0.2c0.6,0,1.2-0.1,1.8-0.2v-6.1C15.5,23.8,16.7,22.1,16.7,20.2z"/>
</g>
</svg>
