<?xml version="1.0" encoding="utf-8"?>
<!-- Generator: Adobe Illustrator 25.1.0, SVG Export Plug-In . SVG Version: 6.00 Build 0)  -->
<svg version="1.1" id="Layer_1" xmlns="http://www.w3.org/2000/svg" xmlns:xlink="http://www.w3.org/1999/xlink" x="0px" y="0px"
	 viewBox="0 0 24 29.7" style="enable-background:new 0 0 24 29.7;" xml:space="preserve">
<style type="text/css">
	.st0{fill:#FFFFFF;}
</style>
<g>
	<g>
		<g>
			<g>
				<path class="st0" d="M20.2,20.9c-0.6,1.4-1.6,2.6-2.9,3.5c-1.4,1-3,1.5-4.7,1.5c-1.3,0-2.6-0.3-3.7-0.9c-0.1,0.1-0.2,0.1-0.3,0
					c-0.1-0.1-0.2-0.3-0.1-0.4c0.1-0.1,0.3-0.2,0.4-0.1C8.9,24.6,9,24.7,9,24.8c1.1,0.6,2.4,0.9,3.6,0.9c1.7,0,3.2-0.5,4.6-1.4
					c1.2-0.9,2.2-2.1,2.8-3.4c-0.1-0.1-0.1-0.2-0.1-0.3c0.1-0.2,0.2-0.2,0.4-0.2c0.2,0.1,0.2,0.2,0.2,0.4
					C20.5,20.8,20.3,20.9,20.2,20.9z"/>
			</g>
			<g>
				<path class="st0" d="M14.9,9.7c0.8,0.2,1.5,0.5,2.2,1c1.2,0.8,2.2,1.8,2.9,3.1c0.1,0,0.2,0.1,0.3,0.2c0.1,0.1,0,0.3-0.1,0.4
					c-0.1,0.1-0.3,0-0.4-0.1c-0.1-0.1,0-0.2,0-0.3c-0.7-1.2-1.6-2.2-2.8-3c-0.6-0.4-1.2-0.7-1.9-0.9"/>
			</g>
			<g>
				<path class="st0" d="M21.7,19.9c-0.4,1.7-1.3,3.2-2.6,4.5c-1.8,1.7-4.1,2.7-6.6,2.7c-0.9,0-1.7-0.1-2.5-0.3
					c-0.1,0.1-0.2,0.1-0.3,0.1c-0.2,0-0.2-0.2-0.2-0.4c0-0.2,0.2-0.2,0.4-0.2c0.1,0,0.2,0.1,0.2,0.2c0.8,0.2,1.6,0.3,2.5,0.3
					c2.4,0,4.7-0.9,6.4-2.6c1.2-1.2,2.1-2.7,2.5-4.3"/>
			</g>
			<g>
				<path class="st0" d="M14.4,8.4c2.3,0.5,4.4,1.8,5.8,3.8c0.1,0,0.2,0,0.3,0.1c0.1,0.1,0.1,0.3-0.1,0.4c-0.1,0.1-0.3,0.1-0.4-0.1
					c-0.1-0.1-0.1-0.2,0-0.3c-1.3-1.9-3.3-3.1-5.5-3.6"/>
			</g>
			<g>
				<path class="st0" d="M3.1,12.8c-0.3,0.6-0.5,1.2-0.7,1.8c0.1,0.1,0.1,0.2,0.1,0.3c0,0.2-0.2,0.2-0.4,0.2c-0.2,0-0.2-0.2-0.2-0.4
					c0-0.1,0.1-0.2,0.2-0.2c0.2-0.6,0.4-1.3,0.7-1.8"/>
			</g>
			<g>
				<path class="st0" d="M23.1,19.9c-0.1,0.4-0.2,0.7-0.3,1.1c0.1,0.1,0.1,0.2,0.1,0.3c0,0.2-0.2,0.2-0.4,0.2
					c-0.2,0-0.2-0.2-0.2-0.4c0-0.1,0.1-0.2,0.3-0.2c0.1-0.3,0.2-0.7,0.2-1.1"/>
			</g>
			<g>
				<path class="st0" d="M22.7,14.4C21.9,12,20.2,9.9,18,8.6c-0.1,0.1-0.2,0.1-0.3,0c-0.1-0.1-0.2-0.3-0.1-0.4
					c0.1-0.1,0.3-0.2,0.4-0.1c0.1,0.1,0.2,0.2,0.1,0.3c2.3,1.3,4,3.4,4.9,6"/>
			</g>
			<g>
				<path class="st0" d="M13.8,28c0.1,0,0.2,0,0.3,0.1c1.5-0.2,3-0.8,4.3-1.7c1.3-0.8,2.3-2,3.1-3.2c-0.1-0.1-0.1-0.2,0-0.3
					c0.1-0.1,0.3-0.2,0.4-0.1c0.1,0.1,0.2,0.3,0.1,0.4c-0.1,0.1-0.2,0.2-0.3,0.1c-0.8,1.3-1.9,2.4-3.2,3.3c-1.3,0.9-2.8,1.5-4.4,1.7
					c0,0.1-0.1,0.2-0.2,0.2c-0.2,0-0.3-0.1-0.3-0.3C13.6,28.1,13.7,28,13.8,28z"/>
			</g>
			<g>
				<path class="st0" d="M4.9,25c1.4,1.5,3.3,2.6,5.3,3c0.1-0.1,0.2-0.1,0.3-0.1c0.2,0,0.3,0.2,0.2,0.3c0,0.2-0.2,0.3-0.3,0.2
					c-0.1,0-0.2-0.1-0.2-0.2c-2.1-0.5-4-1.5-5.4-3.1"/>
			</g>
		</g>
		<g>
			<g>
				<path class="st0" d="M6.5,12.2c-0.2,0-0.2-0.2-0.3-0.3c0,0,0,0,0,0c0,0,0,0,0,0C6.2,12,6,12.1,5.8,12c-0.2-0.1-0.2-0.4-0.2-0.5
					c0-0.1,0.1-0.1,0.2-0.1c0.1,0,0.1,0.1,0.1,0.2c0,0,0,0.2,0.1,0.3c0,0,0,0,0.1,0c0.1,0,0.1-0.1,0.2-0.1c0.2,0,0.2,0.2,0.2,0.3
					c0,0,0,0,0,0.1c0,0,0.1-0.1,0.2-0.2c0.1-0.1,0.1-0.1,0.2,0C7,11.8,7,11.9,7,11.9C6.9,12,6.7,12.2,6.5,12.2z"/>
			</g>
			<g>
				<path class="st0" d="M6.2,14.5c-0.1,0-0.1,0-0.2-0.1c-0.1-0.1-0.2-0.3-0.2-0.4c0,0,0,0,0,0c-0.2,0.1-0.3,0.3-0.5,0.2
					c-0.1-0.1-0.1-0.2-0.1-0.3c-0.1,0.1-0.3,0.2-0.4,0.2c-0.1,0-0.1,0-0.1-0.1c-0.1-0.2-0.1-0.5-0.1-0.6c0-0.1,0.1-0.1,0.2-0.1
					c0.1,0,0.1,0.1,0.1,0.2c0,0.1,0,0.2,0,0.3c0,0,0.1-0.1,0.1-0.1c0.1-0.1,0.2-0.2,0.3-0.2c0,0,0.1,0,0.1,0.1
					c0.1,0.1,0.1,0.2,0,0.3c0,0,0,0.1,0,0.2c0,0,0.1-0.1,0.2-0.1c0.1-0.1,0.2-0.2,0.3-0.2c0.2,0,0.2,0.2,0.2,0.3
					c0,0.1,0,0.2,0.1,0.2c0-0.1,0.1-0.2,0.1-0.3c0-0.1,0.1-0.1,0.2-0.1c0.1,0,0.1,0.1,0.1,0.2C6.5,14.1,6.4,14.4,6.2,14.5
					C6.2,14.5,6.2,14.5,6.2,14.5z"/>
			</g>
			<g>
				<path class="st0" d="M5.7,17.1C5.7,17.1,5.7,17.1,5.7,17.1c-0.2,0-0.3-0.2-0.4-0.3C5.3,16.9,5.2,17,5,16.9
					c-0.2,0-0.3-0.2-0.3-0.3c-0.1,0.1-0.2,0.2-0.3,0.2c-0.2,0-0.3-0.4-0.4-0.6c0-0.1,0-0.2,0.1-0.2c0.1,0,0.2,0,0.2,0.1
					c0,0.1,0.1,0.3,0.1,0.3c0.1,0,0.2-0.2,0.3-0.3c0-0.1,0.1-0.1,0.2-0.1c0.1,0,0.1,0.1,0.1,0.1c0,0.1,0.1,0.3,0.2,0.3
					c0.1,0,0.2-0.2,0.2-0.2c0-0.1,0.1-0.1,0.1-0.1c0.1,0,0.1,0,0.1,0.1c0.1,0.2,0.2,0.4,0.2,0.4c0,0,0.1-0.1,0.1-0.2
					c0-0.1,0.1-0.1,0.2-0.1c0.1,0,0.1,0.1,0.1,0.2c0,0.1-0.1,0.3-0.2,0.4C5.8,17.1,5.8,17.1,5.7,17.1z"/>
			</g>
			<g>
				<path class="st0" d="M4.9,19.8c-0.2,0-0.3-0.2-0.4-0.4c-0.1,0.2-0.3,0.3-0.4,0.3c-0.2,0-0.4-0.4-0.5-0.6c0-0.1,0-0.2,0.1-0.2
					c0.1,0,0.2,0,0.2,0.1c0.1,0.2,0.2,0.4,0.2,0.4c0,0,0.2-0.2,0.3-0.4c0,0,0.1-0.1,0.1-0.1c0.1,0,0.1,0,0.1,0.1
					c0.1,0.2,0.2,0.4,0.2,0.4c0,0,0.2-0.2,0.2-0.4c0-0.1,0.1-0.1,0.1-0.1c0.1,0,0.1,0,0.1,0.1c0.1,0.2,0.2,0.3,0.2,0.3
					c0,0,0.1-0.2,0.1-0.3C5.7,19,5.8,19,5.9,19C5.9,19,6,19.1,6,19.1c0,0.1,0,0.6-0.4,0.6c-0.1,0-0.3-0.1-0.3-0.2
					C5.2,19.7,5.1,19.8,4.9,19.8z"/>
			</g>
			<g>
				<path class="st0" d="M6,22.9C6,22.9,6,22.9,6,22.9c-0.2,0-0.3-0.2-0.4-0.3c0,0.1-0.1,0.2-0.2,0.3c-0.1,0-0.2,0.1-0.3,0
					c-0.2-0.1-0.3-0.2-0.4-0.3c-0.1,0.2-0.3,0.4-0.5,0.4c-0.2-0.1-0.5-0.5-0.5-0.6c0-0.1,0-0.2,0-0.2c0.1,0,0.2,0,0.2,0
					c0.1,0.2,0.3,0.4,0.4,0.5c0.1,0,0.2-0.2,0.3-0.4C4.7,22,4.7,22,4.8,22c0,0,0,0,0,0c0.1,0,0.1,0,0.1,0.1c0,0.1,0.2,0.4,0.4,0.4
					c0.1,0,0.1-0.2,0.1-0.4c0-0.1,0.1-0.1,0.1-0.1c0.1,0,0.1,0,0.2,0.1c0.1,0.2,0.2,0.4,0.3,0.5c0-0.1,0-0.2,0-0.3
					c0-0.1,0.1-0.1,0.1-0.1c0.1,0,0.1,0.1,0.1,0.1c0,0.1,0,0.5-0.2,0.6C6.1,22.8,6.1,22.9,6,22.9z"/>
			</g>
			<g>
				<g>
					<path class="st0" d="M7.7,24.2c0,0-0.1,0-0.1-0.1C4.7,20.5,7,11.8,7.8,10.1C7.9,10.1,8,10,8,10.1c0.1,0,0.1,0.1,0.1,0.2
						C7.2,11.9,5,20.4,7.8,24C7.8,24.1,7.8,24.2,7.7,24.2C7.7,24.2,7.7,24.2,7.7,24.2z"/>
				</g>
				<g>
					<path class="st0" d="M7.7,24.2c0,0-0.1,0-0.1-0.1C4.7,20.5,7,11.8,7.8,10.1C7.9,10.1,8,10,8,10.1c0.1,0,0.1,0.1,0.1,0.2
						C7.2,11.9,5,20.4,7.8,24C7.8,24.1,7.8,24.2,7.7,24.2C7.7,24.2,7.7,24.2,7.7,24.2z"/>
				</g>
			</g>
			<g>
				<path class="st0" d="M3.5,24.3c-0.1,0-0.1,0-0.1-0.1C1.2,16.4,6.1,9.7,6.1,9.6c0-0.1,0.1-0.1,0.2,0s0.1,0.1,0,0.2
					c0,0.1-4.8,6.6-2.7,14.3C3.7,24.2,3.7,24.3,3.5,24.3C3.6,24.3,3.6,24.3,3.5,24.3z"/>
			</g>
		</g>
		<g>
			<g>
				<g>
					<g>
						<path class="st0" d="M14.6,19.2c-0.2,0-0.3-0.1-0.4-0.3L14,18.2h-1.2l-0.2,0.6c-0.1,0.2-0.2,0.3-0.4,0.3c-0.1,0-0.1,0-0.1,0
							c-0.2-0.1-0.3-0.3-0.3-0.5l1.2-3.3c0.1-0.2,0.2-0.3,0.4-0.3c0.2,0,0.3,0.1,0.4,0.3l0.3,0.8c0,0.1,0,0.1-0.1,0.1
							c-0.1,0-0.1,0-0.1-0.1l-0.3-0.8c0-0.1-0.1-0.1-0.2-0.1c0,0,0,0,0,0c-0.1,0-0.2,0-0.2,0.1L12,18.7c0,0.1,0,0.2,0.1,0.2
							c0,0,0,0,0.1,0c0.1,0,0.1,0,0.2-0.1l0.3-0.7c0,0,0.1-0.1,0.1-0.1h1.3c0,0,0.1,0,0.1,0.1l0.3,0.7c0,0.1,0.1,0.1,0.2,0.1
							c0,0,0.1,0,0.1,0c0.1,0,0.2-0.1,0.1-0.3l-0.5-1.4c0-0.1,0-0.1,0.1-0.1c0.1,0,0.1,0,0.1,0.1l0.5,1.4c0.1,0.2,0,0.5-0.2,0.5
							C14.7,19.1,14.6,19.2,14.6,19.2z M13.8,17.6h-0.9c0,0-0.1,0-0.1,0c0,0,0-0.1,0-0.1l0.4-1.2c0,0,0.1-0.1,0.1-0.1
							c0,0,0.1,0,0.1,0.1l0.4,1.2C13.9,17.5,13.9,17.6,13.8,17.6C13.9,17.6,13.9,17.6,13.8,17.6z M13.1,17.4h0.6l-0.3-0.7L13.1,17.4
							z"/>
					</g>
				</g>
			</g>
		</g>
		<g>
			<g>
				<g>
					<g>
						<path class="st0" d="M19.6,19.2c-0.2,0-0.4-0.2-0.4-0.4v-1c0-0.1,0.1-0.1,0.1-0.1s0.1,0.1,0.1,0.1v1c0,0.1,0.1,0.2,0.2,0.2
							c0.1,0,0.2-0.1,0.2-0.2v-3.3c0-0.1-0.1-0.2-0.2-0.2c-0.1,0-0.2,0.1-0.2,0.2v0.7c0,0.1-0.1,0.1-0.1,0.1s-0.1-0.1-0.1-0.1v-0.7
							c0-0.2,0.2-0.4,0.4-0.4c0.2,0,0.4,0.2,0.4,0.4v3.3C20,19,19.8,19.2,19.6,19.2z"/>
					</g>
				</g>
			</g>
		</g>
		<g>
			<g>
				<g>
					<g>
						<path class="st0" d="M17.1,19.2c-0.6,0-1.2-0.3-1.5-0.6c-0.2-0.1-0.2-0.4-0.1-0.6c0.1-0.2,0.4-0.2,0.6-0.1
							c0.2,0.2,0.6,0.4,1,0.4c0,0,0,0,0,0c0.2,0,0.5-0.1,0.6-0.2c0.1-0.1,0.2-0.2,0.2-0.3c0,0,0-0.1,0-0.1c0,0-0.1-0.1-0.1-0.1
							c-0.1-0.1-0.4-0.2-0.7-0.2h0c0,0,0,0,0,0c-0.3-0.1-0.5-0.1-0.7-0.2c-0.2-0.1-0.4-0.3-0.6-0.5c0-0.1,0-0.1,0-0.2
							c0.1,0,0.1,0,0.2,0c0.1,0.2,0.3,0.3,0.5,0.4c0.2,0.1,0.4,0.2,0.7,0.2l0,0c0,0,0,0,0,0c0.3,0.1,0.6,0.2,0.8,0.3
							c0.1,0.1,0.2,0.1,0.2,0.2c0,0.1,0.1,0.1,0.1,0.2c0,0.1,0,0.3-0.3,0.5c-0.2,0.1-0.5,0.2-0.8,0.2c-0.4,0-0.8-0.2-1.1-0.5
							c0,0-0.1,0-0.1,0c0,0-0.1,0-0.1,0.1c-0.1,0.1,0,0.2,0,0.2c0.3,0.2,0.8,0.5,1.3,0.5c0.4,0,0.7-0.1,1-0.3c0.1,0,0.1,0,0.2,0
							c0,0.1,0,0.1,0,0.2C17.9,19.1,17.5,19.2,17.1,19.2z M18.6,18.1c-0.1,0-0.1-0.1-0.1-0.1c0-0.1,0-0.3-0.1-0.4
							c-0.1-0.2-0.3-0.3-0.5-0.4c-0.2-0.1-0.4-0.2-0.7-0.2c0,0,0,0,0,0c-0.3-0.1-0.6-0.2-0.7-0.3c-0.1-0.1-0.1-0.1-0.2-0.2
							c0-0.1-0.1-0.1-0.1-0.2c0-0.1,0-0.3,0.3-0.4c0.2-0.1,0.4-0.2,0.7-0.2c0.4,0,0.6,0.2,1,0.4c0,0,0.1,0,0.1,0c0,0,0.1,0,0.1-0.1
							c0.1-0.1,0-0.2,0-0.2l0,0c-0.3-0.2-0.6-0.4-1.1-0.4c-0.3,0-0.6,0.1-0.9,0.3c-0.1,0-0.1,0.1-0.2,0.1c0,0-0.1,0.1-0.2,0
							c0,0-0.1-0.1,0-0.2c0.1-0.1,0.1-0.1,0.2-0.2c0.3-0.2,0.6-0.3,1-0.3c0.6,0,1,0.3,1.3,0.5l0,0c0.2,0.1,0.2,0.4,0.1,0.6
							c-0.1,0.1-0.1,0.1-0.2,0.2c-0.1,0-0.2,0-0.3-0.1c-0.3-0.2-0.5-0.3-0.8-0.3c-0.2,0-0.4,0.1-0.5,0.2c-0.1,0.1-0.2,0.2-0.2,0.3
							c0,0.1,0,0.1,0,0.1c0,0,0,0.1,0.1,0.1c0.1,0.1,0.4,0.2,0.6,0.2h0c0,0,0,0,0,0c0.3,0.1,0.6,0.1,0.8,0.2
							c0.3,0.1,0.5,0.3,0.6,0.5c0.1,0.2,0.1,0.3,0.1,0.5C18.7,18,18.6,18.1,18.6,18.1z"/>
					</g>
				</g>
			</g>
		</g>
		<g>
			<g>
				<g>
					<g>
						<path class="st0" d="M22,19.2c-0.6,0-1.2-0.3-1.5-0.6c-0.2-0.1-0.2-0.4-0.1-0.6c0.1-0.2,0.4-0.2,0.6-0.1
							c0.2,0.2,0.6,0.4,1,0.4c0,0,0,0,0,0c0.2,0,0.5-0.1,0.6-0.2c0.1-0.1,0.2-0.2,0.2-0.3c0,0,0-0.1,0-0.1c0,0-0.1-0.1-0.1-0.1
							c-0.1-0.1-0.4-0.2-0.7-0.2h0c0,0,0,0,0,0c-0.3-0.1-0.5-0.1-0.7-0.2c-0.2-0.1-0.4-0.3-0.6-0.5c0-0.1,0-0.1,0-0.2
							c0.1,0,0.1,0,0.2,0c0.1,0.2,0.3,0.3,0.5,0.4c0.2,0.1,0.4,0.2,0.7,0.2l0,0c0,0,0,0,0,0c0.3,0.1,0.6,0.2,0.8,0.3
							c0.1,0.1,0.2,0.1,0.2,0.2c0,0.1,0.1,0.1,0.1,0.2c0,0.1,0,0.3-0.3,0.5c-0.2,0.1-0.5,0.2-0.8,0.2c-0.4,0-0.8-0.2-1.1-0.5
							c0,0-0.1,0-0.1,0c0,0-0.1,0-0.1,0.1c-0.1,0.1,0,0.2,0,0.2C21,18.7,21.5,19,22,19c0.4,0,0.7-0.1,1-0.3c0.1,0,0.1,0,0.2,0
							c0,0.1,0,0.1,0,0.2C22.8,19.1,22.5,19.2,22,19.2z M23.5,18.1c-0.1,0-0.1-0.1-0.1-0.1c0-0.1,0-0.3-0.1-0.4
							c-0.1-0.2-0.3-0.3-0.5-0.4c-0.2-0.1-0.4-0.2-0.7-0.2c0,0,0,0,0,0c-0.3-0.1-0.6-0.2-0.7-0.3c-0.1-0.1-0.1-0.1-0.2-0.2
							c0-0.1-0.1-0.1-0.1-0.2c0-0.1,0-0.3,0.3-0.4c0.2-0.1,0.4-0.2,0.7-0.2c0.4,0,0.6,0.2,1,0.4c0,0,0.1,0,0.1,0c0,0,0.1,0,0.1-0.1
							c0.1-0.1,0-0.2,0-0.2l0,0c-0.3-0.2-0.6-0.4-1.1-0.4c-0.3,0-0.6,0.1-0.9,0.3c-0.1,0-0.1,0.1-0.2,0.1c0,0-0.1,0.1-0.2,0
							c0,0-0.1-0.1,0-0.2c0.1-0.1,0.1-0.1,0.2-0.2c0.3-0.2,0.6-0.3,1-0.3c0.6,0,1,0.3,1.3,0.5l0,0c0.2,0.1,0.2,0.4,0.1,0.6
							c-0.1,0.1-0.1,0.1-0.2,0.2c-0.1,0-0.2,0-0.3-0.1c-0.3-0.2-0.5-0.3-0.8-0.3c-0.2,0-0.4,0.1-0.5,0.2c-0.1,0.1-0.2,0.2-0.2,0.3
							c0,0.1,0,0.1,0,0.1c0,0,0,0.1,0.1,0.1c0.1,0.1,0.4,0.2,0.6,0.2h0c0,0,0,0,0,0c0.3,0.1,0.6,0.1,0.8,0.2
							c0.3,0.1,0.5,0.3,0.6,0.5c0.1,0.2,0.1,0.3,0.1,0.5C23.7,18,23.6,18.1,23.5,18.1z"/>
					</g>
				</g>
			</g>
		</g>
		<g>
			<g>
				<g>
					<g>
						<g>
							<path class="st0" d="M9.4,19.2c-0.5,0-1-0.2-1.3-0.5c-0.4-0.3-0.6-0.8-0.7-1.3c0-0.1,0-0.1,0.1-0.1c0.1,0,0.1,0,0.1,0.1
								c0.1,0.4,0.3,0.8,0.6,1.1C8.5,18.8,8.9,19,9.4,19c1,0,1.8-0.8,1.8-1.9c0-1-0.8-1.9-1.8-1.9c-0.9,0-1.7,0.7-1.8,1.7
								C7.6,17,7.5,17,7.4,17c-0.1,0-0.1-0.1-0.1-0.1c0.1-1.1,1-1.9,2-1.9c1.1,0,2,0.9,2,2.1C11.4,18.3,10.5,19.2,9.4,19.2z"/>
						</g>
					</g>
					<g>
						<g>
							<path class="st0" d="M9.4,18.6c-0.4,0-0.7-0.2-1-0.4c-0.3-0.3-0.4-0.6-0.4-1c0-0.4,0.2-0.8,0.4-1c0.3-0.3,0.6-0.4,1-0.4
								c0.4,0,0.7,0.2,1,0.4c0.1,0.1,0.2,0.3,0.3,0.4c0,0.1,0,0.1-0.1,0.2c-0.1,0-0.1,0-0.2-0.1c-0.1-0.1-0.1-0.2-0.2-0.3
								C10,16,9.7,15.9,9.4,15.9c-0.3,0-0.6,0.1-0.8,0.4c-0.2,0.2-0.4,0.6-0.4,0.9c0,0.3,0.1,0.7,0.3,0.9c0.2,0.2,0.5,0.4,0.8,0.4
								c0.3,0,0.6-0.1,0.8-0.4c0.1-0.1,0.2-0.3,0.3-0.5c0-0.1,0.1-0.1,0.1-0.1c0.1,0,0.1,0.1,0.1,0.1c-0.1,0.2-0.2,0.4-0.3,0.6
								C10.1,18.4,9.8,18.6,9.4,18.6z"/>
						</g>
					</g>
				</g>
			</g>
		</g>
	</g>
	<g>
		<g>
			<path class="st0" d="M15.5,13.2c-0.1,0-0.1,0-0.1-0.1c0,0-1-3.7-2.4-4.9c-1.3-1.1-3-0.5-3-0.5c-0.1,0-0.2,0-0.2-0.1
				c0-0.1,0-0.2,0.1-0.2c0.1,0,1.9-0.7,3.3,0.6c1.5,1.3,2.5,4.9,2.5,5C15.7,13.1,15.6,13.2,15.5,13.2C15.5,13.2,15.5,13.2,15.5,13.2
				z"/>
		</g>
		<g>
			<path class="st0" d="M14.5,13C14.5,13,14.5,13,14.5,13c-0.1,0-0.2-0.1-0.3-0.1c-0.3-0.1-0.6-0.2-0.7-0.5c-0.2-0.3-0.1-0.6,0-0.8
				c0-0.1,0.1-0.2,0-0.2c-0.1-0.1-0.2-0.1-0.4-0.2c-0.2,0-0.4,0-0.6-0.2c-0.3-0.2-0.2-0.6-0.2-0.9c0-0.1,0.1-0.3,0-0.3
				c0,0-0.1-0.1-0.3,0c-0.1,0-0.3,0-0.5,0c-0.4-0.1-0.4-0.4-0.3-0.6c0-0.1,0-0.3,0-0.3c-0.1-0.1-0.3-0.1-0.5,0c-0.2,0-0.4,0.1-0.5,0
				C9.9,8.7,9.8,8.2,9.8,8.1C9.8,8.1,9.9,8,10,8c0.1,0,0.1,0.1,0.1,0.1c0,0.1,0.1,0.4,0.2,0.4c0.1,0,0.2,0,0.4,0
				c0.3,0,0.6-0.1,0.8,0.2c0.1,0.2,0.1,0.4,0.1,0.5c0,0.3,0,0.3,0.1,0.3c0.2,0,0.3,0,0.4,0c0.2,0,0.5,0,0.6,0.2c0.1,0.1,0,0.3,0,0.5
				c-0.1,0.3-0.1,0.5,0.1,0.6C12.9,11,13,11,13.1,11c0.2,0,0.4,0,0.6,0.2c0.1,0.1,0.1,0.3,0,0.5c-0.1,0.2-0.1,0.3,0,0.5
				c0.1,0.2,0.4,0.3,0.6,0.4c0.1,0,0.2,0.1,0.3,0.1c0.1,0,0.1,0.1,0.1,0.2C14.6,13,14.6,13,14.5,13z"/>
		</g>
	</g>
	<g>
		<g>
			<path class="st0" d="M1.6,12.4C1.6,12.4,1.6,12.4,1.6,12.4c-0.1,0-0.1-0.1-0.1-0.1c0-0.1,0-1.9,0.8-3.3c1.1-2.1,2.4-1.8,3.4-1.6
				l0.1,0c0.1,0,0.1,0.1,0.1,0.2c0,0.1-0.1,0.1-0.2,0.1l-0.1,0C4.6,7.5,3.4,7.2,2.5,9.1c-0.7,1.3-0.7,3.1-0.7,3.2
				C1.7,12.4,1.7,12.4,1.6,12.4z"/>
		</g>
		<g>
			<path class="st0" d="M2.4,11.8C2.4,11.8,2.4,11.8,2.4,11.8c-0.1,0-0.2-0.1-0.1-0.2c0.1-0.4,0.2-0.5,0.4-0.6
				c0.1,0,0.1-0.1,0.2-0.1c0.1-0.1,0.2-0.4,0.2-0.6c0-0.1,0-0.2,0-0.2c0.1-0.3,0.5-0.4,0.8-0.4c0.2,0,0.3-0.2,0.4-0.4l0-0.1
				c0.1-0.4,0.5-0.4,1.1-0.4C5.9,8.8,6,8.3,6,8.3C6,8.2,6,8.2,6.1,8.2c0.1,0,0.1,0.1,0.1,0.2c0,0.3-0.2,0.8-0.9,0.8
				c-0.7,0-0.8,0-0.9,0.2l0,0.1C4.4,9.7,4.3,10,3.8,10c-0.3,0-0.5,0.1-0.5,0.2c0,0,0,0.1,0,0.2c0,0.2-0.1,0.5-0.3,0.7
				c-0.1,0.1-0.1,0.1-0.2,0.2c-0.1,0.1-0.2,0.1-0.3,0.4C2.5,11.8,2.4,11.8,2.4,11.8z"/>
		</g>
	</g>
	<g>
		<g>
			<path class="st0" d="M9.1,6.8C9.1,6.8,9.1,6.8,9.1,6.8C9,6.8,8.9,6.7,8.9,6.7c0,0,0.6-2.4,3.2-2.4c0,0,0,0,0.1,0
				c2.5,0,5.3,1.6,5.4,1.6c0.1,0,0.1,0.1,0.1,0.2c0,0.1-0.1,0.1-0.2,0.1c0,0-2.9-1.6-5.3-1.6c0,0,0,0,0,0c-2.4,0-2.9,2.1-2.9,2.2
				C9.2,6.8,9.1,6.8,9.1,6.8z"/>
		</g>
		<g>
			<path class="st0" d="M10.9,6.8c-0.1,0-0.2,0-0.4-0.1c-0.2,0-0.3-0.1-0.6,0c-0.1,0-0.2,0-0.2-0.1c0-0.1,0-0.2,0.1-0.2
				c0.3-0.1,0.5-0.1,0.7,0c0.1,0,0.3,0.1,0.4,0c0.1,0,0.2-0.1,0.3-0.2C11.4,6.2,11.6,6,12,6c0.3,0,0.5,0.1,0.7,0.2
				c0.2,0.1,0.3,0.2,0.5,0.2c0.2,0,0.3-0.1,0.4-0.2C13.8,6.1,14,6,14.4,5.9c0.4,0,0.7,0.1,0.9,0.3c0.2,0.1,0.4,0.2,0.6,0.2
				c0.5,0,0.9-0.3,0.9-0.3c0.1,0,0.2,0,0.2,0c0,0.1,0,0.2,0,0.2c0,0-0.6,0.4-1.1,0.4c-0.3,0-0.5-0.1-0.7-0.2
				c-0.2-0.1-0.5-0.3-0.8-0.2c-0.3,0-0.4,0.1-0.6,0.2c-0.1,0.1-0.3,0.2-0.6,0.2c-0.3,0-0.5-0.1-0.6-0.2c-0.2-0.1-0.3-0.2-0.6-0.2
				c-0.3,0-0.4,0.1-0.5,0.2c-0.1,0.1-0.2,0.3-0.4,0.3C11,6.8,10.9,6.8,10.9,6.8z"/>
		</g>
	</g>
	<g>
		<g>
			<path class="st0" d="M7.3,6.7c-0.1,0-0.1,0-0.1-0.1c0,0-0.9-1.8-2.8-2.1c-1.9-0.4-3.9,1-3.9,1c-0.1,0-0.2,0-0.2,0
				c0-0.1,0-0.2,0-0.2c0.1-0.1,2.1-1.5,4.1-1.1c2,0.4,2.9,2.2,3,2.3C7.5,6.5,7.5,6.6,7.3,6.7C7.4,6.7,7.3,6.7,7.3,6.7z"/>
		</g>
		<g>
			<path class="st0" d="M6.3,7.1C6,7.1,5.7,7,5.6,6.8L5.4,6.7C5.2,6.4,5,6.1,4.8,6.1c-0.1,0-0.2,0.1-0.3,0.1
				C4.3,6.4,4.1,6.5,3.8,6.4C3.6,6.4,3.4,6.1,3.2,5.9C3.1,5.8,3,5.6,2.9,5.6c0,0-0.1,0.1-0.2,0.1C2.6,5.9,2.4,6.1,2,6
				C1.9,6,1.7,6,1.6,5.9C1.4,5.9,1.2,5.8,1.1,5.9c-0.1,0-0.2,0-0.2-0.1c0-0.1,0-0.2,0.1-0.2c0.2-0.1,0.4,0,0.7,0.1
				c0.1,0,0.3,0.1,0.4,0.1c0.2,0,0.3,0,0.4-0.2c0.1-0.1,0.2-0.2,0.4-0.2c0.2,0,0.4,0.2,0.5,0.4c0.1,0.2,0.3,0.3,0.4,0.4
				c0.1,0,0.3,0,0.4-0.1c0.1-0.1,0.3-0.2,0.4-0.2c0.3,0,0.6,0.3,0.9,0.7l0.1,0.1C6,6.9,6.6,6.8,6.9,6.7c0.1,0,0.2,0,0.2,0.1
				C7,6.9,7,7,6.9,7C6.9,7,6.6,7.1,6.3,7.1z"/>
		</g>
	</g>
	<g>
		<g>
			<path class="st0" d="M7.8,6.5c-0.1,0-0.1,0-0.1-0.1c0-0.1-0.5-1.8,0.2-3.1c0.9-1.7,2.8-2.4,5.5-2.1c0.1,0,0.1,0.1,0.1,0.2
				c0,0.1-0.1,0.1-0.2,0.1c-2.7-0.3-4.4,0.3-5.3,2C7.5,4.7,7.9,6.3,7.9,6.3C8,6.4,7.9,6.5,7.8,6.5C7.8,6.5,7.8,6.5,7.8,6.5z"/>
		</g>
		<g>
			<path class="st0" d="M8.5,6.4C8.5,6.4,8.5,6.4,8.5,6.4c-0.1,0-0.1-0.1-0.1-0.2c0,0,0-0.1,0-0.1c0-0.2,0-0.4,0.1-0.6
				c0.1-0.1,0.2-0.1,0.3-0.1c0.2,0,0.2-0.1,0.3-0.2c0.1-0.2,0.1-0.5,0-0.7c-0.1-0.2,0-0.3,0-0.4c0.1-0.2,0.6-0.4,1.2-0.5
				c0.4,0,0.4-0.1,0.4-0.4c0-0.1,0-0.2,0-0.4c0.1-0.4,0.4-0.3,0.8-0.3c0.2,0,0.4,0,0.7,0c0.3,0,0.7-0.5,0.8-0.7
				c0-0.1,0.1-0.1,0.2-0.1c0.1,0,0.1,0.1,0.1,0.2c0,0-0.4,0.8-1,0.9c-0.3,0-0.5,0-0.7,0c-0.4,0-0.5,0-0.5,0.1c0,0.1,0,0.2,0,0.3
				c0,0.3,0,0.6-0.6,0.7C9.9,4,9.5,4.1,9.4,4.3c0,0,0,0.1,0,0.2c0.1,0.3,0.1,0.7-0.1,0.9C9.2,5.6,9,5.7,8.8,5.7c-0.1,0-0.1,0-0.1,0
				C8.6,5.8,8.6,6,8.6,6.1c0,0.1,0,0.1,0,0.2C8.6,6.3,8.5,6.4,8.5,6.4z"/>
		</g>
	</g>
	<g>
		<path class="st0" d="M8.5,9.6c-0.2,0-0.3,0-0.4-0.1C7.3,9.1,7.7,7.7,7.8,7.7c0-0.1,0.1-0.1,0.2-0.1C8,7.6,8,7.7,8,7.8
			c0,0-0.4,1.2,0.2,1.5C8.5,9.4,8.8,9.3,9,9.2C9.3,9,9.4,8.7,9.3,8.3c-0.2-0.9-1-0.8-1-0.8c-0.1,0-0.1,0-0.2-0.1
			c0-0.1,0-0.1,0.1-0.2c0,0,1.1-0.1,1.3,1c0.1,0.7-0.2,1-0.4,1.2C9,9.5,8.8,9.6,8.5,9.6z"/>
	</g>
	<g>
		<path class="st0" d="M7.3,9.3C7.2,9.3,7,9.2,6.9,9.1c-0.2-0.2-0.3-0.6-0.3-1c0.1-0.6,0.8-1,0.8-1c0.1,0,0.2,0,0.2,0.1
			c0,0.1,0,0.2-0.1,0.2c0,0-0.6,0.3-0.7,0.7c0,0.3,0,0.6,0.2,0.7C7.2,9,7.2,9,7.3,9c0.1,0,0.1,0.1,0.1,0.1C7.5,9.2,7.4,9.3,7.3,9.3
			C7.3,9.3,7.3,9.3,7.3,9.3z"/>
	</g>
	<g>
		<path class="st0" d="M14.3,24.1c-0.5,0-0.7-0.2-0.9-0.4c-0.2-0.2-0.4-0.3-0.7-0.3c-0.3,0-0.5,0.1-0.7,0.3
			c-0.2,0.2-0.5,0.4-0.9,0.4c-0.5,0-0.7-0.2-0.9-0.4c-0.2-0.2-0.4-0.3-0.7-0.3c-0.1,0-0.2-0.1-0.2-0.2c0-0.1,0.1-0.2,0.2-0.2
			c0.5,0,0.7,0.2,0.9,0.4c0.2,0.2,0.4,0.3,0.7,0.3c0.3,0,0.5-0.1,0.7-0.3c0.2-0.2,0.5-0.4,0.9-0.4c0.5,0,0.7,0.2,0.9,0.4
			c0.2,0.2,0.4,0.3,0.7,0.3s0.5-0.1,0.7-0.3c0.2-0.2,0.5-0.4,0.9-0.4c0.1,0,0.2,0.1,0.2,0.2c0,0.1-0.1,0.2-0.2,0.2
			c-0.3,0-0.5,0.1-0.7,0.3C15,23.9,14.8,24.1,14.3,24.1z"/>
	</g>
	<g>
		<path class="st0" d="M18.1,21.8c-0.5,0-0.7-0.2-0.9-0.4c-0.2-0.2-0.4-0.3-0.7-0.3c-0.3,0-0.5,0.1-0.7,0.3
			c-0.2,0.2-0.5,0.4-0.9,0.4c-0.5,0-0.7-0.2-0.9-0.4c-0.2-0.2-0.4-0.3-0.7-0.3c-0.3,0-0.5,0.1-0.7,0.3c-0.2,0.2-0.5,0.4-0.9,0.4
			c-0.5,0-0.7-0.2-0.9-0.4c-0.2-0.2-0.4-0.3-0.7-0.3c-0.3,0-0.5,0.1-0.7,0.3c-0.2,0.2-0.5,0.4-0.9,0.4c-0.1,0-0.2-0.1-0.2-0.2
			c0-0.1,0.1-0.2,0.2-0.2c0.3,0,0.5-0.1,0.7-0.3c0.2-0.2,0.5-0.4,0.9-0.4c0.5,0,0.7,0.2,0.9,0.4c0.2,0.2,0.4,0.3,0.7,0.3
			c0.3,0,0.5-0.1,0.7-0.3c0.2-0.2,0.5-0.4,0.9-0.4c0.5,0,0.7,0.2,0.9,0.4c0.2,0.2,0.4,0.3,0.7,0.3c0.3,0,0.5-0.1,0.7-0.3
			c0.2-0.2,0.5-0.4,0.9-0.4c0.5,0,0.7,0.2,0.9,0.4c0.2,0.2,0.4,0.3,0.7,0.3c0.1,0,0.2,0.1,0.2,0.2C18.2,21.7,18.2,21.8,18.1,21.8z"
			/>
	</g>
</g>
</svg>
