<?xml version="1.0" encoding="utf-8"?>
<!-- Generator: Adobe Illustrator 25.1.0, SVG Export Plug-In . SVG Version: 6.00 Build 0)  -->
<svg version="1.1" id="Layer_1" xmlns="http://www.w3.org/2000/svg" xmlns:xlink="http://www.w3.org/1999/xlink" x="0px" y="0px"
	 viewBox="0 0 24 40" style="enable-background:new 0 0 24 40;" xml:space="preserve">
<style type="text/css">
	.st0{fill:url(#SVGID_1_);}
	.st1{fill:#B6B6B6;}
</style>
<g>
	
		<linearGradient id="SVGID_1_" gradientUnits="userSpaceOnUse" x1="18.8485" y1="19.3065" x2="37.8832" y2="19.3065" gradientTransform="matrix(0.7071 -0.7071 0.7071 0.7071 -17.8145 27.0053)">
		<stop  offset="1.040000e-02" style="stop-color:#B6B6B6;stop-opacity:0"/>
		<stop  offset="0.513" style="stop-color:#B6B6B6"/>
	</linearGradient>
	<path class="st0" d="M1.9,18.2l20-4.6c0.6-0.1,1.1,0.4,1,1l-4.6,20c-0.1,0.6-1,1-1.4,0.6l-1.6-1.6c-0.4-0.4-0.7-1-0.4-1.6l2.8-12.5
		c0.2-0.5-0.2-0.9-0.8-0.8L4.5,21.5c-0.6,0.1-1.3-0.1-1.8-0.5l-1.6-1.6C0.8,19,1.3,18.3,1.9,18.2z"/>
	<path class="st1" d="M7.2,25.5l3.7,3.7c0.4,0.4,1.2,0.2,1.4-0.6l1.1-4.5c0.1-0.6-0.5-1.2-1-1l-4.5,1.1C7.2,24.2,6.8,25.1,7.2,25.5z
		"/>
</g>
</svg>
