<?xml version="1.0" encoding="utf-8"?>
<!-- Generator: Adobe Illustrator 25.1.0, SVG Export Plug-In . SVG Version: 6.00 Build 0)  -->
<svg version="1.1" id="ic_receive_on" xmlns="http://www.w3.org/2000/svg" xmlns:xlink="http://www.w3.org/1999/xlink" x="0px"
	 y="0px" viewBox="0 0 26 26" style="enable-background:new 0 0 26 26;" xml:space="preserve">
<style type="text/css">
	.st0{fill:#009CE1;}
	.st1{fill:#EC2A7B;}
</style>
<g>
	<path class="st0" d="M24.6,5.5L13.7,22.9c-0.4,0.5-1,0.5-1.4,0L1.4,5.5C1,5,1.4,4.1,2,4.1h2.2c0.6,0,1.2,0.2,1.4,0.9l6.9,10.8
		c0.2,0.5,0.8,0.5,1.2,0L20.4,5c0.4-0.5,1-0.9,1.6-0.9h2.2C24.8,4.1,25,5,24.6,5.5z"/>
	<path class="st1" d="M15.7,4.1h-5.2c-0.6,0-1,0.7-0.6,1.4l2.4,4c0.4,0.5,1.2,0.5,1.4,0l2.4-4C16.6,5,16.3,4.1,15.7,4.1z"/>
</g>
</svg>
