<?xml version="1.0" encoding="utf-8"?>
<!-- Generator: Adobe Illustrator 25.1.0, SVG Export Plug-In . SVG Version: 6.00 Build 0)  -->
<svg version="1.1" id="Layer_1" xmlns="http://www.w3.org/2000/svg" xmlns:xlink="http://www.w3.org/1999/xlink" x="0px" y="0px"
	 viewBox="0 0 26 26" style="enable-background:new 0 0 26 26;" xml:space="preserve">
<style type="text/css">
	.st0{fill:url(#SVGID_1_);}
	.st1{fill:#B6B6B6;}
</style>
<g>
	<linearGradient id="SVGID_1_" gradientUnits="userSpaceOnUse" x1="13" y1="24.1575" x2="13" y2="4.9825">
		<stop  offset="0.487" style="stop-color:#B6B6B6"/>
		<stop  offset="0.9896" style="stop-color:#B6B6B6;stop-opacity:0"/>
	</linearGradient>
	<path class="st0" d="M24.6,6.4L13.7,23.8c-0.4,0.5-1,0.5-1.4,0L1.4,6.4C1,5.9,1.4,5,2,5h2.2c0.6,0,1.2,0.2,1.4,0.9l6.9,10.8
		c0.2,0.5,0.8,0.5,1.2,0l6.7-10.8C20.8,5.4,21.4,5,22,5h2.2C24.8,5,25,5.9,24.6,6.4z"/>
	<path class="st1" d="M15.7,5h-5.2c-0.6,0-1,0.7-0.6,1.4l2.4,4c0.4,0.5,1.2,0.5,1.4,0l2.4-4C16.6,5.9,16.3,5,15.7,5z"/>
</g>
</svg>
