<?xml version="1.0" encoding="utf-8"?>
<!-- Generator: Adobe Illustrator 25.1.0, SVG Export Plug-In . SVG Version: 6.00 Build 0)  -->
<svg version="1.1" id="Layer_1" xmlns="http://www.w3.org/2000/svg" xmlns:xlink="http://www.w3.org/1999/xlink" x="0px" y="0px"
	 viewBox="0 0 28 24" style="enable-background:new 0 0 28 24;" xml:space="preserve">
<style type="text/css">
	.st0{opacity:0.74;enable-background:new    ;}
	.st1{fill:#FFFFFF;}
</style>
<g class="st0">
	<g>
		<g>
			<g>
				<path class="st1" d="M20.6,11.6c0.2,0,0.4,0,0.5,0.1V19l-7.3,1.9L6.6,19v-7.3H20.6 M20.6,9.1H4.1v11.8l9.6,2.5l9.8-2.5v-9.3
					C23.5,10.2,22.3,9.1,20.6,9.1L20.6,9.1z"/>
			</g>
		</g>
		<g>
			<path class="st1" d="M21.1,10.4h-2.5v-2c0-2.5-2.1-4.6-4.6-4.6h-0.6c-2.5,0-4.6,2.1-4.6,4.6v2H6.4v-2c0-3.9,3.2-7.1,7.1-7.1H14
				c3.9,0,7.1,3.2,7.1,7.1V10.4z"/>
		</g>
	</g>
</g>
</svg>
