<?xml version="1.0" encoding="utf-8"?>
<!-- Generator: Adobe Illustrator 25.1.0, SVG Export Plug-In . SVG Version: 6.00 Build 0)  -->
<svg version="1.1" id="ic_send" xmlns="http://www.w3.org/2000/svg" xmlns:xlink="http://www.w3.org/1999/xlink" x="0px" y="0px"
	 viewBox="0 0 26 26" style="enable-background:new 0 0 26 26;" xml:space="preserve">
<style type="text/css">
	.st0{fill:url(#SVGID_1_);}
	.st1{fill:#707070;}
</style>
<g>
	
		<linearGradient id="SVGID_1_" gradientUnits="userSpaceOnUse" x1="22.99" y1="9.1382" x2="42.0247" y2="9.1382" gradientTransform="matrix(0.7071 -0.7071 0.7071 0.7071 -12.5718 25.6622)">
		<stop  offset="1.040000e-02" style="stop-color:#707070;stop-opacity:0"/>
		<stop  offset="0.513" style="stop-color:#707070"/>
	</linearGradient>
	<path class="st0" d="M2.9,6.7l20-4.6c0.6-0.1,1.1,0.4,1,1l-4.6,20c-0.1,0.6-1,1-1.4,0.6l-1.6-1.6c-0.4-0.4-0.7-1-0.4-1.6L18.7,8
		c0.2-0.5-0.2-0.9-0.8-0.8L5.5,10.1C4.9,10.1,4.2,10,3.8,9.6L2.2,8C1.8,7.6,2.3,6.8,2.9,6.7z"/>
	<path class="st1" d="M8.2,14l3.7,3.7c0.4,0.4,1.2,0.2,1.4-0.6l1.1-4.5c0.1-0.6-0.5-1.2-1-1l-4.5,1.1C8.2,12.7,7.8,13.6,8.2,14z"/>
</g>
</svg>
