<?xml version="1.0" encoding="utf-8"?>
<!-- Generator: Adobe Illustrator 25.1.0, SVG Export Plug-In . SVG Version: 6.00 Build 0)  -->
<svg version="1.1" id="Layer_1" xmlns="http://www.w3.org/2000/svg" xmlns:xlink="http://www.w3.org/1999/xlink" x="0px" y="0px"
	 viewBox="0 0 28 24" style="enable-background:new 0 0 28 24;" xml:space="preserve">
<style type="text/css">
	.st0{fill:#FFFFFF;}
</style>
<path class="st0" d="M19.9,9.9H9.2v-2c0-2.3,1.9-4.2,4.2-4.2h0.5c2,0,3.7,1.4,4.1,3.3c0.1,0.6,0.7,1,1.3,0.9c0.6-0.1,1-0.7,0.9-1.3
	c-0.6-3-3.3-5.2-6.3-5.2h-0.5c-3.6,0-6.5,2.9-6.5,6.5v2H4.8v10.8l8.8,2.3l9-2.3v-8.5C22.6,10.9,21.5,9.9,19.9,9.9z M20.3,18.9
	l-6.7,1.7l-6.5-1.7v-6.7h12.8c0.2,0,0.3,0,0.4,0.1V18.9z"/>
</svg>
