<?xml version="1.0" encoding="utf-8"?>
<!-- Generator: Adobe Illustrator 25.1.0, SVG Export Plug-In . SVG Version: 6.00 Build 0)  -->
<svg version="1.1" id="ic-transaction-mint" xmlns="http://www.w3.org/2000/svg" xmlns:xlink="http://www.w3.org/1999/xlink"
	 x="0px" y="0px" viewBox="0 0 24 24" style="enable-background:new 0 0 24 24;" xml:space="preserve">
<style type="text/css">
	.st0{fill:none;stroke:#B6B6B6;stroke-miterlimit:10;}
	.st1{fill:#B6B6B6;}
</style>
<line class="st0" x1="16.5" y1="16.4" x2="7.5" y2="8.6"/>
<g>
	<g>
		<g>
			<g>
				<g>
					<g>
						<path class="st1" d="M12.1,22.1c-2.3,0-4.6-0.9-6.4-2.4c-1.7-1.6-2.9-3.7-3.3-6.1c0-0.3,0.2-0.6,0.4-0.6
							c0.3,0,0.6,0.2,0.6,0.4c0.3,2.1,1.4,4,2.9,5.4S10,21,12.1,21c4.8,0,8.7-4,8.7-9s-3.9-9-8.7-9C7.7,3,4,6.5,3.5,11
							c0,0.3-0.3,0.5-0.6,0.5c-0.3,0-0.5-0.3-0.5-0.6C3,5.8,7.1,1.9,12.1,1.9c5.4,0,9.8,4.5,9.8,10.1C21.9,17.6,17.6,22.1,12.1,22.1
							z"/>
					</g>
					<g>
						<path class="st1" d="M12.2,19c-1.8,0-3.5-0.7-4.8-2.1c-1.3-1.3-2-3.1-2-5c0-1.9,0.7-3.7,2-5c1.3-1.3,2.9-2,4.8-2
							c1.7,0,3.4,0.7,4.7,2c0.5,0.6,1,1.2,1.3,1.9c0.1,0.3,0,0.6-0.3,0.7c-0.3,0.1-0.6,0-0.7-0.3c-0.3-0.6-0.6-1.2-1.1-1.6
							c-1-1.1-2.4-1.7-3.8-1.7c-1.5,0-2.9,0.6-3.9,1.7c-1,1.1-1.6,2.6-1.6,4.2c0,1.6,0.6,3.1,1.7,4.2c1.1,1.1,2.5,1.7,3.9,1.7
							c1.4,0,2.8-0.6,3.8-1.7c0.6-0.6,1.1-1.5,1.4-2.4c0.1-0.3,0.4-0.4,0.7-0.3c0.3,0.1,0.5,0.4,0.4,0.7c-0.3,1.1-0.9,2-1.6,2.8
							C15.6,18.3,13.9,19,12.2,19z"/>
					</g>
				</g>
			</g>
		</g>
	</g>
	<path class="st1" d="M1.3,15c0.2,0.2,0.6,0.2,0.8-0.1l1.1-1.3l1.3,1.1c0.2,0.2,0.6,0.2,0.8-0.1s0.2-0.6-0.1-0.8l-2.1-1.6l-1.7,2.1
		C1,14.5,1,14.8,1.3,15z"/>
	<path class="st1" d="M19.3,8.2C19,8,18.7,8.1,18.5,8.3l-1,1.4l-1.4-1c-0.2-0.2-0.6-0.1-0.8,0.1c-0.2,0.2-0.1,0.6,0.1,0.8l2.2,1.5
		l1.6-2.1C19.6,8.7,19.5,8.4,19.3,8.2z"/>
</g>
</svg>
