<?xml version="1.0" encoding="utf-8"?>
<!-- Generator: Adobe Illustrator 25.1.0, SVG Export Plug-In . SVG Version: 6.00 Build 0)  -->
<svg version="1.1" id="ic-transaction-sent" xmlns="http://www.w3.org/2000/svg" xmlns:xlink="http://www.w3.org/1999/xlink"
	 x="0px" y="0px" viewBox="0 0 24 24" style="enable-background:new 0 0 24 24;" xml:space="preserve">
<style type="text/css">
	.st0{opacity:0.6;}
	.st1{fill:url(#SVGID_1_);}
	.st2{fill:#FFFFFF;}
	.st3{fill:#009CE1;}
</style>
<g>
	<g class="st0">
		
			<linearGradient id="SVGID_1_" gradientUnits="userSpaceOnUse" x1="8.3021" y1="5.056" x2="15.7241" y2="17.9112" gradientTransform="matrix(1 0 0 -1 0 26)">
			<stop  offset="0" style="stop-color:#00035C"/>
			<stop  offset="0.4832" style="stop-color:#004AE6"/>
			<stop  offset="0.9693" style="stop-color:#BC5CFF"/>
		</linearGradient>
		<path class="st1" d="M12,22.4c-0.5,0-1,0-1.4-0.1c-1.8-0.3-3.5-1.5-4.5-3.2c-1.2-2-1.2-4.7-1-6.5c0.2-2,1.3-3.9,2.9-4.9
			c0,0,0,0.1-0.1,0.1C7.7,8.2,7.5,8.5,7.4,8.9c-0.1,0.3-0.1,0.7,0.1,1C7.6,9.9,7.8,10,7.9,10c0.2,0,0.4-0.1,0.6-0.2
			C9,9.4,9.4,9,9.7,8.6C9.9,8.4,10,8.2,10.2,8c0.8-0.9,1.7-1.9,2.5-2.9c0.6-0.7,0.8-1.5,0.7-2.2c0-0.4-0.2-0.8-0.4-1.1
			c0,0,0-0.1-0.1-0.1c3.4,2.1,4.2,5.1,2.4,8.5c-0.1,0.2-0.2,0.4-0.4,0.6c-0.4,0.6-0.9,1.3-0.8,2.2c0.1,0.9,0.9,1.7,1.9,1.7
			c0,0,0,0,0,0c0.4,0,0.7-0.1,0.9-0.4c0.5-0.5,0.5-1.3,0.5-1.8c0-0.4-0.1-0.8-0.2-1.3c0-0.2-0.1-0.3-0.1-0.4c0,0,0,0,0,0
			c0.5,0.5,0.9,1.2,1.2,1.9c0.9,1.9,0.8,3.8-0.1,5.9C17.4,20.9,14.9,22.4,12,22.4C12,22.4,12,22.4,12,22.4z"/>
		<path class="st2" d="M13.5,2.4c2.6,2,3.1,4.6,1.5,7.6c-0.1,0.2-0.2,0.4-0.4,0.6c-0.4,0.7-0.9,1.4-0.8,2.3c0.1,1,1.1,1.9,2.2,1.9
			c0.4,0,0.8-0.1,1.1-0.4c0.5-0.5,0.6-1.4,0.6-2c0-0.3,0-0.5-0.1-0.8c0.2,0.4,0.4,0.8,0.6,1.1l0,0.1c0.8,1.7,0.8,3.6-0.1,5.6
			c-0.9,2.2-3.3,3.6-6.1,3.6c-0.5,0-0.9,0-1.4-0.1c-1.8-0.3-3.4-1.5-4.3-3.1c-1.2-2-1.2-4.5-1-6.3c0.2-1.6,0.9-3.1,2-4.1
			c0,0.1-0.1,0.2-0.1,0.3C7.1,9.2,7.1,9.6,7.3,10c0.1,0.2,0.4,0.3,0.6,0.3c0.2,0,0.5-0.1,0.7-0.3c0.5-0.4,0.9-0.8,1.2-1.2
			c0.1-0.2,0.3-0.4,0.5-0.5c0.8-0.9,1.7-1.9,2.5-2.9c0.6-0.8,0.9-1.6,0.8-2.4C13.6,2.7,13.6,2.6,13.5,2.4 M17.4,10.7L17.4,10.7
			L17.4,10.7 M12.7,1.3c-0.2,0-0.1,0.4,0,0.6c0.2,0.3,0.4,0.6,0.4,1c0.1,0.7-0.2,1.4-0.7,2c-0.8,1-1.6,1.9-2.5,2.9
			C9.5,8.4,9,9.1,8.4,9.6C8.2,9.7,8,9.8,7.9,9.8c-0.3,0-0.4-0.4-0.2-0.8c0.1-0.4,0.2-0.7,0.4-1c0.1-0.2,0.3-0.6,0-0.6
			c-0.1,0-0.2,0-0.3,0.1c-1.7,1.1-2.8,3.1-3,5.1c-0.3,2.2-0.1,4.7,1,6.6c1,1.7,2.7,3,4.7,3.4c0.5,0.1,1,0.1,1.5,0.1
			c2.7,0,5.5-1.3,6.6-3.9c0.8-2,1-4,0.1-6c-0.3-0.7-0.7-1.5-1.3-2c-0.1-0.1-0.2-0.1-0.2-0.2c0,0,0,0-0.1,0c-0.1,0-0.1,0.1-0.1,0.3
			c0,0.2,0,0.3,0.1,0.5c0.1,0.4,0.1,0.8,0.2,1.3c0,0.8-0.1,1.9-1.1,1.9c0,0,0,0,0,0c-0.8,0-1.5-0.7-1.6-1.5c-0.1-1,0.7-1.8,1.1-2.7
			c1.9-3.6,0.9-6.7-2.5-8.9C12.9,1.4,12.8,1.3,12.7,1.3L12.7,1.3z"/>
	</g>
	<g class="st0">
		<path class="st3" d="M12.7,1.3c0.1,0,0.2,0,0.3,0.1c3.4,2.2,4.4,5.3,2.5,8.9c-0.4,0.8-1.2,1.6-1.1,2.7c0.1,0.8,0.8,1.5,1.6,1.5
			c0,0,0,0,0,0c1,0,1.1-1.1,1.1-1.9c0-0.4-0.1-0.8-0.2-1.3c0-0.2-0.1-0.3-0.1-0.5c0-0.2,0.1-0.3,0.1-0.3c0,0,0,0,0.1,0
			c0.1,0,0.2,0.1,0.2,0.2c0.6,0.5,0.9,1.3,1.3,2c0.9,2,0.8,4-0.1,6c-1.1,2.6-3.8,3.9-6.6,3.9c-0.5,0-1,0-1.5-0.1
			c-2-0.4-3.7-1.6-4.7-3.4c-1.1-1.9-1.3-4.5-1-6.6c0.2-2,1.3-4,3-5.1C8,7.3,8.1,7.3,8.1,7.3c0.2,0,0.1,0.4,0,0.6
			c-0.2,0.3-0.3,0.6-0.4,1c-0.1,0.5,0,0.8,0.2,0.8c0.1,0,0.3-0.1,0.5-0.2C9,9.1,9.5,8.4,10,7.9C10.9,6.9,11.7,6,12.5,5
			c0.4-0.6,0.8-1.3,0.7-2c0-0.4-0.2-0.7-0.4-1C12.6,1.7,12.5,1.3,12.7,1.3 M12.7,0.3L12.7,0.3L12.7,0.3c-0.4,0-0.8,0.2-1,0.5
			c-0.3,0.6-0.1,1.2,0.1,1.6c0.1,0.2,0.3,0.5,0.3,0.7c0.1,0.5-0.2,1-0.5,1.3c-0.7,1-1.6,1.9-2.4,2.8c0,0,0,0,0,0
			c0-0.1-0.1-0.3-0.1-0.4c-0.2-0.3-0.6-0.5-1-0.5c-0.3,0-0.6,0.2-0.8,0.3C5.5,7.8,4.1,10,3.8,12.4c-0.2,2-0.2,4.9,1.2,7.3
			c1.2,2,3.2,3.4,5.4,3.8c0.5,0.1,1.1,0.1,1.6,0.1c3.4,0,6.3-1.8,7.5-4.5c1-2.4,1-4.7,0.1-6.8l0-0.1c-0.3-0.8-0.7-1.6-1.5-2.3
			c-0.2-0.2-0.4-0.3-0.6-0.4c-0.1,0-0.3-0.1-0.4-0.1c0,0-0.1,0-0.1,0C18.2,6,17,2.8,13.5,0.6C13.3,0.5,13.1,0.3,12.7,0.3L12.7,0.3
			L12.7,0.3z M16,13.4c-0.3,0-0.6-0.3-0.7-0.6c0-0.4,0.2-0.8,0.6-1.3c0,0,0-0.1,0.1-0.1c0,0,0,0,0,0c0.1,0.5,0.1,0.8,0.2,1.1
			C16.2,13.1,16.1,13.3,16,13.4L16,13.4z"/>
	</g>
</g>
</svg>
