<?xml version="1.0" encoding="utf-8"?>
<!-- Generator: Adobe Illustrator 25.1.0, SVG Export Plug-In . SVG Version: 6.00 Build 0)  -->
<svg version="1.1" id="ic-transaction-staked" xmlns="http://www.w3.org/2000/svg" xmlns:xlink="http://www.w3.org/1999/xlink"
	 x="0px" y="0px" viewBox="0 0 24 24" style="enable-background:new 0 0 24 24;" xml:space="preserve">
<style type="text/css">
	.st0{fill:url(#SVGID_1_);}
	.st1{fill:#B6B6B6;}
	.st2{fill:url(#SVGID_2_);}
</style>
<g>
	<g>
		<linearGradient id="SVGID_1_" gradientUnits="userSpaceOnUse" x1="2.529" y1="11.8003" x2="10.6384" y2="11.8003">
			<stop  offset="1.040000e-02" style="stop-color:#B6B6B6;stop-opacity:0"/>
			<stop  offset="0.513" style="stop-color:#B6B6B6"/>
		</linearGradient>
		<path class="st0" d="M3.1,6l7.4,5.5c0.2,0.2,0.2,0.5,0,0.7l-7.4,5.5c-0.2,0.2-0.6,0-0.6-0.3v-1.1c0-0.3,0.1-0.6,0.4-0.7l4.6-3.5
			c0.2-0.1,0.2-0.4,0-0.6L2.9,8.1C2.7,7.9,2.5,7.6,2.5,7.3V6.2C2.5,5.9,2.9,5.8,3.1,6z"/>
		<path class="st1" d="M2.5,10.5l0,2.6c0,0.3,0.3,0.5,0.6,0.3l1.7-1.2C5,12,5,11.6,4.8,11.5l-1.7-1.2C2.9,10,2.5,10.2,2.5,10.5z"/>
	</g>
	<g>
		<linearGradient id="SVGID_2_" gradientUnits="userSpaceOnUse" x1="13.3783" y1="11.8003" x2="21.4877" y2="11.8003">
			<stop  offset="0.487" style="stop-color:#B6B6B6"/>
			<stop  offset="0.9896" style="stop-color:#B6B6B6;stop-opacity:0"/>
		</linearGradient>
		<path class="st2" d="M20.9,17.6l-7.4-5.5c-0.2-0.2-0.2-0.5,0-0.7L20.9,6c0.2-0.2,0.6,0,0.6,0.3v1.1c0,0.3-0.1,0.6-0.4,0.7
			l-4.6,3.5c-0.2,0.1-0.2,0.4,0,0.6l4.6,3.5c0.2,0.2,0.4,0.4,0.4,0.7v1.1C21.5,17.7,21.1,17.8,20.9,17.6z"/>
		<path class="st1" d="M21.5,13.1l0-2.6c0-0.3-0.3-0.5-0.6-0.3l-1.7,1.2c-0.2,0.2-0.2,0.5,0,0.7l1.7,1.2
			C21.1,13.6,21.5,13.4,21.5,13.1z"/>
	</g>
</g>
<g>
	<path class="st1" d="M12,5.1c-2.1,0-4,1-5.2,2.5l0.8,0.6c1-1.3,2.6-2.1,4.4-2.1c1.8,0,3.4,0.8,4.4,2.1l0.8-0.6
		C16,6.1,14.1,5.1,12,5.1z"/>
	<path class="st1" d="M12,17.5c-1.8,0-3.4-0.8-4.4-2.1L6.8,16c1.2,1.5,3.1,2.5,5.2,2.5c2.1,0,4-1,5.2-2.5l-0.8-0.6
		C15.4,16.7,13.8,17.5,12,17.5z"/>
	<path class="st1" d="M20.4,5.2c-2-2.5-5-4.1-8.4-4.1c-3.4,0-6.5,1.6-8.4,4.1c0,0,0,0,0.1,0l1.2,0.9C6.5,4,9.1,2.7,12,2.7
		c2.9,0,5.5,1.4,7.1,3.5L20.4,5.2C20.4,5.2,20.4,5.2,20.4,5.2z"/>
	<path class="st1" d="M19.1,17.5c-1.7,2.1-4.2,3.5-7.1,3.5c-2.9,0-5.5-1.4-7.1-3.5l-1.2,0.9c0,0,0,0-0.1,0c2,2.5,5,4.1,8.4,4.1
		c3.4,0,6.5-1.6,8.4-4.1c0,0,0,0-0.1,0L19.1,17.5z"/>
</g>
</svg>
