<?xml version="1.0" encoding="utf-8"?>
<!-- Generator: Adobe Illustrator 25.1.0, SVG Export Plug-In . SVG Version: 6.00 Build 0)  -->
<svg version="1.1" id="ic-transaction-sent" xmlns="http://www.w3.org/2000/svg" xmlns:xlink="http://www.w3.org/1999/xlink"
	 x="0px" y="0px" viewBox="0 0 24 24" style="enable-background:new 0 0 24 24;" xml:space="preserve">
<style type="text/css">
	.st0{fill:url(#SVGID_1_);}
	.st1{fill:#707070;}
</style>
<g>
	
		<linearGradient id="SVGID_1_" gradientUnits="userSpaceOnUse" x1="7.229" y1="17.1729" x2="26.2637" y2="17.1729" gradientTransform="matrix(0.7071 -0.7071 -0.7071 -0.7071 15.9014 32.346)">
		<stop  offset="1.040000e-02" style="stop-color:#707070;stop-opacity:0"/>
		<stop  offset="0.513" style="stop-color:#707070"/>
	</linearGradient>
	<path class="st0" d="M1.6,6l20-4.6c0.6-0.1,1,0.4,1,1l-4.6,20c-0.1,0.6-1,1-1.4,0.6l-1.5-1.5c-0.4-0.4-0.7-1-0.3-1.6l2.7-12.5
		c0.2-0.5-0.2-0.9-0.8-0.8L4.2,9.2c-0.6,0.1-1.4,0-1.8-0.5L0.9,7.2C0.5,6.8,1,6,1.6,6z"/>
	<path class="st1" d="M6.9,13.3l3.6,3.6c0.4,0.4,1.2,0.2,1.4-0.6l1.1-4.5c0.1-0.6-0.5-1.2-1-1L7.7,12C6.9,11.9,6.5,12.8,6.9,13.3z"
		/>
</g>
</svg>
