<?xml version="1.0" encoding="utf-8"?>
<!-- Generator: Adobe Illustrator 25.1.0, SVG Export Plug-In . SVG Version: 6.00 Build 0)  -->
<svg version="1.1" id="ic-transaction-staked" xmlns="http://www.w3.org/2000/svg" xmlns:xlink="http://www.w3.org/1999/xlink"
	 x="0px" y="0px" viewBox="0 0 24 24" style="enable-background:new 0 0 24 24;" xml:space="preserve">
<style type="text/css">
	.st0{fill:url(#SVGID_1_);}
	.st1{fill:url(#SVGID_2_);}
	.st2{fill:url(#SVGID_3_);}
</style>
<linearGradient id="SVGID_1_" gradientUnits="userSpaceOnUse" x1="4.9403" y1="3.376" x2="16.5066" y2="23.4093" gradientTransform="matrix(1 0 0 -1 0 26)">
	<stop  offset="0" style="stop-color:#707070"/>
	<stop  offset="0.9896" style="stop-color:#707070;stop-opacity:0"/>
</linearGradient>
<path class="st0" d="M20.6,7c0.1-0.2,0-0.4-0.1-0.5l0.1-0.1c0.1-0.1,0.1-0.2,0.1-0.2c0.2-0.2,0.2-0.5,0-0.6l-1.1-1.1
	c-0.2-0.2-0.5-0.2-0.6,0l-0.2,0.2c-0.2-0.1-0.4-0.2-0.6-0.1c-1-0.8-2.1-1.5-3.2-2c-1.4-0.7-2.7-0.9-3.9-0.8c-0.1,0-0.1,0-0.1,0
	s0,0,0,0.1C11,2,11,2,11.1,2.1c1.3,0.5,3.4,2,5.5,4c-0.1,0.2-0.1,0.5,0.1,0.7L11.3,12l-1.9-1.9V10L9.2,9.8L8.9,9.5l1.7-1.7
	c0.2-0.2,0.2-0.5,0-0.6L7.5,4C6,2.4,3.4,2.4,1.8,4s-1.6,4.1,0,5.7l3.1,3.1c0.2,0.2,0.5,0.2,0.6,0l1.7-1.7l0.5,0.5c0,0,0.1,0.1,0.1,0
	l1.9,1.9L3,20.4c-0.1,0.1-0.2,0.2-0.1,0.3c0,0.1,0,0.2,0.1,0.3l1.1,1.1c0.1,0.1,0.2,0.2,0.3,0.1c0.1,0,0.2,0,0.3-0.1l6.8-6.8
	l2.2,2.2l4.6,4.6c0.2,0.2,0.5,0.2,0.6,0L19,22l0.7-0.7l0.1-0.1c0.2-0.2,0.2-0.5,0-0.6L15.3,16l-2.2-2.2l2.6-2.6l2.6-2.6
	c0.2,0.1,0.5,0.2,0.7,0.1c2,2.1,3.5,4.2,4,5.5c0,0,0,0,0,0.1h0.1c0.1,0,0.1-0.1,0.1-0.1c0.1,0,0.1-0.1,0.1-0.1
	C23.5,12,22.5,9.3,20.6,7z"/>
<g>
	<linearGradient id="SVGID_2_" gradientUnits="userSpaceOnUse" x1="17.6631" y1="15.1698" x2="19.216" y2="12.4802">
		<stop  offset="0" style="stop-color:#707070"/>
		<stop  offset="0.9896" style="stop-color:#707070;stop-opacity:0"/>
	</linearGradient>
	<path class="st1" d="M18.5,12.3c-0.4,0-0.8,0.2-1.1,0.5c-0.3,0.3-0.4,0.7-0.4,1.1c0,0.4,0.2,0.8,0.4,1.1c0.3,0.3,0.7,0.5,1.1,0.5
		c0.4,0,0.8-0.2,1-0.5c0.2-0.2,0.3-0.4,0.4-0.6c0-0.1,0-0.1-0.1-0.2c-0.1,0-0.1,0-0.2,0.1c-0.1,0.2-0.2,0.4-0.3,0.5
		c-0.2,0.3-0.5,0.4-0.9,0.4c-0.3,0-0.6-0.1-0.9-0.4c-0.2-0.2-0.4-0.6-0.4-0.9c0-0.3,0.1-0.7,0.4-0.9c0.2-0.2,0.5-0.4,0.9-0.4
		c0.3,0,0.6,0.1,0.9,0.4c0.1,0.1,0.2,0.2,0.3,0.4c0,0.1,0.1,0.1,0.2,0.1c0.1,0,0.1-0.1,0.1-0.2c-0.1-0.2-0.2-0.3-0.3-0.4
		C19.2,12.4,18.8,12.3,18.5,12.3z"/>
	<linearGradient id="SVGID_3_" gradientUnits="userSpaceOnUse" x1="16.8642" y1="16.587" x2="20.0384" y2="11.0891">
		<stop  offset="0" style="stop-color:#707070"/>
		<stop  offset="0.9896" style="stop-color:#707070;stop-opacity:0"/>
	</linearGradient>
	<path class="st2" d="M21.6,13.7h-0.3l0.1-0.1c0,0,0-0.1,0-0.2s-0.1,0-0.2,0L21,13.7h-0.3c0,0,0,0,0,0c0-0.5-0.2-1-0.5-1.4l0.2-0.2
		h0.4c0.1,0,0.1-0.1,0.1-0.1c0-0.1-0.1-0.1-0.1-0.1h-0.2l0.2-0.2c0,0,0-0.1,0-0.2c0,0-0.1,0-0.2,0l-0.2,0.2v-0.2
		c0-0.1-0.1-0.1-0.1-0.1c-0.1,0-0.1,0.1-0.1,0.1V12l-0.2,0.2c-0.4-0.3-0.8-0.6-1.4-0.6v-0.3l0.3-0.3c0,0,0-0.1,0-0.2s-0.1,0-0.2,0
		L18.6,11v-0.3c0-0.1-0.1-0.1-0.1-0.1s-0.1,0.1-0.1,0.1V11l-0.1-0.1c0,0-0.1,0-0.2,0s0,0.1,0,0.2l0.3,0.3v0.3c-0.5,0-1,0.2-1.4,0.6
		L16.8,12v-0.4c0-0.1-0.1-0.1-0.1-0.1s-0.1,0.1-0.1,0.1v0.2l-0.2-0.2c0,0-0.1,0-0.2,0c0,0,0,0.1,0,0.2l0.2,0.2h-0.2
		c-0.1,0-0.1,0.1-0.1,0.1c0,0.1,0.1,0.1,0.1,0.1h0.4l0.2,0.2c-0.3,0.3-0.5,0.7-0.5,1.2c0,0.1,0,0.1,0.1,0.1c0.1,0,0.1,0,0.1-0.1
		c0.1-1,0.9-1.8,1.9-1.8c1.1,0,1.9,0.9,1.9,2s-0.9,2-2,2c-0.5,0-0.9-0.2-1.3-0.5s-0.6-0.7-0.7-1.2c0,0,0,0,0,0c0,0,0,0,0,0
		c0,0,0,0,0,0c0,0,0,0-0.1,0h-0.3l-0.3-0.3c0,0-0.1,0-0.2,0s0,0.1,0,0.2l0.1,0.1h-0.3c-0.1,0-0.1,0.1-0.1,0.1s0.1,0.1,0.1,0.1h0.3
		l-0.1,0.1c0,0,0,0.1,0,0.2c0,0,0.1,0,0.1,0c0,0,0.1,0,0.1,0l0.3-0.3h0.2c0.1,0.4,0.2,0.7,0.5,1l-0.2,0.2h-0.4
		c-0.1,0-0.1,0.1-0.1,0.1c0,0.1,0.1,0.1,0.1,0.1h0.2L16.1,16c0,0,0,0.1,0,0.2c0,0,0.1,0,0.1,0c0,0,0.1,0,0.1,0l0.2-0.2v0.2
		c0,0.1,0.1,0.1,0.1,0.1c0.1,0,0.1-0.1,0.1-0.1v-0.4l0.2-0.2c0,0,0,0,0.1,0.1c0.3,0.3,0.8,0.5,1.2,0.5v0.3L18,16.7c0,0,0,0.1,0,0.2
		c0,0,0.1,0,0.1,0c0,0,0.1,0,0.1,0l0.1-0.1v0.3c0,0.1,0.1,0.1,0.1,0.1c0.1,0,0.1-0.1,0.1-0.1v-0.3l0.1,0.1c0,0,0.1,0,0.1,0
		c0,0,0.1,0,0.1,0c0,0,0-0.1,0-0.2l-0.3-0.3v-0.3c0.5,0,1-0.2,1.4-0.6l0.2,0.2v0.4c0,0.1,0.1,0.1,0.1,0.1s0.1-0.1,0.1-0.1v-0.2
		l0.2,0.2c0,0,0.1,0,0.1,0s0.1,0,0.1,0c0,0,0-0.1,0-0.2l-0.7-0.7c0.3-0.4,0.5-0.8,0.5-1.4c0,0,0,0,0,0H21l0.3,0.3c0,0,0.1,0,0.1,0
		s0.1,0,0.1,0c0,0,0-0.1,0-0.2L21.3,14h0.3c0.1,0,0.1-0.1,0.1-0.1S21.7,13.7,21.6,13.7z"/>
</g>
</svg>
