<?xml version="1.0" encoding="utf-8"?>
<!-- Generator: Adobe Illustrator 25.1.0, SVG Export Plug-In . SVG Version: 6.00 Build 0)  -->
<svg version="1.1" id="ic_unlock_staking" xmlns="http://www.w3.org/2000/svg" xmlns:xlink="http://www.w3.org/1999/xlink" x="0px"
	 y="0px" viewBox="0 0 24 24" style="enable-background:new 0 0 24 24;" xml:space="preserve">
<style type="text/css">
	.st0{fill:#FFFFFF;}
	.st1{fill:none;stroke:#FFFFFF;stroke-width:2.1743;stroke-linecap:round;stroke-miterlimit:10;}
</style>
<g>
	<g>
		<g>
			<g>
				<g>
					<g>
						<path class="st0" d="M17.9,10.5c0.2,0,0.3,0,0.4,0.1v6.3l-6.4,1.6l-6.2-1.6v-6.4L17.9,10.5 M17.9,8.3H3.5v10.2l8.4,2.2
							l8.6-2.2v-8.1C20.5,9.2,19.4,8.3,17.9,8.3L17.9,8.3z"/>
					</g>
				</g>
				<path class="st1" d="M6.7,9V6.4c0-2.8,2.3-5.1,5.1-5.1h0.5c2.5,0,4.7,1.9,5,4.3"/>
			</g>
		</g>
	</g>
	<g>
		<path class="st1" d="M8.2,14.9c0.7-1,2.1-1.8,3.8-1.8s3.1,0.7,3.8,1.8"/>
		<line class="st1" x1="12" y1="12.3" x2="12" y2="22.3"/>
	</g>
</g>
</svg>
