<?xml version="1.0" encoding="utf-8"?>
<!-- Generator: Adobe Illustrator 25.1.0, SVG Export Plug-In . SVG Version: 6.00 Build 0)  -->
<svg version="1.1" id="ic_locked" xmlns="http://www.w3.org/2000/svg" xmlns:xlink="http://www.w3.org/1999/xlink" x="0px" y="0px"
	 viewBox="0 0 24 24" style="enable-background:new 0 0 24 24;" xml:space="preserve">
<style type="text/css">
	.st0{opacity:0.74;enable-background:new    ;}
	.st1{fill:#FFFFFF;}
</style>
<g class="st0">
	<g>
		<g>
			<g>
				<path class="st1" d="M18.8,11.3c0.2,0,0.4,0,0.5,0.1v7.3L12,20.5l-7.2-1.9v-7.3L18.8,11.3 M18.8,8.8H2.3v11.8l9.6,2.5l9.8-2.5
					v-9.3C21.7,9.8,20.5,8.8,18.8,8.8L18.8,8.8z"/>
			</g>
		</g>
		<g>
			<path class="st1" d="M19.3,10h-2.5V8c0-2.5-2.1-4.6-4.6-4.6h-0.6C9.1,3.4,7,5.5,7,8v2H4.6V8c0-3.9,3.2-7.1,7.1-7.1h0.6
				c3.9,0,7.1,3.2,7.1,7.1v2H19.3z"/>
		</g>
	</g>
</g>
</svg>
