<?xml version="1.0" encoding="utf-8"?>
<!-- Generator: Adobe Illustrator 25.1.0, SVG Export Plug-In . SVG Version: 6.00 Build 0)  -->
<svg version="1.1" id="ic_unlocked" xmlns="http://www.w3.org/2000/svg" xmlns:xlink="http://www.w3.org/1999/xlink" x="0px"
	 y="0px" viewBox="0 0 24 24" style="enable-background:new 0 0 24 24;" xml:space="preserve">
<style type="text/css">
	.st0{fill:#FFFFFF;}
</style>
<path class="st0" d="M18.2,9.7H7.5v-2c0-2.3,1.9-4.2,4.2-4.2h0.5c2,0,3.7,1.4,4.1,3.3c0.1,0.6,0.7,1,1.3,0.9c0.6-0.1,1-0.7,0.9-1.3
	c-0.6-3-3.3-5.2-6.3-5.2h-0.5c-3.6,0-6.5,2.9-6.5,6.5v2H3.1v10.8l8.8,2.3l9-2.3V12C20.9,10.7,19.8,9.7,18.2,9.7z M18.6,18.7
	l-6.7,1.7l-6.5-1.7V12h12.8c0.2,0,0.3,0,0.4,0.1V18.7z"/>
</svg>
