<?xml version="1.0" encoding="utf-8"?>
<!-- Generator: Adobe Illustrator 25.1.0, SVG Export Plug-In . SVG Version: 6.00 Build 0)  -->
<svg version="1.1" id="Layer_1" xmlns="http://www.w3.org/2000/svg" xmlns:xlink="http://www.w3.org/1999/xlink" x="0px" y="0px"
	 viewBox="0 0 100 100" style="enable-background:new 0 0 100 100;" xml:space="preserve">
<style type="text/css">
	.st0{fill:none;}
	.st1{fill:none;stroke:#009CE1;stroke-width:2;stroke-miterlimit:10;}
	.st2{fill:#EC2A7B;}
	.st3{fill:none;stroke:#009CE1;stroke-width:3;stroke-miterlimit:10;}
	.st4{fill:url(#SVGID_1_);}
	.st5{fill:url(#SVGID_2_);}
	.st6{fill:url(#SVGID_3_);}
	.st7{fill:url(#SVGID_4_);}
	.st8{fill:#FFFFFF;}
</style>
<g id="ic_empty_dark_peers">
	<path id="Rectangle_4705" class="st0" d="M0,0h100v100H0V0z"/>
</g>
<g>
	<line class="st1" x1="19.1" y1="31.9" x2="50" y2="50"/>
	<line class="st1" x1="80.9" y1="31.9" x2="50" y2="50"/>
	<line class="st1" x1="50" y1="86.5" x2="50" y2="50"/>
	<g id="ic_empty_peers">
		<g>
			<g>
				<circle class="st2" cx="50" cy="14.1" r="8.1"/>
				<circle class="st3" cx="50" cy="85.4" r="8.1"/>
				<circle class="st3" cx="50" cy="50" r="13.1"/>
				<circle class="st3" cx="19.1" cy="31.9" r="8.1"/>
				<circle class="st3" cx="80.9" cy="31.9" r="8.1"/>
				<linearGradient id="SVGID_1_" gradientUnits="userSpaceOnUse" x1="45.9493" y1="92.416" x2="54.0507" y2="78.384">
					<stop  offset="0" style="stop-color:#00035C"/>
					<stop  offset="0.4832" style="stop-color:#004AE6"/>
					<stop  offset="0.9693" style="stop-color:#BC5CFF"/>
				</linearGradient>
				<circle class="st4" cx="50" cy="85.4" r="8.1"/>
				<linearGradient id="SVGID_2_" gradientUnits="userSpaceOnUse" x1="43.4489" y1="61.3468" x2="56.5511" y2="38.6532">
					<stop  offset="0" style="stop-color:#00035C"/>
					<stop  offset="0.4832" style="stop-color:#004AE6"/>
					<stop  offset="0.9693" style="stop-color:#BC5CFF"/>
				</linearGradient>
				<circle class="st5" cx="50" cy="50" r="13.1"/>
				<linearGradient id="SVGID_3_" gradientUnits="userSpaceOnUse" x1="15.0493" y1="38.916" x2="23.1507" y2="24.884">
					<stop  offset="0" style="stop-color:#00035C"/>
					<stop  offset="0.4832" style="stop-color:#004AE6"/>
					<stop  offset="0.9693" style="stop-color:#BC5CFF"/>
				</linearGradient>
				<circle class="st6" cx="19.1" cy="31.9" r="8.1"/>
				<circle class="st2" cx="80.9" cy="67.6" r="8.1"/>
				<circle class="st2" cx="19.1" cy="67.6" r="8.1"/>
				<linearGradient id="SVGID_4_" gradientUnits="userSpaceOnUse" x1="76.8493" y1="38.916" x2="84.9507" y2="24.884">
					<stop  offset="0" style="stop-color:#00035C"/>
					<stop  offset="0.4832" style="stop-color:#004AE6"/>
					<stop  offset="0.9693" style="stop-color:#BC5CFF"/>
				</linearGradient>
				<circle class="st7" cx="80.9" cy="31.9" r="8.1"/>
				<g>
					<path class="st8" d="M50,78.3c3.9,0,7.1,3.2,7.1,7.1s-3.2,7.1-7.1,7.1s-7.1-3.2-7.1-7.1S46.1,78.3,50,78.3 M50,77.3
						c-4.5,0-8.1,3.6-8.1,8.1s3.6,8.1,8.1,8.1s8.1-3.6,8.1-8.1S54.5,77.3,50,77.3L50,77.3z"/>
				</g>
				<g>
					<path class="st8" d="M50,37.9c6.7,0,12.1,5.4,12.1,12.1S56.7,62.1,50,62.1S37.9,56.7,37.9,50S43.3,37.9,50,37.9 M50,36.9
						c-7.2,0-13.1,5.9-13.1,13.1S42.8,63.1,50,63.1S63.1,57.2,63.1,50S57.2,36.9,50,36.9L50,36.9z"/>
				</g>
				<g>
					<path class="st8" d="M19.1,24.8c3.9,0,7.1,3.2,7.1,7.1S23,39,19.1,39S12,35.8,12,31.9S15.2,24.8,19.1,24.8 M19.1,23.8
						c-4.5,0-8.1,3.6-8.1,8.1c0,4.5,3.6,8.1,8.1,8.1s8.1-3.6,8.1-8.1C27.2,27.4,23.6,23.8,19.1,23.8L19.1,23.8z"/>
				</g>
				<g>
					<path class="st8" d="M80.9,24.8c3.9,0,7.1,3.2,7.1,7.1S84.8,39,80.9,39s-7.1-3.2-7.1-7.1S77,24.8,80.9,24.8 M80.9,23.8
						c-4.5,0-8.1,3.6-8.1,8.1c0,4.5,3.6,8.1,8.1,8.1s8.1-3.6,8.1-8.1C89,27.4,85.4,23.8,80.9,23.8L80.9,23.8z"/>
				</g>
			</g>
		</g>
		<path id="Rectangle_4675" class="st0" d="M0,0h100v100H0V0z"/>
	</g>
</g>
</svg>
