<?xml version="1.0" encoding="utf-8"?>
<!-- Generator: Adobe Illustrator 25.1.0, SVG Export Plug-In . SVG Version: 6.00 Build 0)  -->
<svg version="1.1" id="ic_staking_on" xmlns="http://www.w3.org/2000/svg" xmlns:xlink="http://www.w3.org/1999/xlink" x="0px"
	 y="0px" viewBox="0 0 100 100" style="enable-background:new 0 0 100 100;" xml:space="preserve">
<style type="text/css">
	.st0{fill:none;}
	.st1{fill:#666666;}
	.st2{fill:#D6D6D6;stroke:#666666;stroke-width:1.5;stroke-linecap:round;stroke-linejoin:round;stroke-miterlimit:10;}
	.st3{fill-rule:evenodd;clip-rule:evenodd;fill:#D6D6D6;}
	.st4{fill:#FFFFFF;}
</style>
<g id="Rectangle_4709">
	<path class="st0" d="M0,0h100v100H0V0z"/>
</g>
<g>
	<path id="Rectangle_4709_3_" class="st0" d="M0,0h100v100H0V0z"/>
	<g>
		<path id="Rectangle_4709_2_" class="st0" d="M0,0h100v100H0V0z"/>
		<g>
			<path class="st1" d="M48.1,61.9c0.4,0,0.8,0.1,1.1,0.4l27.5,27.5c0.1,0.1,0.1,0.1,0.2,0.1c0,0,0.1-0.1,0.1-0.1l3.6-3.6
				c0.1-0.1,0.1-0.1,0.1-0.2c-0.1,0-0.1-0.1-0.1-0.1L62.4,67.1l-8.9-8.9c-0.3-0.3-0.4-0.7-0.4-1.1s0.2-0.8,0.4-1.1l21-21
				c0.5-0.5,1.2-0.6,1.7-0.3c0.8,0.4,1.3,0.4,1.5,0.4c0.6-0.3,1.3-0.2,1.7,0.3c6.6,6.9,12,14,14.9,19.4c-0.4-7.6-4.2-16.6-10.6-24.3
				c-0.4-0.5-0.5-1.1-0.2-1.6c0-0.1-0.1-0.2-0.1-0.3c-0.3-0.3-0.4-0.7-0.4-1.1s0.2-0.8,0.4-1.1l0.4-0.4c0.1-0.3,0.2-0.6,0.4-0.8
				c0.1-0.1,0.1-0.1,0.1-0.2c0,0-0.1-0.1-0.1-0.1l-4.5-4.5c-0.1-0.1-0.1-0.1-0.2-0.1c0,0-0.1,0.1-0.1,0.1l-0.8,0.8
				c-0.5,0.5-1.2,0.6-1.7,0.3c-0.3-0.2-0.9-0.5-1.1-0.4c-0.5,0.3-1.2,0.2-1.6-0.2c-4.2-3.3-8.6-6.1-12.7-7.9
				c-3.8-1.8-7.4-2.9-11.1-3.1C56,13.1,63,18.5,69.8,25c0.5,0.5,0.6,1.2,0.3,1.8C70,27,70,27.5,70.3,27.8c0.3,0.3,0.4,0.7,0.4,1.1
				s-0.2,0.8-0.5,1.1L48.3,51c-0.6,0.6-1.5,0.6-2.1,0l-7.7-7.7c-0.2-0.2-0.4-0.5-0.4-0.8l-1.6-1.6c-0.6-0.6-0.6-1.5,0-2.1l6.9-6.9
				c0.1-0.1,0.1-0.1,0.1-0.2c0,0-0.1-0.1-0.1-0.1l-12.6-13c-2.6-2.8-6.2-4.4-10.1-4.4c-4-0.1-8,1.6-10.9,4.4c-5.9,5.9-5.9,15.1,0,21
				l12.6,12.6c0.1,0.1,0.1,0.1,0.2,0.1c0,0,0.1-0.1,0.1-0.1l6.9-6.9c0.6-0.6,1.5-0.6,2.1,0l1.6,1.6c0.3,0,0.6,0.2,0.8,0.4l7.7,7.7
				c0.6,0.6,0.6,1.5,0,2.1L14.8,85c0,0.1,0,0.1,0,0.2c0,0.1,0,0.1,0,0.2l4.4,4.4c0.1,0,0.2,0,0.3,0c0,0,0,0,0.1,0L47,62.3
				C47.3,62,47.7,61.9,48.1,61.9z M83.9,26.5C83.9,26.5,83.9,26.5,83.9,26.5C83.9,26.5,83.9,26.5,83.9,26.5z M83.9,26.5
				C83.9,26.5,83.9,26.5,83.9,26.5C83.9,26.5,83.9,26.5,83.9,26.5z"/>
		</g>
		<path class="st2" d="M85,29.7c0.4-0.8,0-1.6-0.4-2l0.4-0.4c0.4-0.4,0.4-0.8,0.4-0.8c0.8-0.8,0.8-2,0-2.4l-4.5-4.5
			c-0.8-0.8-2-0.8-2.4,0l-0.8,0.8c-0.8-0.4-1.6-0.8-2.4-0.4c-4-3.2-8.5-6.1-13-8.1c-5.7-2.8-10.9-3.6-15.8-3.2c-0.4,0-0.4,0-0.4,0
			s0,0,0,0.4s0,0.4,0.4,0.8c5.3,2,13.8,8.1,22.3,16.2c-0.4,0.8-0.4,2,0.4,2.8l-21.9,21l-7.7-7.7v-0.4L38.8,41l-1.2-1.2l6.9-6.9
			c0.8-0.8,0.8-2,0-2.4l-12.6-13c-6.1-6.5-16.6-6.5-23.1,0s-6.5,16.6,0,23.1l12.6,12.6c0.8,0.8,2,0.8,2.4,0l6.9-6.9l2,2
			c0,0,0.4,0.4,0.4,0l7.7,7.7L13.7,84c-0.4,0.4-0.8,0.8-0.4,1.2c0,0.4,0,0.8,0.4,1.2l4.5,4.5c0.4,0.4,0.8,0.8,1.2,0.4
			c0.4,0,0.8,0,1.2-0.4l27.5-27.5l8.9,8.9l18.6,18.6c0.8,0.8,2,0.8,2.4,0l0.4-0.4l2.8-2.8l0.4-0.4c0.8-0.8,0.8-2,0-2.4L63.5,66.1
			l-8.9-8.9l10.5-10.5l10.5-10.5c0.8,0.4,2,0.8,2.8,0.4c8.1,8.5,14.2,17,16.2,22.3c0,0,0,0,0,0.4H95c0.4,0,0.4-0.4,0.4-0.4
			c0.4,0,0.4-0.4,0.4-0.4C96.7,49.9,92.7,39,85,29.7z"/>
	</g>
	<g>
		<path class="st1" d="M66.1,52.3H30.4c-0.8,0-1.5-0.7-1.5-1.5v-8c0-0.8,0.7-1.5,1.5-1.5h35.7c0.8,0,1.5,0.7,1.5,1.5v8
			C67.6,51.6,66.9,52.3,66.1,52.3z M31.9,49.3h32.7v-5H31.9V49.3z"/>
	</g>
	<g>
		<path class="st1" d="M63.9,74.5H32.7c-0.8,0-1.5-0.7-1.5-1.5V50.7c0-0.8,0.7-1.5,1.5-1.5h31.2c0.8,0,1.5,0.7,1.5,1.5V73
			C65.4,73.8,64.7,74.5,63.9,74.5z M34.2,71.5h28.2V52.2H34.2V71.5z"/>
	</g>
	<g>
		<path class="st1" d="M52.2,74.5h-7.6c-0.8,0-1.5-0.7-1.5-1.5V44.4h-9.8c-0.1,0-0.1,0-0.2,0c-1.6-0.2-2.6-1.5-2.4-3.1
			c0-0.6,0.2-1,0.4-1.3c0,0,0-0.1,0-0.1c0.5-0.8,1-1.7,1.4-2.5c0.5-0.9,1-1.7,1.5-2.6c0.5-0.9,1.3-1.5,2.4-1.8c0,0,0.1,0,0.1,0
			c0.2-0.1,0.4-0.1,0.6-0.1h0.4c1,0,1.7,0.5,2.2,0.9c1,0.7,2,1.4,3,2.1c0.7,0.5,1.4,1,2.1,1.5c1-0.9,2.1-1.4,3.3-1.5
			c0,0,0.1,0,0.1,0h0.1c0,0,0.1,0,0.1,0c1.3,0.1,2.4,0.6,3.3,1.5c0.7-0.5,1.4-1,2.1-1.5c1-0.7,2-1.4,3-2.1c0.5-0.5,1.2-0.9,2.3-0.9
			h0.4c0.2,0,0.4,0,0.6,0.1c0.1,0,0.1,0,0.1,0c0.4,0.1,1.7,0.6,2.3,1.8c0.5,0.8,1,1.7,1.4,2.5c0.5,0.8,0.9,1.7,1.4,2.5
			c0,0,0,0.1,0,0.1c0.1,0.2,0.2,0.5,0.4,0.9c0,0.1,0,0.2,0.1,0.3c0.1,0.8-0.1,1.6-0.5,2.2c-0.4,0.6-1.1,1-1.9,1.1
			c-0.1,0-0.1,0-0.2,0h-9.8V73C53.7,73.8,53,74.5,52.2,74.5z M46.1,71.5h4.6V43.2c0-1.2,0.9-1.8,1.8-1.8H63c-0.5-0.8-1-1.7-1.4-2.5
			c-0.5-0.8-0.9-1.7-1.4-2.5c0,0,0-0.1,0-0.1c0,0-0.1-0.2-0.5-0.3c-0.1,0-0.2,0-0.4-0.1h0c-0.1,0-0.1,0-0.2,0.2
			c-0.1,0.1-0.1,0.1-0.2,0.2c-1,0.7-2,1.4-3,2.1c-1,0.7-2.1,1.5-3.1,2.2c-0.1,0-0.1,0.1-0.2,0.1c-0.6,0.4-1.6,0.5-2.3-0.6
			c-0.5-0.7-1.1-1-1.8-1.1c-0.7,0.1-1.3,0.5-1.8,1.2c-0.7,1-1.7,0.9-2.3,0.5c-0.1,0-0.1-0.1-0.2-0.1c-1-0.7-2-1.4-3.1-2.2
			c-1-0.7-2-1.4-3-2.1c-0.2-0.1-0.4-0.3-0.5-0.3c-0.1,0-0.3,0.1-0.4,0.1c-0.2,0.1-0.4,0.2-0.5,0.4c-0.5,0.8-1,1.7-1.4,2.5
			c-0.5,0.8-0.9,1.7-1.4,2.5h10.6c0.9,0,1.8,0.6,1.8,1.8V71.5z M44,38.4C44,38.4,44,38.4,44,38.4C44,38.4,44,38.4,44,38.4z"/>
	</g>
	<rect x="30.4" y="42.8" class="st3" width="35.7" height="8"/>
	<rect x="32.7" y="52.1" class="st3" width="31.2" height="20.8"/>
	<g>
		<path class="st1" d="M53.2,74h-9.6V43.9l-10.4,0c-1.3-0.2-2.1-1.2-2-2.6c0-0.5,0.2-0.9,0.3-1.1c0.5-0.9,1-1.7,1.5-2.6
			c0.5-0.9,1-1.7,1.5-2.6c0.5-0.8,1.2-1.3,2.1-1.6l0,0l0.1-0.1h0.8c0.8,0,1.4,0.4,1.9,0.8c1,0.7,2,1.4,3,2.1
			c0.8,0.6,1.7,1.2,2.5,1.8c0.9-1,2-1.6,3.3-1.7l0.2,0c1.4,0.1,2.5,0.7,3.4,1.7c0.8-0.6,1.7-1.2,2.5-1.8c1-0.7,2-1.4,3-2.1
			c0.5-0.5,1.1-0.8,1.9-0.8H60l0.2,0.2c0.7,0.2,1.6,0.6,2.1,1.6c0.5,0.8,1,1.7,1.4,2.5c0.5,0.8,0.9,1.7,1.4,2.5l0,0.1
			c0.1,0.2,0.2,0.5,0.4,0.8l0,0.2c0.1,0.6-0.1,1.3-0.4,1.8c-0.4,0.5-0.9,0.8-1.5,0.9l-0.1,0H53.2V74z M45.6,72h5.6V43.2
			c0-1,0.7-1.3,1.3-1.3h10.9c0.1,0,0.1-0.1,0.1-0.1c0-0.1,0.1-0.1,0.1-0.2c-0.1-0.2-0.1-0.3-0.2-0.4c-0.5-0.8-1-1.7-1.4-2.5
			c-0.5-0.8-0.9-1.7-1.4-2.5c-0.1-0.3-0.4-0.5-0.8-0.6c-0.1,0-0.2,0-0.4-0.1h-0.1c-0.2,0-0.3,0-0.6,0.3l-0.1,0.1c-1,0.7-2,1.4-3,2.1
			c-1,0.7-2.1,1.5-3.1,2.2l-0.1,0.1c-0.2,0.2-1,0.5-1.7-0.4c-0.6-0.8-1.3-1.3-2.3-1.4l0,0c-0.8,0.1-1.6,0.5-2.2,1.4
			c-0.6,0.9-1.4,0.6-1.6,0.4l-0.1-0.1c-1-0.7-2-1.4-3.1-2.2c-1-0.7-2-1.4-3-2.1c-0.3-0.2-0.6-0.4-0.7-0.4h-0.1
			c-0.1,0.1-0.3,0.1-0.4,0.1c-0.4,0.1-0.6,0.3-0.8,0.6c-0.5,0.8-1,1.7-1.4,2.5c-0.5,0.9-1,1.7-1.5,2.6c0,0.1-0.1,0.1-0.1,0.2l0,0.1
			c0,0.3,0,0.4,0.2,0.4h10.9c0.6,0,1.3,0.3,1.3,1.3V72z"/>
	</g>
	<path class="st4" d="M64.3,40.7c-1-1.7-1.9-3.4-2.9-5.1c-0.3-0.6-0.9-0.9-1.5-1.1c-0.1,0-0.2,0-0.3-0.1c-0.1,0-0.3,0-0.4,0
		c-0.6,0-0.9,0.2-1.3,0.6c-2,1.4-4.1,2.9-6.1,4.3c-0.2,0.1-0.2,0.2-0.4-0.1c-0.8-1.1-1.8-1.7-3-1.8h-0.1c-1.2,0.1-2.2,0.7-3,1.8
		c-0.2,0.3-0.2,0.2-0.4,0.1c-2-1.4-4.1-2.9-6.1-4.3c-0.4-0.3-0.8-0.6-1.3-0.6c-0.1,0-0.3,0-0.4,0c-0.1,0.1-0.2,0.1-0.3,0.1
		c-0.7,0.2-1.2,0.6-1.5,1.1c-1,1.7-1.9,3.4-2.9,5.1c-0.1,0.2-0.2,0.4-0.2,0.7c-0.1,0.8,0.3,1.4,1.1,1.5h11c0.3,0,0.3,0.1,0.3,0.3
		c0,3.4,0,26.3,0,29.8h7.6c0-3.4,0-26.3,0-29.8c0-0.2,0-0.3,0.3-0.3h11c0.8-0.1,1.2-0.8,1.1-1.5C64.5,41.1,64.4,40.9,64.3,40.7z"/>
</g>
</svg>
