<?xml version="1.0" encoding="utf-8"?>
<!-- Generator: Adobe Illustrator 25.1.0, SVG Export Plug-In . SVG Version: 6.00 Build 0)  -->
<svg version="1.1" id="ic_empty_zpiv" xmlns="http://www.w3.org/2000/svg" xmlns:xlink="http://www.w3.org/1999/xlink" x="0px"
	 y="0px" viewBox="0 0 100 100" style="enable-background:new 0 0 100 100;" xml:space="preserve">
<style type="text/css">
	.st0{fill:none;}
	.st1{fill:#D6D6D6;}
	.st2{fill:#FFFFFF;}
	.st3{fill:#666666;}
</style>
<path id="Rectangle_4753" class="st0" d="M0,0h100v100H0V0z"/>
<g>
	<g>
		<circle class="st1" cx="50.3" cy="49.8" r="24"/>
		<g>
			<path class="st2" d="M50.3,28.8c11.6,0,21,9.4,21,21s-9.4,21-21,21s-21-9.4-21-21S38.7,28.8,50.3,28.8 M50.3,25.8
				c-13.3,0-24,10.7-24,24s10.7,24,24,24s24-10.7,24-24S63.6,25.8,50.3,25.8L50.3,25.8z"/>
		</g>
		<g>
			<path class="st3" d="M50.3,74.8c-13.8,0-25-11.2-25-25s11.2-25,25-25s25,11.2,25,25S64.1,74.8,50.3,74.8z M50.3,26.8
				c-12.7,0-23,10.3-23,23s10.3,23,23,23s23-10.3,23-23S63,26.8,50.3,26.8z"/>
		</g>
		<g>
			<g>
				<path class="st3" d="M16.4,56.8c-0.6,0-1-0.4-1-1V29.3c0-0.1-0.1-0.3-0.3-0.3H9.8c-0.9,0-1.7-0.5-2.1-1.3
					C7.3,26.9,7.5,26,8,25.3L22.6,8.4c0.4-0.5,1-0.8,1.7-0.8c0.6,0,1.3,0.3,1.7,0.8l14.4,16.5c0.6,0.7,0.7,1.6,0.4,2.4
					c-0.4,0.8-1.2,1.3-2.1,1.3h-8c-0.6,0-1-0.4-1-1s0.4-1,1-1h8c0.1,0,0.2-0.1,0.2-0.2s0-0.2,0-0.3L24.5,9.7
					c-0.1-0.1-0.2-0.1-0.2-0.1c-0.1,0-0.1,0-0.2,0.1L9.6,26.6c-0.1,0.1-0.1,0.2,0,0.3c0,0.1,0.1,0.2,0.2,0.2h5.3
					c1.2,0,2.3,1,2.3,2.3v26.4C17.4,56.4,17,56.8,16.4,56.8z"/>
			</g>
			<g>
				<path class="st1" d="M24.3,23.5h-6.7c-0.3,0-0.4-0.3-0.2-0.5l6.7-7.9c0.1-0.1,0.4-0.1,0.5,0l6.7,7.9c0.2,0.2,0,0.5-0.2,0.5H24.3
					z"/>
			</g>
		</g>
		<g>
			<g>
				<path class="st3" d="M83.6,43.2c0.6,0,1,0.4,1,1v26.5c0,0.1,0.1,0.3,0.3,0.3h5.3c0.9,0,1.7,0.5,2.1,1.3s0.2,1.7-0.3,2.4
					L77.4,91.6c-0.4,0.5-1,0.8-1.7,0.8c-0.6,0-1.3-0.3-1.7-0.8L59.6,75.1c-0.6-0.7-0.7-1.6-0.4-2.4c0.4-0.8,1.2-1.3,2.1-1.3h8
					c0.6,0,1,0.4,1,1s-0.4,1-1,1h-8c-0.1,0-0.2,0.1-0.2,0.2s0,0.2,0,0.3l14.4,16.4c0.1,0.1,0.2,0.1,0.2,0.1c0.1,0,0.1,0,0.2-0.1
					l14.5-16.9c0.1-0.1,0.1-0.2,0-0.3c0-0.1-0.1-0.2-0.2-0.2h-5.3c-1.2,0-2.3-1-2.3-2.3V44.2C82.6,43.6,83,43.2,83.6,43.2z"/>
			</g>
			<g>
				<path class="st1" d="M75.7,76.5h6.7c0.3,0,0.4,0.3,0.2,0.5l-6.7,7.9c-0.1,0.1-0.4,0.1-0.5,0L68.7,77c-0.2-0.2,0-0.5,0.2-0.5
					H75.7z"/>
			</g>
		</g>
	</g>
	<g>
		<g>
			<path class="st3" d="M54.6,47.4c1.4-1.1,2.1-2.5,2.1-4.3c0-0.8-0.1-1.5-0.4-2.1c-0.3-0.7-0.7-1.3-1.2-1.8s-1.2-0.9-1.9-1.2
				c-0.8-0.3-1.6-0.4-2.6-0.4c-1.6,0-3,0.3-4.2,1S44,40.3,43,41.5l-2.1-2.1c1.2-1.4,2.6-2.6,4.1-3.5s3.5-1.3,5.7-1.3
				c1.4,0,2.7,0.2,3.9,0.6c1.1,0.4,2.1,1,2.9,1.7c0.8,0.7,1.4,1.6,1.9,2.6c0.4,1,0.7,2.1,0.7,3.3c0,1.3-0.2,2.5-0.7,3.5
				s-1.1,1.8-1.9,2.5c-0.8,0.7-1.7,1.3-2.8,1.7c-1,0.4-2.2,0.7-3.4,0.9l-0.4,4.5h-2.1l-0.6-6.8l0.2-0.2
				C51.1,49.1,53.2,48.5,54.6,47.4z M47.9,64.4V60h3.9v4.4H47.9z"/>
			<path class="st3" d="M51.7,65.4h-3.9c-0.5,0-1-0.4-1-1V60c0-0.5,0.4-1,1-1h3.9c0.5,0,1,0.4,1,1v4.4C52.7,65,52.2,65.4,51.7,65.4z
				 M48.8,63.5h1.9V61h-1.9V63.5z M50.9,57.1h-2.1c-0.5,0-0.9-0.4-0.9-0.9l-0.6-6.8c0-0.3,0.1-0.6,0.3-0.8l0.2-0.2
				c0.2-0.2,0.4-0.3,0.7-0.3c2.5-0.1,4.4-0.6,5.7-1.5c1.2-0.9,1.7-2,1.7-3.5c0-0.6-0.1-1.2-0.3-1.8c-0.2-0.5-0.6-1-1-1.4
				s-1-0.7-1.6-1c-0.6-0.2-1.4-0.4-2.2-0.4c-1.4,0-2.6,0.3-3.7,0.9c-1.1,0.6-2.2,1.5-3.2,2.7c-0.2,0.2-0.4,0.3-0.7,0.3
				s-0.5-0.1-0.7-0.3L40.4,40c-0.4-0.3-0.4-0.9-0.1-1.3c1.3-1.5,2.8-2.8,4.4-3.7c1.7-1,3.8-1.4,6.2-1.4c1.5,0,2.9,0.2,4.2,0.7
				s2.3,1.1,3.3,1.9c0.9,0.8,1.6,1.8,2.1,3c0.5,1.1,0.7,2.4,0.7,3.7c0,1.4-0.3,2.7-0.8,3.9c-0.5,1.1-1.2,2.1-2.1,2.8
				c-0.9,0.8-1.9,1.4-3,1.8c-0.9,0.4-1.8,0.6-2.8,0.8L52.1,56C51.8,56.7,51.4,57.1,50.9,57.1z M49.6,55.2H50l0.3-3.7
				c0-0.4,0.4-0.8,0.8-0.9c1.1-0.2,2.2-0.4,3.1-0.8c0.9-0.4,1.8-0.9,2.5-1.5s1.2-1.4,1.6-2.2c0.4-0.9,0.6-1.9,0.6-3.1
				c0-1.1-0.2-2.1-0.6-2.9c-0.4-0.9-0.9-1.7-1.6-2.3c-0.7-0.6-1.6-1.2-2.6-1.5c-1-0.4-2.2-0.6-3.5-0.6c-2.1,0-3.8,0.4-5.2,1.2
				c-1.2,0.7-2.3,1.6-3.3,2.6l0.8,0.7c0.9-1,2-1.8,3-2.4c1.4-0.8,2.9-1.1,4.6-1.1c1.1,0,2,0.2,2.9,0.5s1.6,0.8,2.3,1.4
				c0.6,0.6,1.1,1.3,1.4,2.1c0.3,0.8,0.5,1.6,0.5,2.5c0,2.1-0.8,3.8-2.5,5l0,0c-1.4,1.1-3.4,1.7-6,1.8L49.6,55.2z M54.6,47.4
				L54.6,47.4L54.6,47.4z"/>
		</g>
	</g>
</g>
</svg>
