<?xml version="1.0" encoding="utf-8"?>
<!-- Generator: Adobe Illustrator 25.1.0, SVG Export Plug-In . SVG Version: 6.00 Build 0)  -->
<svg version="1.1" id="Layer_1" xmlns="http://www.w3.org/2000/svg" xmlns:xlink="http://www.w3.org/1999/xlink" x="0px" y="0px"
	 viewBox="0 0 72.7 72.7" style="enable-background:new 0 0 72.7 72.7;" xml:space="preserve">
<style type="text/css">
	.st0{fill:#FFFFFF;}
</style>
<g>
	<rect x="1.4" y="1.4" class="st0" width="2.8" height="2.8"/>
	<rect x="4.2" y="1.4" class="st0" width="2.8" height="2.8"/>
	<rect x="7" y="1.4" class="st0" width="2.8" height="2.8"/>
	<rect x="9.8" y="1.4" class="st0" width="2.8" height="2.8"/>
	<rect x="12.6" y="1.4" class="st0" width="2.8" height="2.8"/>
	<rect x="15.4" y="1.4" class="st0" width="2.8" height="2.8"/>
	<rect x="18.2" y="1.4" class="st0" width="2.8" height="2.8"/>
	<rect x="23.8" y="1.4" class="st0" width="2.8" height="2.8"/>
	<rect x="26.6" y="1.4" class="st0" width="2.8" height="2.8"/>
	<rect x="29.4" y="1.4" class="st0" width="2.8" height="2.8"/>
	<rect x="32.2" y="1.4" class="st0" width="2.8" height="2.8"/>
	<rect x="40.5" y="1.4" class="st0" width="2.8" height="2.8"/>
	<rect x="51.7" y="1.4" class="st0" width="2.8" height="2.8"/>
	<rect x="54.5" y="1.4" class="st0" width="2.8" height="2.8"/>
	<rect x="57.3" y="1.4" class="st0" width="2.8" height="2.8"/>
	<rect x="60.1" y="1.4" class="st0" width="2.8" height="2.8"/>
	<rect x="62.9" y="1.4" class="st0" width="2.8" height="2.8"/>
	<rect x="65.7" y="1.4" class="st0" width="2.8" height="2.8"/>
	<rect x="68.5" y="1.4" class="st0" width="2.8" height="2.8"/>
	<rect x="1.4" y="4.2" class="st0" width="2.8" height="2.8"/>
	<rect x="18.2" y="4.2" class="st0" width="2.8" height="2.8"/>
	<rect x="32.2" y="4.2" class="st0" width="2.8" height="2.8"/>
	<rect x="35" y="4.2" class="st0" width="2.8" height="2.8"/>
	<rect x="37.7" y="4.2" class="st0" width="2.8" height="2.8"/>
	<rect x="40.5" y="4.2" class="st0" width="2.8" height="2.8"/>
	<rect x="46.1" y="4.2" class="st0" width="2.8" height="2.8"/>
	<rect x="51.7" y="4.2" class="st0" width="2.8" height="2.8"/>
	<rect x="68.5" y="4.2" class="st0" width="2.8" height="2.8"/>
	<rect x="1.4" y="7" class="st0" width="2.8" height="2.8"/>
	<rect x="7" y="7" class="st0" width="2.8" height="2.8"/>
	<rect x="9.8" y="7" class="st0" width="2.8" height="2.8"/>
	<rect x="12.6" y="7" class="st0" width="2.8" height="2.8"/>
	<rect x="18.2" y="7" class="st0" width="2.8" height="2.8"/>
	<rect x="26.6" y="7" class="st0" width="2.8" height="2.8"/>
	<rect x="32.2" y="7" class="st0" width="2.8" height="2.8"/>
	<rect x="37.7" y="7" class="st0" width="2.8" height="2.8"/>
	<rect x="40.5" y="7" class="st0" width="2.8" height="2.8"/>
	<rect x="46.1" y="7" class="st0" width="2.8" height="2.8"/>
	<rect x="51.7" y="7" class="st0" width="2.8" height="2.8"/>
	<rect x="57.3" y="7" class="st0" width="2.8" height="2.8"/>
	<rect x="60.1" y="7" class="st0" width="2.8" height="2.8"/>
	<rect x="62.9" y="7" class="st0" width="2.8" height="2.8"/>
	<rect x="68.5" y="7" class="st0" width="2.8" height="2.8"/>
	<rect x="1.4" y="9.8" class="st0" width="2.8" height="2.8"/>
	<rect x="7" y="9.8" class="st0" width="2.8" height="2.8"/>
	<rect x="9.8" y="9.8" class="st0" width="2.8" height="2.8"/>
	<rect x="12.6" y="9.8" class="st0" width="2.8" height="2.8"/>
	<rect x="18.2" y="9.8" class="st0" width="2.8" height="2.8"/>
	<rect x="29.4" y="9.8" class="st0" width="2.8" height="2.8"/>
	<rect x="32.2" y="9.8" class="st0" width="2.8" height="2.8"/>
	<rect x="37.7" y="9.8" class="st0" width="2.8" height="2.8"/>
	<rect x="51.7" y="9.8" class="st0" width="2.8" height="2.8"/>
	<rect x="57.3" y="9.8" class="st0" width="2.8" height="2.8"/>
	<rect x="60.1" y="9.8" class="st0" width="2.8" height="2.8"/>
	<rect x="62.9" y="9.8" class="st0" width="2.8" height="2.8"/>
	<rect x="68.5" y="9.8" class="st0" width="2.8" height="2.8"/>
	<rect x="1.4" y="12.6" class="st0" width="2.8" height="2.8"/>
	<rect x="7" y="12.6" class="st0" width="2.8" height="2.8"/>
	<rect x="9.8" y="12.6" class="st0" width="2.8" height="2.8"/>
	<rect x="12.6" y="12.6" class="st0" width="2.8" height="2.8"/>
	<rect x="18.2" y="12.6" class="st0" width="2.8" height="2.8"/>
	<rect x="29.4" y="12.6" class="st0" width="2.8" height="2.8"/>
	<rect x="32.2" y="12.6" class="st0" width="2.8" height="2.8"/>
	<rect x="35" y="12.6" class="st0" width="2.8" height="2.8"/>
	<rect x="46.1" y="12.6" class="st0" width="2.8" height="2.8"/>
	<rect x="51.7" y="12.6" class="st0" width="2.8" height="2.8"/>
	<rect x="57.3" y="12.6" class="st0" width="2.8" height="2.8"/>
	<rect x="60.1" y="12.6" class="st0" width="2.8" height="2.8"/>
	<rect x="62.9" y="12.6" class="st0" width="2.8" height="2.8"/>
	<rect x="68.5" y="12.6" class="st0" width="2.8" height="2.8"/>
	<rect x="1.4" y="15.4" class="st0" width="2.8" height="2.8"/>
	<rect x="18.2" y="15.4" class="st0" width="2.8" height="2.8"/>
	<rect x="26.6" y="15.4" class="st0" width="2.8" height="2.8"/>
	<rect x="32.2" y="15.4" class="st0" width="2.8" height="2.8"/>
	<rect x="37.7" y="15.4" class="st0" width="2.8" height="2.8"/>
	<rect x="51.7" y="15.4" class="st0" width="2.8" height="2.8"/>
	<rect x="68.5" y="15.4" class="st0" width="2.8" height="2.8"/>
	<rect x="1.4" y="18.2" class="st0" width="2.8" height="2.8"/>
	<rect x="4.2" y="18.2" class="st0" width="2.8" height="2.8"/>
	<rect x="7" y="18.2" class="st0" width="2.8" height="2.8"/>
	<rect x="9.8" y="18.2" class="st0" width="2.8" height="2.8"/>
	<rect x="12.6" y="18.2" class="st0" width="2.8" height="2.8"/>
	<rect x="15.4" y="18.2" class="st0" width="2.8" height="2.8"/>
	<rect x="18.2" y="18.2" class="st0" width="2.8" height="2.8"/>
	<rect x="23.8" y="18.2" class="st0" width="2.8" height="2.8"/>
	<rect x="29.4" y="18.2" class="st0" width="2.8" height="2.8"/>
	<rect x="35" y="18.2" class="st0" width="2.8" height="2.8"/>
	<rect x="40.5" y="18.2" class="st0" width="2.8" height="2.8"/>
	<rect x="46.1" y="18.2" class="st0" width="2.8" height="2.8"/>
	<rect x="51.7" y="18.2" class="st0" width="2.8" height="2.8"/>
	<rect x="54.5" y="18.2" class="st0" width="2.8" height="2.8"/>
	<rect x="57.3" y="18.2" class="st0" width="2.8" height="2.8"/>
	<rect x="60.1" y="18.2" class="st0" width="2.8" height="2.8"/>
	<rect x="62.9" y="18.2" class="st0" width="2.8" height="2.8"/>
	<rect x="65.7" y="18.2" class="st0" width="2.8" height="2.8"/>
	<rect x="68.5" y="18.2" class="st0" width="2.8" height="2.8"/>
	<rect x="23.8" y="21" class="st0" width="2.8" height="2.8"/>
	<rect x="26.6" y="21" class="st0" width="2.8" height="2.8"/>
	<rect x="35" y="21" class="st0" width="2.8" height="2.8"/>
	<rect x="37.7" y="21" class="st0" width="2.8" height="2.8"/>
	<rect x="1.4" y="23.8" class="st0" width="2.8" height="2.8"/>
	<rect x="4.2" y="23.8" class="st0" width="2.8" height="2.8"/>
	<rect x="9.8" y="23.8" class="st0" width="2.8" height="2.8"/>
	<rect x="12.6" y="23.8" class="st0" width="2.8" height="2.8"/>
	<rect x="18.2" y="23.8" class="st0" width="2.8" height="2.8"/>
	<rect x="26.6" y="23.8" class="st0" width="2.8" height="2.8"/>
	<rect x="35" y="23.8" class="st0" width="2.8" height="2.8"/>
	<rect x="43.3" y="23.8" class="st0" width="2.8" height="2.8"/>
	<rect x="46.1" y="23.8" class="st0" width="2.8" height="2.8"/>
	<rect x="51.7" y="23.8" class="st0" width="2.8" height="2.8"/>
	<rect x="68.5" y="23.8" class="st0" width="2.8" height="2.8"/>
	<rect x="1.4" y="26.6" class="st0" width="2.8" height="2.8"/>
	<rect x="7" y="26.6" class="st0" width="2.8" height="2.8"/>
	<rect x="12.6" y="26.6" class="st0" width="2.8" height="2.8"/>
	<rect x="29.4" y="26.6" class="st0" width="2.8" height="2.8"/>
	<rect x="37.7" y="26.6" class="st0" width="2.8" height="2.8"/>
	<rect x="40.5" y="26.6" class="st0" width="2.8" height="2.8"/>
	<rect x="43.3" y="26.6" class="st0" width="2.8" height="2.8"/>
	<rect x="48.9" y="26.6" class="st0" width="2.8" height="2.8"/>
	<rect x="54.5" y="26.6" class="st0" width="2.8" height="2.8"/>
	<rect x="57.3" y="26.6" class="st0" width="2.8" height="2.8"/>
	<rect x="60.1" y="26.6" class="st0" width="2.8" height="2.8"/>
	<rect x="62.9" y="26.6" class="st0" width="2.8" height="2.8"/>
	<rect x="65.7" y="26.6" class="st0" width="2.8" height="2.8"/>
	<rect x="7" y="29.4" class="st0" width="2.8" height="2.8"/>
	<rect x="12.6" y="29.4" class="st0" width="2.8" height="2.8"/>
	<rect x="15.4" y="29.4" class="st0" width="2.8" height="2.8"/>
	<rect x="18.2" y="29.4" class="st0" width="2.8" height="2.8"/>
	<rect x="26.6" y="29.4" class="st0" width="2.8" height="2.8"/>
	<rect x="35" y="29.4" class="st0" width="2.8" height="2.8"/>
	<rect x="37.7" y="29.4" class="st0" width="2.8" height="2.8"/>
	<rect x="43.3" y="29.4" class="st0" width="2.8" height="2.8"/>
	<rect x="46.1" y="29.4" class="st0" width="2.8" height="2.8"/>
	<rect x="48.9" y="29.4" class="st0" width="2.8" height="2.8"/>
	<rect x="51.7" y="29.4" class="st0" width="2.8" height="2.8"/>
	<rect x="57.3" y="29.4" class="st0" width="2.8" height="2.8"/>
	<rect x="60.1" y="29.4" class="st0" width="2.8" height="2.8"/>
	<rect x="68.5" y="29.4" class="st0" width="2.8" height="2.8"/>
	<rect x="7" y="32.2" class="st0" width="2.8" height="2.8"/>
	<rect x="9.8" y="32.2" class="st0" width="2.8" height="2.8"/>
	<rect x="43.3" y="32.2" class="st0" width="2.8" height="2.8"/>
	<rect x="48.9" y="32.2" class="st0" width="2.8" height="2.8"/>
	<rect x="51.7" y="32.2" class="st0" width="2.8" height="2.8"/>
	<rect x="57.3" y="32.2" class="st0" width="2.8" height="2.8"/>
	<rect x="60.1" y="32.2" class="st0" width="2.8" height="2.8"/>
	<rect x="62.9" y="32.2" class="st0" width="2.8" height="2.8"/>
	<rect x="65.7" y="32.2" class="st0" width="2.8" height="2.8"/>
	<rect x="68.5" y="32.2" class="st0" width="2.8" height="2.8"/>
	<rect x="1.4" y="35" class="st0" width="2.8" height="2.8"/>
	<rect x="12.6" y="35" class="st0" width="2.8" height="2.8"/>
	<rect x="15.4" y="35" class="st0" width="2.8" height="2.8"/>
	<rect x="18.2" y="35" class="st0" width="2.8" height="2.8"/>
	<rect x="21" y="35" class="st0" width="2.8" height="2.8"/>
	<rect x="26.6" y="35" class="st0" width="2.8" height="2.8"/>
	<rect x="29.4" y="35" class="st0" width="2.8" height="2.8"/>
	<rect x="46.1" y="35" class="st0" width="2.8" height="2.8"/>
	<rect x="51.7" y="35" class="st0" width="2.8" height="2.8"/>
	<rect x="68.5" y="35" class="st0" width="2.8" height="2.8"/>
	<rect x="1.4" y="37.7" class="st0" width="2.8" height="2.8"/>
	<rect x="4.2" y="37.7" class="st0" width="2.8" height="2.8"/>
	<rect x="7" y="37.7" class="st0" width="2.8" height="2.8"/>
	<rect x="12.6" y="37.7" class="st0" width="2.8" height="2.8"/>
	<rect x="15.4" y="37.7" class="st0" width="2.8" height="2.8"/>
	<rect x="21" y="37.7" class="st0" width="2.8" height="2.8"/>
	<rect x="29.4" y="37.7" class="st0" width="2.8" height="2.8"/>
	<rect x="35" y="37.7" class="st0" width="2.8" height="2.8"/>
	<rect x="37.7" y="37.7" class="st0" width="2.8" height="2.8"/>
	<rect x="40.5" y="37.7" class="st0" width="2.8" height="2.8"/>
	<rect x="43.3" y="37.7" class="st0" width="2.8" height="2.8"/>
	<rect x="46.1" y="37.7" class="st0" width="2.8" height="2.8"/>
	<rect x="57.3" y="37.7" class="st0" width="2.8" height="2.8"/>
	<rect x="65.7" y="37.7" class="st0" width="2.8" height="2.8"/>
	<rect x="1.4" y="40.5" class="st0" width="2.8" height="2.8"/>
	<rect x="4.2" y="40.5" class="st0" width="2.8" height="2.8"/>
	<rect x="7" y="40.5" class="st0" width="2.8" height="2.8"/>
	<rect x="9.8" y="40.5" class="st0" width="2.8" height="2.8"/>
	<rect x="18.2" y="40.5" class="st0" width="2.8" height="2.8"/>
	<rect x="23.8" y="40.5" class="st0" width="2.8" height="2.8"/>
	<rect x="43.3" y="40.5" class="st0" width="2.8" height="2.8"/>
	<rect x="48.9" y="40.5" class="st0" width="2.8" height="2.8"/>
	<rect x="60.1" y="40.5" class="st0" width="2.8" height="2.8"/>
	<rect x="62.9" y="40.5" class="st0" width="2.8" height="2.8"/>
	<rect x="65.7" y="40.5" class="st0" width="2.8" height="2.8"/>
	<rect x="68.5" y="40.5" class="st0" width="2.8" height="2.8"/>
	<rect x="1.4" y="43.3" class="st0" width="2.8" height="2.8"/>
	<rect x="7" y="43.3" class="st0" width="2.8" height="2.8"/>
	<rect x="9.8" y="43.3" class="st0" width="2.8" height="2.8"/>
	<rect x="23.8" y="43.3" class="st0" width="2.8" height="2.8"/>
	<rect x="26.6" y="43.3" class="st0" width="2.8" height="2.8"/>
	<rect x="35" y="43.3" class="st0" width="2.8" height="2.8"/>
	<rect x="51.7" y="43.3" class="st0" width="2.8" height="2.8"/>
	<rect x="54.5" y="43.3" class="st0" width="2.8" height="2.8"/>
	<rect x="57.3" y="43.3" class="st0" width="2.8" height="2.8"/>
	<rect x="62.9" y="43.3" class="st0" width="2.8" height="2.8"/>
	<rect x="68.5" y="43.3" class="st0" width="2.8" height="2.8"/>
	<rect x="1.4" y="46.1" class="st0" width="2.8" height="2.8"/>
	<rect x="12.6" y="46.1" class="st0" width="2.8" height="2.8"/>
	<rect x="18.2" y="46.1" class="st0" width="2.8" height="2.8"/>
	<rect x="21" y="46.1" class="st0" width="2.8" height="2.8"/>
	<rect x="32.2" y="46.1" class="st0" width="2.8" height="2.8"/>
	<rect x="35" y="46.1" class="st0" width="2.8" height="2.8"/>
	<rect x="37.7" y="46.1" class="st0" width="2.8" height="2.8"/>
	<rect x="43.3" y="46.1" class="st0" width="2.8" height="2.8"/>
	<rect x="46.1" y="46.1" class="st0" width="2.8" height="2.8"/>
	<rect x="48.9" y="46.1" class="st0" width="2.8" height="2.8"/>
	<rect x="51.7" y="46.1" class="st0" width="2.8" height="2.8"/>
	<rect x="54.5" y="46.1" class="st0" width="2.8" height="2.8"/>
	<rect x="57.3" y="46.1" class="st0" width="2.8" height="2.8"/>
	<rect x="62.9" y="46.1" class="st0" width="2.8" height="2.8"/>
	<rect x="65.7" y="46.1" class="st0" width="2.8" height="2.8"/>
	<rect x="23.8" y="48.9" class="st0" width="2.8" height="2.8"/>
	<rect x="29.4" y="48.9" class="st0" width="2.8" height="2.8"/>
	<rect x="32.2" y="48.9" class="st0" width="2.8" height="2.8"/>
	<rect x="37.7" y="48.9" class="st0" width="2.8" height="2.8"/>
	<rect x="46.1" y="48.9" class="st0" width="2.8" height="2.8"/>
	<rect x="57.3" y="48.9" class="st0" width="2.8" height="2.8"/>
	<rect x="65.7" y="48.9" class="st0" width="2.8" height="2.8"/>
	<rect x="1.4" y="51.7" class="st0" width="2.8" height="2.8"/>
	<rect x="4.2" y="51.7" class="st0" width="2.8" height="2.8"/>
	<rect x="7" y="51.7" class="st0" width="2.8" height="2.8"/>
	<rect x="9.8" y="51.7" class="st0" width="2.8" height="2.8"/>
	<rect x="12.6" y="51.7" class="st0" width="2.8" height="2.8"/>
	<rect x="15.4" y="51.7" class="st0" width="2.8" height="2.8"/>
	<rect x="18.2" y="51.7" class="st0" width="2.8" height="2.8"/>
	<rect x="29.4" y="51.7" class="st0" width="2.8" height="2.8"/>
	<rect x="35" y="51.7" class="st0" width="2.8" height="2.8"/>
	<rect x="46.1" y="51.7" class="st0" width="2.8" height="2.8"/>
	<rect x="51.7" y="51.7" class="st0" width="2.8" height="2.8"/>
	<rect x="57.3" y="51.7" class="st0" width="2.8" height="2.8"/>
	<rect x="60.1" y="51.7" class="st0" width="2.8" height="2.8"/>
	<rect x="68.5" y="51.7" class="st0" width="2.8" height="2.8"/>
	<rect x="1.4" y="54.5" class="st0" width="2.8" height="2.8"/>
	<rect x="18.2" y="54.5" class="st0" width="2.8" height="2.8"/>
	<rect x="32.2" y="54.5" class="st0" width="2.8" height="2.8"/>
	<rect x="37.7" y="54.5" class="st0" width="2.8" height="2.8"/>
	<rect x="43.3" y="54.5" class="st0" width="2.8" height="2.8"/>
	<rect x="46.1" y="54.5" class="st0" width="2.8" height="2.8"/>
	<rect x="57.3" y="54.5" class="st0" width="2.8" height="2.8"/>
	<rect x="68.5" y="54.5" class="st0" width="2.8" height="2.8"/>
	<rect x="1.4" y="57.3" class="st0" width="2.8" height="2.8"/>
	<rect x="7" y="57.3" class="st0" width="2.8" height="2.8"/>
	<rect x="9.8" y="57.3" class="st0" width="2.8" height="2.8"/>
	<rect x="12.6" y="57.3" class="st0" width="2.8" height="2.8"/>
	<rect x="18.2" y="57.3" class="st0" width="2.8" height="2.8"/>
	<rect x="23.8" y="57.3" class="st0" width="2.8" height="2.8"/>
	<rect x="26.6" y="57.3" class="st0" width="2.8" height="2.8"/>
	<rect x="32.2" y="57.3" class="st0" width="2.8" height="2.8"/>
	<rect x="35" y="57.3" class="st0" width="2.8" height="2.8"/>
	<rect x="40.5" y="57.3" class="st0" width="2.8" height="2.8"/>
	<rect x="43.3" y="57.3" class="st0" width="2.8" height="2.8"/>
	<rect x="46.1" y="57.3" class="st0" width="2.8" height="2.8"/>
	<rect x="48.9" y="57.3" class="st0" width="2.8" height="2.8"/>
	<rect x="51.7" y="57.3" class="st0" width="2.8" height="2.8"/>
	<rect x="54.5" y="57.3" class="st0" width="2.8" height="2.8"/>
	<rect x="57.3" y="57.3" class="st0" width="2.8" height="2.8"/>
	<rect x="60.1" y="57.3" class="st0" width="2.8" height="2.8"/>
	<rect x="1.4" y="60.1" class="st0" width="2.8" height="2.8"/>
	<rect x="7" y="60.1" class="st0" width="2.8" height="2.8"/>
	<rect x="9.8" y="60.1" class="st0" width="2.8" height="2.8"/>
	<rect x="12.6" y="60.1" class="st0" width="2.8" height="2.8"/>
	<rect x="18.2" y="60.1" class="st0" width="2.8" height="2.8"/>
	<rect x="23.8" y="60.1" class="st0" width="2.8" height="2.8"/>
	<rect x="35" y="60.1" class="st0" width="2.8" height="2.8"/>
	<rect x="37.7" y="60.1" class="st0" width="2.8" height="2.8"/>
	<rect x="40.5" y="60.1" class="st0" width="2.8" height="2.8"/>
	<rect x="48.9" y="60.1" class="st0" width="2.8" height="2.8"/>
	<rect x="51.7" y="60.1" class="st0" width="2.8" height="2.8"/>
	<rect x="60.1" y="60.1" class="st0" width="2.8" height="2.8"/>
	<rect x="65.7" y="60.1" class="st0" width="2.8" height="2.8"/>
	<rect x="68.5" y="60.1" class="st0" width="2.8" height="2.8"/>
	<rect x="1.4" y="62.9" class="st0" width="2.8" height="2.8"/>
	<rect x="7" y="62.9" class="st0" width="2.8" height="2.8"/>
	<rect x="9.8" y="62.9" class="st0" width="2.8" height="2.8"/>
	<rect x="12.6" y="62.9" class="st0" width="2.8" height="2.8"/>
	<rect x="18.2" y="62.9" class="st0" width="2.8" height="2.8"/>
	<rect x="26.6" y="62.9" class="st0" width="2.8" height="2.8"/>
	<rect x="29.4" y="62.9" class="st0" width="2.8" height="2.8"/>
	<rect x="32.2" y="62.9" class="st0" width="2.8" height="2.8"/>
	<rect x="43.3" y="62.9" class="st0" width="2.8" height="2.8"/>
	<rect x="48.9" y="62.9" class="st0" width="2.8" height="2.8"/>
	<rect x="54.5" y="62.9" class="st0" width="2.8" height="2.8"/>
	<rect x="57.3" y="62.9" class="st0" width="2.8" height="2.8"/>
	<rect x="62.9" y="62.9" class="st0" width="2.8" height="2.8"/>
	<rect x="65.7" y="62.9" class="st0" width="2.8" height="2.8"/>
	<rect x="68.5" y="62.9" class="st0" width="2.8" height="2.8"/>
	<rect x="1.4" y="65.7" class="st0" width="2.8" height="2.8"/>
	<rect x="18.2" y="65.7" class="st0" width="2.8" height="2.8"/>
	<rect x="23.8" y="65.7" class="st0" width="2.8" height="2.8"/>
	<rect x="40.5" y="65.7" class="st0" width="2.8" height="2.8"/>
	<rect x="43.3" y="65.7" class="st0" width="2.8" height="2.8"/>
	<rect x="54.5" y="65.7" class="st0" width="2.8" height="2.8"/>
	<rect x="57.3" y="65.7" class="st0" width="2.8" height="2.8"/>
	<rect x="62.9" y="65.7" class="st0" width="2.8" height="2.8"/>
	<rect x="65.7" y="65.7" class="st0" width="2.8" height="2.8"/>
	<rect x="68.5" y="65.7" class="st0" width="2.8" height="2.8"/>
	<rect x="1.4" y="68.5" class="st0" width="2.8" height="2.8"/>
	<rect x="4.2" y="68.5" class="st0" width="2.8" height="2.8"/>
	<rect x="7" y="68.5" class="st0" width="2.8" height="2.8"/>
	<rect x="9.8" y="68.5" class="st0" width="2.8" height="2.8"/>
	<rect x="12.6" y="68.5" class="st0" width="2.8" height="2.8"/>
	<rect x="15.4" y="68.5" class="st0" width="2.8" height="2.8"/>
	<rect x="18.2" y="68.5" class="st0" width="2.8" height="2.8"/>
	<rect x="23.8" y="68.5" class="st0" width="2.8" height="2.8"/>
	<rect x="26.6" y="68.5" class="st0" width="2.8" height="2.8"/>
	<rect x="29.4" y="68.5" class="st0" width="2.8" height="2.8"/>
	<rect x="35" y="68.5" class="st0" width="2.8" height="2.8"/>
	<rect x="40.5" y="68.5" class="st0" width="2.8" height="2.8"/>
	<rect x="46.1" y="68.5" class="st0" width="2.8" height="2.8"/>
	<rect x="60.1" y="68.5" class="st0" width="2.8" height="2.8"/>
	<rect x="68.5" y="68.5" class="st0" width="2.8" height="2.8"/>
</g>
</svg>
