<?xml version="1.0" encoding="utf-8"?>
<!-- Generator: Adobe Illustrator 25.1.0, SVG Export Plug-In . SVG Version: 6.00 Build 0)  -->
<svg version="1.1" id="ic_empty_dark_error" xmlns="http://www.w3.org/2000/svg" xmlns:xlink="http://www.w3.org/1999/xlink"
	 x="0px" y="0px" viewBox="0 0 100 100" style="enable-background:new 0 0 100 100;" xml:space="preserve">
<style type="text/css">
	.st0{fill:#FFFFFF;}
	.st1{fill:url(#SVGID_1_);}
	.st2{fill:url(#SVGID_2_);}
	.st3{fill:url(#SVGID_3_);}
	.st4{fill:url(#SVGID_4_);}
	.st5{fill:#009CE1;}
	.st6{fill:url(#SVGID_5_);}
</style>
<g>
	<g>
		<path class="st0" d="M-186.6-632.5c0,18.6-15.1,33.7-33.7,33.7s-33.7-15.1-33.7-33.7s15.1-33.7,33.7-33.7
			C-201.8-666.2-186.6-651.1-186.6-632.5z"/>
		
			<linearGradient id="SVGID_1_" gradientUnits="userSpaceOnUse" x1="-220.4998" y1="287.9356" x2="-220.4998" y2="344.7975" gradientTransform="matrix(1 0 0 -1 0 -316)">
			<stop  offset="0" style="stop-color:#00D3D5"/>
			<stop  offset="1" style="stop-color:#8778DC"/>
		</linearGradient>
		<path class="st1" d="M-220.5-669.5c-20.4,0-37,16.6-37,37s16.6,37,37,37s37-16.6,37-37C-183.4-652.9-200-669.5-220.5-669.5z
			 M-220.5-603.3c-16.1,0-29.2-13.1-29.2-29.2c0-16.1,13.1-29.2,29.2-29.2s29.2,13.1,29.2,29.2
			C-191.3-616.4-204.4-603.3-220.5-603.3z"/>
	</g>
	<g>
		<g>
			
				<linearGradient id="SVGID_2_" gradientUnits="userSpaceOnUse" x1="-220.45" y1="287.936" x2="-220.45" y2="344.7974" gradientTransform="matrix(1 0 0 -1 0 -316)">
				<stop  offset="0" style="stop-color:#00D3D5"/>
				<stop  offset="1" style="stop-color:#8778DC"/>
			</linearGradient>
			<path class="st2" d="M-220.1-643.4L-220.1-643.4L-220.1-643.4L-220.1-643.4c2.9,0,5.6,1.1,7.6,3.2c1,1,1.8,2.2,2.4,3.5l4.9-4.9
				c0.5-0.5,0.8-0.9,1-1.4c0.4-0.6,0.6-1.4,0.6-2.2c0-2.4-1.9-4.3-4.3-4.3h-29.4v8.7h10.2C-225.3-642.4-222.8-643.4-220.1-643.4z"/>
			
				<linearGradient id="SVGID_3_" gradientUnits="userSpaceOnUse" x1="-220.1" y1="287.9349" x2="-220.1" y2="344.7984" gradientTransform="matrix(1 0 0 -1 0 -316)">
				<stop  offset="0" style="stop-color:#00D3D5"/>
				<stop  offset="1" style="stop-color:#8778DC"/>
			</linearGradient>
			<path class="st3" d="M-220.1-638.3L-220.1-638.3c-3.2,0-5.7,2.6-5.7,5.7c0,3.2,2.6,5.7,5.7,5.7l0,0c3.2,0,5.7-2.6,5.7-5.7
				C-214.4-635.7-217-638.3-220.1-638.3z"/>
			
				<linearGradient id="SVGID_4_" gradientUnits="userSpaceOnUse" x1="-220.5" y1="287.9354" x2="-220.5" y2="344.7979" gradientTransform="matrix(1 0 0 -1 0 -316)">
				<stop  offset="0" style="stop-color:#00D3D5"/>
				<stop  offset="1" style="stop-color:#8778DC"/>
			</linearGradient>
			<path class="st4" d="M-220.2-621.8c-4.6,0-8.5-2.9-10.1-7l-5.4,5.4c-0.5,0.5-0.8,0.9-1,1.4c-0.4,0.6-0.6,1.4-0.6,2.2
				c0,2.4,1.9,4.3,4.3,4.3h29.3v-8.7h-9.7C-215.2-622.7-217.6-621.8-220.2-621.8z"/>
		</g>
	</g>
</g>
<g>
	<g>
		<path class="st5" d="M85,28.7L51,9c-0.6-0.4-1.4-0.4-1.9,0L15,28.7c-0.6,0.4-1,1-1,1.7v39.3c0,0.7,0.4,1.4,1,1.7L49,91
			c0.3,0.2,0.7,0.3,1,0.3s0.7-0.1,1-0.3l34-19.7c0.6-0.4,1-1,1-1.7V30.3C86,29.7,85.6,29,85,28.7z M82.1,68.6L51.9,85.9v-19H48v19
			L17.9,68.6V33.8l18.8,11.3l1.9-3.4L19.7,30.3L50,12.9l30.4,17.5l-18.6,12l2,3.4l18.4-11.9v34.7C82.2,68.6,82.1,68.6,82.1,68.6z"/>
	</g>
	<g>
		<linearGradient id="SVGID_5_" gradientUnits="userSpaceOnUse" x1="42.8" y1="75.6867" x2="68.2552" y2="31.597">
			<stop  offset="0" style="stop-color:#00035C"/>
			<stop  offset="0.4832" style="stop-color:#004AE6"/>
			<stop  offset="0.9693" style="stop-color:#BC5CFF"/>
		</linearGradient>
		<path class="st6" d="M74.9,61.2L53.2,23.6c-0.7-1.3-1.9-2-3.2-2s-2.4,0.7-3.2,2L25.1,61.2c-0.6,1.3-0.7,2.6-0.1,3.7
			c0.6,1.1,1.8,1.7,3.3,1.7h43.5c1.4,0,2.6-0.6,3.3-1.7C75.6,63.9,75.6,62.5,74.9,61.2z"/>
		<g>
			<path class="st0" d="M50,24.6c0.1,0,0.3,0,0.6,0.4l0,0l0,0l21.7,37.6c0.2,0.3,0.2,0.6,0.2,0.8c-0.1,0.1-0.4,0.2-0.6,0.2H28.3
				c-0.4,0-0.6-0.1-0.7-0.1c-0.1-0.1,0-0.4,0.1-0.9l21.6-37.4C49.6,24.8,49.8,24.6,50,24.6 M50,21.6c-1.3,0-2.4,0.7-3.2,2L25.1,61.2
				c-0.6,1.3-0.7,2.6-0.1,3.7c0.6,1.1,1.8,1.7,3.3,1.7h43.5c1.4,0,2.6-0.6,3.3-1.7c0.5-1,0.5-2.4-0.2-3.7L53.2,23.6
				C52.5,22.3,51.3,21.6,50,21.6L50,21.6z"/>
		</g>
		<path class="st5" d="M71.8,67.6H28.2c-1.8,0-3.3-0.8-4.1-2.2c-0.8-1.3-0.8-3,0.1-4.6L46,23.1c0.9-1.6,2.4-2.5,4-2.5s3.1,0.9,4,2.5
			l21.8,37.6c0.9,1.5,0.9,3.3,0.1,4.7C75.1,66.8,73.5,67.6,71.8,67.6z M50,22.6c-0.9,0-1.7,0.5-2.3,1.5L26,61.7
			c-0.5,1-0.5,2-0.1,2.7c0.5,0.8,1.3,1.2,2.4,1.2h43.5c1,0,2-0.5,2.4-1.2c0.5-0.8,0.4-1.8-0.1-2.7l0,0L52.3,24.1
			C51.7,23.2,50.9,22.6,50,22.6z"/>
	</g>
</g>
<path class="st0" d="M52,60.6H48c-0.5,0-1-0.4-1-1v-4.4c0-0.5,0.4-1,1-1H52c0.5,0,1,0.4,1,1v4.4C53,60.2,52.5,60.6,52,60.6z"/>
<path class="st0" d="M51,52.6H49c-0.5,0-1-0.4-1-1l-1-17c0-0.5,0.4-1,1-1H52c0.5,0,1,0.4,1,1l-1,17C52,52.2,51.5,52.6,51,52.6z"/>
</svg>
