<?xml version="1.0" encoding="utf-8"?>
<!-- Generator: Adobe Illustrator 25.1.0, SVG Export Plug-In . SVG Version: 6.00 Build 0)  -->
<svg version="1.1" id="ic_empty_error" xmlns="http://www.w3.org/2000/svg" xmlns:xlink="http://www.w3.org/1999/xlink" x="0px"
	 y="0px" viewBox="0 0 100 100" style="enable-background:new 0 0 100 100;" xml:space="preserve">
<style type="text/css">
	.st0{fill:none;}
	.st1{fill:#666666;}
	.st2{fill:#D6D6D6;}
	.st3{fill:#FFFFFF;}
</style>
<path id="Rectangle_4730" class="st0" d="M0,0h100v100H0V0z"/>
<g>
	<g>
		<g>
			<path class="st1" d="M85,28.7L51,9c-0.6-0.4-1.4-0.4-1.9,0L15,28.7c-0.6,0.4-1,1-1,1.7v39.3c0,0.7,0.4,1.4,1,1.7L49,91
				c0.3,0.2,0.7,0.3,1,0.3s0.7-0.1,1-0.3l34-19.7c0.6-0.4,1-1,1-1.7V30.3C86,29.7,85.6,29,85,28.7z M82.1,68.6L51.9,85.9v-19H48v19
				L17.9,68.6V33.8l18.8,11.3l1.9-3.4L19.7,30.3L50,12.9l30.4,17.5l-18.6,12l2,3.4l18.4-11.9v34.7C82.2,68.6,82.1,68.6,82.1,68.6z"
				/>
		</g>
		<g>
			<path class="st2" d="M74.9,61.2L53.2,23.6c-0.7-1.3-1.9-2-3.2-2s-2.4,0.7-3.2,2L25.1,61.2c-0.6,1.3-0.7,2.6-0.1,3.7
				c0.6,1.1,1.8,1.7,3.3,1.7h43.5c1.4,0,2.6-0.6,3.3-1.7C75.6,63.9,75.6,62.5,74.9,61.2z"/>
			<g>
				<path class="st3" d="M50,24.6c0.1,0,0.3,0,0.6,0.4l0,0l0,0l21.7,37.6c0.2,0.3,0.2,0.6,0.2,0.8c-0.1,0.1-0.4,0.2-0.6,0.2H28.3
					c-0.4,0-0.6-0.1-0.7-0.1c-0.1-0.1,0-0.4,0.1-0.9l21.6-37.4C49.6,24.8,49.8,24.6,50,24.6 M50,21.6c-1.3,0-2.4,0.7-3.2,2
					L25.1,61.2c-0.6,1.3-0.7,2.6-0.1,3.7c0.6,1.1,1.8,1.7,3.3,1.7h43.5c1.4,0,2.6-0.6,3.3-1.7c0.5-1,0.5-2.4-0.2-3.7L53.2,23.6
					C52.5,22.3,51.3,21.6,50,21.6L50,21.6z"/>
			</g>
			<path class="st1" d="M71.8,67.6H28.2c-1.8,0-3.3-0.8-4.1-2.2c-0.8-1.3-0.8-3,0.1-4.6L46,23.1c0.9-1.6,2.4-2.5,4-2.5
				s3.1,0.9,4,2.5l21.8,37.6c0.9,1.5,0.9,3.3,0.1,4.7C75.1,66.8,73.5,67.6,71.8,67.6z M50,22.6c-0.9,0-1.7,0.5-2.3,1.5L26,61.7
				c-0.5,1-0.5,2-0.1,2.7c0.5,0.8,1.3,1.2,2.4,1.2h43.5c1,0,2-0.5,2.4-1.2c0.5-0.8,0.4-1.8-0.1-2.7l0,0L52.3,24.1
				C51.7,23.2,50.9,22.6,50,22.6z"/>
		</g>
	</g>
	<path class="st1" d="M52,60.6H48c-0.5,0-1-0.4-1-1v-4.4c0-0.5,0.4-1,1-1H52c0.5,0,1,0.4,1,1v4.4C53,60.2,52.5,60.6,52,60.6z"/>
	<path class="st1" d="M51,52.6H49c-0.5,0-1-0.4-1-1l-1-17c0-0.5,0.4-1,1-1H52c0.5,0,1,0.4,1,1l-1,17C52,52.2,51.5,52.6,51,52.6z"/>
</g>
</svg>
