<?xml version="1.0" encoding="utf-8"?>
<!-- Generator: Adobe Illustrator 25.1.0, SVG Export Plug-In . SVG Version: 6.00 Build 0)  -->
<svg version="1.1" id="Layer_1" xmlns="http://www.w3.org/2000/svg" xmlns:xlink="http://www.w3.org/1999/xlink" x="0px" y="0px"
	 viewBox="0 0 100 100" style="enable-background:new 0 0 100 100;" xml:space="preserve">
<style type="text/css">
	.st0{fill:#666666;}
	.st1{fill:none;stroke:#666666;stroke-width:5;stroke-linecap:round;stroke-linejoin:round;stroke-miterlimit:10;}
	.st2{fill:#D6D6D6;}
	.st3{fill:none;stroke:#666666;stroke-width:3;stroke-linecap:round;stroke-linejoin:round;stroke-miterlimit:10;}
</style>
<g>
	<path class="st0" d="M49.4,6.9c23.7,0,43,19.3,43,43s-19.3,43-43,43s-43-19.3-43-43S25.6,6.9,49.4,6.9 M49.4,3.9
		c-25.4,0-46,20.6-46,46s20.6,46,46,46s46-20.6,46-46S74.8,3.9,49.4,3.9L49.4,3.9z"/>
</g>
<path class="st1" d="M82.8,31c0.4-0.8,0-1.5-0.4-1.9l0.4-0.4c0.4-0.4,0.4-0.8,0.4-0.8c0.8-0.8,0.8-1.9,0-2.3L79,21.5
	c-0.8-0.8-1.9-0.8-2.3,0L76,22.2c-0.8-0.4-1.5-0.8-2.3-0.4c-3.8-3-8-5.7-12.1-7.6c-5.3-2.7-10.2-3.4-14.8-3c-0.4,0-0.4,0-0.4,0
	s0,0,0,0.4c0,0.4,0,0.4,0.4,0.8c4.9,1.9,12.9,7.6,20.9,15.2c-0.4,0.8-0.4,1.9,0.4,2.7L47.5,50l-7.2-7.2v-0.4l-0.8-0.8l-1.1-1.1
	l6.5-6.5c0.8-0.8,0.8-1.9,0-2.3L33.1,19.6c-5.7-6.1-15.6-6.1-21.6,0s-6.1,15.6,0,21.6L23.2,53c0.8,0.8,1.9,0.8,2.3,0l6.5-6.5
	l1.9,1.9c0,0,0.4,0.4,0.4,0l7.2,7.2L16,81.8c-0.4,0.4-0.8,0.8-0.4,1.1c0,0.4,0,0.8,0.4,1.1l4.2,4.2c0.4,0.4,0.8,0.8,1.1,0.4
	c0.4,0,0.8,0,1.1-0.4l25.8-25.8l8.4,8.4l17.5,17.5c0.8,0.8,1.9,0.8,2.3,0l0.4-0.4l2.7-2.7l0.4-0.4c0.8-0.8,0.8-1.9,0-2.3L62.7,65.1
	l-8.4-8.4l9.9-9.9l9.9-9.9c0.8,0.4,1.9,0.8,2.7,0.4c7.6,8,13.3,15.9,15.2,20.9c0,0,0,0,0,0.4h0.4c0.4,0,0.4-0.4,0.4-0.4
	c0.4,0,0.4-0.4,0.4-0.4C93.8,50,90,39.7,82.8,31z"/>
<path class="st2" d="M82.8,31c0.4-0.8,0-1.5-0.4-1.9l0.4-0.4c0.4-0.4,0.4-0.8,0.4-0.8c0.8-0.8,0.8-1.9,0-2.3L79,21.5
	c-0.8-0.8-1.9-0.8-2.3,0L76,22.2c-0.8-0.4-1.5-0.8-2.3-0.4c-3.8-3-8-5.7-12.1-7.6c-5.3-2.7-10.2-3.4-14.8-3c-0.4,0-0.4,0-0.4,0
	s0,0,0,0.4c0,0.4,0,0.4,0.4,0.8c4.9,1.9,12.9,7.6,20.9,15.2c-0.4,0.8-0.4,1.9,0.4,2.7L47.5,50l-7.2-7.2v-0.4l-0.8-0.8l-1.1-1.1
	l6.5-6.5c0.8-0.8,0.8-1.9,0-2.3L33.1,19.6c-5.7-6.1-15.6-6.1-21.6,0s-6.1,15.6,0,21.6L23.2,53c0.8,0.8,1.9,0.8,2.3,0l6.5-6.5
	l1.9,1.9c0,0,0.4,0.4,0.4,0l7.2,7.2L16,81.8c-0.4,0.4-0.8,0.8-0.4,1.1c0,0.4,0,0.8,0.4,1.1l4.2,4.2c0.4,0.4,0.8,0.8,1.1,0.4
	c0.4,0,0.8,0,1.1-0.4l25.8-25.8l8.4,8.4l17.5,17.5c0.8,0.8,1.9,0.8,2.3,0l0.4-0.4l2.7-2.7l0.4-0.4c0.8-0.8,0.8-1.9,0-2.3L62.7,65.1
	l-8.4-8.4l9.9-9.9l9.9-9.9c0.8,0.4,1.9,0.8,2.7,0.4c7.6,8,13.3,15.9,15.2,20.9c0,0,0,0,0,0.4h0.4c0.4,0,0.4-0.4,0.4-0.4
	c0.4,0,0.4-0.4,0.4-0.4C93.8,50,90,39.7,82.8,31z"/>
<line class="st3" x1="5.8" y1="56.9" x2="88.8" y2="56.9"/>
</svg>
