<?xml version="1.0" encoding="utf-8"?>
<!-- Generator: Adobe Illustrator 25.1.0, SVG Export Plug-In . SVG Version: 6.00 Build 0)  -->
<svg version="1.1" id="ic_empty_dark_multisend" xmlns="http://www.w3.org/2000/svg" xmlns:xlink="http://www.w3.org/1999/xlink"
	 x="0px" y="0px" viewBox="0 0 100 100" style="enable-background:new 0 0 100 100;" xml:space="preserve">
<style type="text/css">
	.st0{fill:none;}
	.st1{fill:#009CE1;}
	.st2{fill:#EC2A7B;}
</style>
<path id="Rectangle_4690" class="st0" d="M0,0h100v100H0V0z"/>
<g>
	<g>
		<path class="st1" d="M26.4,66.3L26.4,66.3h-3.9c-0.2,0-0.3-0.1-0.5-0.2c-0.3-0.3-0.8-0.5-1.2-0.5l0,0h-4l0,0
			c-0.5,0-0.9,0.2-1.2,0.5c-0.1,0.1-0.3,0.2-0.5,0.2h-3.9l0,0c-1.3,0-2.4,1.1-2.4,2.4V94c0,1.3,1.1,2.4,2.4,2.4l0,0h15.3l0,0
			c1.3,0,2.4-1.1,2.4-2.4V68.7C28.9,67.3,27.8,66.3,26.4,66.3z M16.7,67.3l0.3-0.1h3.6l0.3,0.1l0,0v9.5c0,0.2-0.1,0.3-0.2,0.5
			c-0.1,0.1-0.3,0.2-0.4,0.2h-1.4h-1.4c-0.2,0-0.3-0.1-0.4-0.2s-0.2-0.3-0.2-0.5L16.7,67.3L16.7,67.3z M26.5,94.6h-7.7h-7.7
			c-0.4,0-0.7-0.3-0.7-0.7l0.1-25.3c0-0.2,0.1-0.3,0.2-0.4c0.1-0.1,0.3-0.2,0.4-0.2h3.2c0.4,0,0.7,0.3,0.7,0.7v8.2l0,0l0,0
			c0,1.3,1.1,2.4,2.4,2.4l0,0h2.7l0,0c1.3,0,2.4-1.1,2.4-2.4l0,0l0,0v-8.2c0-0.4,0.3-0.7,0.7-0.7h3.2c0.2,0,0.3,0.1,0.4,0.2
			s0.2,0.3,0.2,0.4l0.1,25.3C27.1,94.3,26.9,94.6,26.5,94.6z"/>
		<path class="st2" d="M18.8,76.4L18.8,76.4c0.6,0,1.2-0.5,1.2-1.2c0-0.6-0.5-1.2-1.2-1.2l0,0c-0.6,0-1.2,0.5-1.2,1.2
			S18.2,76.4,18.8,76.4z"/>
		<path class="st1" d="M57.5,66.3L57.5,66.3h-3.9c-0.2,0-0.3-0.1-0.5-0.2c-0.3-0.3-0.8-0.5-1.2-0.5l0,0h-4l0,0
			c-0.5,0-0.9,0.2-1.2,0.5c-0.1,0.1-0.3,0.2-0.5,0.2h-3.9l0,0c-1.3,0-2.4,1.1-2.4,2.4V94c0,1.3,1.1,2.4,2.4,2.4l0,0h15.3l0,0
			c1.3,0,2.4-1.1,2.4-2.4V68.7C59.9,67.3,58.9,66.3,57.5,66.3z M47.8,67.3l0.3-0.1h3.6l0.3,0.1v9.5c0,0.2-0.1,0.3-0.2,0.5
			c-0.1,0.1-0.3,0.2-0.4,0.2H50c-0.2,0-0.4,0-0.6,0c-0.5,0-0.9,0.1-1.3-0.2c-0.3-0.3-0.2-0.8-0.2-1.2c0-0.5,0-1.1,0-1.6
			c0-1.4,0-2.8,0-4.2C47.9,69.3,47.9,68.4,47.8,67.3C47.8,67.4,47.8,67.3,47.8,67.3z M57.6,94.6h-7.7h-7.7c-0.4,0-0.7-0.3-0.7-0.7
			l0.1-25.3c0-0.2,0.1-0.3,0.2-0.4c0.1-0.1,0.3-0.2,0.4-0.2h3.2c0.4,0,0.7,0.3,0.7,0.7v8.2l0,0l0,0c0,1.3,1.1,2.4,2.4,2.4l0,0h2.7
			l0,0c1.3,0,2.4-1.1,2.4-2.4l0,0l0,0v-8.2c0-0.4,0.3-0.7,0.7-0.7h3.2c0.2,0,0.3,0.1,0.4,0.2c0.1,0.1,0.2,0.3,0.2,0.4l0.1,25.3
			C58.2,94.3,57.9,94.6,57.6,94.6z"/>
		<path class="st2" d="M49.9,76.4L49.9,76.4c0.6,0,1.2-0.5,1.2-1.2c0-0.6-0.5-1.2-1.2-1.2l0,0c-0.6,0-1.2,0.5-1.2,1.2
			S49.3,76.4,49.9,76.4z"/>
		<path class="st1" d="M88.6,66.3L88.6,66.3h-3.9c-0.2,0-0.3-0.1-0.5-0.2c-0.3-0.3-0.8-0.5-1.2-0.5l0,0h-4l0,0
			c-0.5,0-0.9,0.2-1.2,0.5c-0.1,0.1-0.3,0.2-0.5,0.2h-3.9l0,0c-1.3,0-2.4,1.1-2.4,2.4V94c0,1.3,1.1,2.4,2.4,2.4l0,0h15.3l0,0
			c1.3,0,2.4-1.1,2.4-2.4V68.7C91,67.3,90,66.3,88.6,66.3z M78.9,67.3l0.3-0.1h3.6l0.3,0.1l0,0v9.5c0,0.2-0.1,0.3-0.2,0.5
			c-0.1,0.1-0.3,0.2-0.4,0.2h-1.4h-1.4c-0.2,0-0.3-0.1-0.4-0.2s-0.2-0.3-0.2-0.5L78.9,67.3L78.9,67.3z M88.8,94.6h-7.7h-7.7
			c-0.4,0-0.7-0.3-0.7-0.7l0.1-25.3c0-0.2,0.1-0.3,0.2-0.4s0.3-0.2,0.4-0.2h3.2c0.4,0,0.7,0.3,0.7,0.7v8.2l0,0l0,0
			c0,1.3,1.1,2.4,2.4,2.4l0,0h2.7l0,0c1.3,0,2.4-1.1,2.4-2.4l0,0l0,0v-8.2c0-0.4,0.3-0.7,0.7-0.7h3.2c0.2,0,0.3,0.1,0.4,0.2
			s0.2,0.3,0.2,0.4l0.1,25.3C89.3,94.3,89,94.6,88.8,94.6z"/>
		<path class="st2" d="M81,76.4L81,76.4c0.6,0,1.2-0.5,1.2-1.2c0-0.6-0.5-1.2-1.2-1.2l0,0c-0.6,0-1.2,0.5-1.2,1.2S80.3,76.4,81,76.4
			z"/>
		<path class="st1" d="M18.8,63.7c0.6,0,1-0.4,1-1v-7.4h29.1v6.3c0,0.6,0.4,1,1,1s1-0.4,1-1v-6.3H80v7c0,0.6,0.4,1,1,1s1-0.4,1-1v-7
			c0-1.1-0.9-2-2-2H50.9v-5.2c0-0.6-0.4-1-1-1s-1,0.4-1,1v5.2H19.8c-1.1,0-2,0.9-2,2v7.4C17.8,63.2,18.3,63.7,18.8,63.7z"/>
	</g>
	<g>
		<path class="st2" d="M22.4,86.8c0-2.1-1.6-3.7-3.6-3.7c-1.9,0-3.4,1.4-3.6,3.3c0,0.2,0.1,0.3,0.3,0.3c0.2,0,0.3-0.1,0.3-0.2
			c0.2-1.6,1.5-2.8,3.1-2.8c1.7,0,3.1,1.4,3.1,3.2c0,1.8-1.4,3.2-3.1,3.2c-0.7,0-1.5-0.3-2-0.8c-0.5-0.5-0.9-1.2-1-1.9
			c0-0.1-0.2-0.2-0.3-0.2c-0.1,0-0.1,0.1-0.2,0.1c0,0.1-0.1,0.1,0,0.2c0.1,0.9,0.6,1.7,1.2,2.2c0.7,0.6,1.5,0.9,2.4,0.9
			c1,0,1.9-0.4,2.5-1.1C22,88.8,22.4,87.8,22.4,86.8z"/>
		<path class="st2" d="M18.8,84.8c0.5,0,1,0.2,1.3,0.6c0.2,0.2,0.3,0.3,0.4,0.6c0.1,0.1,0.2,0.2,0.4,0.1c0.1,0,0.1-0.1,0.1-0.2
			c0-0.1,0-0.2,0-0.2c-0.1-0.3-0.3-0.5-0.5-0.7c-0.5-0.5-1.1-0.8-1.7-0.8c-0.7,0-1.3,0.3-1.8,0.8c-0.5,0.5-0.8,1.1-0.8,1.9
			c0,0.7,0.3,1.4,0.8,1.8c0.5,0.5,1.1,0.8,1.8,0.8c0.6,0,1.3-0.3,1.7-0.8c0.3-0.3,0.5-0.6,0.6-1c0-0.1,0-0.1,0-0.2
			c0-0.1-0.1-0.1-0.2-0.1c-0.1,0-0.1,0-0.2,0c-0.1,0-0.1,0.1-0.2,0.2c-0.1,0.3-0.3,0.6-0.5,0.8c-0.4,0.4-0.8,0.6-1.3,0.6
			c-0.5,0-1-0.2-1.4-0.6c-0.4-0.4-0.6-0.9-0.6-1.5c0-0.5,0.2-1.1,0.6-1.5C17.8,85,18.2,84.8,18.8,84.8z"/>
		<path class="st1" d="M14.5,88.7c0.3,0.8,0.9,1.4,1.6,1.9c0.8,0.5,1.7,0.8,2.6,0.8c0.7,0,1.4-0.2,2-0.5c0.1,0,0.2,0,0.2,0
			c0.1-0.1,0.1-0.2,0.1-0.3c-0.1-0.1-0.2-0.1-0.3-0.1c-0.1,0-0.1,0.1-0.1,0.2c-0.6,0.3-1.3,0.5-1.9,0.5c-0.9,0-1.7-0.3-2.5-0.8
			c-0.7-0.5-1.2-1.1-1.5-1.8c0-0.1,0-0.1,0-0.2l0,0c0-0.1-0.2-0.2-0.3-0.2c-0.1,0-0.2,0.2-0.1,0.3C14.4,88.6,14.4,88.6,14.5,88.7z"
			/>
		<path class="st1" d="M22.7,85.6c0,0.1,0.1,0.2,0.2,0.2c0,0,0,0,0.1,0c0.1,0,0.1,0,0.1-0.1c0-0.1,0-0.1,0-0.2
			c0-0.1-0.1-0.1-0.2-0.2c-0.3-0.8-0.8-1.6-1.6-2.2c-0.8-0.6-1.7-0.9-2.8-0.9c-0.9,0-1.7,0.2-2.4,0.7c-0.6,0.4-1.2,1-1.6,1.7
			c-0.1,0-0.1,0-0.2,0.1c0,0.1,0,0.1,0,0.2c0,0.1,0.1,0.1,0.1,0.1c0.1,0,0.1,0,0.2,0c0.1,0,0.1-0.1,0.1-0.1c0-0.1,0-0.1,0-0.2
			c0.3-0.6,0.8-1.1,1.5-1.5c0.7-0.4,1.5-0.7,2.3-0.7c0.9,0,1.8,0.3,2.6,0.9c0.7,0.5,1.2,1.2,1.5,2C22.7,85.5,22.7,85.5,22.7,85.6z"
			/>
		<path class="st1" d="M20.3,91.9L20.3,91.9c0.1,0,0.2-0.2,0.2-0.3c0-0.1-0.1-0.1-0.1-0.1c-0.1,0-0.1,0-0.2,0
			c-0.1,0-0.1,0.1-0.1,0.1c-0.4,0.1-0.8,0.2-1.3,0.2c-1.3,0-2.5-0.5-3.4-1.4c-0.9-0.9-1.4-2-1.5-3.2c0.1,0,0.1-0.1,0.1-0.2
			c0-0.1-0.1-0.2-0.2-0.2c-0.1,0-0.2,0.1-0.2,0.2c0,0.1,0,0.1,0.1,0.2c0.1,1.3,0.6,2.5,1.6,3.4c1,1,2.3,1.5,3.6,1.5
			c0.5,0,0.9-0.1,1.4-0.2C20.2,91.9,20.2,91.9,20.3,91.9z"/>
		<path class="st1" d="M22.1,82.8c0-0.1,0-0.1-0.1-0.2c-0.1,0-0.1-0.1-0.2,0c-0.1,0-0.1,0-0.2,0.1c-0.1,0.1-0.1,0.3,0,0.3
			c0.1,0.1,0.1,0.1,0.2,0.1c1.1,1,1.8,2.3,1.8,3.8c0,0.6-0.1,1.1-0.2,1.5c-0.1,0-0.1,0.1-0.2,0.1c0,0.1,0,0.1,0,0.2
			c0,0.1,0.1,0.1,0.1,0.1c0,0,0.1,0,0.1,0c0,0,0.1,0,0.1,0c0.1,0,0.1-0.1,0.1-0.1c0-0.1,0-0.2,0-0.2c0.2-0.5,0.2-1,0.2-1.6
			C24,85.3,23.3,83.9,22.1,82.8z"/>
		<path class="st1" d="M18.7,81.9c0.4,0,0.9,0.1,1.3,0.2c0,0.1,0.1,0.1,0.2,0.1c0.1,0,0.1,0,0.2,0c0.1,0,0.1-0.1,0.1-0.1
			c0-0.1,0-0.3-0.2-0.3c-0.1,0-0.2,0-0.2,0c-0.5-0.1-1-0.2-1.4-0.2c-1.6,0-3.2,0.8-4.2,2.1c-0.1,0-0.1,0-0.2,0.1l0,0v0
			c0,0.1,0,0.2,0.1,0.3c0,0,0.1,0,0.1,0c0,0,0,0,0.1,0c0,0,0.1-0.1,0.1-0.1c0-0.1,0-0.1,0-0.2C15.7,82.7,17.2,81.9,18.7,81.9z"/>
		<path class="st1" d="M17.2,81.5L17.2,81.5c0.1,0,0.1-0.1,0.1-0.1c0.4-0.1,0.9-0.2,1.3-0.2c2.5,0,4.7,1.6,5.4,4c0,0-0.1,0.1,0,0.2
			c0,0.1,0.1,0.2,0.2,0.2c0,0,0,0,0.1,0c0.1,0,0.2-0.2,0.2-0.3c0-0.1-0.1-0.1-0.1-0.2c-0.7-2.5-3.1-4.2-5.7-4.2
			c-0.5,0-1,0.1-1.4,0.2c-0.1,0-0.1-0.1-0.2,0c-0.1,0-0.2,0.2-0.1,0.3C17,81.4,17.1,81.5,17.2,81.5z"/>
		<path class="st1" d="M13.3,88.4c-0.1-0.5-0.2-1-0.2-1.5c0-1.8,0.9-3.6,2.4-4.6c0.1,0,0.2,0,0.2,0c0.1,0,0.1-0.1,0.1-0.2
			c0-0.1,0-0.1,0-0.2c0-0.1-0.1-0.1-0.2-0.1c-0.1,0-0.1,0-0.2,0c-0.1,0-0.1,0.1-0.1,0.2c-1.6,1.2-2.5,3-2.5,4.9
			c0,0.5,0.1,1.1,0.2,1.6c0,0-0.1,0.1,0,0.2c0,0.1,0.1,0.2,0.2,0.2c0,0,0,0,0.1,0c0.1,0,0.1-0.1,0.1-0.1c0-0.1,0-0.1,0-0.2
			C13.4,88.4,13.4,88.4,13.3,88.4z"/>
		<path class="st1" d="M18,92.4c-0.1,0-0.2,0-0.2,0.1c-0.8-0.1-1.6-0.4-2.2-0.9c-0.7-0.4-1.2-1-1.6-1.7c0-0.1,0-0.2,0-0.2
			c0-0.1-0.1-0.1-0.2-0.1c-0.1,0-0.1,0-0.2,0c-0.1,0.1-0.1,0.2-0.1,0.3c0,0.1,0.1,0.1,0.2,0.1c0.4,0.7,1,1.3,1.7,1.8
			c0.7,0.5,1.5,0.8,2.4,0.9c0,0.1,0.1,0.1,0.1,0.1l0,0c0.1,0,0.2-0.1,0.3-0.2c0-0.1,0-0.1,0-0.2C18.2,92.4,18.1,92.4,18,92.4z"/>
		<path class="st1" d="M24.5,86.8c-0.1,0-0.2,0.1-0.2,0.2c0,0.1,0,0.2,0.1,0.2c-0.1,1.2-0.6,2.4-1.3,3.3c-0.8,0.9-1.9,1.6-3,1.8
			c0,0-0.1-0.1-0.2-0.1l0,0c-0.1,0-0.1,0.1-0.2,0.1c0,0,0,0.1,0,0.1c0,0.1,0.1,0.1,0.1,0.2c0,0,0.1,0,0.1,0c0,0,0,0,0,0
			c0.1,0,0.2-0.1,0.2-0.1c1.2-0.3,2.4-1,3.2-1.9c0.8-1,1.3-2.2,1.4-3.5c0.1,0,0.1-0.1,0.1-0.2C24.8,86.9,24.7,86.8,24.5,86.8z"/>
	</g>
	<g>
		<path class="st2" d="M53.4,86.8c0-2.1-1.6-3.7-3.6-3.7c-1.9,0-3.4,1.4-3.6,3.3c0,0.2,0.1,0.3,0.3,0.3c0.2,0,0.3-0.1,0.3-0.2
			c0.2-1.6,1.5-2.8,3.1-2.8c1.7,0,3.1,1.4,3.1,3.2c0,1.8-1.4,3.2-3.1,3.2c-0.7,0-1.5-0.3-2-0.8c-0.5-0.5-0.9-1.2-1-1.9
			c0-0.1-0.2-0.2-0.3-0.2c-0.1,0-0.1,0.1-0.2,0.1c0,0.1-0.1,0.1,0,0.2c0.1,0.9,0.6,1.7,1.2,2.2c0.7,0.6,1.5,0.9,2.4,0.9
			c1,0,1.9-0.4,2.5-1.1C53,88.8,53.4,87.8,53.4,86.8z"/>
		<path class="st2" d="M49.8,84.8c0.5,0,1,0.2,1.3,0.6c0.2,0.2,0.3,0.3,0.4,0.6c0.1,0.1,0.2,0.2,0.4,0.1c0.1,0,0.1-0.1,0.1-0.2
			c0-0.1,0-0.2,0-0.2c-0.1-0.3-0.3-0.5-0.5-0.7c-0.5-0.5-1.1-0.8-1.7-0.8c-0.7,0-1.3,0.3-1.8,0.8c-0.5,0.5-0.8,1.1-0.8,1.9
			c0,0.7,0.3,1.4,0.8,1.8c0.5,0.5,1.1,0.8,1.8,0.8c0.6,0,1.3-0.3,1.7-0.8c0.3-0.3,0.5-0.6,0.6-1c0-0.1,0-0.1,0-0.2
			c0-0.1-0.1-0.1-0.2-0.1c-0.1,0-0.1,0-0.2,0c-0.1,0-0.1,0.1-0.2,0.2c-0.1,0.3-0.3,0.6-0.5,0.8c-0.4,0.4-0.8,0.6-1.3,0.6
			c-0.5,0-1-0.2-1.4-0.6c-0.4-0.4-0.6-0.9-0.6-1.5c0-0.5,0.2-1.1,0.6-1.5C48.8,85,49.3,84.8,49.8,84.8z"/>
		<path class="st1" d="M45.6,88.7c0.3,0.8,0.9,1.4,1.6,1.9c0.8,0.5,1.7,0.8,2.6,0.8c0.7,0,1.4-0.2,2-0.5c0.1,0,0.2,0,0.2,0
			c0.1-0.1,0.1-0.2,0.1-0.3c-0.1-0.1-0.2-0.1-0.3-0.1c-0.1,0-0.1,0.1-0.1,0.2c-0.6,0.3-1.3,0.5-1.9,0.5c-0.9,0-1.7-0.3-2.5-0.8
			c-0.7-0.5-1.2-1.1-1.5-1.8c0-0.1,0-0.1,0-0.2l0,0c0-0.1-0.2-0.2-0.3-0.2c-0.1,0-0.2,0.2-0.1,0.3C45.4,88.6,45.5,88.6,45.6,88.7z"
			/>
		<path class="st1" d="M53.8,85.6c0,0.1,0.1,0.2,0.2,0.2c0,0,0,0,0.1,0c0.1,0,0.1,0,0.1-0.1c0-0.1,0-0.1,0-0.2
			c0-0.1-0.1-0.1-0.2-0.2c-0.3-0.8-0.8-1.6-1.6-2.2c-0.8-0.6-1.7-0.9-2.8-0.9c-0.9,0-1.7,0.2-2.4,0.7c-0.6,0.4-1.2,1-1.6,1.7
			c-0.1,0-0.1,0-0.2,0.1c0,0.1,0,0.1,0,0.2c0,0.1,0.1,0.1,0.1,0.1c0.1,0,0.1,0,0.2,0c0.1,0,0.1-0.1,0.1-0.1c0-0.1,0-0.1,0-0.2
			c0.3-0.6,0.8-1.1,1.5-1.5c0.7-0.4,1.5-0.7,2.3-0.7c0.9,0,1.8,0.3,2.6,0.9c0.7,0.5,1.2,1.2,1.5,2C53.8,85.5,53.7,85.5,53.8,85.6z"
			/>
		<path class="st1" d="M51.3,91.9L51.3,91.9c0.1,0,0.2-0.2,0.2-0.3c0-0.1-0.1-0.1-0.1-0.1c-0.1,0-0.1,0-0.2,0
			c-0.1,0-0.1,0.1-0.1,0.1c-0.4,0.1-0.8,0.2-1.3,0.2c-1.3,0-2.5-0.5-3.4-1.4c-0.9-0.9-1.4-2-1.5-3.2c0.1,0,0.1-0.1,0.1-0.2
			c0-0.1-0.1-0.2-0.2-0.2c-0.1,0-0.2,0.1-0.2,0.2c0,0.1,0,0.1,0.1,0.2c0.1,1.3,0.6,2.5,1.6,3.4c1,1,2.3,1.5,3.6,1.5
			c0.5,0,0.9-0.1,1.4-0.2C51.2,91.9,51.3,91.9,51.3,91.9z"/>
		<path class="st1" d="M53.2,82.8c0-0.1,0-0.1-0.1-0.2c-0.1,0-0.1-0.1-0.2,0c-0.1,0-0.1,0-0.2,0.1c-0.1,0.1-0.1,0.3,0,0.3
			c0.1,0.1,0.1,0.1,0.2,0.1c1.1,1,1.8,2.3,1.8,3.8c0,0.6-0.1,1.1-0.2,1.5c-0.1,0-0.1,0.1-0.2,0.1c0,0.1,0,0.1,0,0.2
			c0,0.1,0.1,0.1,0.1,0.1c0,0,0.1,0,0.1,0c0,0,0.1,0,0.1,0c0.1,0,0.1-0.1,0.1-0.1c0-0.1,0-0.2,0-0.2c0.2-0.5,0.2-1,0.2-1.6
			C55,85.3,54.4,83.9,53.2,82.8z"/>
		<path class="st1" d="M49.8,81.9c0.4,0,0.9,0.1,1.3,0.2c0,0.1,0.1,0.1,0.2,0.1c0.1,0,0.1,0,0.2,0c0.1,0,0.1-0.1,0.1-0.1
			c0-0.1,0-0.3-0.2-0.3c-0.1,0-0.2,0-0.2,0c-0.5-0.1-1-0.2-1.4-0.2c-1.6,0-3.2,0.8-4.2,2.1c-0.1,0-0.1,0-0.2,0.1l0,0v0
			c0,0.1,0,0.2,0.1,0.3c0,0,0.1,0,0.1,0c0,0,0,0,0.1,0c0,0,0.1-0.1,0.1-0.1c0-0.1,0-0.1,0-0.2C46.7,82.7,48.2,81.9,49.8,81.9z"/>
		<path class="st1" d="M48.3,81.5L48.3,81.5c0.1,0,0.1-0.1,0.1-0.1c0.4-0.1,0.9-0.2,1.3-0.2c2.5,0,4.7,1.6,5.4,4c0,0-0.1,0.1,0,0.2
			c0,0.1,0.1,0.2,0.2,0.2c0,0,0,0,0.1,0c0.1,0,0.2-0.2,0.2-0.3c0-0.1-0.1-0.1-0.1-0.2c-0.7-2.5-3.1-4.2-5.7-4.2
			c-0.5,0-1,0.1-1.4,0.2c-0.1,0-0.1-0.1-0.2,0C48,81,48,81.2,48,81.3C48.1,81.4,48.2,81.5,48.3,81.5z"/>
		<path class="st1" d="M44.3,88.4c-0.1-0.5-0.2-1-0.2-1.5c0-1.8,0.9-3.6,2.4-4.6c0.1,0,0.2,0,0.2,0c0.1,0,0.1-0.1,0.1-0.2
			c0-0.1,0-0.1,0-0.2c0-0.1-0.1-0.1-0.2-0.1c-0.1,0-0.1,0-0.2,0c-0.1,0-0.1,0.1-0.1,0.2c-1.6,1.2-2.5,3-2.5,4.9
			c0,0.5,0.1,1.1,0.2,1.6c0,0-0.1,0.1,0,0.2c0,0.1,0.1,0.2,0.2,0.2c0,0,0,0,0.1,0c0.1,0,0.1-0.1,0.1-0.1c0-0.1,0-0.1,0-0.2
			C44.5,88.4,44.4,88.4,44.3,88.4z"/>
		<path class="st1" d="M49.1,92.4c-0.1,0-0.2,0-0.2,0.1c-0.8-0.1-1.6-0.4-2.2-0.9c-0.7-0.4-1.2-1-1.6-1.7c0-0.1,0-0.2,0-0.2
			c0-0.1-0.1-0.1-0.2-0.1c-0.1,0-0.1,0-0.2,0c-0.1,0.1-0.1,0.2-0.1,0.3c0,0.1,0.1,0.1,0.2,0.1c0.4,0.7,1,1.3,1.7,1.8
			c0.7,0.5,1.5,0.8,2.4,0.9c0,0.1,0.1,0.1,0.1,0.1l0,0c0.1,0,0.2-0.1,0.3-0.2c0-0.1,0-0.1,0-0.2C49.2,92.4,49.2,92.4,49.1,92.4z"/>
		<path class="st1" d="M55.6,86.8c-0.1,0-0.2,0.1-0.2,0.2c0,0.1,0,0.2,0.1,0.2c-0.1,1.2-0.6,2.4-1.3,3.3c-0.8,0.9-1.9,1.6-3,1.8
			c0,0-0.1-0.1-0.2-0.1l0,0c-0.1,0-0.1,0.1-0.2,0.1c0,0,0,0.1,0,0.1c0,0.1,0.1,0.1,0.1,0.2c0,0,0.1,0,0.1,0c0,0,0,0,0,0
			c0.1,0,0.2-0.1,0.2-0.1c1.2-0.3,2.4-1,3.2-1.9c0.8-1,1.3-2.2,1.4-3.5c0.1,0,0.1-0.1,0.1-0.2C55.9,86.9,55.7,86.8,55.6,86.8z"/>
	</g>
	<g>
		<path class="st2" d="M84.8,86.8c0-2.1-1.6-3.7-3.6-3.7c-1.9,0-3.4,1.4-3.6,3.3c0,0.2,0.1,0.3,0.3,0.3c0.2,0,0.3-0.1,0.3-0.2
			c0.2-1.6,1.5-2.8,3.1-2.8c1.7,0,3.1,1.4,3.1,3.2c0,1.8-1.4,3.2-3.1,3.2c-0.7,0-1.5-0.3-2-0.8c-0.5-0.5-0.9-1.2-1-1.9
			c0-0.1-0.2-0.2-0.3-0.2c-0.1,0-0.1,0.1-0.2,0.1c0,0.1-0.1,0.1,0,0.2c0.1,0.9,0.6,1.7,1.2,2.2c0.7,0.6,1.5,0.9,2.4,0.9
			c1,0,1.9-0.4,2.5-1.1C84.4,88.8,84.8,87.8,84.8,86.8z"/>
		<path class="st2" d="M81.2,84.8c0.5,0,1,0.2,1.3,0.6c0.2,0.2,0.3,0.3,0.4,0.6c0.1,0.1,0.2,0.2,0.4,0.1c0.1,0,0.1-0.1,0.1-0.2
			c0-0.1,0-0.2,0-0.2c-0.1-0.3-0.3-0.5-0.5-0.7c-0.5-0.5-1.1-0.8-1.7-0.8c-0.7,0-1.3,0.3-1.8,0.8c-0.5,0.5-0.8,1.1-0.8,1.9
			c0,0.7,0.3,1.4,0.8,1.8c0.5,0.5,1.1,0.8,1.8,0.8c0.6,0,1.3-0.3,1.7-0.8c0.3-0.3,0.5-0.6,0.6-1c0-0.1,0-0.1,0-0.2
			c0-0.1-0.1-0.1-0.2-0.1c-0.1,0-0.1,0-0.2,0c-0.1,0-0.1,0.1-0.2,0.2c-0.1,0.3-0.3,0.6-0.5,0.8c-0.4,0.4-0.8,0.6-1.3,0.6
			c-0.5,0-1-0.2-1.4-0.6c-0.4-0.4-0.6-0.9-0.6-1.5c0-0.5,0.2-1.1,0.6-1.5C80.2,85,80.7,84.8,81.2,84.8z"/>
		<path class="st1" d="M76.9,88.6c0.3,0.8,0.9,1.4,1.6,1.9c0.8,0.5,1.7,0.8,2.6,0.8c0.7,0,1.4-0.2,2-0.5c0.1,0,0.2,0,0.2,0
			c0.1-0.1,0.1-0.2,0.1-0.3c-0.1-0.1-0.2-0.1-0.3-0.1c-0.1,0-0.1,0.1-0.1,0.2c-0.6,0.3-1.3,0.5-1.9,0.5c-0.9,0-1.7-0.3-2.5-0.8
			c-0.7-0.5-1.2-1.1-1.5-1.8c0-0.1,0-0.1,0-0.2l0,0c0-0.1-0.2-0.2-0.3-0.2c-0.1,0-0.2,0.2-0.1,0.3C76.8,88.6,76.9,88.6,76.9,88.6z"
			/>
		<path class="st1" d="M85.1,85.6c0,0.1,0.1,0.2,0.2,0.2c0,0,0,0,0.1,0c0.1,0,0.1,0,0.1-0.1c0-0.1,0-0.1,0-0.2
			c0-0.1-0.1-0.1-0.2-0.2c-0.3-0.8-0.8-1.6-1.6-2.2c-0.8-0.6-1.7-0.9-2.8-0.9c-0.9,0-1.7,0.2-2.4,0.7c-0.6,0.4-1.2,1-1.6,1.7
			c-0.1,0-0.1,0-0.2,0.1c0,0.1,0,0.1,0,0.2C76.9,85,77,85,77,85c0.1,0,0.1,0,0.2,0c0.1,0,0.1-0.1,0.1-0.1c0-0.1,0-0.1,0-0.2
			c0.3-0.6,0.8-1.1,1.5-1.5c0.7-0.4,1.5-0.7,2.3-0.7c0.9,0,1.8,0.3,2.6,0.9c0.7,0.5,1.2,1.2,1.5,2C85.1,85.4,85.1,85.5,85.1,85.6z"
			/>
		<path class="st1" d="M82.7,91.9L82.7,91.9c0.1,0,0.2-0.2,0.2-0.3c0-0.1-0.1-0.1-0.1-0.1c-0.1,0-0.1,0-0.2,0
			c-0.1,0-0.1,0.1-0.1,0.1c-0.4,0.1-0.8,0.2-1.3,0.2c-1.3,0-2.5-0.5-3.4-1.4c-0.9-0.9-1.4-2-1.5-3.2c0.1,0,0.1-0.1,0.1-0.2
			c0-0.1-0.1-0.2-0.2-0.2c-0.1,0-0.2,0.1-0.2,0.2c0,0.1,0,0.1,0.1,0.2c0.1,1.3,0.6,2.5,1.6,3.4c1,1,2.3,1.5,3.6,1.5
			c0.5,0,0.9-0.1,1.4-0.2C82.6,91.9,82.7,91.9,82.7,91.9z"/>
		<path class="st1" d="M84.5,82.8c0-0.1,0-0.1-0.1-0.2c-0.1,0-0.1-0.1-0.2,0c-0.1,0-0.1,0-0.2,0.1c-0.1,0.1-0.1,0.3,0,0.3
			c0.1,0.1,0.1,0.1,0.2,0.1c1.1,1,1.8,2.3,1.8,3.8c0,0.6-0.1,1.1-0.2,1.5c-0.1,0-0.1,0.1-0.2,0.1c0,0.1,0,0.1,0,0.2
			c0,0.1,0.1,0.1,0.1,0.1c0,0,0.1,0,0.1,0c0,0,0.1,0,0.1,0c0.1,0,0.1-0.1,0.1-0.1c0-0.1,0-0.2,0-0.2c0.2-0.5,0.2-1,0.2-1.6
			C86.4,85.3,85.7,83.8,84.5,82.8z"/>
		<path class="st1" d="M81.2,81.9c0.4,0,0.9,0.1,1.3,0.2c0,0.1,0.1,0.1,0.2,0.1c0.1,0,0.1,0,0.2,0c0.1,0,0.1-0.1,0.1-0.1
			c0-0.1,0-0.3-0.2-0.3c-0.1,0-0.2,0-0.2,0c-0.5-0.1-1-0.2-1.4-0.2c-1.6,0-3.2,0.8-4.2,2.1c-0.1,0-0.1,0-0.2,0.1l0,0v0
			c0,0.1,0,0.2,0.1,0.3c0,0,0.1,0,0.1,0c0,0,0,0,0.1,0c0,0,0.1-0.1,0.1-0.1c0-0.1,0-0.1,0-0.2C78.1,82.6,79.6,81.9,81.2,81.9z"/>
		<path class="st1" d="M79.7,81.4L79.7,81.4c0.1,0,0.1-0.1,0.1-0.1c0.4-0.1,0.9-0.2,1.3-0.2c2.5,0,4.7,1.6,5.4,4c0,0-0.1,0.1,0,0.2
			c0,0.1,0.1,0.2,0.2,0.2c0,0,0,0,0.1,0c0.1,0,0.2-0.2,0.2-0.3c0-0.1-0.1-0.1-0.1-0.2c-0.7-2.5-3.1-4.2-5.7-4.2
			c-0.5,0-1,0.1-1.4,0.2c-0.1,0-0.1-0.1-0.2,0c-0.1,0-0.2,0.2-0.1,0.3C79.4,81.4,79.5,81.5,79.7,81.4z"/>
		<path class="st1" d="M75.7,88.3c-0.1-0.5-0.2-1-0.2-1.5c0-1.8,0.9-3.6,2.4-4.6c0.1,0,0.2,0,0.2,0c0.1,0,0.1-0.1,0.1-0.2
			c0-0.1,0-0.1,0-0.2c0-0.1-0.1-0.1-0.2-0.1c-0.1,0-0.1,0-0.2,0c-0.1,0-0.1,0.1-0.1,0.2c-1.6,1.2-2.5,3-2.5,4.9
			c0,0.5,0.1,1.1,0.2,1.6c0,0-0.1,0.1,0,0.2c0,0.1,0.1,0.2,0.2,0.2c0,0,0,0,0.1,0c0.1,0,0.1-0.1,0.1-0.1c0-0.1,0-0.1,0-0.2
			C75.9,88.4,75.8,88.4,75.7,88.3z"/>
		<path class="st1" d="M80.5,92.3c-0.1,0-0.2,0-0.2,0.1c-0.8-0.1-1.6-0.4-2.2-0.9c-0.7-0.4-1.2-1-1.6-1.7c0-0.1,0-0.2,0-0.2
			c0-0.1-0.1-0.1-0.2-0.1c-0.1,0-0.1,0-0.2,0c-0.1,0.1-0.1,0.2-0.1,0.3c0,0.1,0.1,0.1,0.2,0.1c0.4,0.7,1,1.3,1.7,1.8
			c0.7,0.5,1.5,0.8,2.4,0.9c0,0.1,0.1,0.1,0.1,0.1l0,0c0.1,0,0.2-0.1,0.3-0.2c0-0.1,0-0.1,0-0.2C80.6,92.4,80.5,92.3,80.5,92.3z"/>
		<path class="st1" d="M87,86.7c-0.1,0-0.2,0.1-0.2,0.2c0,0.1,0,0.2,0.1,0.2c-0.1,1.2-0.6,2.4-1.3,3.3c-0.8,0.9-1.9,1.6-3,1.8
			c0,0-0.1-0.1-0.2-0.1l0,0c-0.1,0-0.1,0.1-0.2,0.1c0,0,0,0.1,0,0.1c0,0.1,0.1,0.1,0.1,0.2c0,0,0.1,0,0.1,0c0,0,0,0,0,0
			c0.1,0,0.2-0.1,0.2-0.1c1.2-0.3,2.4-1,3.2-1.9c0.8-1,1.3-2.2,1.4-3.5c0.1,0,0.1-0.1,0.1-0.2C87.2,86.8,87.1,86.7,87,86.7z"/>
	</g>
</g>
<g>
	<path class="st2" d="M62,24.4c0-6.9-5.5-12.5-12.1-12.5c-6.2,0-11.4,4.8-12.1,11.1c0,0.6,0.4,1,0.9,1c0.6,0,1-0.4,1-0.8
		c0.6-5.4,5-9.5,10.3-9.5c5.7,0,10.4,4.8,10.4,10.7s-4.6,10.7-10.4,10.7c-2.5,0-4.9-0.9-6.7-2.5c-1.8-1.7-3-3.9-3.5-6.4
		c-0.1-0.5-0.6-0.8-1.1-0.7c-0.2,0.1-0.4,0.2-0.6,0.4c-0.1,0.2-0.2,0.5-0.1,0.7c0.4,2.9,1.9,5.6,4,7.5c2.2,1.9,5.1,3,7.9,3
		c3.2,0,6.2-1.3,8.5-3.5C60.8,31.1,62,27.9,62,24.4z"/>
	<path class="st2" d="M50,17.7c1.7,0,3.3,0.7,4.5,1.9c0.5,0.5,0.9,1.1,1.3,2c0.2,0.5,0.8,0.7,1.3,0.5c0.2-0.1,0.4-0.3,0.5-0.5
		c0.1-0.2,0.1-0.5,0-0.7c-0.4-1-1-1.8-1.7-2.4c-1.5-1.6-3.6-2.5-5.8-2.5c-2.4,0-4.4,0.9-6,2.5c-1.6,1.6-2.5,3.8-2.5,6.3
		c0,2.3,0.9,4.6,2.5,6.2c1.7,1.7,3.8,2.6,6,2.6c2.2,0,4.3-1,5.7-2.6c0.9-0.9,1.6-2.1,2.1-3.4c0.1-0.2,0.1-0.5,0-0.7
		c-0.1-0.3-0.3-0.4-0.5-0.5c-0.2-0.1-0.5-0.1-0.7,0c-0.3,0.1-0.4,0.3-0.5,0.6c-0.3,1.1-0.9,2-1.6,2.8c-1.2,1.3-2.8,2-4.4,2
		c-1.7,0-3.3-0.7-4.6-2c-1.2-1.2-1.9-3-1.9-4.9c0-1.8,0.7-3.6,2-5C46.6,18.4,48.2,17.7,50,17.7z"/>
	<path class="st1" d="M35.7,30.6c1.1,2.6,2.9,4.8,5.3,6.4c2.6,1.8,5.6,2.7,8.7,2.7c2.3,0,4.6-0.6,6.7-1.6c0.2,0.1,0.5,0.1,0.8,0
		c0.4-0.3,0.5-0.8,0.2-1.1c-0.3-0.4-0.8-0.5-1.1-0.3c-0.2,0.1-0.3,0.4-0.4,0.6c-2,1-4.2,1.5-6.3,1.5c-2.9,0-5.8-0.9-8.2-2.6
		c-2.2-1.6-3.9-3.6-4.9-6c0.1-0.2,0.1-0.4,0.1-0.6l0-0.1c-0.1-0.4-0.6-0.6-1-0.5c-0.4,0.1-0.6,0.6-0.5,1
		C35.3,30.4,35.5,30.5,35.7,30.6z"/>
	<path class="st1" d="M63.2,20.4c0.1,0.3,0.4,0.5,0.7,0.5c0.1,0,0.1,0,0.2,0c0.2,0,0.4-0.1,0.5-0.3c0.1-0.2,0.2-0.4,0.1-0.6
		c-0.1-0.3-0.3-0.5-0.5-0.5c-0.9-2.8-2.8-5.3-5.2-7.3c-2.6-2-5.8-3.1-9.3-3.1c-2.9,0-5.7,0.8-8.1,2.4c-2.1,1.3-3.9,3.2-5.3,5.5
		c-0.2,0-0.5,0.1-0.6,0.4c-0.1,0.2-0.1,0.4-0.1,0.6c0.1,0.2,0.2,0.4,0.4,0.5c0.2,0.1,0.4,0.1,0.6,0.1c0.2-0.1,0.4-0.3,0.5-0.4
		c0.1-0.2,0.1-0.5,0-0.7c1.1-2.1,2.8-3.8,4.9-5.2c2.3-1.5,4.9-2.2,7.7-2.2c3.1,0,6.1,1,8.7,2.9c2.3,1.7,4,4,4.9,6.7
		C63.2,19.9,63.1,20.1,63.2,20.4z"/>
	<path class="st1" d="M55.1,41.5L55.1,41.5c0.5-0.1,0.7-0.6,0.6-1c-0.1-0.2-0.2-0.3-0.4-0.4c-0.2-0.1-0.4-0.1-0.6,0
		c-0.2,0.1-0.4,0.3-0.4,0.4c-1.3,0.4-2.7,0.5-4.3,0.5c-4.3,0-8.4-1.7-11.5-4.6c-2.9-2.8-4.7-6.6-5-10.7c0.2-0.2,0.3-0.4,0.3-0.6
		c0-0.4-0.4-0.8-0.8-0.8c-0.4,0-0.8,0.4-0.8,0.8c0,0.3,0.1,0.5,0.3,0.7c0.3,4.2,2.1,8.3,5.2,11.3c3.3,3.2,7.6,5,12.2,5
		c1.7,0,3.2-0.2,4.6-0.6C54.7,41.5,54.9,41.5,55.1,41.5z"/>
	<path class="st1" d="M61.2,11.1c0-0.2-0.1-0.5-0.3-0.7c-0.2-0.1-0.4-0.2-0.6-0.2c-0.2,0-0.4,0.1-0.5,0.3c-0.3,0.4-0.2,0.9,0.1,1.1
		c0.2,0.2,0.5,0.2,0.7,0.2c3.8,3.2,5.9,7.6,5.9,12.6c0,1.9-0.3,3.5-0.8,5.1c-0.2,0.1-0.4,0.3-0.6,0.5c-0.1,0.2-0.1,0.5,0.1,0.7
		c0.1,0.2,0.3,0.3,0.4,0.3c0.1,0,0.2,0,0.3,0c0.1,0,0.3,0,0.4-0.1c0.2-0.1,0.3-0.3,0.3-0.4c0.1-0.3,0-0.6-0.1-0.7
		c0.5-1.7,0.8-3.4,0.8-5.3C67.4,19.4,65.2,14.5,61.2,11.1z"/>
	<path class="st1" d="M49.9,8c1.4,0,2.9,0.2,4.4,0.6C54.4,8.8,54.6,9,54.9,9c0.2,0,0.4,0,0.6-0.1c0.2-0.1,0.3-0.3,0.4-0.4
		c0.1-0.4-0.1-0.9-0.5-1c-0.3-0.1-0.6,0-0.7,0.1C53,7.2,51.4,7,49.8,7c-5.5,0-10.8,2.7-14.1,7.2c-0.2,0-0.5,0.1-0.7,0.4l0,0.1v0.1
		c0,0.4,0.1,0.8,0.5,0.9c0.2,0.1,0.3,0.1,0.5,0.1c0.1,0,0.1,0,0.2,0c0.2-0.1,0.3-0.2,0.3-0.3c0.1-0.2,0.1-0.4,0.1-0.7
		C39.7,10.5,44.7,8,49.9,8z"/>
	<path class="st1" d="M44.9,6.5L44.9,6.5c0.2-0.1,0.4-0.3,0.5-0.5c1.4-0.4,2.9-0.5,4.5-0.5c8.3,0,15.7,5.5,18.1,13.3
		c-0.1,0.2-0.2,0.4-0.1,0.7c0.1,0.3,0.4,0.5,0.8,0.5c0.1,0,0.2,0,0.2,0c0.4-0.1,0.6-0.5,0.5-1c-0.1-0.3-0.3-0.4-0.5-0.5
		c-2.5-8.3-10.3-14.1-19-14.1c-1.7,0-3.4,0.2-4.7,0.6c-0.2-0.1-0.4-0.2-0.7-0.1c-0.4,0.1-0.6,0.5-0.5,1C44.1,6.4,44.5,6.6,44.9,6.5z
		"/>
	<path class="st1" d="M31.7,29.6c-0.5-1.6-0.7-3.3-0.7-5.1c0-6.2,3-12,8.1-15.6c0.4,0.1,0.6,0,0.7-0.1c0.2-0.1,0.3-0.3,0.4-0.5
		c0-0.2,0-0.4-0.1-0.6c-0.1-0.2-0.3-0.3-0.5-0.4c-0.2,0-0.4,0-0.6,0.1c-0.2,0.1-0.3,0.4-0.4,0.6C33.2,11.9,30,18,30,24.5
		c0,1.8,0.2,3.6,0.7,5.3c-0.1,0.2-0.2,0.4-0.1,0.7c0.1,0.3,0.5,0.5,0.8,0.5c0.1,0,0.1,0,0.2,0c0.2-0.1,0.3-0.2,0.4-0.4
		c0.1-0.2,0.1-0.4,0.1-0.6C32.1,29.8,31.9,29.6,31.7,29.6z"/>
	<path class="st1" d="M47.6,42.9c-0.3,0-0.5,0.1-0.6,0.2c-2.7-0.4-5.2-1.4-7.5-3c-2.2-1.5-4.1-3.4-5.5-5.7c0.1-0.3,0.1-0.6-0.1-0.7
		c-0.1-0.2-0.3-0.3-0.5-0.4c-0.2,0-0.4,0-0.6,0.1c-0.4,0.3-0.5,0.8-0.3,1.1c0.1,0.2,0.4,0.3,0.6,0.4c1.5,2.4,3.5,4.5,5.8,6
		c2.3,1.5,5,2.6,7.9,3.1c0.1,0.2,0.3,0.3,0.5,0.4l0.1,0c0.4,0,0.8-0.3,0.8-0.6c0-0.2,0-0.4-0.1-0.6C48,43,47.8,42.9,47.6,42.9z"/>
	<path class="st1" d="M69.3,24.2c-0.4,0-0.8,0.4-0.8,0.8c0,0.3,0.1,0.5,0.3,0.7c-0.3,4.1-1.9,8-4.5,11.1c-2.6,3.1-6.2,5.3-10.2,6.1
		c-0.2-0.1-0.4-0.2-0.6-0.2l-0.1,0c-0.2,0.1-0.4,0.3-0.5,0.5c-0.1,0.2-0.1,0.3,0,0.5c0.1,0.2,0.3,0.4,0.5,0.5c0.1,0,0.2,0.1,0.3,0.1
		c0,0,0.1,0,0.1,0c0.3,0,0.5-0.2,0.6-0.5c4.1-1,7.9-3.2,10.7-6.5c2.8-3.3,4.5-7.5,4.7-11.7c0.2-0.2,0.3-0.4,0.3-0.7
		C70.2,24.6,69.8,24.2,69.3,24.2z"/>
</g>
</svg>
