<?xml version="1.0" encoding="utf-8"?>
<!-- Generator: Adobe Illustrator 25.1.0, SVG Export Plug-In . SVG Version: 6.00 Build 0)  -->
<svg version="1.1" id="Layer_1" xmlns="http://www.w3.org/2000/svg" xmlns:xlink="http://www.w3.org/1999/xlink" x="0px" y="0px"
	 viewBox="0 0 300 100" style="enable-background:new 0 0 300 100;" xml:space="preserve">
<style type="text/css">
	.st0{fill:url(#SVGID_1_);}
	.st1{fill:url(#SVGID_2_);}
	.st2{fill:url(#SVGID_3_);}
	.st3{fill:#FFFFFF;}
</style>
<desc>Created with Sketch.</desc>
<g>
	<g>
		<g>
			<g>
				<g>
					<linearGradient id="SVGID_1_" gradientUnits="userSpaceOnUse" x1="59.9436" y1="73.3" x2="59.9436" y2="26.7">
						<stop  offset="0" style="stop-color:#EF48B0"/>
						<stop  offset="1" style="stop-color:#EE2A7B"/>
					</linearGradient>
					<path class="st0" d="M59.9,73.3c-5.4,0-10.7-2-14.8-5.6c-4-3.6-6.7-8.6-7.6-14c-0.1-0.7,0.4-1.3,1-1.4c0.7-0.1,1.3,0.4,1.4,1
						c0.7,4.8,3.2,9.3,6.8,12.5c3.6,3.2,8.3,5,13.1,5C71,70.8,80,61.5,80,50s-9-20.8-20.1-20.8c-10.3,0-18.9,8-20,18.5
						c-0.1,0.7-0.7,1.2-1.4,1.1c-0.7-0.1-1.2-0.7-1.1-1.4c1.3-11.8,10.9-20.7,22.5-20.7c12.5,0,22.6,10.5,22.6,23.3
						C82.5,62.9,72.4,73.3,59.9,73.3z"/>
				</g>
				<g>
					<linearGradient id="SVGID_2_" gradientUnits="userSpaceOnUse" x1="59.5257" y1="66.3" x2="59.5257" y2="33.8">
						<stop  offset="0" style="stop-color:#EF48B0"/>
						<stop  offset="1" style="stop-color:#EE2A7B"/>
					</linearGradient>
					<path class="st1" d="M60,66.3c-4.2,0-8.1-1.7-11-4.8c-2.9-2.9-4.6-7.1-4.6-11.5c0-4.3,1.7-8.5,4.6-11.5c2.9-3.1,6.8-4.7,11-4.7
						c4,0,7.9,1.7,10.8,4.7c1.2,1.3,2.3,2.8,3,4.5c0.3,0.6,0,1.4-0.7,1.7s-1.4,0-1.7-0.6c-0.7-1.4-1.5-2.7-2.6-3.8
						c-2.4-2.5-5.6-3.9-8.9-3.9c-3.5,0-6.7,1.4-9.1,3.9C48.4,42.8,47,46.4,47,50c0,3.7,1.4,7.2,3.9,9.7c2.5,2.6,5.7,4,9.1,4
						c3.3,0,6.4-1.4,8.9-4c1.5-1.5,2.6-3.4,3.2-5.5c0.2-0.7,0.9-1,1.6-0.8s1.1,0.9,0.9,1.6c-0.8,2.5-2.1,4.7-3.8,6.5
						C67.9,64.6,64,66.3,60,66.3z"/>
				</g>
			</g>
		</g>
	</g>
	
		<linearGradient id="SVGID_3_" gradientUnits="userSpaceOnUse" x1="41.2432" y1="19.876" x2="78.5169" y2="84.436" gradientTransform="matrix(1 0 0 -1 0 102)">
		<stop  offset="0" style="stop-color:#00035C"/>
		<stop  offset="0.4497" style="stop-color:#004AE6"/>
		<stop  offset="0.6688" style="stop-color:#5552F1"/>
		<stop  offset="0.8746" style="stop-color:#9F59FB"/>
		<stop  offset="0.9693" style="stop-color:#BC5CFF"/>
	</linearGradient>
	<path class="st2" d="M32.4,60.3c-0.2-0.5,0.1-1.1,0.6-1.3s1.1,0.1,1.3,0.6c0.1,0.4,0,0.8-0.2,1.1c2,4.8,5.4,8.9,9.7,11.9
		c4.7,3.3,10.2,5,15.9,5c4.4,0,8.7-1,12.5-3c0-0.4,0.1-0.8,0.5-1c0.5-0.3,1.1-0.1,1.4,0.4s0.1,1.1-0.4,1.4c-0.4,0.2-0.8,0.2-1.1-0.1
		c-4,2-8.4,3.1-12.9,3.1c-5.9,0-11.5-1.8-16.3-5.1c-4.4-3.1-7.8-7.3-9.9-12.2C32.9,61,32.5,60.8,32.4,60.3z M87.5,41.6
		c-0.1-0.4-0.5-0.7-0.9-0.7c-1.8-5.4-5.3-10.3-9.8-13.7c-5-3.8-11-5.8-17.2-5.8c-5.4,0-10.7,1.5-15.3,4.4c-4.2,2.6-7.6,6.3-9.9,10.6
		c-0.4,0-0.8,0.2-1,0.6c-0.2,0.5,0,1.1,0.5,1.4c0.5,0.2,1.1,0,1.4-0.5c0.2-0.4,0.1-0.8-0.1-1.1c2.3-4.2,5.6-7.7,9.6-10.3
		c4.4-2.8,9.6-4.3,14.8-4.3c6.1,0,11.9,2,16.8,5.6c4.4,3.4,7.8,8.1,9.6,13.4c-0.3,0.2-0.4,0.7-0.3,1c0.2,0.5,0.7,0.9,1.2,0.7
		C87.4,42.7,87.7,42.1,87.5,41.6z M69.8,81.7c0.5-0.2,0.8-0.7,0.7-1.3c-0.2-0.5-0.7-0.8-1.3-0.7c-0.4,0.1-0.7,0.5-0.7,0.9
		c-2.8,0.8-5.6,1.2-8.5,1.2c-8.4,0-16.3-3.2-22.2-9c-5.7-5.6-9.1-13-9.6-20.9c0.4-0.2,0.6-0.5,0.6-0.9c0-0.6-0.5-1-1-1
		c-0.6,0-1,0.5-1,1c0,0.4,0.3,0.8,0.7,0.9c0.5,8.1,3.9,15.7,9.8,21.5c6.1,6,14.2,9.3,22.8,9.3c3,0,5.9-0.4,8.7-1.2
		C68.9,81.6,69.3,81.8,69.8,81.7z M80.8,24.7c0.1-0.4,0-0.8-0.4-1.1c-0.4-0.3-1.1-0.3-1.4,0.2c-0.3,0.4-0.3,1.1,0.2,1.4
		c0.3,0.3,0.8,0.3,1.1,0.1c7.3,6.1,11.5,15,11.5,24.6c0,3.4-0.5,6.8-1.6,10.1c-0.4,0-0.8,0.3-0.9,0.7c-0.2,0.5,0.1,1.1,0.6,1.3
		s1.1-0.1,1.3-0.6c0.2-0.4,0-0.8-0.3-1.1C92,57,92.6,53.5,92.6,50C92.6,40,88.3,30.9,80.8,24.7z M59.9,17.9c3,0,6,0.4,8.8,1.2
		c0,0.4,0.3,0.7,0.7,0.9c0.5,0.2,1.1-0.1,1.3-0.6c0.2-0.5-0.1-1.1-0.6-1.3c-0.4-0.1-0.8,0-1.1,0.3c-2.9-0.8-6-1.3-9.1-1.3
		c-10.6,0-20.4,5.1-26.5,13.6c-0.4-0.1-0.8,0.1-1,0.4c-0.3,0.5-0.2,1.1,0.3,1.4s1.1,0.2,1.4-0.3c0.2-0.4,0.2-0.8,0-1.1
		C40,22.9,49.6,17.9,59.9,17.9z M50.2,15.3c0.4-0.1,0.7-0.5,0.7-0.8c2.9-0.7,5.9-1.1,9-1.1c16.2,0,30.4,10.7,35,26
		c-0.3,0.2-0.5,0.7-0.4,1.1c0.1,0.5,0.7,0.9,1.2,0.7c0.5-0.1,0.9-0.7,0.7-1.2c-0.1-0.4-0.5-0.7-0.9-0.7C91,23.4,76.4,12.6,59.9,12.6
		c-3.1,0-6.2,0.4-9.2,1.1c-0.2-0.3-0.7-0.5-1.1-0.4c-0.5,0.2-0.8,0.7-0.7,1.3C49.1,15.1,49.7,15.4,50.2,15.3z M24.8,59.9
		c-0.9-3.3-1.4-6.6-1.4-10.1c0-12.1,5.9-23.2,15.8-30.1c0.3,0.2,0.8,0.2,1.1,0c0.5-0.3,0.6-0.9,0.3-1.4s-0.9-0.6-1.4-0.3
		c-0.4,0.2-0.5,0.6-0.4,1c-10.1,7-16.2,18.4-16.2,30.7c0,3.5,0.5,7,1.4,10.3c-0.3,0.3-0.5,0.7-0.3,1.1c0.2,0.5,0.7,0.8,1.3,0.7
		c0.5-0.2,0.8-0.7,0.7-1.3C25.5,60.2,25.2,59.9,24.8,59.9z M55.4,85.4c-0.4-0.1-0.8,0.2-1,0.5c-5.3-0.8-10.3-2.8-14.8-5.7
		c-4.3-2.9-8-6.7-10.8-11.2c0.2-0.3,0.3-0.8,0.1-1.1c-0.3-0.5-0.9-0.6-1.4-0.4c-0.5,0.3-0.6,0.9-0.4,1.4c0.2,0.4,0.6,0.5,1,0.5
		c2.8,4.5,6.6,8.4,11,11.4c4.5,3,9.7,5,15.1,5.8c0.1,0.4,0.4,0.7,0.8,0.7c0.6,0.1,1.1-0.3,1.1-0.9C56.4,86,56,85.5,55.4,85.4z
		 M96.8,49.8c-0.6,0-1,0.4-1,1c0,0.4,0.2,0.8,0.6,0.9c-0.4,8-3.5,15.7-8.7,21.8c-5.2,6-12.2,10.2-19.9,11.9c-0.2-0.3-0.6-0.5-1-0.4
		c-0.5,0.1-0.9,0.6-0.8,1.2c0.1,0.5,0.6,0.9,1.2,0.8c0.4-0.1,0.7-0.4,0.8-0.8c7.9-1.7,15-6,20.3-12.2s8.5-14.1,8.9-22.3
		c0.4-0.1,0.6-0.5,0.7-0.9C97.8,50.3,97.4,49.9,96.8,49.8z"/>
</g>
<g>
	<g>
		<g>
			<g>
				<path class="st3" d="M191,72.5c-1.9,0-3.7-1.2-4.3-3l-2.7-7.1h-13l-2.7,7.1c-0.7,1.8-2.4,3-4.4,3c-0.6,0-1.1-0.1-1.6-0.2
					c-2.4-0.9-3.7-3.6-2.8-6L173,30.4c0.7-1.8,2.5-3,4.4-3c1.9-0.1,3.7,1.1,4.4,2.9l3.3,8.7c0.2,0.7-0.1,1.4-0.7,1.6
					c-0.7,0.2-1.4-0.1-1.6-0.7l-3.3-8.7c-0.3-0.8-1.1-1.4-2-1.3h-0.1c-0.8,0-1.7,0.5-2,1.3L162,67.1c-0.4,1.1,0.2,2.3,1.3,2.7
					c0.2,0.1,0.4,0.1,0.7,0.1c0.9,0,1.7-0.5,2-1.3l3-7.9c0.2-0.5,0.7-0.8,1.2-0.8H185c0.5,0,1,0.3,1.2,0.8l3,7.9
					c0.3,0.8,1,1.3,1.9,1.3c0.4,0,0.6-0.1,0.7-0.1c1.1-0.4,1.7-1.6,1.3-2.8l-5.8-15.4c-0.2-0.7,0.1-1.4,0.7-1.6
					c0.7-0.2,1.4,0.1,1.6,0.7l5.8,15.4c0.9,2.5-0.4,5.1-2.7,6C192,72.5,191.4,72.5,191,72.5z M182.4,55.8h-9.9c-0.4,0-0.8-0.2-1-0.5
					s-0.3-0.8-0.1-1.2l4.9-13.1c0.2-0.5,0.7-0.8,1.2-0.8s1,0.3,1.2,0.8l4.9,13.1c0.1,0.4,0.1,0.8-0.1,1.2
					C183.2,55.6,182.8,55.8,182.4,55.8z M174.4,53.3h6.2l-3.1-8.2L174.4,53.3z"/>
			</g>
			<g>
				<path class="st3" d="M191,72.5c-1.9,0-3.7-1.2-4.3-3l-2.7-7.1h-13l-2.7,7.1c-0.7,1.8-2.4,3-4.4,3c-0.6,0-1.1-0.1-1.6-0.2
					c-2.4-0.9-3.7-3.6-2.8-6L173,30.4c0.7-1.8,2.5-3,4.4-3c1.9-0.1,3.7,1.1,4.4,2.9l3.3,8.7c0.2,0.7-0.1,1.4-0.7,1.6
					c-0.7,0.2-1.4-0.1-1.6-0.7l-3.3-8.7c-0.3-0.8-1.1-1.4-2-1.3h-0.1c-0.8,0-1.7,0.5-2,1.3L162,67.1c-0.4,1.1,0.2,2.3,1.3,2.7
					c0.2,0.1,0.4,0.1,0.7,0.1c0.9,0,1.7-0.5,2-1.3l3-7.9c0.2-0.5,0.7-0.8,1.2-0.8H185c0.5,0,1,0.3,1.2,0.8l3,7.9
					c0.3,0.8,1,1.3,1.9,1.3c0.4,0,0.6-0.1,0.7-0.1c1.1-0.4,1.7-1.6,1.3-2.8l-5.8-15.4c-0.2-0.7,0.1-1.4,0.7-1.6
					c0.7-0.2,1.4,0.1,1.6,0.7l5.8,15.4c0.9,2.5-0.4,5.1-2.7,6C192,72.5,191.4,72.5,191,72.5z M182.4,55.8h-9.9c-0.4,0-0.8-0.2-1-0.5
					s-0.3-0.8-0.1-1.2l4.9-13.1c0.2-0.5,0.7-0.8,1.2-0.8s1,0.3,1.2,0.8l4.9,13.1c0.1,0.4,0.1,0.8-0.1,1.2
					C183.2,55.6,182.8,55.8,182.4,55.8z M174.4,53.3h6.2l-3.1-8.2L174.4,53.3z"/>
			</g>
		</g>
	</g>
	<g>
		<g>
			<g>
				<path class="st3" d="M245.8,72.5c-2.6,0-4.6-2-4.6-4.6V57c0-0.7,0.6-1.3,1.3-1.3s1.3,0.6,1.3,1.3v10.9c0,1.2,0.9,2.1,2.1,2.1
					c1.2,0,2.1-0.9,2.1-2.1V32c0-1.1-1-2.1-2.1-2.1c-1.2,0-2.1,0.9-2.1,2.1v7.2c0,0.7-0.6,1.3-1.3,1.3s-1.3-0.6-1.3-1.3V32
					c0-2.6,2-4.6,4.6-4.6s4.7,2.1,4.7,4.6v35.9C250.5,70.5,248.4,72.5,245.8,72.5z"/>
			</g>
			<g>
				<path class="st3" d="M245.8,72.5c-2.6,0-4.6-2-4.6-4.6V57c0-0.7,0.6-1.3,1.3-1.3s1.3,0.6,1.3,1.3v10.9c0,1.2,0.9,2.1,2.1,2.1
					c1.2,0,2.1-0.9,2.1-2.1V32c0-1.1-1-2.1-2.1-2.1c-1.2,0-2.1,0.9-2.1,2.1v7.2c0,0.7-0.6,1.3-1.3,1.3s-1.3-0.6-1.3-1.3V32
					c0-2.6,2-4.6,4.6-4.6s4.7,2.1,4.7,4.6v35.9C250.5,70.5,248.4,72.5,245.8,72.5z"/>
			</g>
		</g>
	</g>
	<g>
		<g>
			<g>
				<path class="st3" d="M218.2,73.4c-6.9-0.1-12.7-3.5-16.4-6.4c-1.9-1.5-2.2-4.3-0.7-6.2c1.6-1.9,4.4-2.2,6.3-0.6
					c2.5,2,6.8,4.4,10.7,4.4h0.1c2.6,0,5.2-0.7,6.9-2c1.4-1,2.1-2.1,2.1-3.4c0-0.5-0.1-0.8-0.4-1.3c-0.3-0.5-0.8-1-1.4-1.4
					c-1.6-1.1-4.4-2-7.7-2.6l0,0c-0.1,0-0.2,0-0.2,0c-3.3-0.6-6-1.4-8.2-2.5c-2.7-1.3-4.8-3.1-6.2-5.2c-0.4-0.6-0.2-1.4,0.4-1.8
					c0.6-0.4,1.4-0.2,1.8,0.4c1.1,1.7,2.8,3.2,5.1,4.3c2,0.9,4.4,1.7,7.4,2.3l0,0c0.1,0,0.2,0,0.2,0c3.7,0.7,6.9,1.8,8.8,3
					c1,0.7,1.7,1.4,2.2,2.2c0.5,0.9,0.7,1.6,0.7,2.6c0,1.4-0.5,3.5-3.1,5.4c-2.2,1.6-5.3,2.5-8.5,2.5c-4.5,0-9.3-2.6-12.3-5
					c-0.4-0.3-0.9-0.5-1.4-0.4c-0.5,0-1,0.3-1.3,0.7c-0.6,0.8-0.5,2,0.3,2.6c3.3,2.6,8.6,5.7,14.8,5.8c3.9,0,7.7-1.1,10.5-3.2
					c0.6-0.4,1.4-0.3,1.8,0.3c0.4,0.6,0.3,1.4-0.3,1.8C227,72.1,222.7,73.4,218.2,73.4z M234.7,60.5c-0.7,0-1.3-0.6-1.3-1.3
					c0-1.6-0.4-3.2-1.3-4.5c-1.1-1.8-2.9-3.3-5.6-4.6c-2.1-1-4.7-1.8-8-2.4c-0.1,0-0.2,0-0.2,0c-3.5-0.6-6.3-1.7-8.1-2.9
					c-0.9-0.6-1.6-1.3-2-2s-0.6-1.4-0.6-2.4c0-1.3,0.5-3.1,2.8-4.9c2-1.5,4.7-2.3,7.6-2.3c4,0,7.1,1.9,10.5,4.1
					c0.4,0.3,0.9,0.4,1.4,0.3c0.5-0.1,0.9-0.4,1.1-0.8c0.6-0.8,0.3-2-0.5-2.6l-0.1-0.1c-3-1.9-7-4.6-12.4-4.6c-3.6,0-7.1,1.1-9.8,3
					c-0.6,0.5-1.2,1-1.7,1.6c-0.5,0.5-1.3,0.6-1.8,0.1s-0.6-1.3-0.1-1.8c0.6-0.7,1.4-1.3,2.1-1.9c3.1-2.2,7.1-3.5,11.3-3.5
					c6.1,0,10.6,2.9,13.8,5l0.2,0.1c2,1.4,2.6,4.2,1.2,6.1c-0.6,0.9-1.6,1.6-2.7,1.9c-1.2,0.3-2.3,0-3.3-0.6c-3-2-5.8-3.7-9.1-3.7
					c-2.3,0-4.5,0.7-6.1,1.8c-1.2,0.9-1.8,1.8-1.8,2.8c0,0.6,0.1,0.8,0.2,1c0.1,0.2,0.5,0.6,1.3,1.2c1.4,1,4,1.9,7,2.5l0,0
					c0.1,0,0.2,0,0.2,0c3.6,0.7,6.4,1.6,8.7,2.7c3.1,1.5,5.2,3.3,6.6,5.5c1.1,1.7,1.7,3.8,1.7,5.8C236,60,235.4,60.5,234.7,60.5z"/>
			</g>
			<g>
				<path class="st3" d="M218.2,73.4c-6.9-0.1-12.7-3.5-16.4-6.4c-1.9-1.5-2.2-4.3-0.7-6.2c1.6-1.9,4.4-2.2,6.3-0.6
					c2.5,2,6.8,4.4,10.7,4.4h0.1c2.6,0,5.2-0.7,6.9-2c1.4-1,2.1-2.1,2.1-3.4c0-0.5-0.1-0.8-0.4-1.3c-0.3-0.5-0.8-1-1.4-1.4
					c-1.6-1.1-4.4-2-7.7-2.6l0,0c-0.1,0-0.2,0-0.2,0c-3.3-0.6-6-1.4-8.2-2.5c-2.7-1.3-4.8-3.1-6.2-5.2c-0.4-0.6-0.2-1.4,0.4-1.8
					c0.6-0.4,1.4-0.2,1.8,0.4c1.1,1.7,2.8,3.2,5.1,4.3c2,0.9,4.4,1.7,7.4,2.3l0,0c0.1,0,0.2,0,0.2,0c3.7,0.7,6.9,1.8,8.8,3
					c1,0.7,1.7,1.4,2.2,2.2c0.5,0.9,0.7,1.6,0.7,2.6c0,1.4-0.5,3.5-3.1,5.4c-2.2,1.6-5.3,2.5-8.5,2.5c-4.5,0-9.3-2.6-12.3-5
					c-0.4-0.3-0.9-0.5-1.4-0.4c-0.5,0-1,0.3-1.3,0.7c-0.6,0.8-0.5,2,0.3,2.6c3.3,2.6,8.6,5.7,14.8,5.8c3.9,0,7.7-1.1,10.5-3.2
					c0.6-0.4,1.4-0.3,1.8,0.3c0.4,0.6,0.3,1.4-0.3,1.8C227,72.1,222.7,73.4,218.2,73.4z M234.7,60.5c-0.7,0-1.3-0.6-1.3-1.3
					c0-1.6-0.4-3.2-1.3-4.5c-1.1-1.8-2.9-3.3-5.6-4.6c-2.1-1-4.7-1.8-8-2.4c-0.1,0-0.2,0-0.2,0c-3.5-0.6-6.3-1.7-8.1-2.9
					c-0.9-0.6-1.6-1.3-2-2s-0.6-1.4-0.6-2.4c0-1.3,0.5-3.1,2.8-4.9c2-1.5,4.7-2.3,7.6-2.3c4,0,7.1,1.9,10.5,4.1
					c0.4,0.3,0.9,0.4,1.4,0.3c0.5-0.1,0.9-0.4,1.1-0.8c0.6-0.8,0.3-2-0.5-2.6l-0.1-0.1c-3-1.9-7-4.6-12.4-4.6c-3.6,0-7.1,1.1-9.8,3
					c-0.6,0.5-1.2,1-1.7,1.6c-0.5,0.5-1.3,0.6-1.8,0.1s-0.6-1.3-0.1-1.8c0.6-0.7,1.4-1.3,2.1-1.9c3.1-2.2,7.1-3.5,11.3-3.5
					c6.1,0,10.6,2.9,13.8,5l0.2,0.1c2,1.4,2.6,4.2,1.2,6.1c-0.6,0.9-1.6,1.6-2.7,1.9c-1.2,0.3-2.3,0-3.3-0.6c-3-2-5.8-3.7-9.1-3.7
					c-2.3,0-4.5,0.7-6.1,1.8c-1.2,0.9-1.8,1.8-1.8,2.8c0,0.6,0.1,0.8,0.2,1c0.1,0.2,0.5,0.6,1.3,1.2c1.4,1,4,1.9,7,2.5l0,0
					c0.1,0,0.2,0,0.2,0c3.6,0.7,6.4,1.6,8.7,2.7c3.1,1.5,5.2,3.3,6.6,5.5c1.1,1.7,1.7,3.8,1.7,5.8C236,60,235.4,60.5,234.7,60.5z"/>
			</g>
		</g>
	</g>
	<g>
		<g>
			<g>
				<path class="st3" d="M273.1,73.4c-6.9-0.1-12.7-3.5-16.4-6.4c-1.9-1.5-2.2-4.3-0.7-6.2c1.6-1.9,4.4-2.2,6.3-0.6
					c2.5,2,6.8,4.4,10.7,4.4h0.1c2.6,0,5.2-0.7,6.9-2c1.4-1,2.1-2.1,2.1-3.4c0-0.5-0.1-0.8-0.4-1.3s-0.8-1-1.4-1.4
					c-1.6-1.1-4.4-2-7.7-2.6l0,0c-0.1,0-0.2,0-0.2,0c-3.3-0.6-6-1.4-8.2-2.5c-2.7-1.3-4.8-3.1-6.2-5.2c-0.4-0.6-0.2-1.4,0.4-1.8
					c0.6-0.4,1.4-0.2,1.8,0.4c1.1,1.7,2.8,3.2,5.1,4.3c2,0.9,4.4,1.7,7.4,2.3l0,0c0.1,0,0.2,0,0.2,0c3.7,0.7,6.9,1.8,8.8,3
					c1,0.7,1.7,1.4,2.2,2.2c0.5,0.9,0.7,1.6,0.7,2.6c0,1.4-0.5,3.5-3.1,5.4c-2.2,1.6-5.3,2.5-8.5,2.5c-4.5,0-9.3-2.6-12.3-5
					c-0.4-0.3-0.9-0.5-1.4-0.4c-0.5,0-1,0.3-1.3,0.7c-0.6,0.8-0.5,2,0.3,2.6c3.3,2.6,8.6,5.7,14.8,5.8c3.9,0,7.7-1.1,10.5-3.2
					c0.6-0.4,1.4-0.3,1.8,0.3c0.4,0.6,0.3,1.4-0.3,1.8C281.8,72.1,277.5,73.4,273.1,73.4z M289.5,60.5c-0.7,0-1.3-0.6-1.3-1.3
					c0-1.6-0.4-3.2-1.3-4.5c-1.1-1.8-2.9-3.3-5.6-4.6c-2.1-1-4.7-1.8-8-2.4c-0.1,0-0.2,0-0.2,0c-3.5-0.6-6.3-1.7-8.1-2.9
					c-0.9-0.6-1.6-1.3-2-2s-0.6-1.4-0.6-2.4c0-1.3,0.5-3.1,2.8-4.9c2-1.5,4.7-2.3,7.6-2.3c4,0,7.1,1.9,10.5,4.1
					c0.4,0.3,0.9,0.4,1.4,0.3c0.5-0.1,0.9-0.4,1.1-0.8c0.6-0.8,0.3-2-0.5-2.6l-0.1-0.1c-3-1.9-7-4.6-12.4-4.6c-3.6,0-7.1,1.1-9.8,3
					c-0.6,0.5-1.2,1-1.7,1.6c-0.5,0.5-1.3,0.6-1.8,0.1s-0.6-1.3-0.1-1.8c0.6-0.7,1.4-1.3,2.1-1.9c3.1-2.2,7.1-3.5,11.3-3.5
					c6.1,0,10.6,2.9,13.8,5l0.2,0.1c2,1.4,2.6,4.2,1.2,6.1c-0.6,0.9-1.6,1.6-2.7,1.9c-1.2,0.3-2.4,0-3.3-0.6c-3-2-5.8-3.7-9.1-3.7
					c-2.3,0-4.5,0.7-6.1,1.8c-1.2,0.9-1.8,1.8-1.8,2.8c0,0.6,0.1,0.8,0.2,1s0.5,0.6,1.3,1.2c1.4,1,4,1.9,7,2.5l0,0
					c0.1,0,0.2,0,0.2,0c3.6,0.7,6.4,1.6,8.7,2.7c3.1,1.5,5.2,3.3,6.6,5.5c1.1,1.7,1.7,3.8,1.7,5.8C290.8,60,290.2,60.5,289.5,60.5z"
					/>
			</g>
			<g>
				<path class="st3" d="M273.1,73.4c-6.9-0.1-12.7-3.5-16.4-6.4c-1.9-1.5-2.2-4.3-0.7-6.2c1.6-1.9,4.4-2.2,6.3-0.6
					c2.5,2,6.8,4.4,10.7,4.4h0.1c2.6,0,5.2-0.7,6.9-2c1.4-1,2.1-2.1,2.1-3.4c0-0.5-0.1-0.8-0.4-1.3s-0.8-1-1.4-1.4
					c-1.6-1.1-4.4-2-7.7-2.6l0,0c-0.1,0-0.2,0-0.2,0c-3.3-0.6-6-1.4-8.2-2.5c-2.7-1.3-4.8-3.1-6.2-5.2c-0.4-0.6-0.2-1.4,0.4-1.8
					c0.6-0.4,1.4-0.2,1.8,0.4c1.1,1.7,2.8,3.2,5.1,4.3c2,0.9,4.4,1.7,7.4,2.3l0,0c0.1,0,0.2,0,0.2,0c3.7,0.7,6.9,1.8,8.8,3
					c1,0.7,1.7,1.4,2.2,2.2c0.5,0.9,0.7,1.6,0.7,2.6c0,1.4-0.5,3.5-3.1,5.4c-2.2,1.6-5.3,2.5-8.5,2.5c-4.5,0-9.3-2.6-12.3-5
					c-0.4-0.3-0.9-0.5-1.4-0.4c-0.5,0-1,0.3-1.3,0.7c-0.6,0.8-0.5,2,0.3,2.6c3.3,2.6,8.6,5.7,14.8,5.8c3.9,0,7.7-1.1,10.5-3.2
					c0.6-0.4,1.4-0.3,1.8,0.3c0.4,0.6,0.3,1.4-0.3,1.8C281.8,72.1,277.5,73.4,273.1,73.4z M289.5,60.5c-0.7,0-1.3-0.6-1.3-1.3
					c0-1.6-0.4-3.2-1.3-4.5c-1.1-1.8-2.9-3.3-5.6-4.6c-2.1-1-4.7-1.8-8-2.4c-0.1,0-0.2,0-0.2,0c-3.5-0.6-6.3-1.7-8.1-2.9
					c-0.9-0.6-1.6-1.3-2-2s-0.6-1.4-0.6-2.4c0-1.3,0.5-3.1,2.8-4.9c2-1.5,4.7-2.3,7.6-2.3c4,0,7.1,1.9,10.5,4.1
					c0.4,0.3,0.9,0.4,1.4,0.3c0.5-0.1,0.9-0.4,1.1-0.8c0.6-0.8,0.3-2-0.5-2.6l-0.1-0.1c-3-1.9-7-4.6-12.4-4.6c-3.6,0-7.1,1.1-9.8,3
					c-0.6,0.5-1.2,1-1.7,1.6c-0.5,0.5-1.3,0.6-1.8,0.1s-0.6-1.3-0.1-1.8c0.6-0.7,1.4-1.3,2.1-1.9c3.1-2.2,7.1-3.5,11.3-3.5
					c6.1,0,10.6,2.9,13.8,5l0.2,0.1c2,1.4,2.6,4.2,1.2,6.1c-0.6,0.9-1.6,1.6-2.7,1.9c-1.2,0.3-2.4,0-3.3-0.6c-3-2-5.8-3.7-9.1-3.7
					c-2.3,0-4.5,0.7-6.1,1.8c-1.2,0.9-1.8,1.8-1.8,2.8c0,0.6,0.1,0.8,0.2,1s0.5,0.6,1.3,1.2c1.4,1,4,1.9,7,2.5l0,0
					c0.1,0,0.2,0,0.2,0c3.6,0.7,6.4,1.6,8.7,2.7c3.1,1.5,5.2,3.3,6.6,5.5c1.1,1.7,1.7,3.8,1.7,5.8C290.8,60,290.2,60.5,289.5,60.5z"
					/>
			</g>
		</g>
	</g>
	<g>
		<g>
			<g>
				<g>
					<path class="st3" d="M133.4,73.2c-5.4,0-10.6-2-14.7-5.6c-4-3.6-6.7-8.5-7.6-13.9c-0.1-0.7,0.4-1.3,1-1.4
						c0.7-0.1,1.3,0.4,1.4,1c0.7,4.8,3.1,9.3,6.8,12.5c3.6,3.2,8.3,5,13.1,5c11.1,0,20.1-9.3,20.1-20.8s-9-20.8-20.1-20.8
						c-10.3,0-18.9,7.9-20,18.5c-0.1,0.7-0.7,1.2-1.4,1.1c-0.7-0.1-1.2-0.7-1.1-1.4c1.3-11.8,10.9-20.7,22.4-20.7
						c12.5,0,22.6,10.4,22.6,23.3C156,62.8,145.9,73.2,133.4,73.2z"/>
				</g>
				<g>
					<path class="st3" d="M133.5,66.2c-4.2,0-8.1-1.7-11-4.8c-2.9-2.9-4.6-7.1-4.6-11.4s1.7-8.5,4.6-11.5c2.9-3.1,6.7-4.7,11-4.7
						c4,0,7.9,1.7,10.8,4.7c1.2,1.3,2.3,2.8,3,4.5c0.3,0.6,0,1.4-0.6,1.7c-0.7,0.3-1.4,0-1.7-0.6c-0.7-1.4-1.5-2.7-2.6-3.8
						c-2.4-2.5-5.6-3.9-8.9-3.9c-3.5,0-6.7,1.4-9.1,3.9c-2.5,2.5-3.9,6.1-3.9,9.8s1.4,7.2,3.8,9.7c2.5,2.6,5.6,4,9.1,4
						c3.3,0,6.4-1.4,8.9-4c1.5-1.5,2.6-3.4,3.2-5.5c0.2-0.7,0.9-1,1.6-0.8c0.7,0.2,1.1,0.9,0.9,1.6c-0.8,2.5-2.1,4.7-3.8,6.5
						C141.3,64.5,137.5,66.2,133.5,66.2z"/>
				</g>
				<g>
					<path class="st3" d="M133.4,73.2c-5.4,0-10.6-2-14.7-5.6c-4-3.6-6.7-8.5-7.6-13.9c-0.1-0.7,0.4-1.3,1-1.4
						c0.7-0.1,1.3,0.4,1.4,1c0.7,4.8,3.1,9.3,6.8,12.5c3.6,3.2,8.3,5,13.1,5c11.1,0,20.1-9.3,20.1-20.8s-9-20.8-20.1-20.8
						c-10.3,0-18.9,7.9-20,18.5c-0.1,0.7-0.7,1.2-1.4,1.1c-0.7-0.1-1.2-0.7-1.1-1.4c1.3-11.8,10.9-20.7,22.4-20.7
						c12.5,0,22.6,10.4,22.6,23.3C156,62.8,145.9,73.2,133.4,73.2z M133.5,66.2c-4.2,0-8.1-1.7-11-4.8c-2.9-2.9-4.6-7.1-4.6-11.4
						s1.7-8.5,4.6-11.5c2.9-3.1,6.7-4.7,11-4.7c4,0,7.9,1.7,10.8,4.7c1.2,1.3,2.3,2.8,3,4.5c0.3,0.6,0,1.4-0.6,1.7
						c-0.7,0.3-1.4,0-1.7-0.6c-0.7-1.4-1.5-2.7-2.6-3.8c-2.4-2.5-5.6-3.9-8.9-3.9c-3.5,0-6.7,1.4-9.1,3.9c-2.5,2.5-3.9,6.1-3.9,9.8
						s1.4,7.2,3.8,9.7c2.5,2.6,5.6,4,9.1,4c3.3,0,6.4-1.4,8.9-4c1.5-1.5,2.6-3.4,3.2-5.5c0.2-0.7,0.9-1,1.6-0.8
						c0.7,0.2,1.1,0.9,0.9,1.6c-0.8,2.5-2.1,4.7-3.8,6.5C141.3,64.5,137.5,66.2,133.5,66.2z"/>
				</g>
			</g>
		</g>
	</g>
</g>
</svg>
