<?xml version="1.0" encoding="utf-8"?>
<!-- Generator: Adobe Illustrator 25.1.0, SVG Export Plug-In . SVG Version: 6.00 Build 0)  -->
<svg version="1.1" id="ic_empty_masternode" xmlns="http://www.w3.org/2000/svg" xmlns:xlink="http://www.w3.org/1999/xlink"
	 x="0px" y="0px" viewBox="0 0 100 100" style="enable-background:new 0 0 100 100;" xml:space="preserve">
<style type="text/css">
	.st0{fill:none;}
	.st1{fill:#666766;stroke:#666766;stroke-miterlimit:10;}
	.st2{fill:#D6D6D6;stroke:#666666;stroke-width:2;stroke-linecap:round;stroke-linejoin:round;stroke-miterlimit:10;}
	.st3{fill:#666666;}
</style>
<path id="Rectangle_4674" class="st0" d="M0,0h100v100H0V0z"/>
<g>
	<g>
		<g>
			<path class="st1" d="M15.8,64.2c2.6,6.3,6.9,11.6,12.6,15.5c6.1,4.3,13.2,6.5,20.8,6.5c5.7,0,11.4-1.4,16.3-3.9
				c0.4,0.4,1,0.4,1.4,0.2c0.6-0.4,0.8-1.2,0.4-1.8c-0.4-0.6-1.2-0.8-1.8-0.4c-0.4,0.2-0.6,0.8-0.6,1.2C60,84,54.5,85.4,49,85.4
				c-7.3,0-14.2-2.2-20.1-6.3c-5.5-3.9-9.8-9-12.2-15.1c0.4-0.4,0.4-0.8,0.4-1.4c-0.2-0.6-1-1-1.6-0.8s-1,1-0.8,1.6
				C14.8,63.8,15.4,64.2,15.8,64.2z"/>
			<path class="st1" d="M84.6,39.6c-0.2-0.6-0.6-0.8-1.2-1c-2.2-6.9-6.7-13-12.4-17.5c-6.3-4.9-13.8-7.3-22-7.3
				c-6.9,0-13.6,2-19.3,5.7c-5.3,3.3-9.6,7.9-12.6,13.4c-0.4,0-1,0.2-1.2,0.6c-0.4,0.6,0,1.4,0.6,1.6c0.6,0.4,1.4,0,1.6-0.6
				c0.2-0.4,0.2-1-0.2-1.4c2.8-5.3,7.1-9.8,12.2-13c5.7-3.7,12.2-5.5,18.9-5.5c7.7,0,15.1,2.4,21.4,7.1c5.7,4.3,10,10.2,12.2,16.9
				C82.2,39,82,39.4,82.2,40s0.8,1,1.6,0.8C84.4,40.8,84.8,40.2,84.6,39.6z"/>
			<path class="st1" d="M62,90.5c0.6-0.2,1-1,0.8-1.6s-1-1-1.6-0.8c-0.4,0.2-0.8,0.6-0.8,1c-3.5,1-7.1,1.4-10.8,1.4
				C39,90.5,29,86.4,21.3,79.1C14,72,9.7,62.6,9.1,52.4c0.4-0.2,0.8-0.6,0.8-1.2c0-0.6-0.6-1.2-1.2-1.2s-1.2,0.6-1.2,1.2
				s0.4,1,0.8,1.2c0.6,10.4,5.1,19.9,12.4,27.3c7.7,7.5,18.1,11.8,28.9,11.8c3.9,0,7.5-0.4,11.2-1.4C61,90.3,61.6,90.5,62,90.5z"/>
			<path class="st1" d="M76,18c0.2-0.4,0-1-0.4-1.4c-0.6-0.4-1.4-0.4-1.8,0.2s-0.4,1.4,0.2,1.8c0.4,0.4,1,0.4,1.4,0.2
				c9.4,7.7,14.7,18.9,14.7,31.1c0,4.5-0.6,8.8-2,12.8c-0.4,0-1,0.4-1.2,0.8c-0.2,0.6,0,1.4,0.8,1.6c0.6,0.2,1.4,0,1.6-0.8
				c0.2-0.6,0-1-0.4-1.4c1.4-4.3,2-8.5,2-13C91.1,37.6,85.6,26,76,18z"/>
			<path class="st1" d="M49.6,9.5c3.9,0,7.5,0.6,11.2,1.6c0,0.4,0.4,1,0.8,1c0.6,0.2,1.4-0.2,1.6-0.8c0.2-0.6-0.2-1.4-0.8-1.6
				c-0.6-0.2-1,0-1.4,0.4c-3.7-1-7.5-1.6-11.6-1.6C36,8.5,23.5,15,15.6,25.8c-0.4,0-1,0-1.4,0.6c0,0.6,0.2,1.4,0.8,1.6
				c0.6,0.4,1.4,0.4,1.6-0.2c0.2-0.4,0.2-1,0-1.4C24.4,15.8,36.6,9.5,49.6,9.5z"/>
			<path class="st1" d="M37.2,6C37.6,5.8,38,5.4,38,5c3.7-1,7.5-1.4,11.4-1.4c20.6,0,38.7,13.6,44.4,33c-0.4,0.4-0.6,0.8-0.4,1.4
				c0.2,0.6,0.8,1,1.6,0.8c0.6-0.2,1-0.8,0.8-1.6c-0.2-0.6-0.6-0.8-1-1c-5.9-20-24.4-33.8-45.4-33.8c-3.9,0-7.9,0.4-11.6,1.4
				c-0.4-0.4-0.8-0.6-1.4-0.4c-0.6,0.2-1,0.8-0.8,1.6C36,5.8,36.6,6.2,37.2,6z"/>
			<path class="st1" d="M5,62.8c-1.2-4-1.8-8.3-1.8-12.8c0-15.3,7.5-29.5,20.1-38.3c0.4,0.2,1,0.4,1.4,0c0.6-0.4,0.8-1.2,0.4-1.8
				s-1.2-0.8-1.8-0.4c-0.4,0.2-0.6,0.8-0.6,1.2C9.9,19.9,2.2,34.3,2.2,50c0,4.5,0.6,8.8,1.8,13c-0.4,0.4-0.6,0.8-0.4,1.4
				c0.2,0.6,1,1,1.6,0.8s1-1,0.8-1.6C6,63.2,5.4,62.8,5,62.8z"/>
			<path class="st1" d="M43.9,95.2c-0.6,0-1,0.2-1.2,0.6c-6.7-1-13-3.5-18.7-7.3c-5.5-3.7-10.2-8.5-13.6-14.2c0.4-0.4,0.4-1,0-1.4
				c-0.4-0.6-1.2-0.8-1.8-0.4s-0.8,1.2-0.4,1.8c0.2,0.4,0.8,0.6,1.2,0.6c3.5,5.7,8.3,10.8,14,14.4c5.7,3.9,12.4,6.3,19.1,7.3
				c0.2,0.4,0.6,0.8,1,1c0.6,0,1.4-0.4,1.4-1C45.1,96,44.5,95.2,43.9,95.2z"/>
			<path class="st1" d="M96.4,50c-0.6,0-1.2,0.6-1.2,1.2s0.2,1,0.8,1.2c-0.6,10.2-4.5,19.9-11,27.7s-15.5,13-25.2,15.1
				c-0.2-0.4-0.8-0.6-1.2-0.6c-0.6,0.2-1.2,0.8-1,1.4s0.8,1.2,1.4,1c0.6,0,1-0.6,1-1c10-2.2,19.1-7.7,25.8-15.5
				c6.7-7.9,10.8-17.9,11.2-28.3c0.4-0.2,0.8-0.6,0.8-1.2C97.8,50.6,97.2,50,96.4,50z"/>
		</g>
	</g>
</g>
<path id="Rectangle_4704" class="st0" d="M0,0h100v100H0V0z"/>
<g>
	<g>
		<path class="st2" d="M61.1,29.9c0-6.1-5-11.1-11.1-11.1s-11.1,5-11.1,11.1S43.9,41,50,41C56.1,41.1,61.1,36.1,61.1,29.9z"/>
		<path class="st2" d="M32.1,50C26,50,21,55,21,61.1s5,11.1,11.1,11.1s11.1-5,11.1-11.1S38.3,50,32.1,50z"/>
		<path class="st2" d="M67.9,50c-6.1,0-11.1,5-11.1,11.1s5,11.1,11.1,11.1S79,67.2,79,61.1C79.1,55,74.1,50,67.9,50z"/>
	</g>
	<g>
		<path class="st3" d="M44.4,74.8c0,3.4,2.7,6.1,6.1,6.1s6.1-2.7,6.1-6.1s-2.7-6.1-6.1-6.1C47.2,68.7,44.4,71.4,44.4,74.8z"/>
		<path class="st3" d="M72.6,45.5c3.4,0,6.1-2.7,6.1-6.1s-2.7-6.1-6.1-6.1s-6.1,2.7-6.1,6.1S69.2,45.5,72.6,45.5z"/>
		<path class="st3" d="M27.4,45.5c3.4,0,6.1-2.7,6.1-6.1s-2.7-6.1-6.1-6.1s-6.1,2.7-6.1,6.1C21.2,42.8,24,45.5,27.4,45.5z"/>
	</g>
</g>
</svg>
