<?xml version="1.0" encoding="utf-8"?>
<!-- Generator: Adobe Illustrator 25.1.0, SVG Export Plug-In . SVG Version: 6.00 Build 0)  -->
<svg version="1.1" id="ic_dark_staking_off" xmlns="http://www.w3.org/2000/svg" xmlns:xlink="http://www.w3.org/1999/xlink"
	 x="0px" y="0px" viewBox="0 0 100 100" style="enable-background:new 0 0 100 100;" xml:space="preserve">
<style type="text/css">
	.st0{fill:none;}
	.st1{fill:#009CE1;}
	.st2{fill:url(#SVGID_1_);stroke:#FFFFFF;stroke-width:0.75;stroke-miterlimit:10;}
</style>
<path id="Rectangle_4702" class="st0" d="M0,0h100v100H0V0z"/>
<path class="st1" d="M49.4,6.9c23.7,0,43,19.3,43,43s-19.3,43-43,43s-43-19.3-43-43S25.6,6.9,49.4,6.9 M49.4,3.9
	c-25.4,0-46,20.6-46,46s20.6,46,46,46s46-20.6,46-46S74.8,3.9,49.4,3.9L49.4,3.9z"/>
<g>
	<path class="st1" d="M75.3,91.4c-1.1,0-2.2-0.5-3-1.3l-24-24l-24,24c-0.8,0.8-1.6,1-2.2,1.1c-0.8,0.3-1.6,0.3-2.4-0.1
		c-0.6-0.3-0.9-0.7-1.2-0.9L14.3,86c-0.8-0.8-1-1.6-1.1-2.2c-0.3-0.9-0.4-2.1,1.1-3.6L38,55.8l-4.7-4.7c-0.4-0.1-0.8-0.4-1.1-0.7
		l-0.1-0.1l-4.5,4.5c-0.5,0.8-1.4,1.3-2.3,1.5C24,56.5,22.6,56,21.6,55L9.7,43c-7.1-7.1-7.1-18.1,0-25.2c3.4-3.4,8.2-5.4,13-5.3
		c4.7,0.1,9.1,2,12.2,5.3l11.5,11.9c0.8,0.5,1.3,1.4,1.4,2.3c0.2,1.3-0.3,2.7-1.3,3.7l-4.7,4.7l0.1,0.1c0.3,0.3,0.5,0.6,0.6,1
		l4.9,4.9L65,29.6c-0.1-0.4-0.1-0.8-0.1-1.2c-7.1-6.6-14.5-12-19-13.7c-0.3-0.1-0.6-0.3-0.9-0.6c-0.7-0.7-1.1-1.3-1.1-2.5v-0.4
		c0-1.4,1.1-2.5,2.5-2.5h0.3c5.4-0.4,10.8,0.7,16,3.3c3.8,1.7,7.9,4.2,11.7,7.2c0.3,0,0.6,0,0.9,0.1c0.5-0.4,1.1-0.7,1.8-0.9
		c1.3-0.2,2.7,0.3,3.7,1.3l4,4c0.8,0.5,1.3,1.4,1.5,2.3c0.2,1.1-0.1,2.2-0.7,3.1c0,0.1-0.1,0.2-0.1,0.3c0.1,0.3,0.1,0.6,0.1,0.9
		c7.1,9,10.9,19.3,10.1,27.8c0,0.8-0.4,1.6-1,2.1c-0.5,0.6-1.3,1-2.2,1h-0.4c-1.3,0-2.4-1.1-2.5-2.4C87.7,54.2,82.5,47,76,40.1
		c-0.4,0-0.7-0.1-1.1-0.1l-17,16.8l6.6,6.6l16.9,17.3c0.8,0.5,1.3,1.4,1.4,2.3c0.2,1.3-0.3,2.7-1.3,3.7l-3.2,3.2
		c-0.5,0.8-1.4,1.3-2.3,1.5C75.8,91.3,75.5,91.4,75.3,91.4z M74.1,87.2L74.1,87.2L74.1,87.2z M48.2,60c0.6,0,1.3,0.2,1.8,0.7
		l25.2,25.2l2.2-2.2L60.9,66.9l-8.3-8.3c-0.5-0.5-0.7-1.1-0.7-1.8s0.3-1.3,0.7-1.8l19.7-19.7c0.8-0.8,1.9-1,2.9-0.5
		c0.3,0.2,0.6,0.2,0.7,0.3c0.9-0.3,2-0.1,2.6,0.6c4.4,4.7,8.3,9.4,11.2,13.7c-1.4-5.6-4.5-11.5-8.9-16.8c-0.5-0.6-0.7-1.4-0.5-2.1
		c-0.3-0.4-0.4-0.9-0.4-1.4c0-0.7,0.3-1.3,0.7-1.8l0.2-0.2c0-0.1,0.1-0.2,0.1-0.2l-3-3L77.7,24c-0.8,0.8-1.9,1-2.9,0.5
		c-0.1-0.1-0.3-0.2-0.5-0.2c-0.8,0.2-1.6,0.1-2.3-0.4c-3.8-3-7.8-5.5-11.6-7.3c-1.5-0.8-3.1-1.4-4.6-1.8c4.2,2.9,8.8,6.7,13.4,11
		c0.8,0.7,1,1.9,0.6,2.8c0.4,0.5,0.6,1,0.6,1.7s-0.3,1.3-0.8,1.8L49.2,51.8c-1,0.9-2.5,0.9-3.5,0l-7.2-7.2c-0.3-0.3-0.5-0.6-0.6-1
		l-1.3-1.3c-1-1-1-2.6,0-3.5l5.8-5.8L31.3,21.3c-2.3-2.4-5.3-3.7-8.7-3.8c-3.5-0.1-6.9,1.3-9.4,3.8c-5.1,5.1-5.1,13,0,18.1
		l11.1,11.1l5.8-5.8c0.5-0.5,1.1-0.7,1.8-0.7l0,0c0.7,0,1.3,0.3,1.8,0.7L35,46c0.4,0.1,0.7,0.3,1,0.6l7.2,7.2c1,1,1,2.5,0,3.5
		L18.4,83l2.9,2.9l25.2-25.2C47,60.2,47.6,60,48.2,60z M78.6,84.8L78.6,84.8L78.6,84.8z M23.2,51.9L23.2,51.9L23.2,51.9z M43.7,34
		L43.7,34L43.7,34z M80.6,29.9L80.6,29.9L80.6,29.9z M80.7,27.9L80.7,27.9L80.7,27.9z M80.7,27.9L80.7,27.9L80.7,27.9z M82,27.9
		L82,27.9L82,27.9z M79,22.6C79,22.6,78.9,22.6,79,22.6C78.9,22.6,79,22.6,79,22.6z"/>
</g>
<linearGradient id="SVGID_1_" gradientUnits="userSpaceOnUse" x1="23.4755" y1="90.2525" x2="67.1669" y2="14.5768">
	<stop  offset="0" style="stop-color:#00035C"/>
	<stop  offset="0.4832" style="stop-color:#004AE6"/>
	<stop  offset="0.9693" style="stop-color:#BC5CFF"/>
</linearGradient>
<path class="st2" d="M82.8,31c0.4-0.8,0-1.5-0.4-1.9l0.4-0.4c0.4-0.4,0.4-0.8,0.4-0.8c0.8-0.8,0.8-1.9,0-2.3L79,21.5
	c-0.8-0.8-1.9-0.8-2.3,0L76,22.2c-0.8-0.4-1.5-0.8-2.3-0.4c-3.8-3-8-5.7-12.1-7.6c-5.3-2.7-10.2-3.4-14.8-3c-0.4,0-0.4,0-0.4,0
	s0,0,0,0.4s0,0.4,0.4,0.8c4.9,1.9,12.9,7.6,20.9,15.2c-0.4,0.8-0.4,1.9,0.4,2.7L47.5,50l-7.2-7.2v-0.4l-0.8-0.8l-1.1-1.1l6.5-6.5
	c0.8-0.8,0.8-1.9,0-2.3L33.1,19.6c-5.7-6.1-15.6-6.1-21.6,0s-6.1,15.6,0,21.6L23.2,53c0.8,0.8,1.9,0.8,2.3,0l6.5-6.5l1.9,1.9
	c0,0,0.4,0.4,0.4,0l7.2,7.2L16,81.8c-0.4,0.4-0.8,0.8-0.4,1.1c0,0.4,0,0.8,0.4,1.1l4.2,4.2c0.4,0.4,0.8,0.8,1.1,0.4
	c0.4,0,0.8,0,1.1-0.4l25.8-25.8l8.4,8.4l17.5,17.5c0.8,0.8,1.9,0.8,2.3,0l0.4-0.4l2.7-2.7l0.4-0.4c0.8-0.8,0.8-1.9,0-2.3L62.7,65.1
	l-8.4-8.4l9.9-9.9l9.9-9.9c0.8,0.4,1.9,0.8,2.7,0.4c7.6,8,13.3,15.9,15.2,20.9c0,0,0,0,0,0.4h0.4c0.4,0,0.4-0.4,0.4-0.4
	c0.4,0,0.4-0.4,0.4-0.4C93.8,50,90,39.7,82.8,31z"/>
<g>
	<path class="st1" d="M88.8,58.4h-83c-0.8,0-1.5-0.7-1.5-1.5s0.7-1.5,1.5-1.5h83c0.8,0,1.5,0.7,1.5,1.5S89.6,58.4,88.8,58.4z"/>
</g>
</svg>
