<?xml version="1.0" encoding="utf-8"?>
<!-- Generator: Adobe Illustrator 25.1.0, SVG Export Plug-In . SVG Version: 6.00 Build 0)  -->
<svg version="1.1" id="ic_empty_contacts" xmlns="http://www.w3.org/2000/svg" xmlns:xlink="http://www.w3.org/1999/xlink" x="0px"
	 y="0px" viewBox="0 0 100 100" style="enable-background:new 0 0 100 100;" xml:space="preserve">
<style type="text/css">
	.st0{fill:none;}
	.st1{fill:#FFFFFF;}
	.st2{fill:#666666;}
	.st3{fill:#D6D6D6;}
	.st4{fill:#B2B1B1;}
	.st5{fill:none;stroke:#666666;stroke-width:4;stroke-miterlimit:10;}
</style>
<path id="Rectangle_4682" class="st0" d="M0,0h100v100H0V0z"/>
<g>
	<g>
		<path class="st1" d="M83.8,11.7h-7c-0.5,0-1,0.5-1,1v15.1c0,0.5,0.5,1,1,1h1.6v3.7c0,0.9,1.2,1.3,1.8,0.7l4.4-4.4
			c0.2-0.2,0.3-0.4,0.3-0.7v-0.4V24V12.7C84.8,12.2,84.3,11.7,83.8,11.7z"/>
		<path class="st2" d="M79.4,34.6c-0.3,0-0.5-0.1-0.8-0.2c-0.8-0.3-1.3-1-1.3-1.8v-2.7h-0.6c-1.1,0-2-0.9-2-2V12.7c0-1.1,0.9-2,2-2
			h7c1.1,0,2,0.9,2,2v15.5c0,0.5-0.2,1-0.6,1.4L80.8,34C80.4,34.4,79.9,34.6,79.4,34.6z M79.3,32.6C79.4,32.6,79.4,32.6,79.3,32.6
			l4.4-4.4V12.7h-7v15.1h1.6c0.6,0,1,0.4,1,1V32.6L79.3,32.6z"/>
	</g>
	<g>
		<path class="st3" d="M83.8,35.3h-7c-0.5,0-1,0.5-1,1v15.1c0,0.5,0.5,1,1,1h1.6v3.7c0,0.9,1.2,1.3,1.8,0.7l4.4-4.4
			c0.2-0.2,0.3-0.4,0.3-0.7v-0.4v-3.7V36.3C84.8,35.8,84.3,35.3,83.8,35.3z"/>
		<path class="st2" d="M79.4,58.2c-0.3,0-0.5-0.1-0.8-0.2c-0.8-0.3-1.3-1-1.3-1.8v-2.7h-0.6c-1.1,0-2-0.9-2-2V36.3c0-1.1,0.9-2,2-2
			h7c1.1,0,2,0.9,2,2v15.5c0,0.5-0.2,1-0.6,1.4l-4.4,4.4C80.4,58,79.9,58.2,79.4,58.2z M79.3,56.2C79.4,56.2,79.4,56.2,79.3,56.2
			l4.4-4.4V36.3h-7v15.1h1.6c0.6,0,1,0.4,1,1V56.2L79.3,56.2z"/>
	</g>
	<g>
		<path class="st4" d="M83.8,58.9h-7c-0.5,0-1,0.5-1,1V75c0,0.5,0.5,1,1,1h1.6v3.7c0,0.9,1.2,1.3,1.8,0.7l4.4-4.4
			c0.2-0.2,0.3-0.4,0.3-0.7V75v-3.7V59.9C84.8,59.3,84.3,58.9,83.8,58.9z"/>
		<path class="st2" d="M79.4,81.8c-0.3,0-0.5-0.1-0.8-0.2c-0.8-0.3-1.3-1-1.3-1.8V77h-0.6c-1.1,0-2-0.9-2-2V59.9c0-1.1,0.9-2,2-2h7
			c1.1,0,2,0.9,2,2v15.5c0,0.5-0.2,1-0.6,1.4l-4.4,4.4C80.4,81.6,79.9,81.8,79.4,81.8z M79.3,79.8C79.4,79.8,79.4,79.8,79.3,79.8
			l4.4-4.4V59.9h-7V75h1.6c0.6,0,1,0.4,1,1V79.8L79.3,79.8z"/>
	</g>
	<g>
		<path class="st1" d="M74.8,91.8h-56c-2,0-3.6-1.6-3.6-3.6V11.7c0-2,1.6-3.6,3.6-3.6h56c2,0,3.6,1.6,3.6,3.6v76.6
			C78.4,90.2,76.8,91.8,74.8,91.8z"/>
		<path class="st2" d="M74.8,92.8h-56c-2.5,0-4.6-2-4.6-4.6V11.7c0-2.5,2-4.6,4.6-4.6h56c2.5,0,4.6,2.1,4.6,4.6v76.6
			C79.4,90.8,77.3,92.8,74.8,92.8z M18.8,9.1c-1.4,0-2.6,1.2-2.6,2.6v76.6c0,1.4,1.2,2.6,2.6,2.6h56c1.4,0,2.6-1.2,2.6-2.6V11.7
			c0-1.4-1.2-2.6-2.6-2.6H18.8z"/>
	</g>
	<path class="st3" d="M18,8.2c-0.9,0.9-1.9,1.9-2.8,2.8v77.7l3.2,3.2h8.8V8.2H18z"/>
	<g>
		<path class="st2" d="M27.2,91.9c-0.6,0-1-0.4-1-1v-82c0-0.6,0.4-1,1-1s1,0.4,1,1V91C28.2,91.5,27.7,91.9,27.2,91.9z"/>
	</g>
	<g>
		<path class="st2" d="M74.8,92.9h-56c-2.5,0-4.6-2.1-4.6-4.6V11.7c0-2.5,2-4.6,4.6-4.6h56c2.5,0,4.6,2,4.6,4.6v76.6
			C79.3,90.8,77.3,92.9,74.8,92.9z M18.8,9.2c-1.4,0-2.6,1.2-2.6,2.6v76.6c0,1.4,1.2,2.6,2.6,2.6h56c1.4,0,2.6-1.2,2.6-2.6V11.7
			c0-1.4-1.2-2.6-2.6-2.6L18.8,9.2L18.8,9.2z"/>
	</g>
</g>
<g>
	<g>
		<ellipse transform="matrix(0.9231 -0.3845 0.3845 0.9231 -9.9174 22.6152)" class="st5" cx="51.6" cy="36.1" rx="7.6" ry="7.6"/>
	</g>
	<g>
		<path class="st5" d="M51.6,46.2L51.6,46.2c-7.7,0-14,6.3-14,14l0,0c0,2,1.6,3.7,3.7,3.7h20.7c2,0,3.7-1.6,3.7-3.7l0,0
			C65.6,52.5,59.3,46.2,51.6,46.2z"/>
	</g>
</g>
<g>
	<g>
		<ellipse transform="matrix(0.9231 -0.3845 0.3845 0.9231 -9.9174 22.6152)" class="st3" cx="51.6" cy="36.1" rx="7.6" ry="7.6"/>
	</g>
	<g>
		<path class="st3" d="M51.6,46.2L51.6,46.2c-7.7,0-14,6.3-14,14l0,0c0,2,1.6,3.7,3.7,3.7h20.7c2,0,3.7-1.6,3.7-3.7l0,0
			C65.6,52.5,59.3,46.2,51.6,46.2z"/>
	</g>
</g>
<g>
	<g>
		<ellipse transform="matrix(0.9231 -0.3845 0.3845 0.9231 -9.9174 22.6152)" class="st3" cx="51.6" cy="36.1" rx="7.6" ry="7.6"/>
	</g>
	<g>
		<path class="st3" d="M51.6,46.2L51.6,46.2c-7.7,0-14,6.3-14,14l0,0c0,2,1.6,3.7,3.7,3.7h20.7c2,0,3.7-1.6,3.7-3.7l0,0
			C65.6,52.5,59.3,46.2,51.6,46.2z"/>
	</g>
</g>
</svg>
