<?xml version="1.0" encoding="utf-8"?>
<!-- Generator: Adobe Illustrator 25.1.0, SVG Export Plug-In . SVG Version: 6.00 Build 0)  -->
<svg version="1.1" id="ic_empty_transactions" xmlns="http://www.w3.org/2000/svg" xmlns:xlink="http://www.w3.org/1999/xlink"
	 x="0px" y="0px" viewBox="0 0 100 100" style="enable-background:new 0 0 100 100;" xml:space="preserve">
<style type="text/css">
	.st0{fill:#D6D6D6;}
	.st1{fill:#FFFFFF;}
	.st2{fill:#666666;}
	.st3{fill:#666666;stroke:#666666;stroke-width:0.5084;stroke-miterlimit:10;}
	.st4{fill:none;}
</style>
<g>
	<g>
		<circle class="st0" cx="50.2" cy="49.6" r="24"/>
		<g>
			<path class="st1" d="M50.2,28.6c11.6,0,21,9.4,21,21s-9.4,21-21,21s-21-9.4-21-21S38.7,28.6,50.2,28.6 M50.2,25.6
				c-13.3,0-24,10.7-24,24c0,13.3,10.7,24,24,24c13.3,0,24-10.7,24-24C74.2,36.3,63.5,25.6,50.2,25.6L50.2,25.6z"/>
		</g>
		<g>
			<path class="st2" d="M50.2,74.6c-13.8,0-25-11.2-25-25s11.2-25,25-25s25,11.2,25,25S64,74.6,50.2,74.6z M50.2,26.6
				c-12.7,0-23,10.3-23,23s10.3,23,23,23s23-10.3,23-23S62.9,26.6,50.2,26.6z"/>
		</g>
		<g>
			<g>
				<path class="st2" d="M16.3,56.6c-0.6,0-1-0.4-1-1V29.1c0-0.1-0.1-0.3-0.3-0.3H9.7c-0.9,0-1.7-0.5-2.1-1.3s-0.2-1.7,0.3-2.4
					L22.5,8.2c0.4-0.5,1-0.8,1.7-0.8c0.6,0,1.3,0.3,1.7,0.8l14.4,16.5c0.6,0.7,0.7,1.6,0.4,2.4c-0.4,0.8-1.2,1.3-2.1,1.3h-8
					c-0.6,0-1-0.4-1-1s0.4-1,1-1h8c0.1,0,0.2-0.1,0.2-0.2s0-0.2,0-0.3L24.4,9.5c-0.1-0.1-0.2-0.1-0.2-0.1c-0.1,0-0.1,0-0.2,0.1
					L9.5,26.4c-0.1,0.1-0.1,0.2,0,0.3c0,0.1,0.1,0.2,0.2,0.2H15c1.2,0,2.3,1,2.3,2.3v26.4C17.3,56.2,16.9,56.6,16.3,56.6z"/>
			</g>
			<g>
				<path class="st0" d="M24.2,23.3h-6.7c-0.3,0-0.4-0.3-0.2-0.5l6.7-7.9c0.1-0.1,0.4-0.1,0.5,0l6.7,7.9c0.2,0.2,0,0.5-0.2,0.5H24.2
					z"/>
			</g>
		</g>
		<g>
			<g>
				<path class="st2" d="M83.5,43c0.6,0,1,0.4,1,1v26.5c0,0.1,0.1,0.3,0.3,0.3h5.3c0.9,0,1.7,0.5,2.1,1.3s0.2,1.7-0.3,2.4L77.3,91.4
					c-0.4,0.5-1,0.8-1.7,0.8c-0.6,0-1.3-0.3-1.7-0.8L59.5,74.9c-0.6-0.7-0.7-1.6-0.4-2.4c0.4-0.8,1.2-1.3,2.1-1.3h8c0.6,0,1,0.4,1,1
					s-0.4,1-1,1h-8c-0.1,0-0.2,0.1-0.2,0.2s0,0.2,0,0.3l14.4,16.4c0.1,0.1,0.2,0.1,0.2,0.1c0.1,0,0.1,0,0.2-0.1l14.5-16.9
					c0.1-0.1,0.1-0.2,0-0.3c0-0.1-0.1-0.2-0.2-0.2h-5.3c-1.2,0-2.3-1-2.3-2.3V44C82.5,43.4,82.9,43,83.5,43z"/>
			</g>
			<g>
				<path class="st0" d="M75.6,76.3h6.7c0.3,0,0.4,0.3,0.2,0.5l-6.7,7.9c-0.1,0.1-0.4,0.1-0.5,0l-6.7-7.9c-0.2-0.2,0-0.5,0.2-0.5
					H75.6z"/>
			</g>
		</g>
	</g>
	<g>
		<g>
			<g>
				<g>
					<g>
						<path class="st3" d="M50.3,61.8c-2.8,0-5.5-1.1-7.6-2.9c-2.1-1.8-3.5-4.4-3.9-7.2c-0.1-0.3,0.2-0.7,0.5-0.7
							c0.3-0.1,0.7,0.2,0.7,0.5c0.4,2.5,1.6,4.8,3.5,6.4c1.9,1.6,4.3,2.6,6.8,2.6c5.7,0,10.4-4.8,10.4-10.7S56.1,39,50.3,39
							c-5.3,0-9.7,4.1-10.3,9.5c0,0.3-0.3,0.6-0.7,0.6c-0.3,0-0.6-0.3-0.6-0.7c0.7-6.1,5.6-10.6,11.5-10.6c6.4,0,11.6,5.4,11.6,11.9
							C61.9,56.4,56.7,61.8,50.3,61.8z"/>
					</g>
					<g>
						<path class="st3" d="M50.4,58.2c-2.1,0-4.1-0.9-5.7-2.5c-1.5-1.5-2.4-3.6-2.4-5.8c0-2.2,0.8-4.4,2.4-5.9
							c1.5-1.6,3.5-2.4,5.7-2.4c2.1,0,4,0.8,5.5,2.4c0.7,0.7,1.2,1.4,1.6,2.3c0.2,0.3,0,0.7-0.3,0.9c-0.3,0.2-0.7,0-0.9-0.3
							c-0.3-0.7-0.7-1.4-1.3-2c-1.2-1.3-2.9-2-4.5-2c-1.8,0-3.5,0.7-4.7,2c-1.2,1.3-2,3.1-2,5s0.7,3.7,2,4.9
							c1.3,1.3,2.9,2.1,4.7,2.1c1.6,0,3.3-0.7,4.5-2.1c0.7-0.7,1.3-1.7,1.6-2.8c0.1-0.3,0.5-0.6,0.8-0.4c0.3,0.1,0.6,0.5,0.4,0.8
							c-0.4,1.2-1.1,2.4-2,3.3C54.4,57.3,52.4,58.2,50.4,58.2z"/>
					</g>
				</g>
			</g>
		</g>
		<g>
			<g>
				<path class="st3" d="M36.6,55.5c1.1,2.6,2.8,4.7,5.1,6.3c2.5,1.7,5.4,2.6,8.4,2.6c2.3,0,4.6-0.6,6.6-1.6
					c0.2,0.2,0.4,0.2,0.6,0.1c0.2-0.2,0.3-0.5,0.2-0.7c-0.2-0.2-0.5-0.3-0.7-0.2c-0.2,0.1-0.2,0.3-0.2,0.5c-2,1-4.2,1.6-6.4,1.6
					c-3,0-5.8-0.9-8.2-2.6c-2.2-1.6-4-3.6-4.9-6.1c0.2-0.2,0.2-0.3,0.2-0.6c-0.1-0.2-0.4-0.4-0.7-0.3s-0.4,0.4-0.3,0.7
					C36.2,55.4,36.4,55.5,36.6,55.5z"/>
				<path class="st3" d="M64.5,45.6c-0.1-0.2-0.2-0.3-0.5-0.4c-0.9-2.8-2.7-5.3-5-7.1c-2.6-2-5.6-3-8.9-3c-2.8,0-5.5,0.8-7.8,2.3
					c-2.1,1.3-3.9,3.2-5.1,5.4c-0.2,0-0.4,0.1-0.5,0.2c-0.2,0.2,0,0.6,0.2,0.7c0.2,0.2,0.6,0,0.7-0.2c0.1-0.2,0.1-0.4-0.1-0.6
					c1.2-2.1,2.9-4,4.9-5.3c2.3-1.5,4.9-2.2,7.7-2.2c3.1,0,6.1,1,8.7,2.9c2.3,1.7,4,4.1,4.9,6.8c-0.2,0.2-0.2,0.3-0.2,0.6
					c0.1,0.2,0.3,0.4,0.7,0.3C64.4,46,64.5,45.8,64.5,45.6z"/>
				<path class="st3" d="M55.3,66.1c0.2-0.1,0.4-0.4,0.3-0.7c-0.1-0.2-0.4-0.4-0.7-0.3c-0.2,0.1-0.3,0.2-0.3,0.4
					c-1.4,0.4-2.9,0.6-4.4,0.6c-4.3,0-8.3-1.6-11.5-4.6c-3-2.9-4.7-6.7-4.9-10.8c0.2-0.1,0.3-0.2,0.3-0.5c0-0.2-0.2-0.5-0.5-0.5
					s-0.5,0.2-0.5,0.5s0.2,0.4,0.3,0.5c0.2,4.2,2.1,8.1,5,11c3.1,3,7.3,4.8,11.7,4.8c1.6,0,3-0.2,4.5-0.6
					C54.9,66.1,55.1,66.1,55.3,66.1z"/>
				<path class="st3" d="M61,36.8c0.1-0.2,0-0.4-0.2-0.6c-0.2-0.2-0.6-0.2-0.7,0.1c-0.2,0.2-0.2,0.6,0.1,0.7
					c0.2,0.2,0.4,0.2,0.6,0.1c3.8,3.1,5.9,7.7,5.9,12.6c0,1.8-0.2,3.5-0.8,5.2c-0.2,0-0.4,0.2-0.5,0.3c-0.1,0.2,0,0.6,0.3,0.7
					c0.2,0.1,0.6,0,0.7-0.3c0.1-0.2,0-0.4-0.2-0.6c0.6-1.7,0.8-3.5,0.8-5.3C67.1,44.7,64.9,40,61,36.8z"/>
				<path class="st3" d="M50.3,33.4c1.6,0,3,0.2,4.5,0.7c0,0.2,0.2,0.4,0.3,0.4c0.2,0.1,0.6-0.1,0.7-0.3c0.1-0.2-0.1-0.6-0.3-0.7
					s-0.4,0-0.6,0.2c-1.5-0.4-3-0.7-4.7-0.7c-5.4,0-10.5,2.6-13.7,7c-0.2,0-0.4,0-0.6,0.2c0,0.2,0.1,0.6,0.3,0.7
					c0.2,0.2,0.6,0.2,0.7-0.1c0.1-0.2,0.1-0.4,0-0.6C40.1,35.9,45,33.4,50.3,33.4z"/>
				<path class="st3" d="M45.3,32c0.2-0.1,0.3-0.2,0.3-0.4c1.5-0.4,3-0.6,4.6-0.6c8.3,0,15.7,5.5,18,13.3c-0.2,0.2-0.2,0.3-0.2,0.6
					c0.1,0.2,0.3,0.4,0.7,0.3c0.2-0.1,0.4-0.3,0.3-0.7c-0.1-0.2-0.2-0.3-0.4-0.4c-2.4-8.1-9.9-13.7-18.4-13.7
					c-1.6,0-3.2,0.2-4.7,0.6c-0.2-0.2-0.3-0.2-0.6-0.2c-0.2,0.1-0.4,0.3-0.3,0.7C44.8,31.9,45,32,45.3,32z"/>
				<path class="st3" d="M32.2,54.9c-0.5-1.6-0.7-3.4-0.7-5.2c0-6.2,3-11.9,8.2-15.5c0.2,0.1,0.4,0.2,0.6,0c0.2-0.2,0.3-0.5,0.2-0.7
					c-0.2-0.2-0.5-0.3-0.7-0.2c-0.2,0.1-0.2,0.3-0.2,0.5c-5.2,3.7-8.3,9.6-8.3,15.9c0,1.8,0.2,3.5,0.7,5.3c-0.2,0.2-0.2,0.3-0.2,0.6
					c0.1,0.2,0.4,0.4,0.7,0.3c0.2-0.1,0.4-0.4,0.3-0.7C32.7,55.1,32.4,54.9,32.2,54.9z"/>
				<path class="st3" d="M48,68c-0.2,0-0.4,0.1-0.5,0.2c-2.7-0.4-5.3-1.4-7.6-3c-2.2-1.5-4.1-3.5-5.5-5.8c0.2-0.2,0.2-0.4,0-0.6
					c-0.2-0.2-0.5-0.3-0.7-0.2c-0.2,0.2-0.3,0.5-0.2,0.7c0.1,0.2,0.3,0.2,0.5,0.2c1.4,2.3,3.4,4.4,5.7,5.8c2.3,1.6,5,2.6,7.7,3
					c0.1,0.2,0.2,0.3,0.4,0.4c0.2,0,0.6-0.2,0.6-0.4C48.5,68.4,48.2,68,48,68z"/>
				<path class="st3" d="M69.2,49.8c-0.2,0-0.5,0.2-0.5,0.5s0.1,0.4,0.3,0.5c-0.2,4.1-1.8,8.1-4.4,11.2c-2.6,3.1-6.3,5.3-10.2,6.1
					c-0.1-0.2-0.3-0.2-0.5-0.2c-0.2,0.1-0.5,0.3-0.4,0.6c0.1,0.2,0.3,0.5,0.6,0.4c0.2,0,0.4-0.2,0.4-0.4c4-0.9,7.7-3.1,10.5-6.3
					c2.7-3.2,4.4-7.3,4.5-11.5c0.2-0.1,0.3-0.2,0.3-0.5C69.8,50,69.6,49.8,69.2,49.8z"/>
			</g>
		</g>
	</g>
</g>
<path id="Rectangle_4668" class="st4" d="M0,0h100v100H0V0z"/>
</svg>
