<?xml version="1.0" encoding="utf-8"?>
<!-- Generator: Adobe Illustrator 25.1.0, SVG Export Plug-In . SVG Version: 6.00 Build 0)  -->
<svg version="1.1" id="Group_9058" xmlns="http://www.w3.org/2000/svg" xmlns:xlink="http://www.w3.org/1999/xlink" x="0px" y="0px"
	 viewBox="0 0 100 100" style="enable-background:new 0 0 100 100;" xml:space="preserve">
<style type="text/css">
	.st0{fill:none;}
	.st1{fill:#FFFFFF;}
	.st2{fill:#009CE1;}
	.st3{fill:#EC2A7B;}
	.st4{fill:url(#SVGID_1_);}
	.st5{fill:url(#SVGID_2_);}
	.st6{fill:#12D6DF;}
	.st7{fill:url(#SVGID_3_);stroke:#FFFFFF;stroke-width:0.5;stroke-miterlimit:10;}
	.st8{fill:url(#SVGID_4_);stroke:#FFFFFF;stroke-width:0.5;stroke-miterlimit:10;}
</style>
<path id="Rectangle_4682" class="st0" d="M0,0h100v100H0V0z"/>
<g>
	<g>
		<g>
			<path class="st1" d="M83.8,11.7h-7c-0.5,0-1,0.5-1,1v15.1c0,0.5,0.5,1,1,1h1.6v3.7c0,0.9,1.2,1.3,1.8,0.7l4.4-4.4
				c0.2-0.2,0.3-0.4,0.3-0.7v-0.4V24V12.7C84.8,12.2,84.3,11.7,83.8,11.7z"/>
		</g>
		<g>
			<path class="st2" d="M79.4,34.6c-0.3,0-0.5-0.1-0.8-0.2c-0.8-0.3-1.3-1-1.3-1.8v-2.7h-0.6c-1.1,0-2-0.9-2-2V12.7c0-1.1,0.9-2,2-2
				h7c1.1,0,2,0.9,2,2v15.5c0,0.5-0.2,1-0.6,1.4L80.8,34C80.4,34.4,79.9,34.6,79.4,34.6z M79.3,32.6C79.4,32.6,79.4,32.6,79.3,32.6
				l4.4-4.4V12.7h-7v15.1h1.6c0.6,0,1,0.4,1,1V32.6L79.3,32.6z"/>
		</g>
	</g>
	<g>
		<g>
			<path class="st3" d="M83.8,35.3h-7c-0.5,0-1,0.5-1,1v15.1c0,0.5,0.5,1,1,1h1.6v3.7c0,0.9,1.2,1.3,1.8,0.7l4.4-4.4
				c0.2-0.2,0.3-0.4,0.3-0.7v-0.4v-3.7V36.3C84.8,35.8,84.3,35.3,83.8,35.3z"/>
		</g>
		<g>
			<path class="st2" d="M79.4,58.2c-0.3,0-0.5-0.1-0.8-0.2c-0.8-0.3-1.3-1-1.3-1.8v-2.7h-0.6c-1.1,0-2-0.9-2-2V36.3c0-1.1,0.9-2,2-2
				h7c1.1,0,2,0.9,2,2v15.5c0,0.5-0.2,1-0.6,1.4l-4.4,4.4C80.4,58,79.9,58.2,79.4,58.2z M79.3,56.2C79.4,56.2,79.4,56.2,79.3,56.2
				l4.4-4.4V36.3h-7v15.1h1.6c0.6,0,1,0.4,1,1V56.2L79.3,56.2z"/>
		</g>
	</g>
	<g>
		<g>
			<path class="st3" d="M83.8,58.9h-7c-0.5,0-1,0.5-1,1V75c0,0.5,0.5,1,1,1h1.6v3.7c0,0.9,1.2,1.3,1.8,0.7l4.4-4.4
				c0.2-0.2,0.3-0.4,0.3-0.7V75v-3.7V59.9C84.8,59.3,84.3,58.9,83.8,58.9z"/>
		</g>
		<g>
			<path class="st2" d="M79.4,81.8c-0.3,0-0.5-0.1-0.8-0.2c-0.8-0.3-1.3-1-1.3-1.8V77h-0.6c-1.1,0-2-0.9-2-2V59.9c0-1.1,0.9-2,2-2h7
				c1.1,0,2,0.9,2,2v15.5c0,0.5-0.2,1-0.6,1.4l-4.4,4.4C80.4,81.6,79.9,81.8,79.4,81.8z M79.3,79.8C79.4,79.8,79.4,79.8,79.3,79.8
				l4.4-4.4V59.9h-7V75h1.6c0.6,0,1,0.4,1,1V79.8L79.3,79.8z"/>
		</g>
	</g>
	<g>
		<g>
			<path class="st1" d="M74.8,91.8h-56c-2,0-3.6-1.6-3.6-3.6V11.7c0-2,1.6-3.6,3.6-3.6h56c2,0,3.6,1.6,3.6,3.6v76.6
				C78.4,90.2,76.8,91.8,74.8,91.8z"/>
		</g>
		<g>
			
				<linearGradient id="SVGID_1_" gradientUnits="userSpaceOnUse" x1="14.2" y1="52.05" x2="79.4" y2="52.05" gradientTransform="matrix(1 0 0 -1 0 102)">
				<stop  offset="0" style="stop-color:#12D6DF"/>
				<stop  offset="1" style="stop-color:#F70FFF"/>
			</linearGradient>
			<path class="st4" d="M74.8,92.8h-56c-2.5,0-4.6-2-4.6-4.6V11.7c0-2.5,2-4.6,4.6-4.6h56c2.5,0,4.6,2.1,4.6,4.6v76.6
				C79.4,90.8,77.3,92.8,74.8,92.8z M18.8,9.1c-1.4,0-2.6,1.2-2.6,2.6v76.6c0,1.4,1.2,2.6,2.6,2.6h56c1.4,0,2.6-1.2,2.6-2.6V11.7
				c0-1.4-1.2-2.6-2.6-2.6H18.8z"/>
		</g>
	</g>
	<g>
		<linearGradient id="SVGID_2_" gradientUnits="userSpaceOnUse" x1="2.9846" y1="82.9999" x2="41.4278" y2="16.4144">
			<stop  offset="0" style="stop-color:#00035C"/>
			<stop  offset="0.4832" style="stop-color:#004AE6"/>
			<stop  offset="0.9693" style="stop-color:#BC5CFF"/>
		</linearGradient>
		<path class="st5" d="M18,8.2c-0.9,0.9-1.9,1.9-2.8,2.8v77.7l3.2,3.2h8.8V8.2H18z"/>
	</g>
	<g>
		<g>
			<path class="st2" d="M27.2,91.9c-0.6,0-1-0.4-1-1v-82c0-0.6,0.4-1,1-1s1,0.4,1,1V91C28.2,91.5,27.7,91.9,27.2,91.9z"/>
		</g>
	</g>
	<g>
		<g>
			<path class="st2" d="M74.8,92.9h-56c-2.5,0-4.6-2.1-4.6-4.6V11.7c0-2.5,2-4.6,4.6-4.6h56c2.5,0,4.6,2,4.6,4.6v76.6
				C79.3,90.8,77.3,92.9,74.8,92.9z M18.8,9.2c-1.4,0-2.6,1.2-2.6,2.6v76.6c0,1.4,1.2,2.6,2.6,2.6h56c1.4,0,2.6-1.2,2.6-2.6V11.7
				c0-1.4-1.2-2.6-2.6-2.6L18.8,9.2L18.8,9.2z"/>
		</g>
	</g>
</g>
<g>
	<g>
		<g>
			<path class="st2" d="M51.6,45.7c-5.3,0-9.6-4.3-9.6-9.6s4.3-9.6,9.6-9.6s9.6,4.3,9.6,9.6C61.2,41.4,56.9,45.7,51.6,45.7z
				 M51.6,30.6c-3.1,0-5.6,2.5-5.6,5.6c0,3.1,2.5,5.6,5.6,5.6s5.6-2.5,5.6-5.6C57.2,33.1,54.7,30.6,51.6,30.6z"/>
		</g>
	</g>
	<g>
		<g>
			<path class="st2" d="M61.9,65.9H41.3c-3.1,0-5.7-2.5-5.7-5.7c0-8.8,7.2-16,16-16s16,7.2,16,16C67.6,63.4,65.1,65.9,61.9,65.9z
				 M51.6,48.3c-6.6,0-12,5.4-12,12c0,0.9,0.8,1.7,1.7,1.7H62c0.9,0,1.7-0.8,1.7-1.7C63.6,53.6,58.2,48.3,51.6,48.3z"/>
		</g>
	</g>
</g>
<g>
	<g>
		<g>
			<ellipse class="st6" cx="51.6" cy="36.1" rx="7.6" ry="7.6"/>
		</g>
	</g>
	<g>
		<g>
			<path class="st6" d="M51.6,46.2L51.6,46.2c-7.7,0-14,6.3-14,14l0,0c0,2,1.6,3.7,3.7,3.7H62c2,0,3.7-1.6,3.7-3.7l0,0
				C65.6,52.5,59.3,46.2,51.6,46.2z"/>
		</g>
	</g>
</g>
<g>
	<g>
		<g>
			<linearGradient id="SVGID_3_" gradientUnits="userSpaceOnUse" x1="47.7949" y1="42.6809" x2="55.3951" y2="29.5169">
				<stop  offset="0" style="stop-color:#00035C"/>
				<stop  offset="0.4832" style="stop-color:#004AE6"/>
				<stop  offset="0.9693" style="stop-color:#BC5CFF"/>
			</linearGradient>
			<ellipse class="st7" cx="51.6" cy="36.1" rx="7.6" ry="7.6"/>
		</g>
	</g>
	<g>
		<g>
			<linearGradient id="SVGID_4_" gradientUnits="userSpaceOnUse" x1="46.6193" y1="67.5493" x2="58.0423" y2="47.7641">
				<stop  offset="0" style="stop-color:#00035C"/>
				<stop  offset="0.4832" style="stop-color:#004AE6"/>
				<stop  offset="0.9693" style="stop-color:#BC5CFF"/>
			</linearGradient>
			<path class="st8" d="M51.6,46.2L51.6,46.2c-7.7,0-14,6.3-14,14l0,0c0,2,1.6,3.7,3.7,3.7H62c2,0,3.7-1.6,3.7-3.7l0,0
				C65.6,52.5,59.3,46.2,51.6,46.2z"/>
		</g>
	</g>
</g>
</svg>
