<?xml version="1.0" encoding="utf-8"?>
<!-- Generator: Adobe Illustrator 25.1.0, SVG Export Plug-In . SVG Version: 6.00 Build 0)  -->
<svg version="1.1" id="Layer_1" xmlns="http://www.w3.org/2000/svg" xmlns:xlink="http://www.w3.org/1999/xlink" x="0px" y="0px"
	 viewBox="0 0 49 60" style="enable-background:new 0 0 49 60;" xml:space="preserve">
<style type="text/css">
	.st0{fill:#FFFFFF;stroke:#FFFFFF;stroke-width:0.6171;stroke-miterlimit:10;}
</style>
<g>
	<g>
		<g>
			<g>
				<g>
					<path class="st0" d="M24.3,44.5c-3.4,0-6.7-1.3-9.2-3.5c-2.5-2.2-4.2-5.3-4.7-8.7c-0.1-0.4,0.2-0.8,0.6-0.9
						c0.4-0.1,0.8,0.2,0.9,0.6c0.5,3,2,5.8,4.2,7.8c2.3,2,5.2,3.1,8.2,3.1c6.9,0,12.6-5.8,12.6-13c0-7.2-5.6-13-12.6-13
						c-6.4,0-11.8,5-12.5,11.5c0,0.4-0.4,0.7-0.9,0.7c-0.4,0-0.7-0.4-0.7-0.9c0.8-7.4,6.8-12.9,14-12.9c7.8,0,14.1,6.5,14.1,14.5
						C38.4,38,32.1,44.5,24.3,44.5z"/>
				</g>
				<g>
					<path class="st0" d="M24.4,40.2c-2.6,0-5-1.1-6.9-3c-1.8-1.8-2.9-4.4-2.9-7.1c0-2.7,1-5.3,2.9-7.2c1.8-1.9,4.2-2.9,6.9-2.9
						c2.5,0,4.9,1,6.7,2.9c0.8,0.8,1.4,1.7,1.9,2.8c0.2,0.4,0,0.9-0.4,1.1c-0.4,0.2-0.9,0-1.1-0.4c-0.4-0.9-0.9-1.7-1.6-2.4
						c-1.5-1.6-3.5-2.4-5.5-2.4c-2.2,0-4.2,0.8-5.7,2.4c-1.5,1.6-2.4,3.8-2.4,6.1c0,2.3,0.9,4.5,2.4,6c1.6,1.6,3.5,2.5,5.7,2.5
						c2,0,4-0.9,5.5-2.5c0.9-0.9,1.6-2.1,2-3.4c0.1-0.4,0.6-0.7,1-0.5c0.4,0.1,0.7,0.6,0.5,1c-0.5,1.5-1.3,2.9-2.4,4
						C29.3,39.1,26.9,40.2,24.4,40.2z"/>
				</g>
			</g>
		</g>
	</g>
	<g>
		<g>
			<path class="st0" d="M7.7,36.9c1.3,3.1,3.4,5.7,6.2,7.6c3,2.1,6.5,3.2,10.2,3.2c2.8,0,5.6-0.7,8-1.9c0.2,0.2,0.5,0.2,0.7,0.1
				c0.3-0.2,0.4-0.6,0.2-0.9c-0.2-0.3-0.6-0.4-0.9-0.2c-0.2,0.1-0.3,0.4-0.3,0.6c-2.4,1.2-5.1,1.9-7.8,1.9c-3.6,0-7-1.1-9.9-3.1
				c-2.7-1.9-4.8-4.4-6-7.4c0.2-0.2,0.2-0.4,0.2-0.7c-0.1-0.3-0.5-0.5-0.8-0.4c-0.3,0.1-0.5,0.5-0.4,0.8C7.2,36.7,7.5,36.9,7.7,36.9
				z"/>
			<path class="st0" d="M41.5,24.8c-0.1-0.3-0.3-0.4-0.6-0.5c-1.1-3.4-3.3-6.4-6.1-8.6c-3.1-2.4-6.8-3.6-10.8-3.6
				c-3.4,0-6.7,1-9.5,2.8c-2.6,1.6-4.7,3.9-6.2,6.6c-0.2,0-0.5,0.1-0.6,0.3c-0.2,0.3,0,0.7,0.3,0.8c0.3,0.2,0.7,0,0.8-0.3
				c0.1-0.2,0.1-0.5-0.1-0.7c1.4-2.6,3.5-4.8,6-6.4c2.8-1.8,6-2.7,9.3-2.7c3.8,0,7.4,1.2,10.5,3.5c2.8,2.1,4.9,5,6,8.3
				c-0.2,0.2-0.3,0.4-0.2,0.7c0.1,0.3,0.4,0.5,0.8,0.4C41.4,25.4,41.6,25.1,41.5,24.8z"/>
			<path class="st0" d="M30.4,49.8c0.3-0.1,0.5-0.5,0.4-0.8c-0.1-0.3-0.5-0.5-0.8-0.4c-0.2,0.1-0.4,0.3-0.4,0.5
				c-1.7,0.5-3.5,0.7-5.3,0.7c-5.2,0-10.1-2-13.9-5.6c-3.6-3.5-5.7-8.1-6-13.1c0.2-0.1,0.4-0.3,0.4-0.6c0-0.3-0.3-0.6-0.6-0.6
				c-0.3,0-0.6,0.3-0.6,0.6c0,0.3,0.2,0.5,0.4,0.6c0.3,5.1,2.5,9.8,6.1,13.4c3.8,3.7,8.9,5.8,14.2,5.8c1.9,0,3.7-0.2,5.5-0.7
				C29.9,49.7,30.2,49.8,30.4,49.8z"/>
			<path class="st0" d="M37.3,14.2c0.1-0.2,0-0.5-0.2-0.7c-0.3-0.2-0.7-0.2-0.9,0.1c-0.2,0.3-0.2,0.7,0.1,0.9
				c0.2,0.2,0.5,0.2,0.7,0.1c4.6,3.8,7.2,9.3,7.2,15.3c0,2.2-0.3,4.3-1,6.3c-0.2,0-0.5,0.2-0.6,0.4c-0.1,0.3,0,0.7,0.4,0.8
				c0.3,0.1,0.7,0,0.8-0.4c0.1-0.3,0-0.5-0.2-0.7c0.7-2.1,1-4.2,1-6.4C44.7,23.8,42,18.1,37.3,14.2z"/>
			<path class="st0" d="M24.3,10c1.9,0,3.7,0.3,5.5,0.8c0,0.2,0.2,0.5,0.4,0.5c0.3,0.1,0.7-0.1,0.8-0.4c0.1-0.3-0.1-0.7-0.4-0.8
				c-0.3-0.1-0.5,0-0.7,0.2c-1.8-0.5-3.7-0.8-5.7-0.8c-6.6,0-12.7,3.2-16.6,8.5c-0.2,0-0.5,0-0.7,0.3C6.9,18.6,7,19,7.3,19.1
				C7.6,19.3,8,19.3,8.1,19c0.1-0.2,0.1-0.5,0-0.7C11.9,13.1,17.9,10,24.3,10z"/>
			<path class="st0" d="M18.2,8.3c0.2-0.1,0.4-0.3,0.4-0.5c1.8-0.5,3.7-0.7,5.6-0.7c10.1,0,19,6.7,21.8,16.2
				c-0.2,0.2-0.3,0.4-0.2,0.7c0.1,0.3,0.4,0.5,0.8,0.4c0.3-0.1,0.5-0.4,0.4-0.8c-0.1-0.3-0.3-0.4-0.5-0.5
				c-2.9-9.8-12-16.6-22.3-16.6c-1.9,0-3.9,0.2-5.7,0.7c-0.2-0.2-0.4-0.3-0.7-0.2c-0.3,0.1-0.5,0.4-0.4,0.8
				C17.6,8.2,17.9,8.4,18.2,8.3z"/>
			<path class="st0" d="M2.4,36.2c-0.6-2-0.9-4.1-0.9-6.3c0-7.5,3.7-14.5,9.9-18.8c0.2,0.1,0.5,0.2,0.7,0c0.3-0.2,0.4-0.6,0.2-0.9
				c-0.2-0.3-0.6-0.4-0.9-0.2c-0.2,0.1-0.3,0.4-0.3,0.6C4.8,15.1,1,22.2,1,29.9c0,2.2,0.3,4.3,0.9,6.4c-0.2,0.2-0.3,0.4-0.2,0.7
				c0.1,0.3,0.5,0.5,0.8,0.4c0.3-0.1,0.5-0.5,0.4-0.8C2.9,36.4,2.6,36.2,2.4,36.2z"/>
			<path class="st0" d="M21.5,52.1c-0.3,0-0.5,0.1-0.6,0.3c-3.3-0.5-6.4-1.7-9.2-3.6c-2.7-1.8-5-4.2-6.7-7c0.2-0.2,0.2-0.5,0-0.7
				c-0.2-0.3-0.6-0.4-0.9-0.2c-0.3,0.2-0.4,0.6-0.2,0.9c0.1,0.2,0.4,0.3,0.6,0.3c1.7,2.8,4.1,5.3,6.9,7.1c2.8,1.9,6.1,3.1,9.4,3.6
				c0.1,0.2,0.3,0.4,0.5,0.5c0.3,0,0.7-0.2,0.7-0.5C22.1,52.5,21.8,52.1,21.5,52.1z"/>
			<path class="st0" d="M47.3,29.9c-0.3,0-0.6,0.3-0.6,0.6c0,0.3,0.1,0.5,0.4,0.6c-0.3,5-2.2,9.8-5.4,13.6
				c-3.2,3.8-7.6,6.4-12.4,7.4c-0.1-0.2-0.4-0.3-0.6-0.3c-0.3,0.1-0.6,0.4-0.5,0.7c0.1,0.3,0.4,0.6,0.7,0.5c0.3,0,0.5-0.3,0.5-0.5
				c4.9-1.1,9.4-3.8,12.7-7.6c3.3-3.9,5.3-8.8,5.5-13.9c0.2-0.1,0.4-0.3,0.4-0.6C48,30.2,47.7,29.9,47.3,29.9z"/>
		</g>
	</g>
</g>
</svg>
